G75*
G70*
%OFA0B0*%
%FSLAX24Y24*%
%IPPOS*%
%LPD*%
%AMOC8*
5,1,8,0,0,1.08239X$1,22.5*
%
%ADD10C,0.0000*%
D10*
X002330Y000480D02*
X058322Y000480D01*
X060322Y002480D01*
X060322Y038500D01*
X058322Y040500D01*
X002330Y040500D01*
X000330Y038500D01*
X000330Y002480D01*
X002330Y000480D01*
X002141Y002980D02*
X002143Y003032D01*
X002149Y003084D01*
X002159Y003135D01*
X002172Y003185D01*
X002190Y003235D01*
X002211Y003282D01*
X002235Y003328D01*
X002264Y003372D01*
X002295Y003414D01*
X002329Y003453D01*
X002366Y003490D01*
X002406Y003523D01*
X002449Y003554D01*
X002493Y003581D01*
X002539Y003605D01*
X002588Y003625D01*
X002637Y003641D01*
X002688Y003654D01*
X002739Y003663D01*
X002791Y003668D01*
X002843Y003669D01*
X002895Y003666D01*
X002947Y003659D01*
X002998Y003648D01*
X003048Y003634D01*
X003097Y003615D01*
X003144Y003593D01*
X003189Y003568D01*
X003233Y003539D01*
X003274Y003507D01*
X003313Y003472D01*
X003348Y003434D01*
X003381Y003393D01*
X003411Y003351D01*
X003437Y003306D01*
X003460Y003259D01*
X003479Y003210D01*
X003495Y003160D01*
X003507Y003110D01*
X003515Y003058D01*
X003519Y003006D01*
X003519Y002954D01*
X003515Y002902D01*
X003507Y002850D01*
X003495Y002800D01*
X003479Y002750D01*
X003460Y002701D01*
X003437Y002654D01*
X003411Y002609D01*
X003381Y002567D01*
X003348Y002526D01*
X003313Y002488D01*
X003274Y002453D01*
X003233Y002421D01*
X003189Y002392D01*
X003144Y002367D01*
X003097Y002345D01*
X003048Y002326D01*
X002998Y002312D01*
X002947Y002301D01*
X002895Y002294D01*
X002843Y002291D01*
X002791Y002292D01*
X002739Y002297D01*
X002688Y002306D01*
X002637Y002319D01*
X002588Y002335D01*
X002539Y002355D01*
X002493Y002379D01*
X002449Y002406D01*
X002406Y002437D01*
X002366Y002470D01*
X002329Y002507D01*
X002295Y002546D01*
X002264Y002588D01*
X002235Y002632D01*
X002211Y002678D01*
X002190Y002725D01*
X002172Y002775D01*
X002159Y002825D01*
X002149Y002876D01*
X002143Y002928D01*
X002141Y002980D01*
X029641Y002980D02*
X029643Y003032D01*
X029649Y003084D01*
X029659Y003135D01*
X029672Y003185D01*
X029690Y003235D01*
X029711Y003282D01*
X029735Y003328D01*
X029764Y003372D01*
X029795Y003414D01*
X029829Y003453D01*
X029866Y003490D01*
X029906Y003523D01*
X029949Y003554D01*
X029993Y003581D01*
X030039Y003605D01*
X030088Y003625D01*
X030137Y003641D01*
X030188Y003654D01*
X030239Y003663D01*
X030291Y003668D01*
X030343Y003669D01*
X030395Y003666D01*
X030447Y003659D01*
X030498Y003648D01*
X030548Y003634D01*
X030597Y003615D01*
X030644Y003593D01*
X030689Y003568D01*
X030733Y003539D01*
X030774Y003507D01*
X030813Y003472D01*
X030848Y003434D01*
X030881Y003393D01*
X030911Y003351D01*
X030937Y003306D01*
X030960Y003259D01*
X030979Y003210D01*
X030995Y003160D01*
X031007Y003110D01*
X031015Y003058D01*
X031019Y003006D01*
X031019Y002954D01*
X031015Y002902D01*
X031007Y002850D01*
X030995Y002800D01*
X030979Y002750D01*
X030960Y002701D01*
X030937Y002654D01*
X030911Y002609D01*
X030881Y002567D01*
X030848Y002526D01*
X030813Y002488D01*
X030774Y002453D01*
X030733Y002421D01*
X030689Y002392D01*
X030644Y002367D01*
X030597Y002345D01*
X030548Y002326D01*
X030498Y002312D01*
X030447Y002301D01*
X030395Y002294D01*
X030343Y002291D01*
X030291Y002292D01*
X030239Y002297D01*
X030188Y002306D01*
X030137Y002319D01*
X030088Y002335D01*
X030039Y002355D01*
X029993Y002379D01*
X029949Y002406D01*
X029906Y002437D01*
X029866Y002470D01*
X029829Y002507D01*
X029795Y002546D01*
X029764Y002588D01*
X029735Y002632D01*
X029711Y002678D01*
X029690Y002725D01*
X029672Y002775D01*
X029659Y002825D01*
X029649Y002876D01*
X029643Y002928D01*
X029641Y002980D01*
X033855Y006963D02*
X033857Y006991D01*
X033863Y007018D01*
X033872Y007044D01*
X033885Y007069D01*
X033902Y007092D01*
X033921Y007112D01*
X033943Y007129D01*
X033967Y007143D01*
X033993Y007153D01*
X034020Y007160D01*
X034048Y007163D01*
X034076Y007162D01*
X034103Y007157D01*
X034130Y007148D01*
X034155Y007136D01*
X034178Y007121D01*
X034199Y007102D01*
X034217Y007081D01*
X034232Y007057D01*
X034243Y007031D01*
X034251Y007005D01*
X034255Y006977D01*
X034255Y006949D01*
X034251Y006921D01*
X034243Y006895D01*
X034232Y006869D01*
X034217Y006845D01*
X034199Y006824D01*
X034178Y006805D01*
X034155Y006790D01*
X034130Y006778D01*
X034103Y006769D01*
X034076Y006764D01*
X034048Y006763D01*
X034020Y006766D01*
X033993Y006773D01*
X033967Y006783D01*
X033943Y006797D01*
X033921Y006814D01*
X033902Y006834D01*
X033885Y006857D01*
X033872Y006882D01*
X033863Y006908D01*
X033857Y006935D01*
X033855Y006963D01*
X047429Y006963D02*
X047431Y006991D01*
X047437Y007018D01*
X047446Y007044D01*
X047459Y007069D01*
X047476Y007092D01*
X047495Y007112D01*
X047517Y007129D01*
X047541Y007143D01*
X047567Y007153D01*
X047594Y007160D01*
X047622Y007163D01*
X047650Y007162D01*
X047677Y007157D01*
X047704Y007148D01*
X047729Y007136D01*
X047752Y007121D01*
X047773Y007102D01*
X047791Y007081D01*
X047806Y007057D01*
X047817Y007031D01*
X047825Y007005D01*
X047829Y006977D01*
X047829Y006949D01*
X047825Y006921D01*
X047817Y006895D01*
X047806Y006869D01*
X047791Y006845D01*
X047773Y006824D01*
X047752Y006805D01*
X047729Y006790D01*
X047704Y006778D01*
X047677Y006769D01*
X047650Y006764D01*
X047622Y006763D01*
X047594Y006766D01*
X047567Y006773D01*
X047541Y006783D01*
X047517Y006797D01*
X047495Y006814D01*
X047476Y006834D01*
X047459Y006857D01*
X047446Y006882D01*
X047437Y006908D01*
X047431Y006935D01*
X047429Y006963D01*
X057141Y002980D02*
X057143Y003032D01*
X057149Y003084D01*
X057159Y003135D01*
X057172Y003185D01*
X057190Y003235D01*
X057211Y003282D01*
X057235Y003328D01*
X057264Y003372D01*
X057295Y003414D01*
X057329Y003453D01*
X057366Y003490D01*
X057406Y003523D01*
X057449Y003554D01*
X057493Y003581D01*
X057539Y003605D01*
X057588Y003625D01*
X057637Y003641D01*
X057688Y003654D01*
X057739Y003663D01*
X057791Y003668D01*
X057843Y003669D01*
X057895Y003666D01*
X057947Y003659D01*
X057998Y003648D01*
X058048Y003634D01*
X058097Y003615D01*
X058144Y003593D01*
X058189Y003568D01*
X058233Y003539D01*
X058274Y003507D01*
X058313Y003472D01*
X058348Y003434D01*
X058381Y003393D01*
X058411Y003351D01*
X058437Y003306D01*
X058460Y003259D01*
X058479Y003210D01*
X058495Y003160D01*
X058507Y003110D01*
X058515Y003058D01*
X058519Y003006D01*
X058519Y002954D01*
X058515Y002902D01*
X058507Y002850D01*
X058495Y002800D01*
X058479Y002750D01*
X058460Y002701D01*
X058437Y002654D01*
X058411Y002609D01*
X058381Y002567D01*
X058348Y002526D01*
X058313Y002488D01*
X058274Y002453D01*
X058233Y002421D01*
X058189Y002392D01*
X058144Y002367D01*
X058097Y002345D01*
X058048Y002326D01*
X057998Y002312D01*
X057947Y002301D01*
X057895Y002294D01*
X057843Y002291D01*
X057791Y002292D01*
X057739Y002297D01*
X057688Y002306D01*
X057637Y002319D01*
X057588Y002335D01*
X057539Y002355D01*
X057493Y002379D01*
X057449Y002406D01*
X057406Y002437D01*
X057366Y002470D01*
X057329Y002507D01*
X057295Y002546D01*
X057264Y002588D01*
X057235Y002632D01*
X057211Y002678D01*
X057190Y002725D01*
X057172Y002775D01*
X057159Y002825D01*
X057149Y002876D01*
X057143Y002928D01*
X057141Y002980D01*
X047429Y022711D02*
X047431Y022739D01*
X047437Y022766D01*
X047446Y022792D01*
X047459Y022817D01*
X047476Y022840D01*
X047495Y022860D01*
X047517Y022877D01*
X047541Y022891D01*
X047567Y022901D01*
X047594Y022908D01*
X047622Y022911D01*
X047650Y022910D01*
X047677Y022905D01*
X047704Y022896D01*
X047729Y022884D01*
X047752Y022869D01*
X047773Y022850D01*
X047791Y022829D01*
X047806Y022805D01*
X047817Y022779D01*
X047825Y022753D01*
X047829Y022725D01*
X047829Y022697D01*
X047825Y022669D01*
X047817Y022643D01*
X047806Y022617D01*
X047791Y022593D01*
X047773Y022572D01*
X047752Y022553D01*
X047729Y022538D01*
X047704Y022526D01*
X047677Y022517D01*
X047650Y022512D01*
X047622Y022511D01*
X047594Y022514D01*
X047567Y022521D01*
X047541Y022531D01*
X047517Y022545D01*
X047495Y022562D01*
X047476Y022582D01*
X047459Y022605D01*
X047446Y022630D01*
X047437Y022656D01*
X047431Y022683D01*
X047429Y022711D01*
X035641Y030980D02*
X035643Y031032D01*
X035649Y031084D01*
X035659Y031135D01*
X035672Y031185D01*
X035690Y031235D01*
X035711Y031282D01*
X035735Y031328D01*
X035764Y031372D01*
X035795Y031414D01*
X035829Y031453D01*
X035866Y031490D01*
X035906Y031523D01*
X035949Y031554D01*
X035993Y031581D01*
X036039Y031605D01*
X036088Y031625D01*
X036137Y031641D01*
X036188Y031654D01*
X036239Y031663D01*
X036291Y031668D01*
X036343Y031669D01*
X036395Y031666D01*
X036447Y031659D01*
X036498Y031648D01*
X036548Y031634D01*
X036597Y031615D01*
X036644Y031593D01*
X036689Y031568D01*
X036733Y031539D01*
X036774Y031507D01*
X036813Y031472D01*
X036848Y031434D01*
X036881Y031393D01*
X036911Y031351D01*
X036937Y031306D01*
X036960Y031259D01*
X036979Y031210D01*
X036995Y031160D01*
X037007Y031110D01*
X037015Y031058D01*
X037019Y031006D01*
X037019Y030954D01*
X037015Y030902D01*
X037007Y030850D01*
X036995Y030800D01*
X036979Y030750D01*
X036960Y030701D01*
X036937Y030654D01*
X036911Y030609D01*
X036881Y030567D01*
X036848Y030526D01*
X036813Y030488D01*
X036774Y030453D01*
X036733Y030421D01*
X036689Y030392D01*
X036644Y030367D01*
X036597Y030345D01*
X036548Y030326D01*
X036498Y030312D01*
X036447Y030301D01*
X036395Y030294D01*
X036343Y030291D01*
X036291Y030292D01*
X036239Y030297D01*
X036188Y030306D01*
X036137Y030319D01*
X036088Y030335D01*
X036039Y030355D01*
X035993Y030379D01*
X035949Y030406D01*
X035906Y030437D01*
X035866Y030470D01*
X035829Y030507D01*
X035795Y030546D01*
X035764Y030588D01*
X035735Y030632D01*
X035711Y030678D01*
X035690Y030725D01*
X035672Y030775D01*
X035659Y030825D01*
X035649Y030876D01*
X035643Y030928D01*
X035641Y030980D01*
X033026Y033417D02*
X033028Y033453D01*
X033034Y033489D01*
X033044Y033524D01*
X033057Y033558D01*
X033074Y033590D01*
X033094Y033620D01*
X033118Y033647D01*
X033144Y033672D01*
X033173Y033694D01*
X033204Y033713D01*
X033237Y033728D01*
X033271Y033740D01*
X033307Y033748D01*
X033343Y033752D01*
X033379Y033752D01*
X033415Y033748D01*
X033451Y033740D01*
X033485Y033728D01*
X033518Y033713D01*
X033549Y033694D01*
X033578Y033672D01*
X033604Y033647D01*
X033628Y033620D01*
X033648Y033590D01*
X033665Y033558D01*
X033678Y033524D01*
X033688Y033489D01*
X033694Y033453D01*
X033696Y033417D01*
X033694Y033381D01*
X033688Y033345D01*
X033678Y033310D01*
X033665Y033276D01*
X033648Y033244D01*
X033628Y033214D01*
X033604Y033187D01*
X033578Y033162D01*
X033549Y033140D01*
X033518Y033121D01*
X033485Y033106D01*
X033451Y033094D01*
X033415Y033086D01*
X033379Y033082D01*
X033343Y033082D01*
X033307Y033086D01*
X033271Y033094D01*
X033237Y033106D01*
X033204Y033121D01*
X033173Y033140D01*
X033144Y033162D01*
X033118Y033187D01*
X033094Y033214D01*
X033074Y033244D01*
X033057Y033276D01*
X033044Y033310D01*
X033034Y033345D01*
X033028Y033381D01*
X033026Y033417D01*
X028026Y033417D02*
X028028Y033453D01*
X028034Y033489D01*
X028044Y033524D01*
X028057Y033558D01*
X028074Y033590D01*
X028094Y033620D01*
X028118Y033647D01*
X028144Y033672D01*
X028173Y033694D01*
X028204Y033713D01*
X028237Y033728D01*
X028271Y033740D01*
X028307Y033748D01*
X028343Y033752D01*
X028379Y033752D01*
X028415Y033748D01*
X028451Y033740D01*
X028485Y033728D01*
X028518Y033713D01*
X028549Y033694D01*
X028578Y033672D01*
X028604Y033647D01*
X028628Y033620D01*
X028648Y033590D01*
X028665Y033558D01*
X028678Y033524D01*
X028688Y033489D01*
X028694Y033453D01*
X028696Y033417D01*
X028694Y033381D01*
X028688Y033345D01*
X028678Y033310D01*
X028665Y033276D01*
X028648Y033244D01*
X028628Y033214D01*
X028604Y033187D01*
X028578Y033162D01*
X028549Y033140D01*
X028518Y033121D01*
X028485Y033106D01*
X028451Y033094D01*
X028415Y033086D01*
X028379Y033082D01*
X028343Y033082D01*
X028307Y033086D01*
X028271Y033094D01*
X028237Y033106D01*
X028204Y033121D01*
X028173Y033140D01*
X028144Y033162D01*
X028118Y033187D01*
X028094Y033214D01*
X028074Y033244D01*
X028057Y033276D01*
X028044Y033310D01*
X028034Y033345D01*
X028028Y033381D01*
X028026Y033417D01*
X026649Y038634D02*
X026651Y038670D01*
X026657Y038706D01*
X026667Y038741D01*
X026680Y038775D01*
X026697Y038807D01*
X026717Y038837D01*
X026741Y038864D01*
X026767Y038889D01*
X026796Y038911D01*
X026827Y038930D01*
X026860Y038945D01*
X026894Y038957D01*
X026930Y038965D01*
X026966Y038969D01*
X027002Y038969D01*
X027038Y038965D01*
X027074Y038957D01*
X027108Y038945D01*
X027141Y038930D01*
X027172Y038911D01*
X027201Y038889D01*
X027227Y038864D01*
X027251Y038837D01*
X027271Y038807D01*
X027288Y038775D01*
X027301Y038741D01*
X027311Y038706D01*
X027317Y038670D01*
X027319Y038634D01*
X027317Y038598D01*
X027311Y038562D01*
X027301Y038527D01*
X027288Y038493D01*
X027271Y038461D01*
X027251Y038431D01*
X027227Y038404D01*
X027201Y038379D01*
X027172Y038357D01*
X027141Y038338D01*
X027108Y038323D01*
X027074Y038311D01*
X027038Y038303D01*
X027002Y038299D01*
X026966Y038299D01*
X026930Y038303D01*
X026894Y038311D01*
X026860Y038323D01*
X026827Y038338D01*
X026796Y038357D01*
X026767Y038379D01*
X026741Y038404D01*
X026717Y038431D01*
X026697Y038461D01*
X026680Y038493D01*
X026667Y038527D01*
X026657Y038562D01*
X026651Y038598D01*
X026649Y038634D01*
X031649Y038634D02*
X031651Y038670D01*
X031657Y038706D01*
X031667Y038741D01*
X031680Y038775D01*
X031697Y038807D01*
X031717Y038837D01*
X031741Y038864D01*
X031767Y038889D01*
X031796Y038911D01*
X031827Y038930D01*
X031860Y038945D01*
X031894Y038957D01*
X031930Y038965D01*
X031966Y038969D01*
X032002Y038969D01*
X032038Y038965D01*
X032074Y038957D01*
X032108Y038945D01*
X032141Y038930D01*
X032172Y038911D01*
X032201Y038889D01*
X032227Y038864D01*
X032251Y038837D01*
X032271Y038807D01*
X032288Y038775D01*
X032301Y038741D01*
X032311Y038706D01*
X032317Y038670D01*
X032319Y038634D01*
X032317Y038598D01*
X032311Y038562D01*
X032301Y038527D01*
X032288Y038493D01*
X032271Y038461D01*
X032251Y038431D01*
X032227Y038404D01*
X032201Y038379D01*
X032172Y038357D01*
X032141Y038338D01*
X032108Y038323D01*
X032074Y038311D01*
X032038Y038303D01*
X032002Y038299D01*
X031966Y038299D01*
X031930Y038303D01*
X031894Y038311D01*
X031860Y038323D01*
X031827Y038338D01*
X031796Y038357D01*
X031767Y038379D01*
X031741Y038404D01*
X031717Y038431D01*
X031697Y038461D01*
X031680Y038493D01*
X031667Y038527D01*
X031657Y038562D01*
X031651Y038598D01*
X031649Y038634D01*
X039149Y038634D02*
X039151Y038670D01*
X039157Y038706D01*
X039167Y038741D01*
X039180Y038775D01*
X039197Y038807D01*
X039217Y038837D01*
X039241Y038864D01*
X039267Y038889D01*
X039296Y038911D01*
X039327Y038930D01*
X039360Y038945D01*
X039394Y038957D01*
X039430Y038965D01*
X039466Y038969D01*
X039502Y038969D01*
X039538Y038965D01*
X039574Y038957D01*
X039608Y038945D01*
X039641Y038930D01*
X039672Y038911D01*
X039701Y038889D01*
X039727Y038864D01*
X039751Y038837D01*
X039771Y038807D01*
X039788Y038775D01*
X039801Y038741D01*
X039811Y038706D01*
X039817Y038670D01*
X039819Y038634D01*
X039817Y038598D01*
X039811Y038562D01*
X039801Y038527D01*
X039788Y038493D01*
X039771Y038461D01*
X039751Y038431D01*
X039727Y038404D01*
X039701Y038379D01*
X039672Y038357D01*
X039641Y038338D01*
X039608Y038323D01*
X039574Y038311D01*
X039538Y038303D01*
X039502Y038299D01*
X039466Y038299D01*
X039430Y038303D01*
X039394Y038311D01*
X039360Y038323D01*
X039327Y038338D01*
X039296Y038357D01*
X039267Y038379D01*
X039241Y038404D01*
X039217Y038431D01*
X039197Y038461D01*
X039180Y038493D01*
X039167Y038527D01*
X039157Y038562D01*
X039151Y038598D01*
X039149Y038634D01*
X044149Y038634D02*
X044151Y038670D01*
X044157Y038706D01*
X044167Y038741D01*
X044180Y038775D01*
X044197Y038807D01*
X044217Y038837D01*
X044241Y038864D01*
X044267Y038889D01*
X044296Y038911D01*
X044327Y038930D01*
X044360Y038945D01*
X044394Y038957D01*
X044430Y038965D01*
X044466Y038969D01*
X044502Y038969D01*
X044538Y038965D01*
X044574Y038957D01*
X044608Y038945D01*
X044641Y038930D01*
X044672Y038911D01*
X044701Y038889D01*
X044727Y038864D01*
X044751Y038837D01*
X044771Y038807D01*
X044788Y038775D01*
X044801Y038741D01*
X044811Y038706D01*
X044817Y038670D01*
X044819Y038634D01*
X044817Y038598D01*
X044811Y038562D01*
X044801Y038527D01*
X044788Y038493D01*
X044771Y038461D01*
X044751Y038431D01*
X044727Y038404D01*
X044701Y038379D01*
X044672Y038357D01*
X044641Y038338D01*
X044608Y038323D01*
X044574Y038311D01*
X044538Y038303D01*
X044502Y038299D01*
X044466Y038299D01*
X044430Y038303D01*
X044394Y038311D01*
X044360Y038323D01*
X044327Y038338D01*
X044296Y038357D01*
X044267Y038379D01*
X044241Y038404D01*
X044217Y038431D01*
X044197Y038461D01*
X044180Y038493D01*
X044167Y038527D01*
X044157Y038562D01*
X044151Y038598D01*
X044149Y038634D01*
X049149Y038634D02*
X049151Y038670D01*
X049157Y038706D01*
X049167Y038741D01*
X049180Y038775D01*
X049197Y038807D01*
X049217Y038837D01*
X049241Y038864D01*
X049267Y038889D01*
X049296Y038911D01*
X049327Y038930D01*
X049360Y038945D01*
X049394Y038957D01*
X049430Y038965D01*
X049466Y038969D01*
X049502Y038969D01*
X049538Y038965D01*
X049574Y038957D01*
X049608Y038945D01*
X049641Y038930D01*
X049672Y038911D01*
X049701Y038889D01*
X049727Y038864D01*
X049751Y038837D01*
X049771Y038807D01*
X049788Y038775D01*
X049801Y038741D01*
X049811Y038706D01*
X049817Y038670D01*
X049819Y038634D01*
X049817Y038598D01*
X049811Y038562D01*
X049801Y038527D01*
X049788Y038493D01*
X049771Y038461D01*
X049751Y038431D01*
X049727Y038404D01*
X049701Y038379D01*
X049672Y038357D01*
X049641Y038338D01*
X049608Y038323D01*
X049574Y038311D01*
X049538Y038303D01*
X049502Y038299D01*
X049466Y038299D01*
X049430Y038303D01*
X049394Y038311D01*
X049360Y038323D01*
X049327Y038338D01*
X049296Y038357D01*
X049267Y038379D01*
X049241Y038404D01*
X049217Y038431D01*
X049197Y038461D01*
X049180Y038493D01*
X049167Y038527D01*
X049157Y038562D01*
X049151Y038598D01*
X049149Y038634D01*
X054149Y038634D02*
X054151Y038670D01*
X054157Y038706D01*
X054167Y038741D01*
X054180Y038775D01*
X054197Y038807D01*
X054217Y038837D01*
X054241Y038864D01*
X054267Y038889D01*
X054296Y038911D01*
X054327Y038930D01*
X054360Y038945D01*
X054394Y038957D01*
X054430Y038965D01*
X054466Y038969D01*
X054502Y038969D01*
X054538Y038965D01*
X054574Y038957D01*
X054608Y038945D01*
X054641Y038930D01*
X054672Y038911D01*
X054701Y038889D01*
X054727Y038864D01*
X054751Y038837D01*
X054771Y038807D01*
X054788Y038775D01*
X054801Y038741D01*
X054811Y038706D01*
X054817Y038670D01*
X054819Y038634D01*
X054817Y038598D01*
X054811Y038562D01*
X054801Y038527D01*
X054788Y038493D01*
X054771Y038461D01*
X054751Y038431D01*
X054727Y038404D01*
X054701Y038379D01*
X054672Y038357D01*
X054641Y038338D01*
X054608Y038323D01*
X054574Y038311D01*
X054538Y038303D01*
X054502Y038299D01*
X054466Y038299D01*
X054430Y038303D01*
X054394Y038311D01*
X054360Y038323D01*
X054327Y038338D01*
X054296Y038357D01*
X054267Y038379D01*
X054241Y038404D01*
X054217Y038431D01*
X054197Y038461D01*
X054180Y038493D01*
X054167Y038527D01*
X054157Y038562D01*
X054151Y038598D01*
X054149Y038634D01*
X057141Y037980D02*
X057143Y038032D01*
X057149Y038084D01*
X057159Y038135D01*
X057172Y038185D01*
X057190Y038235D01*
X057211Y038282D01*
X057235Y038328D01*
X057264Y038372D01*
X057295Y038414D01*
X057329Y038453D01*
X057366Y038490D01*
X057406Y038523D01*
X057449Y038554D01*
X057493Y038581D01*
X057539Y038605D01*
X057588Y038625D01*
X057637Y038641D01*
X057688Y038654D01*
X057739Y038663D01*
X057791Y038668D01*
X057843Y038669D01*
X057895Y038666D01*
X057947Y038659D01*
X057998Y038648D01*
X058048Y038634D01*
X058097Y038615D01*
X058144Y038593D01*
X058189Y038568D01*
X058233Y038539D01*
X058274Y038507D01*
X058313Y038472D01*
X058348Y038434D01*
X058381Y038393D01*
X058411Y038351D01*
X058437Y038306D01*
X058460Y038259D01*
X058479Y038210D01*
X058495Y038160D01*
X058507Y038110D01*
X058515Y038058D01*
X058519Y038006D01*
X058519Y037954D01*
X058515Y037902D01*
X058507Y037850D01*
X058495Y037800D01*
X058479Y037750D01*
X058460Y037701D01*
X058437Y037654D01*
X058411Y037609D01*
X058381Y037567D01*
X058348Y037526D01*
X058313Y037488D01*
X058274Y037453D01*
X058233Y037421D01*
X058189Y037392D01*
X058144Y037367D01*
X058097Y037345D01*
X058048Y037326D01*
X057998Y037312D01*
X057947Y037301D01*
X057895Y037294D01*
X057843Y037291D01*
X057791Y037292D01*
X057739Y037297D01*
X057688Y037306D01*
X057637Y037319D01*
X057588Y037335D01*
X057539Y037355D01*
X057493Y037379D01*
X057449Y037406D01*
X057406Y037437D01*
X057366Y037470D01*
X057329Y037507D01*
X057295Y037546D01*
X057264Y037588D01*
X057235Y037632D01*
X057211Y037678D01*
X057190Y037725D01*
X057172Y037775D01*
X057159Y037825D01*
X057149Y037876D01*
X057143Y037928D01*
X057141Y037980D01*
X055526Y033417D02*
X055528Y033453D01*
X055534Y033489D01*
X055544Y033524D01*
X055557Y033558D01*
X055574Y033590D01*
X055594Y033620D01*
X055618Y033647D01*
X055644Y033672D01*
X055673Y033694D01*
X055704Y033713D01*
X055737Y033728D01*
X055771Y033740D01*
X055807Y033748D01*
X055843Y033752D01*
X055879Y033752D01*
X055915Y033748D01*
X055951Y033740D01*
X055985Y033728D01*
X056018Y033713D01*
X056049Y033694D01*
X056078Y033672D01*
X056104Y033647D01*
X056128Y033620D01*
X056148Y033590D01*
X056165Y033558D01*
X056178Y033524D01*
X056188Y033489D01*
X056194Y033453D01*
X056196Y033417D01*
X056194Y033381D01*
X056188Y033345D01*
X056178Y033310D01*
X056165Y033276D01*
X056148Y033244D01*
X056128Y033214D01*
X056104Y033187D01*
X056078Y033162D01*
X056049Y033140D01*
X056018Y033121D01*
X055985Y033106D01*
X055951Y033094D01*
X055915Y033086D01*
X055879Y033082D01*
X055843Y033082D01*
X055807Y033086D01*
X055771Y033094D01*
X055737Y033106D01*
X055704Y033121D01*
X055673Y033140D01*
X055644Y033162D01*
X055618Y033187D01*
X055594Y033214D01*
X055574Y033244D01*
X055557Y033276D01*
X055544Y033310D01*
X055534Y033345D01*
X055528Y033381D01*
X055526Y033417D01*
X050526Y033417D02*
X050528Y033453D01*
X050534Y033489D01*
X050544Y033524D01*
X050557Y033558D01*
X050574Y033590D01*
X050594Y033620D01*
X050618Y033647D01*
X050644Y033672D01*
X050673Y033694D01*
X050704Y033713D01*
X050737Y033728D01*
X050771Y033740D01*
X050807Y033748D01*
X050843Y033752D01*
X050879Y033752D01*
X050915Y033748D01*
X050951Y033740D01*
X050985Y033728D01*
X051018Y033713D01*
X051049Y033694D01*
X051078Y033672D01*
X051104Y033647D01*
X051128Y033620D01*
X051148Y033590D01*
X051165Y033558D01*
X051178Y033524D01*
X051188Y033489D01*
X051194Y033453D01*
X051196Y033417D01*
X051194Y033381D01*
X051188Y033345D01*
X051178Y033310D01*
X051165Y033276D01*
X051148Y033244D01*
X051128Y033214D01*
X051104Y033187D01*
X051078Y033162D01*
X051049Y033140D01*
X051018Y033121D01*
X050985Y033106D01*
X050951Y033094D01*
X050915Y033086D01*
X050879Y033082D01*
X050843Y033082D01*
X050807Y033086D01*
X050771Y033094D01*
X050737Y033106D01*
X050704Y033121D01*
X050673Y033140D01*
X050644Y033162D01*
X050618Y033187D01*
X050594Y033214D01*
X050574Y033244D01*
X050557Y033276D01*
X050544Y033310D01*
X050534Y033345D01*
X050528Y033381D01*
X050526Y033417D01*
X045526Y033417D02*
X045528Y033453D01*
X045534Y033489D01*
X045544Y033524D01*
X045557Y033558D01*
X045574Y033590D01*
X045594Y033620D01*
X045618Y033647D01*
X045644Y033672D01*
X045673Y033694D01*
X045704Y033713D01*
X045737Y033728D01*
X045771Y033740D01*
X045807Y033748D01*
X045843Y033752D01*
X045879Y033752D01*
X045915Y033748D01*
X045951Y033740D01*
X045985Y033728D01*
X046018Y033713D01*
X046049Y033694D01*
X046078Y033672D01*
X046104Y033647D01*
X046128Y033620D01*
X046148Y033590D01*
X046165Y033558D01*
X046178Y033524D01*
X046188Y033489D01*
X046194Y033453D01*
X046196Y033417D01*
X046194Y033381D01*
X046188Y033345D01*
X046178Y033310D01*
X046165Y033276D01*
X046148Y033244D01*
X046128Y033214D01*
X046104Y033187D01*
X046078Y033162D01*
X046049Y033140D01*
X046018Y033121D01*
X045985Y033106D01*
X045951Y033094D01*
X045915Y033086D01*
X045879Y033082D01*
X045843Y033082D01*
X045807Y033086D01*
X045771Y033094D01*
X045737Y033106D01*
X045704Y033121D01*
X045673Y033140D01*
X045644Y033162D01*
X045618Y033187D01*
X045594Y033214D01*
X045574Y033244D01*
X045557Y033276D01*
X045544Y033310D01*
X045534Y033345D01*
X045528Y033381D01*
X045526Y033417D01*
X040526Y033417D02*
X040528Y033453D01*
X040534Y033489D01*
X040544Y033524D01*
X040557Y033558D01*
X040574Y033590D01*
X040594Y033620D01*
X040618Y033647D01*
X040644Y033672D01*
X040673Y033694D01*
X040704Y033713D01*
X040737Y033728D01*
X040771Y033740D01*
X040807Y033748D01*
X040843Y033752D01*
X040879Y033752D01*
X040915Y033748D01*
X040951Y033740D01*
X040985Y033728D01*
X041018Y033713D01*
X041049Y033694D01*
X041078Y033672D01*
X041104Y033647D01*
X041128Y033620D01*
X041148Y033590D01*
X041165Y033558D01*
X041178Y033524D01*
X041188Y033489D01*
X041194Y033453D01*
X041196Y033417D01*
X041194Y033381D01*
X041188Y033345D01*
X041178Y033310D01*
X041165Y033276D01*
X041148Y033244D01*
X041128Y033214D01*
X041104Y033187D01*
X041078Y033162D01*
X041049Y033140D01*
X041018Y033121D01*
X040985Y033106D01*
X040951Y033094D01*
X040915Y033086D01*
X040879Y033082D01*
X040843Y033082D01*
X040807Y033086D01*
X040771Y033094D01*
X040737Y033106D01*
X040704Y033121D01*
X040673Y033140D01*
X040644Y033162D01*
X040618Y033187D01*
X040594Y033214D01*
X040574Y033244D01*
X040557Y033276D01*
X040544Y033310D01*
X040534Y033345D01*
X040528Y033381D01*
X040526Y033417D01*
X033855Y022711D02*
X033857Y022739D01*
X033863Y022766D01*
X033872Y022792D01*
X033885Y022817D01*
X033902Y022840D01*
X033921Y022860D01*
X033943Y022877D01*
X033967Y022891D01*
X033993Y022901D01*
X034020Y022908D01*
X034048Y022911D01*
X034076Y022910D01*
X034103Y022905D01*
X034130Y022896D01*
X034155Y022884D01*
X034178Y022869D01*
X034199Y022850D01*
X034217Y022829D01*
X034232Y022805D01*
X034243Y022779D01*
X034251Y022753D01*
X034255Y022725D01*
X034255Y022697D01*
X034251Y022669D01*
X034243Y022643D01*
X034232Y022617D01*
X034217Y022593D01*
X034199Y022572D01*
X034178Y022553D01*
X034155Y022538D01*
X034130Y022526D01*
X034103Y022517D01*
X034076Y022512D01*
X034048Y022511D01*
X034020Y022514D01*
X033993Y022521D01*
X033967Y022531D01*
X033943Y022545D01*
X033921Y022562D01*
X033902Y022582D01*
X033885Y022605D01*
X033872Y022630D01*
X033863Y022656D01*
X033857Y022683D01*
X033855Y022711D01*
X019526Y033417D02*
X019528Y033453D01*
X019534Y033489D01*
X019544Y033524D01*
X019557Y033558D01*
X019574Y033590D01*
X019594Y033620D01*
X019618Y033647D01*
X019644Y033672D01*
X019673Y033694D01*
X019704Y033713D01*
X019737Y033728D01*
X019771Y033740D01*
X019807Y033748D01*
X019843Y033752D01*
X019879Y033752D01*
X019915Y033748D01*
X019951Y033740D01*
X019985Y033728D01*
X020018Y033713D01*
X020049Y033694D01*
X020078Y033672D01*
X020104Y033647D01*
X020128Y033620D01*
X020148Y033590D01*
X020165Y033558D01*
X020178Y033524D01*
X020188Y033489D01*
X020194Y033453D01*
X020196Y033417D01*
X020194Y033381D01*
X020188Y033345D01*
X020178Y033310D01*
X020165Y033276D01*
X020148Y033244D01*
X020128Y033214D01*
X020104Y033187D01*
X020078Y033162D01*
X020049Y033140D01*
X020018Y033121D01*
X019985Y033106D01*
X019951Y033094D01*
X019915Y033086D01*
X019879Y033082D01*
X019843Y033082D01*
X019807Y033086D01*
X019771Y033094D01*
X019737Y033106D01*
X019704Y033121D01*
X019673Y033140D01*
X019644Y033162D01*
X019618Y033187D01*
X019594Y033214D01*
X019574Y033244D01*
X019557Y033276D01*
X019544Y033310D01*
X019534Y033345D01*
X019528Y033381D01*
X019526Y033417D01*
X018149Y038634D02*
X018151Y038670D01*
X018157Y038706D01*
X018167Y038741D01*
X018180Y038775D01*
X018197Y038807D01*
X018217Y038837D01*
X018241Y038864D01*
X018267Y038889D01*
X018296Y038911D01*
X018327Y038930D01*
X018360Y038945D01*
X018394Y038957D01*
X018430Y038965D01*
X018466Y038969D01*
X018502Y038969D01*
X018538Y038965D01*
X018574Y038957D01*
X018608Y038945D01*
X018641Y038930D01*
X018672Y038911D01*
X018701Y038889D01*
X018727Y038864D01*
X018751Y038837D01*
X018771Y038807D01*
X018788Y038775D01*
X018801Y038741D01*
X018811Y038706D01*
X018817Y038670D01*
X018819Y038634D01*
X018817Y038598D01*
X018811Y038562D01*
X018801Y038527D01*
X018788Y038493D01*
X018771Y038461D01*
X018751Y038431D01*
X018727Y038404D01*
X018701Y038379D01*
X018672Y038357D01*
X018641Y038338D01*
X018608Y038323D01*
X018574Y038311D01*
X018538Y038303D01*
X018502Y038299D01*
X018466Y038299D01*
X018430Y038303D01*
X018394Y038311D01*
X018360Y038323D01*
X018327Y038338D01*
X018296Y038357D01*
X018267Y038379D01*
X018241Y038404D01*
X018217Y038431D01*
X018197Y038461D01*
X018180Y038493D01*
X018167Y038527D01*
X018157Y038562D01*
X018151Y038598D01*
X018149Y038634D01*
X002141Y037980D02*
X002143Y038032D01*
X002149Y038084D01*
X002159Y038135D01*
X002172Y038185D01*
X002190Y038235D01*
X002211Y038282D01*
X002235Y038328D01*
X002264Y038372D01*
X002295Y038414D01*
X002329Y038453D01*
X002366Y038490D01*
X002406Y038523D01*
X002449Y038554D01*
X002493Y038581D01*
X002539Y038605D01*
X002588Y038625D01*
X002637Y038641D01*
X002688Y038654D01*
X002739Y038663D01*
X002791Y038668D01*
X002843Y038669D01*
X002895Y038666D01*
X002947Y038659D01*
X002998Y038648D01*
X003048Y038634D01*
X003097Y038615D01*
X003144Y038593D01*
X003189Y038568D01*
X003233Y038539D01*
X003274Y038507D01*
X003313Y038472D01*
X003348Y038434D01*
X003381Y038393D01*
X003411Y038351D01*
X003437Y038306D01*
X003460Y038259D01*
X003479Y038210D01*
X003495Y038160D01*
X003507Y038110D01*
X003515Y038058D01*
X003519Y038006D01*
X003519Y037954D01*
X003515Y037902D01*
X003507Y037850D01*
X003495Y037800D01*
X003479Y037750D01*
X003460Y037701D01*
X003437Y037654D01*
X003411Y037609D01*
X003381Y037567D01*
X003348Y037526D01*
X003313Y037488D01*
X003274Y037453D01*
X003233Y037421D01*
X003189Y037392D01*
X003144Y037367D01*
X003097Y037345D01*
X003048Y037326D01*
X002998Y037312D01*
X002947Y037301D01*
X002895Y037294D01*
X002843Y037291D01*
X002791Y037292D01*
X002739Y037297D01*
X002688Y037306D01*
X002637Y037319D01*
X002588Y037335D01*
X002539Y037355D01*
X002493Y037379D01*
X002449Y037406D01*
X002406Y037437D01*
X002366Y037470D01*
X002329Y037507D01*
X002295Y037546D01*
X002264Y037588D01*
X002235Y037632D01*
X002211Y037678D01*
X002190Y037725D01*
X002172Y037775D01*
X002159Y037825D01*
X002149Y037876D01*
X002143Y037928D01*
X002141Y037980D01*
M02*
