G75*
%MOIN*%
%OFA0B0*%
%FSLAX24Y24*%
%IPPOS*%
%LPD*%
%AMOC8*
5,1,8,0,0,1.08239X$1,22.5*
%
%ADD10C,0.0000*%
D10*
X001342Y003200D02*
X001342Y061600D01*
X003642Y063900D01*
X062242Y063900D01*
X064342Y061800D01*
X064342Y057700D01*
X059742Y057700D01*
X059742Y044500D01*
X064342Y044500D01*
X064342Y003100D01*
X062142Y000900D01*
X060542Y000900D01*
X059842Y000200D01*
X048142Y000200D01*
X047442Y000900D01*
X003642Y000900D01*
X001342Y003200D01*
X003167Y003350D02*
X003169Y003400D01*
X003175Y003449D01*
X003185Y003498D01*
X003198Y003545D01*
X003216Y003592D01*
X003237Y003637D01*
X003261Y003680D01*
X003289Y003721D01*
X003320Y003760D01*
X003354Y003796D01*
X003391Y003830D01*
X003431Y003860D01*
X003472Y003887D01*
X003516Y003911D01*
X003561Y003931D01*
X003608Y003947D01*
X003656Y003960D01*
X003705Y003969D01*
X003755Y003974D01*
X003804Y003975D01*
X003854Y003972D01*
X003903Y003965D01*
X003952Y003954D01*
X003999Y003940D01*
X004045Y003921D01*
X004090Y003899D01*
X004133Y003874D01*
X004173Y003845D01*
X004211Y003813D01*
X004247Y003779D01*
X004280Y003741D01*
X004309Y003701D01*
X004335Y003659D01*
X004358Y003615D01*
X004377Y003569D01*
X004393Y003522D01*
X004405Y003473D01*
X004413Y003424D01*
X004417Y003375D01*
X004417Y003325D01*
X004413Y003276D01*
X004405Y003227D01*
X004393Y003178D01*
X004377Y003131D01*
X004358Y003085D01*
X004335Y003041D01*
X004309Y002999D01*
X004280Y002959D01*
X004247Y002921D01*
X004211Y002887D01*
X004173Y002855D01*
X004133Y002826D01*
X004090Y002801D01*
X004045Y002779D01*
X003999Y002760D01*
X003952Y002746D01*
X003903Y002735D01*
X003854Y002728D01*
X003804Y002725D01*
X003755Y002726D01*
X003705Y002731D01*
X003656Y002740D01*
X003608Y002753D01*
X003561Y002769D01*
X003516Y002789D01*
X003472Y002813D01*
X003431Y002840D01*
X003391Y002870D01*
X003354Y002904D01*
X003320Y002940D01*
X003289Y002979D01*
X003261Y003020D01*
X003237Y003063D01*
X003216Y003108D01*
X003198Y003155D01*
X003185Y003202D01*
X003175Y003251D01*
X003169Y003300D01*
X003167Y003350D01*
X002157Y009550D02*
X002159Y009586D01*
X002165Y009622D01*
X002175Y009657D01*
X002188Y009691D01*
X002205Y009723D01*
X002225Y009753D01*
X002249Y009780D01*
X002275Y009805D01*
X002304Y009827D01*
X002335Y009846D01*
X002368Y009861D01*
X002402Y009873D01*
X002438Y009881D01*
X002474Y009885D01*
X002510Y009885D01*
X002546Y009881D01*
X002582Y009873D01*
X002616Y009861D01*
X002649Y009846D01*
X002680Y009827D01*
X002709Y009805D01*
X002735Y009780D01*
X002759Y009753D01*
X002779Y009723D01*
X002796Y009691D01*
X002809Y009657D01*
X002819Y009622D01*
X002825Y009586D01*
X002827Y009550D01*
X002825Y009514D01*
X002819Y009478D01*
X002809Y009443D01*
X002796Y009409D01*
X002779Y009377D01*
X002759Y009347D01*
X002735Y009320D01*
X002709Y009295D01*
X002680Y009273D01*
X002649Y009254D01*
X002616Y009239D01*
X002582Y009227D01*
X002546Y009219D01*
X002510Y009215D01*
X002474Y009215D01*
X002438Y009219D01*
X002402Y009227D01*
X002368Y009239D01*
X002335Y009254D01*
X002304Y009273D01*
X002275Y009295D01*
X002249Y009320D01*
X002225Y009347D01*
X002205Y009377D01*
X002188Y009409D01*
X002175Y009443D01*
X002165Y009478D01*
X002159Y009514D01*
X002157Y009550D01*
X004913Y009550D02*
X004915Y009586D01*
X004921Y009622D01*
X004931Y009657D01*
X004944Y009691D01*
X004961Y009723D01*
X004981Y009753D01*
X005005Y009780D01*
X005031Y009805D01*
X005060Y009827D01*
X005091Y009846D01*
X005124Y009861D01*
X005158Y009873D01*
X005194Y009881D01*
X005230Y009885D01*
X005266Y009885D01*
X005302Y009881D01*
X005338Y009873D01*
X005372Y009861D01*
X005405Y009846D01*
X005436Y009827D01*
X005465Y009805D01*
X005491Y009780D01*
X005515Y009753D01*
X005535Y009723D01*
X005552Y009691D01*
X005565Y009657D01*
X005575Y009622D01*
X005581Y009586D01*
X005583Y009550D01*
X005581Y009514D01*
X005575Y009478D01*
X005565Y009443D01*
X005552Y009409D01*
X005535Y009377D01*
X005515Y009347D01*
X005491Y009320D01*
X005465Y009295D01*
X005436Y009273D01*
X005405Y009254D01*
X005372Y009239D01*
X005338Y009227D01*
X005302Y009219D01*
X005266Y009215D01*
X005230Y009215D01*
X005194Y009219D01*
X005158Y009227D01*
X005124Y009239D01*
X005091Y009254D01*
X005060Y009273D01*
X005031Y009295D01*
X005005Y009320D01*
X004981Y009347D01*
X004961Y009377D01*
X004944Y009409D01*
X004931Y009443D01*
X004921Y009478D01*
X004915Y009514D01*
X004913Y009550D01*
X036949Y035543D02*
X036951Y035587D01*
X036957Y035631D01*
X036967Y035674D01*
X036980Y035716D01*
X036998Y035756D01*
X037019Y035795D01*
X037043Y035832D01*
X037070Y035867D01*
X037101Y035899D01*
X037134Y035928D01*
X037170Y035954D01*
X037208Y035976D01*
X037248Y035995D01*
X037289Y036011D01*
X037332Y036023D01*
X037375Y036031D01*
X037419Y036035D01*
X037463Y036035D01*
X037507Y036031D01*
X037550Y036023D01*
X037593Y036011D01*
X037634Y035995D01*
X037674Y035976D01*
X037712Y035954D01*
X037748Y035928D01*
X037781Y035899D01*
X037812Y035867D01*
X037839Y035832D01*
X037863Y035795D01*
X037884Y035756D01*
X037902Y035716D01*
X037915Y035674D01*
X037925Y035631D01*
X037931Y035587D01*
X037933Y035543D01*
X037931Y035499D01*
X037925Y035455D01*
X037915Y035412D01*
X037902Y035370D01*
X037884Y035330D01*
X037863Y035291D01*
X037839Y035254D01*
X037812Y035219D01*
X037781Y035187D01*
X037748Y035158D01*
X037712Y035132D01*
X037674Y035110D01*
X037634Y035091D01*
X037593Y035075D01*
X037550Y035063D01*
X037507Y035055D01*
X037463Y035051D01*
X037419Y035051D01*
X037375Y035055D01*
X037332Y035063D01*
X037289Y035075D01*
X037248Y035091D01*
X037208Y035110D01*
X037170Y035132D01*
X037134Y035158D01*
X037101Y035187D01*
X037070Y035219D01*
X037043Y035254D01*
X037019Y035291D01*
X036998Y035330D01*
X036980Y035370D01*
X036967Y035412D01*
X036957Y035455D01*
X036951Y035499D01*
X036949Y035543D01*
X038831Y037592D02*
X038833Y037620D01*
X038839Y037647D01*
X038848Y037673D01*
X038861Y037698D01*
X038878Y037721D01*
X038897Y037741D01*
X038919Y037758D01*
X038943Y037772D01*
X038969Y037782D01*
X038996Y037789D01*
X039024Y037792D01*
X039052Y037791D01*
X039079Y037786D01*
X039106Y037777D01*
X039131Y037765D01*
X039154Y037750D01*
X039175Y037731D01*
X039193Y037710D01*
X039208Y037686D01*
X039219Y037660D01*
X039227Y037634D01*
X039231Y037606D01*
X039231Y037578D01*
X039227Y037550D01*
X039219Y037524D01*
X039208Y037498D01*
X039193Y037474D01*
X039175Y037453D01*
X039154Y037434D01*
X039131Y037419D01*
X039106Y037407D01*
X039079Y037398D01*
X039052Y037393D01*
X039024Y037392D01*
X038996Y037395D01*
X038969Y037402D01*
X038943Y037412D01*
X038919Y037426D01*
X038897Y037443D01*
X038878Y037463D01*
X038861Y037486D01*
X038848Y037511D01*
X038839Y037537D01*
X038833Y037564D01*
X038831Y037592D01*
X038831Y051166D02*
X038833Y051194D01*
X038839Y051221D01*
X038848Y051247D01*
X038861Y051272D01*
X038878Y051295D01*
X038897Y051315D01*
X038919Y051332D01*
X038943Y051346D01*
X038969Y051356D01*
X038996Y051363D01*
X039024Y051366D01*
X039052Y051365D01*
X039079Y051360D01*
X039106Y051351D01*
X039131Y051339D01*
X039154Y051324D01*
X039175Y051305D01*
X039193Y051284D01*
X039208Y051260D01*
X039219Y051234D01*
X039227Y051208D01*
X039231Y051180D01*
X039231Y051152D01*
X039227Y051124D01*
X039219Y051098D01*
X039208Y051072D01*
X039193Y051048D01*
X039175Y051027D01*
X039154Y051008D01*
X039131Y050993D01*
X039106Y050981D01*
X039079Y050972D01*
X039052Y050967D01*
X039024Y050966D01*
X038996Y050969D01*
X038969Y050976D01*
X038943Y050986D01*
X038919Y051000D01*
X038897Y051017D01*
X038878Y051037D01*
X038861Y051060D01*
X038848Y051085D01*
X038839Y051111D01*
X038833Y051138D01*
X038831Y051166D01*
X036752Y062669D02*
X036754Y062721D01*
X036760Y062773D01*
X036770Y062824D01*
X036783Y062874D01*
X036801Y062924D01*
X036822Y062971D01*
X036846Y063017D01*
X036875Y063061D01*
X036906Y063103D01*
X036940Y063142D01*
X036977Y063179D01*
X037017Y063212D01*
X037060Y063243D01*
X037104Y063270D01*
X037150Y063294D01*
X037199Y063314D01*
X037248Y063330D01*
X037299Y063343D01*
X037350Y063352D01*
X037402Y063357D01*
X037454Y063358D01*
X037506Y063355D01*
X037558Y063348D01*
X037609Y063337D01*
X037659Y063323D01*
X037708Y063304D01*
X037755Y063282D01*
X037800Y063257D01*
X037844Y063228D01*
X037885Y063196D01*
X037924Y063161D01*
X037959Y063123D01*
X037992Y063082D01*
X038022Y063040D01*
X038048Y062995D01*
X038071Y062948D01*
X038090Y062899D01*
X038106Y062849D01*
X038118Y062799D01*
X038126Y062747D01*
X038130Y062695D01*
X038130Y062643D01*
X038126Y062591D01*
X038118Y062539D01*
X038106Y062489D01*
X038090Y062439D01*
X038071Y062390D01*
X038048Y062343D01*
X038022Y062298D01*
X037992Y062256D01*
X037959Y062215D01*
X037924Y062177D01*
X037885Y062142D01*
X037844Y062110D01*
X037800Y062081D01*
X037755Y062056D01*
X037708Y062034D01*
X037659Y062015D01*
X037609Y062001D01*
X037558Y061990D01*
X037506Y061983D01*
X037454Y061980D01*
X037402Y061981D01*
X037350Y061986D01*
X037299Y061995D01*
X037248Y062008D01*
X037199Y062024D01*
X037150Y062044D01*
X037104Y062068D01*
X037060Y062095D01*
X037017Y062126D01*
X036977Y062159D01*
X036940Y062196D01*
X036906Y062235D01*
X036875Y062277D01*
X036846Y062321D01*
X036822Y062367D01*
X036801Y062414D01*
X036783Y062464D01*
X036770Y062514D01*
X036760Y062565D01*
X036754Y062617D01*
X036752Y062669D01*
X054075Y062669D02*
X054077Y062721D01*
X054083Y062773D01*
X054093Y062824D01*
X054106Y062874D01*
X054124Y062924D01*
X054145Y062971D01*
X054169Y063017D01*
X054198Y063061D01*
X054229Y063103D01*
X054263Y063142D01*
X054300Y063179D01*
X054340Y063212D01*
X054383Y063243D01*
X054427Y063270D01*
X054473Y063294D01*
X054522Y063314D01*
X054571Y063330D01*
X054622Y063343D01*
X054673Y063352D01*
X054725Y063357D01*
X054777Y063358D01*
X054829Y063355D01*
X054881Y063348D01*
X054932Y063337D01*
X054982Y063323D01*
X055031Y063304D01*
X055078Y063282D01*
X055123Y063257D01*
X055167Y063228D01*
X055208Y063196D01*
X055247Y063161D01*
X055282Y063123D01*
X055315Y063082D01*
X055345Y063040D01*
X055371Y062995D01*
X055394Y062948D01*
X055413Y062899D01*
X055429Y062849D01*
X055441Y062799D01*
X055449Y062747D01*
X055453Y062695D01*
X055453Y062643D01*
X055449Y062591D01*
X055441Y062539D01*
X055429Y062489D01*
X055413Y062439D01*
X055394Y062390D01*
X055371Y062343D01*
X055345Y062298D01*
X055315Y062256D01*
X055282Y062215D01*
X055247Y062177D01*
X055208Y062142D01*
X055167Y062110D01*
X055123Y062081D01*
X055078Y062056D01*
X055031Y062034D01*
X054982Y062015D01*
X054932Y062001D01*
X054881Y061990D01*
X054829Y061983D01*
X054777Y061980D01*
X054725Y061981D01*
X054673Y061986D01*
X054622Y061995D01*
X054571Y062008D01*
X054522Y062024D01*
X054473Y062044D01*
X054427Y062068D01*
X054383Y062095D01*
X054340Y062126D01*
X054300Y062159D01*
X054263Y062196D01*
X054229Y062235D01*
X054198Y062277D01*
X054169Y062321D01*
X054145Y062367D01*
X054124Y062414D01*
X054106Y062464D01*
X054093Y062514D01*
X054083Y062565D01*
X054077Y062617D01*
X054075Y062669D01*
X061317Y061450D02*
X061319Y061500D01*
X061325Y061549D01*
X061335Y061598D01*
X061348Y061645D01*
X061366Y061692D01*
X061387Y061737D01*
X061411Y061780D01*
X061439Y061821D01*
X061470Y061860D01*
X061504Y061896D01*
X061541Y061930D01*
X061581Y061960D01*
X061622Y061987D01*
X061666Y062011D01*
X061711Y062031D01*
X061758Y062047D01*
X061806Y062060D01*
X061855Y062069D01*
X061905Y062074D01*
X061954Y062075D01*
X062004Y062072D01*
X062053Y062065D01*
X062102Y062054D01*
X062149Y062040D01*
X062195Y062021D01*
X062240Y061999D01*
X062283Y061974D01*
X062323Y061945D01*
X062361Y061913D01*
X062397Y061879D01*
X062430Y061841D01*
X062459Y061801D01*
X062485Y061759D01*
X062508Y061715D01*
X062527Y061669D01*
X062543Y061622D01*
X062555Y061573D01*
X062563Y061524D01*
X062567Y061475D01*
X062567Y061425D01*
X062563Y061376D01*
X062555Y061327D01*
X062543Y061278D01*
X062527Y061231D01*
X062508Y061185D01*
X062485Y061141D01*
X062459Y061099D01*
X062430Y061059D01*
X062397Y061021D01*
X062361Y060987D01*
X062323Y060955D01*
X062283Y060926D01*
X062240Y060901D01*
X062195Y060879D01*
X062149Y060860D01*
X062102Y060846D01*
X062053Y060835D01*
X062004Y060828D01*
X061954Y060825D01*
X061905Y060826D01*
X061855Y060831D01*
X061806Y060840D01*
X061758Y060853D01*
X061711Y060869D01*
X061666Y060889D01*
X061622Y060913D01*
X061581Y060940D01*
X061541Y060970D01*
X061504Y061004D01*
X061470Y061040D01*
X061439Y061079D01*
X061411Y061120D01*
X061387Y061163D01*
X061366Y061208D01*
X061348Y061255D01*
X061335Y061302D01*
X061325Y061351D01*
X061319Y061400D01*
X061317Y061450D01*
X054579Y051166D02*
X054581Y051194D01*
X054587Y051221D01*
X054596Y051247D01*
X054609Y051272D01*
X054626Y051295D01*
X054645Y051315D01*
X054667Y051332D01*
X054691Y051346D01*
X054717Y051356D01*
X054744Y051363D01*
X054772Y051366D01*
X054800Y051365D01*
X054827Y051360D01*
X054854Y051351D01*
X054879Y051339D01*
X054902Y051324D01*
X054923Y051305D01*
X054941Y051284D01*
X054956Y051260D01*
X054967Y051234D01*
X054975Y051208D01*
X054979Y051180D01*
X054979Y051152D01*
X054975Y051124D01*
X054967Y051098D01*
X054956Y051072D01*
X054941Y051048D01*
X054923Y051027D01*
X054902Y051008D01*
X054879Y050993D01*
X054854Y050981D01*
X054827Y050972D01*
X054800Y050967D01*
X054772Y050966D01*
X054744Y050969D01*
X054717Y050976D01*
X054691Y050986D01*
X054667Y051000D01*
X054645Y051017D01*
X054626Y051037D01*
X054609Y051060D01*
X054596Y051085D01*
X054587Y051111D01*
X054581Y051138D01*
X054579Y051166D01*
X054579Y037592D02*
X054581Y037620D01*
X054587Y037647D01*
X054596Y037673D01*
X054609Y037698D01*
X054626Y037721D01*
X054645Y037741D01*
X054667Y037758D01*
X054691Y037772D01*
X054717Y037782D01*
X054744Y037789D01*
X054772Y037792D01*
X054800Y037791D01*
X054827Y037786D01*
X054854Y037777D01*
X054879Y037765D01*
X054902Y037750D01*
X054923Y037731D01*
X054941Y037710D01*
X054956Y037686D01*
X054967Y037660D01*
X054975Y037634D01*
X054979Y037606D01*
X054979Y037578D01*
X054975Y037550D01*
X054967Y037524D01*
X054956Y037498D01*
X054941Y037474D01*
X054923Y037453D01*
X054902Y037434D01*
X054879Y037419D01*
X054854Y037407D01*
X054827Y037398D01*
X054800Y037393D01*
X054772Y037392D01*
X054744Y037395D01*
X054717Y037402D01*
X054691Y037412D01*
X054667Y037426D01*
X054645Y037443D01*
X054626Y037463D01*
X054609Y037486D01*
X054596Y037511D01*
X054587Y037537D01*
X054581Y037564D01*
X054579Y037592D01*
X054272Y035543D02*
X054274Y035587D01*
X054280Y035631D01*
X054290Y035674D01*
X054303Y035716D01*
X054321Y035756D01*
X054342Y035795D01*
X054366Y035832D01*
X054393Y035867D01*
X054424Y035899D01*
X054457Y035928D01*
X054493Y035954D01*
X054531Y035976D01*
X054571Y035995D01*
X054612Y036011D01*
X054655Y036023D01*
X054698Y036031D01*
X054742Y036035D01*
X054786Y036035D01*
X054830Y036031D01*
X054873Y036023D01*
X054916Y036011D01*
X054957Y035995D01*
X054997Y035976D01*
X055035Y035954D01*
X055071Y035928D01*
X055104Y035899D01*
X055135Y035867D01*
X055162Y035832D01*
X055186Y035795D01*
X055207Y035756D01*
X055225Y035716D01*
X055238Y035674D01*
X055248Y035631D01*
X055254Y035587D01*
X055256Y035543D01*
X055254Y035499D01*
X055248Y035455D01*
X055238Y035412D01*
X055225Y035370D01*
X055207Y035330D01*
X055186Y035291D01*
X055162Y035254D01*
X055135Y035219D01*
X055104Y035187D01*
X055071Y035158D01*
X055035Y035132D01*
X054997Y035110D01*
X054957Y035091D01*
X054916Y035075D01*
X054873Y035063D01*
X054830Y035055D01*
X054786Y035051D01*
X054742Y035051D01*
X054698Y035055D01*
X054655Y035063D01*
X054612Y035075D01*
X054571Y035091D01*
X054531Y035110D01*
X054493Y035132D01*
X054457Y035158D01*
X054424Y035187D01*
X054393Y035219D01*
X054366Y035254D01*
X054342Y035291D01*
X054321Y035330D01*
X054303Y035370D01*
X054290Y035412D01*
X054280Y035455D01*
X054274Y035499D01*
X054272Y035543D01*
X061317Y003350D02*
X061319Y003400D01*
X061325Y003449D01*
X061335Y003498D01*
X061348Y003545D01*
X061366Y003592D01*
X061387Y003637D01*
X061411Y003680D01*
X061439Y003721D01*
X061470Y003760D01*
X061504Y003796D01*
X061541Y003830D01*
X061581Y003860D01*
X061622Y003887D01*
X061666Y003911D01*
X061711Y003931D01*
X061758Y003947D01*
X061806Y003960D01*
X061855Y003969D01*
X061905Y003974D01*
X061954Y003975D01*
X062004Y003972D01*
X062053Y003965D01*
X062102Y003954D01*
X062149Y003940D01*
X062195Y003921D01*
X062240Y003899D01*
X062283Y003874D01*
X062323Y003845D01*
X062361Y003813D01*
X062397Y003779D01*
X062430Y003741D01*
X062459Y003701D01*
X062485Y003659D01*
X062508Y003615D01*
X062527Y003569D01*
X062543Y003522D01*
X062555Y003473D01*
X062563Y003424D01*
X062567Y003375D01*
X062567Y003325D01*
X062563Y003276D01*
X062555Y003227D01*
X062543Y003178D01*
X062527Y003131D01*
X062508Y003085D01*
X062485Y003041D01*
X062459Y002999D01*
X062430Y002959D01*
X062397Y002921D01*
X062361Y002887D01*
X062323Y002855D01*
X062283Y002826D01*
X062240Y002801D01*
X062195Y002779D01*
X062149Y002760D01*
X062102Y002746D01*
X062053Y002735D01*
X062004Y002728D01*
X061954Y002725D01*
X061905Y002726D01*
X061855Y002731D01*
X061806Y002740D01*
X061758Y002753D01*
X061711Y002769D01*
X061666Y002789D01*
X061622Y002813D01*
X061581Y002840D01*
X061541Y002870D01*
X061504Y002904D01*
X061470Y002940D01*
X061439Y002979D01*
X061411Y003020D01*
X061387Y003063D01*
X061366Y003108D01*
X061348Y003155D01*
X061335Y003202D01*
X061325Y003251D01*
X061319Y003300D01*
X061317Y003350D01*
X003217Y061450D02*
X003219Y061500D01*
X003225Y061549D01*
X003235Y061598D01*
X003248Y061645D01*
X003266Y061692D01*
X003287Y061737D01*
X003311Y061780D01*
X003339Y061821D01*
X003370Y061860D01*
X003404Y061896D01*
X003441Y061930D01*
X003481Y061960D01*
X003522Y061987D01*
X003566Y062011D01*
X003611Y062031D01*
X003658Y062047D01*
X003706Y062060D01*
X003755Y062069D01*
X003805Y062074D01*
X003854Y062075D01*
X003904Y062072D01*
X003953Y062065D01*
X004002Y062054D01*
X004049Y062040D01*
X004095Y062021D01*
X004140Y061999D01*
X004183Y061974D01*
X004223Y061945D01*
X004261Y061913D01*
X004297Y061879D01*
X004330Y061841D01*
X004359Y061801D01*
X004385Y061759D01*
X004408Y061715D01*
X004427Y061669D01*
X004443Y061622D01*
X004455Y061573D01*
X004463Y061524D01*
X004467Y061475D01*
X004467Y061425D01*
X004463Y061376D01*
X004455Y061327D01*
X004443Y061278D01*
X004427Y061231D01*
X004408Y061185D01*
X004385Y061141D01*
X004359Y061099D01*
X004330Y061059D01*
X004297Y061021D01*
X004261Y060987D01*
X004223Y060955D01*
X004183Y060926D01*
X004140Y060901D01*
X004095Y060879D01*
X004049Y060860D01*
X004002Y060846D01*
X003953Y060835D01*
X003904Y060828D01*
X003854Y060825D01*
X003805Y060826D01*
X003755Y060831D01*
X003706Y060840D01*
X003658Y060853D01*
X003611Y060869D01*
X003566Y060889D01*
X003522Y060913D01*
X003481Y060940D01*
X003441Y060970D01*
X003404Y061004D01*
X003370Y061040D01*
X003339Y061079D01*
X003311Y061120D01*
X003287Y061163D01*
X003266Y061208D01*
X003248Y061255D01*
X003235Y061302D01*
X003225Y061351D01*
X003219Y061400D01*
X003217Y061450D01*
M02*
