%
M48
M72
T01C0.0217
T02C0.0236
T03C0.0394
T04C0.0400
T05C0.0520
T06C0.0669
T07C0.0866
T08C0.1378
%
T01
X18877Y33775
X19271Y34004
X18877Y34232
X19271Y34460
X18877Y34689
X19271Y34917
X18877Y35145
X19271Y35374
X18877Y35602
X19271Y35830
X18877Y36059
X19271Y36287
X18877Y36515
X19271Y36744
X18877Y36972
X19271Y37200
X18877Y37429
X19271Y37657
X18877Y37886
X27377Y37886
X27771Y37657
X27377Y37429
X27771Y37200
X27377Y36972
X27771Y36744
X27377Y36515
X27771Y36287
X27377Y36059
X27771Y35830
X27377Y35602
X27771Y35374
X27377Y35145
X27771Y34917
X27377Y34689
X27771Y34460
X27377Y34232
X27771Y34004
X27377Y33775
X32377Y33775
X32771Y34004
X32377Y34232
X32771Y34460
X32377Y34689
X32771Y34917
X32377Y35145
X32771Y35374
X32377Y35602
X32771Y35830
X32377Y36059
X32771Y36287
X32377Y36515
X32771Y36744
X32377Y36972
X32771Y37200
X32377Y37429
X32771Y37657
X32377Y37886
X39877Y37886
X40271Y37657
X39877Y37429
X40271Y37200
X39877Y36972
X40271Y36744
X39877Y36515
X40271Y36287
X39877Y36059
X40271Y35830
X39877Y35602
X40271Y35374
X39877Y35145
X40271Y34917
X39877Y34689
X40271Y34460
X39877Y34232
X40271Y34004
X39877Y33775
X44877Y33775
X45271Y34004
X44877Y34232
X45271Y34460
X44877Y34689
X45271Y34917
X44877Y35145
X45271Y35374
X44877Y35602
X45271Y35830
X44877Y36059
X45271Y36287
X44877Y36515
X45271Y36744
X44877Y36972
X45271Y37200
X44877Y37429
X45271Y37657
X44877Y37886
X49877Y37886
X50271Y37657
X49877Y37429
X50271Y37200
X49877Y36972
X50271Y36744
X49877Y36515
X50271Y36287
X49877Y36059
X50271Y35830
X49877Y35602
X50271Y35374
X49877Y35145
X50271Y34917
X49877Y34689
X50271Y34460
X49877Y34232
X50271Y34004
X49877Y33775
X54877Y33775
X55271Y34004
X54877Y34232
X55271Y34460
X54877Y34689
X55271Y34917
X54877Y35145
X55271Y35374
X54877Y35602
X55271Y35830
X54877Y36059
X55271Y36287
X54877Y36515
X55271Y36744
X54877Y36972
X55271Y37200
X54877Y37429
X55271Y37657
X54877Y37886
T02
X52630Y35930
X51630Y36230
X47530Y36020
X47030Y36280
X49430Y32380
X49430Y31880
X48930Y31580
X48930Y31080
X50890Y29720
X55870Y29720
X51530Y24980
X51430Y23780
X50930Y23780
X49930Y23780
X49430Y23780
X48930Y23780
X47830Y25380
X44830Y23480
X41630Y23980
X38730Y23480
X36330Y25680
X36330Y26180
X34230Y24680
X33130Y23580
X32330Y23480
X34130Y21680
X34130Y21180
X36130Y19380
X36630Y19380
X37130Y19380
X38130Y19380
X38630Y19380
X39130Y19380
X39630Y19380
X40130Y19380
X40630Y19380
X41130Y19380
X42130Y20480
X42730Y19480
X43230Y19480
X43730Y19480
X44230Y19480
X44730Y19480
X45230Y19480
X45730Y19480
X46230Y19480
X46730Y19480
X47230Y19480
X47730Y19480
X48830Y19980
X51530Y18180
X54430Y18180
X57630Y19680
X57630Y20880
X57130Y21980
X54430Y23780
X53930Y23780
X53430Y23780
X52930Y23780
X52430Y23780
X51930Y23780
X45290Y29320
X44030Y30980
X44030Y31480
X44530Y31880
X44005Y32280
X40090Y29720
X39030Y30880
X39030Y31380
X39530Y31780
X39530Y32280
X42330Y36180
X41730Y36480
X34990Y29920
X32430Y31180
X32430Y31680
X32430Y32180
X32430Y32680
X31030Y31680
X31030Y31180
X31030Y30680
X31030Y30180
X28390Y29720
X25130Y29880
X24230Y29880
X23330Y29880
X22430Y29880
X22430Y28580
X23330Y28580
X24230Y28580
X25130Y28580
X25130Y26180
X24230Y26180
X23330Y26180
X22580Y26230
X19890Y29720
X16530Y28980
X15120Y30830
X12730Y28880
X11280Y29080
X10890Y30950
X8230Y30980
X9830Y33280
X8730Y33980
X7630Y35180
X7630Y27080
X9565Y24415
X10880Y23080
X8030Y20880
X7130Y21680
X5430Y22080
X4330Y19880
X2330Y19280
X1980Y19780
X1430Y18330
X3030Y16280
X3830Y15380
X4330Y15380
X5280Y14930
X5380Y15430
X6630Y16180
X6730Y14480
X7230Y14180
X8730Y13380
X8730Y12380
X8730Y11380
X8730Y10380
X8730Y9380
X8730Y8380
X8730Y7380
X8730Y6380
X6730Y5680
X6230Y5680
X5430Y6680
X5430Y7180
X6230Y8880
X7230Y10180
X4830Y13180
X4330Y13180
X3030Y8780
X11880Y12280
X12530Y12580
X14710Y12300
X18230Y13980
X17130Y16680
X17030Y17580
X18130Y18380
X20030Y18680
X20930Y18680
X22630Y18480
X22930Y16980
X24130Y15880
X24330Y15180
X23830Y14080
X22830Y13980
X25530Y13580
X27430Y12080
X30430Y13580
X30730Y15380
X32630Y15980
X32630Y16480
X32630Y16980
X32630Y17480
X32630Y17980
X32630Y18480
X29930Y18580
X28130Y18606
X27330Y18580
X25430Y18680
X24830Y17380
X24030Y21380
X22230Y21380
X20430Y21380
X18630Y21480
X15980Y26130
X11230Y26080
X9830Y18880
X19876Y8830
X23430Y9480
X33830Y10580
X34730Y10180
X35330Y10280
X35375Y10935
X34230Y9280
X33730Y6180
X34780Y5080
X35430Y4580
X36005Y4580
X35760Y5210
X38230Y5380
X39130Y5380
X39430Y4680
X40130Y4780
X40330Y5480
X41130Y5280
X41629Y7179
X45130Y8280
X40130Y14180
X39130Y14180
X38630Y14180
X38130Y14180
X37630Y14180
X36630Y14180
X31430Y21380
X29630Y21480
X27830Y21480
X25930Y21480
X29630Y35980
X29630Y36480
T03
X12130Y35980
X11130Y35980
T04
X34055Y22711
X47629Y22711
X28890Y8900
X28890Y7900
X28890Y6900
X34055Y6963
X47629Y6963
T05
X5960Y35930
X5960Y39930
T06
X18484Y38634
X19861Y33417
X26984Y38634
X31984Y38634
X33361Y33417
X28361Y33417
X39484Y38634
X44484Y38634
X49484Y38634
X54484Y38634
X55861Y33417
X50861Y33417
X45861Y33417
X40861Y33417
T07
X14130Y37980
X10130Y37980
T08
X2830Y2980
X30330Y2980
X57830Y2980
X36330Y30980
X57830Y37980
X2830Y37980
M30
