G75*
G70*
%OFA0B0*%
%FSLAX24Y24*%
%IPPOS*%
%LPD*%
%AMOC8*
5,1,8,0,0,1.08239X$1,22.5*
%
%ADD10C,0.1458*%
%ADD11C,0.0749*%
%ADD12C,0.0437*%
%ADD13R,0.0790X0.0710*%
%ADD14R,0.0237X0.0710*%
%ADD15C,0.0480*%
%ADD16R,0.0710X0.0790*%
%ADD17R,0.0395X0.0867*%
%ADD18C,0.1346*%
%ADD19C,0.0671*%
%ADD20C,0.0860*%
%ADD21R,0.0356X0.0474*%
%ADD22R,0.0867X0.0867*%
%ADD23R,0.0631X0.0218*%
%ADD24R,0.1064X0.0513*%
%ADD25R,0.0513X0.0474*%
%ADD26R,0.0710X0.0789*%
%ADD27R,0.0789X0.0710*%
%ADD28R,0.1080X0.0300*%
%ADD29R,0.0710X0.0592*%
%ADD30R,0.0592X0.0710*%
%ADD31C,0.0820*%
%ADD32R,0.0474X0.0218*%
%ADD33R,0.0456X0.0456*%
D10*
X002830Y002980D03*
X030330Y002980D03*
X057830Y002980D03*
X036330Y030980D03*
X057830Y037980D03*
X002830Y037980D03*
D11*
X018484Y038634D03*
X019861Y033417D03*
X026984Y038634D03*
X031984Y038634D03*
X033361Y033417D03*
X028361Y033417D03*
X039484Y038634D03*
X044484Y038634D03*
X049484Y038634D03*
X054484Y038634D03*
X055861Y033417D03*
X050861Y033417D03*
X045861Y033417D03*
X040861Y033417D03*
D12*
X040271Y034004D03*
X039877Y034232D03*
X040271Y034460D03*
X039877Y034689D03*
X040271Y034917D03*
X039877Y035145D03*
X040271Y035374D03*
X039877Y035602D03*
X040271Y035830D03*
X039877Y036059D03*
X040271Y036287D03*
X039877Y036515D03*
X040271Y036744D03*
X039877Y036972D03*
X040271Y037200D03*
X039877Y037429D03*
X040271Y037657D03*
X039877Y037886D03*
X044877Y037886D03*
X045271Y037657D03*
X044877Y037429D03*
X045271Y037200D03*
X044877Y036972D03*
X045271Y036744D03*
X044877Y036515D03*
X045271Y036287D03*
X044877Y036059D03*
X045271Y035830D03*
X044877Y035602D03*
X045271Y035374D03*
X044877Y035145D03*
X045271Y034917D03*
X044877Y034689D03*
X045271Y034460D03*
X044877Y034232D03*
X045271Y034004D03*
X044877Y033775D03*
X039877Y033775D03*
X032771Y034004D03*
X032377Y034232D03*
X032771Y034460D03*
X032377Y034689D03*
X032771Y034917D03*
X032377Y035145D03*
X032771Y035374D03*
X032377Y035602D03*
X032771Y035830D03*
X032377Y036059D03*
X032771Y036287D03*
X032377Y036515D03*
X032771Y036744D03*
X032377Y036972D03*
X032771Y037200D03*
X032377Y037429D03*
X032771Y037657D03*
X032377Y037886D03*
X027771Y037657D03*
X027377Y037429D03*
X027771Y037200D03*
X027377Y036972D03*
X027771Y036744D03*
X027377Y036515D03*
X027771Y036287D03*
X027377Y036059D03*
X027771Y035830D03*
X027377Y035602D03*
X027771Y035374D03*
X027377Y035145D03*
X027771Y034917D03*
X027377Y034689D03*
X027771Y034460D03*
X027377Y034232D03*
X027771Y034004D03*
X027377Y033775D03*
X032377Y033775D03*
X027377Y037886D03*
X019271Y037657D03*
X018877Y037429D03*
X019271Y037200D03*
X018877Y036972D03*
X019271Y036744D03*
X018877Y036515D03*
X019271Y036287D03*
X018877Y036059D03*
X019271Y035830D03*
X018877Y035602D03*
X019271Y035374D03*
X018877Y035145D03*
X019271Y034917D03*
X018877Y034689D03*
X019271Y034460D03*
X018877Y034232D03*
X019271Y034004D03*
X018877Y033775D03*
X018877Y037886D03*
X049877Y037886D03*
X050271Y037657D03*
X049877Y037429D03*
X050271Y037200D03*
X049877Y036972D03*
X050271Y036744D03*
X049877Y036515D03*
X050271Y036287D03*
X049877Y036059D03*
X050271Y035830D03*
X049877Y035602D03*
X050271Y035374D03*
X049877Y035145D03*
X050271Y034917D03*
X049877Y034689D03*
X050271Y034460D03*
X049877Y034232D03*
X050271Y034004D03*
X049877Y033775D03*
X054877Y033775D03*
X055271Y034004D03*
X054877Y034232D03*
X055271Y034460D03*
X054877Y034689D03*
X055271Y034917D03*
X054877Y035145D03*
X055271Y035374D03*
X054877Y035602D03*
X055271Y035830D03*
X054877Y036059D03*
X055271Y036287D03*
X054877Y036515D03*
X055271Y036744D03*
X054877Y036972D03*
X055271Y037200D03*
X054877Y037429D03*
X055271Y037657D03*
X054877Y037886D03*
D13*
X055330Y023840D03*
X056530Y023840D03*
X056530Y022720D03*
X055330Y022720D03*
X054030Y022140D03*
X053030Y022140D03*
X052130Y022140D03*
X051230Y022140D03*
X050330Y022140D03*
X049330Y022140D03*
X049330Y021020D03*
X050330Y021020D03*
X051230Y021020D03*
X052130Y021020D03*
X053030Y021020D03*
X054030Y021020D03*
X058030Y022720D03*
X058930Y022720D03*
X058930Y023840D03*
X058030Y023840D03*
X047730Y017840D03*
X046730Y017840D03*
X045830Y017840D03*
X044930Y017840D03*
X044030Y017840D03*
X043030Y017840D03*
X041330Y017740D03*
X040330Y017740D03*
X039430Y017740D03*
X038530Y017740D03*
X037630Y017740D03*
X036630Y017740D03*
X036630Y016620D03*
X037630Y016620D03*
X038530Y016620D03*
X039430Y016620D03*
X040330Y016620D03*
X041330Y016620D03*
X043030Y016720D03*
X044030Y016720D03*
X044930Y016720D03*
X045830Y016720D03*
X046730Y016720D03*
X047730Y016720D03*
X057530Y015740D03*
X057530Y014620D03*
X058930Y014620D03*
X058930Y015740D03*
X025130Y026820D03*
X024230Y026820D03*
X023330Y026820D03*
X022430Y026820D03*
X022430Y027940D03*
X023330Y027940D03*
X024230Y027940D03*
X025130Y027940D03*
X025130Y030520D03*
X024230Y030520D03*
X023330Y030520D03*
X022430Y030520D03*
X022430Y031640D03*
X023330Y031640D03*
X024230Y031640D03*
X025130Y031640D03*
X010580Y019890D03*
X010580Y018770D03*
D14*
X034700Y022336D03*
X035015Y022336D03*
X035330Y022336D03*
X035645Y022336D03*
X035960Y022336D03*
X036275Y022336D03*
X036590Y022336D03*
X036905Y022336D03*
X037220Y022336D03*
X037535Y022336D03*
X037850Y022336D03*
X038165Y022336D03*
X038480Y022336D03*
X038795Y022336D03*
X039110Y022336D03*
X039424Y022336D03*
X039739Y022336D03*
X040054Y022336D03*
X040369Y022336D03*
X040684Y022336D03*
X040999Y022336D03*
X041314Y022336D03*
X041629Y022336D03*
X041944Y022336D03*
X042259Y022336D03*
X042574Y022336D03*
X042889Y022336D03*
X043204Y022336D03*
X043519Y022336D03*
X043834Y022336D03*
X044149Y022336D03*
X044464Y022336D03*
X044779Y022336D03*
X045094Y022336D03*
X045409Y022336D03*
X045724Y022336D03*
X046039Y022336D03*
X046354Y022336D03*
X046669Y022336D03*
X046984Y022336D03*
X046984Y024686D03*
X046669Y024686D03*
X046354Y024686D03*
X046039Y024686D03*
X045724Y024686D03*
X045409Y024686D03*
X045094Y024686D03*
X044779Y024686D03*
X044464Y024686D03*
X044149Y024686D03*
X043834Y024686D03*
X043519Y024686D03*
X043204Y024686D03*
X042889Y024686D03*
X042574Y024686D03*
X042259Y024686D03*
X041944Y024686D03*
X041629Y024686D03*
X041314Y024686D03*
X040999Y024686D03*
X040684Y024686D03*
X040369Y024686D03*
X040054Y024686D03*
X039739Y024686D03*
X039424Y024686D03*
X039110Y024686D03*
X038795Y024686D03*
X038480Y024686D03*
X038165Y024686D03*
X037850Y024686D03*
X037535Y024686D03*
X037220Y024686D03*
X036905Y024686D03*
X036590Y024686D03*
X036275Y024686D03*
X035960Y024686D03*
X035645Y024686D03*
X035330Y024686D03*
X035015Y024686D03*
X034700Y024686D03*
X034700Y008938D03*
X035015Y008938D03*
X035330Y008938D03*
X035645Y008938D03*
X035960Y008938D03*
X036275Y008938D03*
X036590Y008938D03*
X036905Y008938D03*
X037220Y008938D03*
X037535Y008938D03*
X037850Y008938D03*
X038165Y008938D03*
X038480Y008938D03*
X038795Y008938D03*
X039110Y008938D03*
X039424Y008938D03*
X039739Y008938D03*
X040054Y008938D03*
X040369Y008938D03*
X040684Y008938D03*
X040999Y008938D03*
X041314Y008938D03*
X041629Y008938D03*
X041944Y008938D03*
X042259Y008938D03*
X042574Y008938D03*
X042889Y008938D03*
X043204Y008938D03*
X043519Y008938D03*
X043834Y008938D03*
X044149Y008938D03*
X044464Y008938D03*
X044779Y008938D03*
X045094Y008938D03*
X045409Y008938D03*
X045724Y008938D03*
X046039Y008938D03*
X046354Y008938D03*
X046669Y008938D03*
X046984Y008938D03*
X046984Y006588D03*
X046669Y006588D03*
X046354Y006588D03*
X046039Y006588D03*
X045724Y006588D03*
X045409Y006588D03*
X045094Y006588D03*
X044779Y006588D03*
X044464Y006588D03*
X044149Y006588D03*
X043834Y006588D03*
X043519Y006588D03*
X043204Y006588D03*
X042889Y006588D03*
X042574Y006588D03*
X042259Y006588D03*
X041944Y006588D03*
X041629Y006588D03*
X041314Y006588D03*
X040999Y006588D03*
X040684Y006588D03*
X040369Y006588D03*
X040054Y006588D03*
X039739Y006588D03*
X039424Y006588D03*
X039110Y006588D03*
X038795Y006588D03*
X038480Y006588D03*
X038165Y006588D03*
X037850Y006588D03*
X037535Y006588D03*
X037220Y006588D03*
X036905Y006588D03*
X036590Y006588D03*
X036275Y006588D03*
X035960Y006588D03*
X035645Y006588D03*
X035330Y006588D03*
X035015Y006588D03*
X034700Y006588D03*
D15*
X034055Y006963D03*
X047629Y006963D03*
X047629Y022711D03*
X034055Y022711D03*
D16*
X033390Y030480D03*
X032270Y030480D03*
X028390Y030480D03*
X027270Y030480D03*
X019890Y030480D03*
X018770Y030480D03*
X009940Y030780D03*
X008820Y030780D03*
X010820Y017630D03*
X011940Y017630D03*
X020670Y009280D03*
X021790Y009280D03*
X045470Y021280D03*
X046590Y021280D03*
X045890Y030480D03*
X044770Y030480D03*
X040890Y030480D03*
X039770Y030480D03*
X049770Y030480D03*
X050890Y030480D03*
X054770Y030480D03*
X055890Y030480D03*
D17*
X013074Y020530D03*
X012286Y020530D03*
D18*
X014130Y037980D03*
X010130Y037980D03*
D19*
X011130Y035980D03*
X012130Y035980D03*
D20*
X005960Y035930D03*
X005960Y039930D03*
D21*
X011606Y019742D03*
X011980Y019742D03*
X012354Y019742D03*
X012354Y018718D03*
X011980Y018718D03*
X011606Y018718D03*
D22*
X013580Y018017D03*
X013580Y016443D03*
D23*
X014710Y011960D03*
X014710Y011704D03*
X014710Y011448D03*
X014710Y011192D03*
X014710Y010936D03*
X014710Y010680D03*
X014710Y010424D03*
X014710Y010168D03*
X014710Y009912D03*
X014710Y009656D03*
X012406Y009656D03*
X012406Y009912D03*
X012406Y010168D03*
X012406Y010424D03*
X012406Y010680D03*
X012406Y010936D03*
X012406Y011192D03*
X012406Y011448D03*
X012406Y011704D03*
X012406Y011960D03*
X012174Y030945D03*
X012174Y031200D03*
X012174Y031456D03*
X012174Y031712D03*
X012174Y031968D03*
X012174Y032224D03*
X012174Y032480D03*
X012174Y032736D03*
X012174Y032992D03*
X012174Y033248D03*
X012174Y033504D03*
X012174Y033760D03*
X014437Y033760D03*
X014437Y033504D03*
X014437Y033248D03*
X014437Y032992D03*
X014437Y032736D03*
X014437Y032480D03*
X014437Y032224D03*
X014437Y031968D03*
X014437Y031712D03*
X014437Y031456D03*
X014437Y031200D03*
X014437Y030945D03*
D24*
X018247Y028897D03*
X018247Y028189D03*
X018247Y027480D03*
X020413Y027480D03*
X020413Y028189D03*
X020413Y028897D03*
X026747Y028897D03*
X026747Y028189D03*
X026747Y027480D03*
X028913Y027480D03*
X028913Y028189D03*
X028913Y028897D03*
X031747Y028897D03*
X031747Y028189D03*
X031747Y027480D03*
X033913Y027480D03*
X033913Y028189D03*
X033913Y028897D03*
X039247Y028897D03*
X039247Y028189D03*
X039247Y027480D03*
X041413Y027480D03*
X041413Y028189D03*
X041413Y028897D03*
X044247Y028897D03*
X044247Y028189D03*
X044247Y027480D03*
X046413Y027480D03*
X046413Y028189D03*
X046413Y028897D03*
X049247Y028897D03*
X049247Y028189D03*
X049247Y027480D03*
X051413Y027480D03*
X051413Y028189D03*
X051413Y028897D03*
X054247Y028897D03*
X054247Y028189D03*
X054247Y027480D03*
X056413Y027480D03*
X056413Y028189D03*
X056413Y028897D03*
X022213Y007697D03*
X022213Y006989D03*
X022213Y006280D03*
X020047Y006280D03*
X020047Y006989D03*
X020047Y007697D03*
D25*
X020195Y012780D03*
X020865Y012780D03*
X027495Y012780D03*
X028165Y012780D03*
X011865Y012980D03*
X011195Y012980D03*
X005265Y013980D03*
X004595Y013980D03*
X004495Y021480D03*
X005165Y021480D03*
X008895Y024980D03*
X009565Y024980D03*
X012895Y028180D03*
X013565Y028180D03*
X014795Y030280D03*
X015465Y030280D03*
X010265Y031730D03*
X009595Y031730D03*
X009595Y032630D03*
X010265Y032630D03*
D26*
X010079Y029880D03*
X011181Y029880D03*
X011629Y021430D03*
X012731Y021430D03*
D27*
X009830Y017831D03*
X009830Y016729D03*
D28*
X006036Y016880D03*
X006036Y017380D03*
X006036Y017880D03*
X006036Y018380D03*
X006036Y018880D03*
X006036Y019380D03*
X006036Y019880D03*
X006036Y020380D03*
X003430Y020380D03*
X003430Y019880D03*
X003430Y019380D03*
X003430Y018880D03*
X003430Y018380D03*
X003430Y017880D03*
X003430Y017380D03*
X003430Y016880D03*
X003330Y012880D03*
X003330Y012380D03*
X003330Y011880D03*
X003330Y011380D03*
X003330Y010880D03*
X003330Y010380D03*
X003330Y009880D03*
X003330Y009380D03*
X005936Y009380D03*
X005936Y009880D03*
X005936Y010380D03*
X005936Y010880D03*
X005936Y011380D03*
X005936Y011880D03*
X005936Y012380D03*
X005936Y012880D03*
X019030Y013980D03*
X019030Y014480D03*
X019030Y014980D03*
X019030Y015480D03*
X019030Y015980D03*
X019030Y016480D03*
X019030Y016980D03*
X019030Y017480D03*
X021636Y017480D03*
X021636Y016980D03*
X021636Y016480D03*
X021636Y015980D03*
X021636Y015480D03*
X021636Y014980D03*
X021636Y014480D03*
X021636Y013980D03*
X026430Y013980D03*
X026430Y014480D03*
X026430Y014980D03*
X026430Y015480D03*
X026430Y015980D03*
X026430Y016480D03*
X026430Y016980D03*
X026430Y017480D03*
X029036Y017480D03*
X029036Y016980D03*
X029036Y016480D03*
X029036Y015980D03*
X029036Y015480D03*
X029036Y014980D03*
X029036Y014480D03*
X029036Y013980D03*
D29*
X028730Y019306D03*
X028730Y020054D03*
X027830Y020206D03*
X027830Y020954D03*
X026930Y020054D03*
X025930Y020206D03*
X025930Y020954D03*
X025030Y020054D03*
X025030Y019306D03*
X024030Y020106D03*
X024030Y020854D03*
X023130Y020054D03*
X022230Y020106D03*
X022230Y020854D03*
X021330Y020054D03*
X020430Y020106D03*
X020430Y020854D03*
X019530Y020154D03*
X018630Y020106D03*
X018630Y020854D03*
X017730Y020054D03*
X017730Y019306D03*
X019530Y019406D03*
X021330Y019306D03*
X023130Y019306D03*
X026930Y019306D03*
X029630Y020206D03*
X029630Y020954D03*
X030530Y020054D03*
X031430Y020106D03*
X031430Y020854D03*
X030530Y019306D03*
D30*
X025904Y009480D03*
X025156Y009480D03*
X025156Y008580D03*
X025904Y008580D03*
X025904Y007580D03*
X025156Y007580D03*
X025156Y006580D03*
X025904Y006580D03*
X045556Y020480D03*
X046304Y020480D03*
D31*
X028890Y008900D03*
X028890Y007900D03*
X028890Y006900D03*
D32*
X009742Y025824D03*
X009742Y026080D03*
X009742Y026336D03*
X008797Y026336D03*
X008797Y026080D03*
X008797Y025824D03*
D33*
X009565Y024415D03*
X010880Y023080D03*
X008030Y020880D03*
X007130Y021680D03*
X005430Y022080D03*
X004330Y019880D03*
X002330Y019280D03*
X001980Y019780D03*
X001430Y018330D03*
X003030Y016280D03*
X003830Y015380D03*
X004330Y015380D03*
X005280Y014930D03*
X005380Y015430D03*
X006630Y016180D03*
X006730Y014480D03*
X007230Y014180D03*
X008730Y013380D03*
X008730Y012380D03*
X008730Y011380D03*
X008730Y010380D03*
X008730Y009380D03*
X008730Y008380D03*
X008730Y007380D03*
X008730Y006380D03*
X006730Y005680D03*
X006230Y005680D03*
X005430Y006680D03*
X005430Y007180D03*
X006230Y008880D03*
X007230Y010180D03*
X004830Y013180D03*
X004330Y013180D03*
X003030Y008780D03*
X011880Y012280D03*
X012530Y012580D03*
X014710Y012300D03*
X018230Y013980D03*
X017130Y016680D03*
X017030Y017580D03*
X018130Y018380D03*
X020030Y018680D03*
X020930Y018680D03*
X022630Y018480D03*
X022930Y016980D03*
X024130Y015880D03*
X024330Y015180D03*
X023830Y014080D03*
X022830Y013980D03*
X025530Y013580D03*
X027430Y012080D03*
X030430Y013580D03*
X030730Y015380D03*
X032630Y015980D03*
X032630Y016480D03*
X032630Y016980D03*
X032630Y017480D03*
X032630Y017980D03*
X032630Y018480D03*
X029930Y018580D03*
X028130Y018606D03*
X027330Y018580D03*
X025430Y018680D03*
X024830Y017380D03*
X024030Y021380D03*
X022230Y021380D03*
X020430Y021380D03*
X018630Y021480D03*
X015980Y026130D03*
X012730Y028880D03*
X011280Y029080D03*
X010890Y030950D03*
X008230Y030980D03*
X009830Y033280D03*
X008730Y033980D03*
X007630Y035180D03*
X015120Y030830D03*
X016530Y028980D03*
X019890Y029720D03*
X022430Y029880D03*
X023330Y029880D03*
X024230Y029880D03*
X025130Y029880D03*
X025130Y028580D03*
X024230Y028580D03*
X023330Y028580D03*
X022430Y028580D03*
X022580Y026230D03*
X023330Y026180D03*
X024230Y026180D03*
X025130Y026180D03*
X028390Y029720D03*
X031030Y030180D03*
X031030Y030680D03*
X031030Y031180D03*
X031030Y031680D03*
X032430Y031680D03*
X032430Y031180D03*
X032430Y032180D03*
X032430Y032680D03*
X034990Y029920D03*
X039030Y030880D03*
X039030Y031380D03*
X039530Y031780D03*
X039530Y032280D03*
X040090Y029720D03*
X044030Y030980D03*
X044030Y031480D03*
X044530Y031880D03*
X044005Y032280D03*
X045290Y029320D03*
X048930Y031080D03*
X048930Y031580D03*
X049430Y031880D03*
X049430Y032380D03*
X050890Y029720D03*
X055870Y029720D03*
X051530Y024980D03*
X051430Y023780D03*
X050930Y023780D03*
X049930Y023780D03*
X049430Y023780D03*
X048930Y023780D03*
X047830Y025380D03*
X044830Y023480D03*
X041630Y023980D03*
X038730Y023480D03*
X036330Y025680D03*
X036330Y026180D03*
X034230Y024680D03*
X033130Y023580D03*
X032330Y023480D03*
X034130Y021680D03*
X034130Y021180D03*
X036130Y019380D03*
X036630Y019380D03*
X037130Y019380D03*
X038130Y019380D03*
X038630Y019380D03*
X039130Y019380D03*
X039630Y019380D03*
X040130Y019380D03*
X040630Y019380D03*
X041130Y019380D03*
X042130Y020480D03*
X042730Y019480D03*
X043230Y019480D03*
X043730Y019480D03*
X044230Y019480D03*
X044730Y019480D03*
X045230Y019480D03*
X045730Y019480D03*
X046230Y019480D03*
X046730Y019480D03*
X047230Y019480D03*
X047730Y019480D03*
X048830Y019980D03*
X051530Y018180D03*
X054430Y018180D03*
X057630Y019680D03*
X057630Y020880D03*
X057130Y021980D03*
X054430Y023780D03*
X053930Y023780D03*
X053430Y023780D03*
X052930Y023780D03*
X052430Y023780D03*
X051930Y023780D03*
X040130Y014180D03*
X039130Y014180D03*
X038630Y014180D03*
X038130Y014180D03*
X037630Y014180D03*
X036630Y014180D03*
X035375Y010935D03*
X035330Y010280D03*
X034730Y010180D03*
X033830Y010580D03*
X034230Y009280D03*
X033730Y006180D03*
X034780Y005080D03*
X035430Y004580D03*
X036005Y004580D03*
X035760Y005210D03*
X038230Y005380D03*
X039130Y005380D03*
X039430Y004680D03*
X040130Y004780D03*
X040330Y005480D03*
X041130Y005280D03*
X041629Y007179D03*
X045130Y008280D03*
X031430Y021380D03*
X029630Y021480D03*
X027830Y021480D03*
X025930Y021480D03*
X011230Y026080D03*
X007630Y027080D03*
X009830Y018880D03*
X019876Y008830D03*
X023430Y009480D03*
X029630Y035980D03*
X029630Y036480D03*
X041730Y036480D03*
X042330Y036180D03*
X047030Y036280D03*
X047530Y036020D03*
X051630Y036230D03*
X052630Y035930D03*
M02*
