%
M48
M72
T01C0.0150
T02C0.0236
T03C0.0360
T04C0.0394
T05C0.0400
T06C0.0472
T07C0.0512
T08C0.0551
T09C0.0669
T10C0.0866
T11C0.0984
T12C0.1250
T13C0.1378
%
T01
X6382Y5760
X7342Y7150
X7342Y8000
X8642Y8600
X9342Y8600
X10042Y8600
X10742Y8600
X11442Y8600
X12142Y8600
X12842Y8600
X13542Y8600
X14767Y10275
X16367Y9050
X18317Y9025
X18292Y7000
X18292Y5650
X18692Y5450
X19792Y6200
X20442Y5850
X21092Y6150
X21492Y5850
X21792Y6250
X22242Y7000
X24092Y6250
X24342Y7000
X24792Y5850
X25292Y5350
X25492Y4650
X26467Y6125
X26342Y7000
X27592Y5350
X27092Y4800
X27042Y3250
X29092Y3250
X30142Y5550
X30442Y7000
X31892Y5850
X32692Y7250
X33792Y7210
X35122Y7130
X36192Y7450
X36532Y7770
X36642Y7150
X37242Y6100
X38742Y6950
X39427Y6465
X40142Y7050
X40542Y6650
X41042Y7450
X41342Y8050
X41142Y8550
X40642Y8850
X40642Y8225
X39004Y9088
X37842Y8550
X36542Y8550
X36342Y9500
X35892Y10300
X35542Y9350
X35092Y11050
X34442Y11300
X36842Y12150
X37992Y11450
X38692Y11350
X38592Y12050
X38392Y13750
X38792Y14100
X38392Y14450
X37792Y14750
X37792Y13600
X40192Y13650
X41042Y15125
X41242Y17900
X40692Y17900
X40642Y18550
X41492Y19100
X41492Y19850
X41492Y20550
X41342Y25200
X41192Y26200
X38842Y28650
X39792Y29350
X38842Y29850
X38842Y30300
X34442Y26200
X33332Y25210
X32817Y25050
X32142Y23600
X31092Y23200
X29992Y24400
X30342Y26000
X31342Y27250
X32192Y27800
X30092Y27700
X27142Y28500
X26442Y28150
X27142Y29300
X26842Y30050
X27442Y30100
X25677Y30850
X24698Y29844
X25192Y29400
X24492Y28900
X24042Y28500
X25142Y27300
X25692Y26550
X26892Y26900
X24817Y25850
X24042Y25850
X22542Y24800
X22542Y24350
X22542Y23900
X22542Y23450
X21942Y22150
X23452Y21340
X24042Y20250
X22642Y19750
X23392Y18150
X21242Y17550
X19392Y17000
X18692Y16300
X18792Y15350
X18567Y13450
X19042Y13300
X19653Y12725
X20567Y13500
X20692Y14200
X21592Y15400
X22642Y15600
X23492Y15550
X24342Y15900
X24567Y13525
X24942Y13300
X25653Y12725
X26567Y13525
X27042Y13300
X27667Y12725
X28592Y13525
X29042Y13300
X29717Y12725
X30592Y13512
X30617Y11450
X28567Y11475
X26542Y11475
X24542Y11475
X23667Y12725
X22567Y13525
X21642Y12725
X22492Y11450
X20492Y11450
X18492Y11425
X17667Y12725
X16520Y13228
X15642Y12725
X15042Y13300
X13542Y12100
X12842Y12100
X12142Y12100
X11442Y12100
X10742Y12100
X10042Y12100
X9342Y12100
X8642Y12100
X8242Y14650
X8692Y16000
X9307Y17140
X8242Y18850
X6942Y18850
X6192Y19200
X6592Y19700
X6192Y22100
X4792Y22050
X4123Y23530
X3542Y23950
X5042Y24050
X5542Y23550
X6492Y24050
X7042Y23550
X7992Y24050
X8542Y23550
X7592Y22150
X9542Y21750
X10742Y19850
X12342Y20450
X12842Y21750
X14323Y23480
X13792Y24050
X14717Y25450
X15217Y25925
X15257Y26610
X14842Y27150
X13757Y26610
X13592Y25925
X12042Y26350
X10942Y24950
X11142Y24600
X11392Y24300
X11692Y24000
X9592Y25925
X9742Y26550
X8992Y25300
X7992Y25925
X7542Y25300
X6492Y25925
X6067Y25300
X4992Y25925
X4392Y25400
X3892Y26975
X4592Y27100
X5407Y27065
X6092Y27100
X6892Y26975
X7542Y27250
X8417Y27000
X8792Y28250
X14732Y22340
X16132Y22340
X15792Y23500
X15242Y24100
X16742Y24100
X17373Y23530
X18242Y24100
X18692Y23500
X18932Y22290
X17532Y22290
X17142Y19700
X16592Y19700
X16542Y18700
X16342Y17750
X16342Y16650
X15679Y15837
X17092Y15450
X16792Y14850
X16742Y14300
X16492Y11425
X20342Y9050
X22292Y9040
X20242Y7000
X21292Y3900
X21842Y3650
X22192Y3200
X22742Y3900
X20992Y3050
X20642Y3450
X20292Y3050
X16792Y5450
X16392Y4500
X16292Y3450
X15142Y2350
X13065Y4073
X12475Y4083
X11884Y4108
X11294Y4098
X10792Y3350
X10292Y3700
X9392Y3550
X9292Y4200
X7932Y5200
X13742Y5250
X14642Y6150
X16292Y7000
X24417Y9075
X26392Y9000
X28492Y9050
X28342Y7000
X28242Y6175
X31963Y4220
X32312Y3060
X32792Y3010
X32342Y2350
X33294Y4202
X33884Y4242
X34475Y4283
X35065Y4323
X32542Y9150
X31842Y9650
X37692Y10300
X41092Y10600
X43392Y8950
X43842Y8400
X44492Y8450
X44092Y9150
X43592Y10150
X45992Y11400
X48042Y10350
X48042Y8150
X48142Y6250
X49042Y5050
X49742Y6350
X49942Y7550
X51142Y6350
X51442Y5950
X50942Y5550
X50642Y5050
X52142Y5750
X52342Y5150
X52542Y4550
X52842Y4050
X53042Y3350
X53692Y3300
X54642Y2350
X55142Y1850
X55542Y1650
X55942Y1750
X56342Y1850
X57417Y1500
X57942Y2250
X58342Y1575
X58842Y1550
X59142Y1850
X59542Y1850
X60742Y2850
X60092Y3425
X59542Y3450
X59342Y4050
X59042Y4550
X59642Y5950
X59242Y6350
X56042Y3850
X56342Y3350
X56992Y3350
X55842Y4450
X55542Y4950
X55342Y5550
X53042Y1850
X52642Y1750
X52242Y1550
X51942Y1850
X51442Y2350
X50961Y2713
X50992Y1500
X49742Y1850
X49442Y1550
X48942Y1650
X48642Y1950
X49842Y3450
X54317Y1300
X44892Y7100
X44292Y7300
X44742Y6350
X44565Y4277
X43975Y4292
X43384Y4283
X42794Y4298
X41463Y4195
X41752Y3410
X42232Y3010
X42192Y5700
X41192Y5650
X48142Y12750
X48142Y15050
X50542Y16400
X50892Y17000
X51342Y17450
X49842Y17300
X48142Y17550
X47442Y19200
X47742Y19850
X48142Y20350
X48542Y20000
X48792Y21950
X49692Y22150
X49692Y22950
X49342Y23450
X48142Y24950
X47742Y25950
X49242Y27000
X49992Y27800
X50042Y28450
X50942Y28050
X51542Y27550
X51242Y29472
X51542Y29872
X51942Y29522
X51592Y30422
X51092Y31372
X49492Y34300
X49042Y34650
X50067Y35325
X51042Y36950
X49892Y37400
X49892Y37950
X48142Y40450
X46742Y39000
X46092Y37625
X46592Y36400
X46492Y35425
X45692Y35000
X42942Y34600
X42692Y35750
X41992Y36200
X42342Y36600
X42142Y37000
X42192Y37400
X42392Y37750
X42542Y38200
X42942Y38650
X43142Y39000
X41242Y38225
X41217Y40425
X41292Y40875
X38342Y43900
X38042Y44200
X37692Y44500
X38042Y44850
X37692Y45500
X37576Y46116
X35992Y45150
X37542Y43600
X37942Y43300
X38026Y42767
X37592Y42650
X36392Y42300
X37642Y39502
X33217Y36975
X24192Y31350
X23492Y30700
X21992Y27050
X21402Y26360
X19717Y25925
X19142Y25500
X18217Y25925
X17642Y25500
X16767Y25925
X16767Y26600
X16342Y27100
X15992Y28000
X17842Y27150
X18267Y26650
X19392Y27100
X16142Y25500
X20392Y19650
X23992Y23550
X24942Y23250
X25242Y22500
X27142Y22650
X27142Y21900
X27342Y23500
X28942Y21600
X29642Y21250
X29592Y20150
X28942Y20050
X30717Y19675
X31692Y17700
X32492Y18000
X33692Y19250
X35792Y19700
X35692Y20700
X35542Y21700
X35342Y22700
X35192Y23700
X35092Y24700
X35942Y18700
X35992Y17700
X30742Y15950
X29942Y16100
X28042Y17000
X28117Y17850
X15042Y18850
X14392Y18250
X14392Y17150
X13592Y16850
X13167Y17175
X12142Y15650
X7042Y15950
X5429Y15663
X3882Y15060
X2342Y7900
X38192Y47950
X37542Y49575
X38867Y49575
X38942Y51475
X41892Y51500
X43942Y51600
X43942Y52400
X44892Y51100
X44242Y50800
X43742Y50150
X48042Y48950
X48042Y46650
X48042Y44350
X51842Y48250
X52142Y48650
X52142Y49250
X52092Y50400
X53492Y51650
X53942Y52950
X53742Y54650
X51742Y52850
X50642Y51750
X53342Y48950
X53342Y48050
X53642Y47750
X53342Y47050
X52142Y47350
X53842Y45750
X54042Y44850
X53942Y44450
X53942Y44050
X53942Y43650
X53942Y43150
X53942Y42650
X56342Y42650
X56542Y42250
X56942Y42050
X56942Y41650
X57042Y41250
X57342Y40850
X58742Y40450
X59342Y40550
X59442Y40150
X59842Y40650
X59942Y39650
X60042Y39250
X61242Y39550
X62342Y39550
X62642Y39950
X62942Y40350
X62042Y38750
X61742Y38350
X56442Y43750
X56042Y44950
X56142Y45350
X55742Y45550
X55867Y46075
X56242Y46350
X55742Y46750
X54542Y46650
X54142Y46750
X54042Y50300
X56267Y51475
X57542Y49050
X57942Y48850
X58142Y48450
X58342Y48050
X58642Y47750
X58742Y47350
X58842Y46750
X59042Y52850
X58742Y57500
X51992Y60350
X50892Y61450
X34642Y57550
X54542Y39850
X52492Y34697
X46492Y32000
X46442Y29500
X46042Y25650
X46192Y24800
X46242Y24050
X46542Y22450
X46692Y20800
X46692Y18800
X50942Y21950
X50992Y24000
X49842Y25900
T02
X47342Y32700
T03
X62432Y13143
X62432Y12143
X62432Y11143
X29892Y10550
X29892Y9550
X29892Y8550
X27792Y8550
X27792Y9550
X27792Y10550
X25792Y10550
X25792Y9550
X25792Y8550
X23792Y8550
X23792Y9550
X23792Y10550
X21792Y10550
X21792Y9550
X21792Y8550
X19792Y8550
X19792Y9550
X19792Y10550
X17792Y10550
X17792Y9550
X17792Y8550
X15792Y8550
X15792Y9550
X15792Y10550
T04
X30492Y59450
X31492Y59450
T05
X29642Y57000
X29642Y56000
X29642Y55000
X29642Y54000
X29642Y53000
X29642Y52000
X29642Y51000
X29642Y50000
X29642Y49000
X29642Y48000
X29642Y47000
X29642Y46000
X29642Y45000
X29642Y44000
X29642Y43000
X29642Y42000
X29642Y41000
X29642Y40000
X29642Y39000
X29642Y38000
X29642Y37000
X29642Y36000
X29642Y35000
X29642Y34000
X29642Y33000
X25642Y33000
X24642Y33000
X24642Y34000
X24642Y35000
X25642Y35000
X25642Y34000
X23642Y34000
X22642Y34000
X22642Y33000
X23642Y33000
X22542Y31600
X22542Y30600
X22542Y29600
X22542Y28600
X21642Y33000
X20642Y33000
X20642Y34000
X20642Y35000
X21642Y35000
X21642Y34000
X22642Y35000
X23642Y35000
X23642Y36000
X22642Y36000
X22642Y37000
X23642Y37000
X23642Y38000
X22642Y38000
X22642Y39000
X23642Y39000
X23642Y40000
X22642Y40000
X22642Y41000
X22642Y42000
X23642Y42000
X23642Y41000
X24642Y41000
X24642Y40000
X25642Y40000
X25642Y41000
X25642Y42000
X24642Y42000
X24642Y43000
X24642Y44000
X25642Y44000
X25642Y43000
X23642Y43000
X22642Y43000
X22642Y44000
X23642Y44000
X23642Y45000
X22642Y45000
X22642Y46000
X23642Y46000
X23642Y47000
X22642Y47000
X22642Y48000
X22642Y49000
X23642Y49000
X23642Y48000
X24642Y48000
X24642Y47000
X25642Y47000
X25642Y48000
X25642Y49000
X24642Y49000
X24642Y50000
X24642Y51000
X25642Y51000
X25642Y50000
X23642Y50000
X22642Y50000
X22642Y51000
X23642Y51000
X23642Y52000
X22642Y52000
X22642Y53000
X23642Y53000
X23642Y54000
X22642Y54000
X22642Y55000
X22642Y56000
X23642Y56000
X23642Y55000
X24642Y55000
X24642Y54000
X25642Y54000
X25642Y55000
X25642Y56000
X24642Y56000
X24642Y57000
X24642Y58000
X25642Y58000
X25642Y57000
X23642Y57000
X22642Y57000
X22642Y58000
X23642Y58000
X23642Y59000
X22642Y59000
X22642Y60000
X23642Y60000
X23642Y61000
X22642Y61000
X22642Y62000
X23642Y62000
X24642Y62000
X24642Y61000
X25642Y61000
X25642Y62000
X25642Y60000
X24642Y60000
X24642Y59000
X25642Y59000
X21642Y59000
X20642Y59000
X20642Y60000
X21642Y60000
X21642Y61000
X20642Y61000
X20642Y62000
X21642Y62000
X19642Y62000
X18642Y62000
X18642Y61000
X19642Y61000
X19642Y60000
X18642Y60000
X18642Y59000
X19642Y59000
X19642Y58000
X18642Y58000
X18642Y57000
X19642Y57000
X19642Y56000
X18642Y56000
X18642Y55000
X18642Y54000
X19642Y54000
X19642Y55000
X20642Y55000
X20642Y54000
X21642Y54000
X21642Y55000
X21642Y56000
X20642Y56000
X20642Y57000
X20642Y58000
X21642Y58000
X21642Y57000
X17642Y57000
X16642Y57000
X16642Y58000
X17642Y58000
X17642Y59000
X16642Y59000
X16642Y60000
X17642Y60000
X17642Y61000
X16642Y61000
X16642Y62000
X17642Y62000
X15642Y62000
X14642Y62000
X14642Y61000
X15642Y61000
X15642Y60000
X14642Y60000
X14642Y59000
X15642Y59000
X15642Y58000
X14642Y58000
X14642Y57000
X15642Y57000
X15642Y56000
X14642Y56000
X14642Y55000
X14642Y54000
X15642Y54000
X15642Y55000
X16642Y55000
X16642Y54000
X17642Y54000
X17642Y55000
X17642Y56000
X16642Y56000
X16642Y53000
X16642Y52000
X17642Y52000
X17642Y53000
X18642Y53000
X18642Y52000
X19642Y52000
X19642Y53000
X20642Y53000
X20642Y52000
X21642Y52000
X21642Y53000
X21642Y51000
X20642Y51000
X20642Y50000
X21642Y50000
X21642Y49000
X20642Y49000
X20642Y48000
X20642Y47000
X21642Y47000
X21642Y48000
X19642Y48000
X18642Y48000
X18642Y47000
X19642Y47000
X19642Y46000
X18642Y46000
X18642Y45000
X19642Y45000
X19642Y44000
X18642Y44000
X18642Y43000
X19642Y43000
X19642Y42000
X18642Y42000
X18642Y41000
X18642Y40000
X19642Y40000
X19642Y41000
X20642Y41000
X20642Y40000
X21642Y40000
X21642Y41000
X21642Y42000
X20642Y42000
X20642Y43000
X20642Y44000
X21642Y44000
X21642Y43000
X21642Y45000
X20642Y45000
X20642Y46000
X21642Y46000
X19642Y49000
X18642Y49000
X17642Y49000
X16642Y49000
X16642Y48000
X16642Y47000
X17642Y47000
X17642Y48000
X15642Y48000
X14642Y48000
X14642Y47000
X15642Y47000
X15642Y46000
X14642Y46000
X14642Y45000
X15642Y45000
X15642Y44000
X14642Y44000
X14642Y43000
X15642Y43000
X15642Y42000
X14642Y42000
X14642Y41000
X14642Y40000
X15642Y40000
X15642Y41000
X16642Y41000
X16642Y40000
X17642Y40000
X17642Y41000
X17642Y42000
X16642Y42000
X16642Y43000
X16642Y44000
X17642Y44000
X17642Y43000
X17642Y45000
X16642Y45000
X16642Y46000
X17642Y46000
X15642Y49000
X14642Y49000
X13642Y49000
X12642Y49000
X12642Y48000
X12642Y47000
X13642Y47000
X13642Y48000
X11642Y48000
X10642Y48000
X10642Y47000
X11642Y47000
X11642Y46000
X10642Y46000
X10642Y45000
X11642Y45000
X11642Y44000
X10642Y44000
X10642Y43000
X11642Y43000
X11642Y42000
X10642Y42000
X10642Y41000
X10642Y40000
X11642Y40000
X11642Y41000
X12642Y41000
X12642Y40000
X13642Y40000
X13642Y41000
X13642Y42000
X12642Y42000
X12642Y43000
X12642Y44000
X13642Y44000
X13642Y43000
X13642Y45000
X12642Y45000
X12642Y46000
X13642Y46000
X11642Y49000
X10642Y49000
X9642Y49000
X8642Y49000
X8642Y48000
X8642Y47000
X9642Y47000
X9642Y48000
X7642Y48000
X6642Y48000
X6642Y47000
X7642Y47000
X7642Y46000
X6642Y46000
X6642Y45000
X7642Y45000
X7642Y44000
X6642Y44000
X6642Y43000
X7642Y43000
X7642Y42000
X6642Y42000
X6642Y41000
X6642Y40000
X7642Y40000
X7642Y41000
X8642Y41000
X8642Y40000
X9642Y40000
X9642Y41000
X9642Y42000
X8642Y42000
X8642Y43000
X8642Y44000
X9642Y44000
X9642Y43000
X9642Y45000
X8642Y45000
X8642Y46000
X9642Y46000
X7642Y49000
X6642Y49000
X5642Y49000
X4642Y49000
X4642Y48000
X4642Y47000
X5642Y47000
X5642Y48000
X3642Y48000
X3642Y47000
X3642Y46000
X3642Y45000
X3642Y44000
X3642Y43000
X3642Y42000
X3642Y41000
X3642Y40000
X3642Y39000
X3642Y38000
X3642Y37000
X3642Y36000
X3642Y35000
X3642Y34000
X3642Y33000
X4642Y33000
X4642Y34000
X4642Y35000
X5642Y35000
X5642Y34000
X5642Y33000
X6642Y33000
X6642Y34000
X6642Y35000
X7642Y35000
X7642Y34000
X7642Y33000
X8642Y33000
X8642Y34000
X8642Y35000
X9642Y35000
X9642Y34000
X9642Y33000
X10642Y33000
X10642Y34000
X10642Y35000
X11642Y35000
X11642Y34000
X11642Y33000
X12642Y33000
X12642Y34000
X12642Y35000
X13642Y35000
X13642Y34000
X13642Y33000
X14642Y33000
X14642Y34000
X14642Y35000
X15642Y35000
X15642Y34000
X15642Y33000
X16642Y33000
X16642Y34000
X16642Y35000
X17642Y35000
X17642Y34000
X17642Y33000
X18642Y33000
X18642Y34000
X18642Y35000
X19642Y35000
X19642Y34000
X19642Y33000
X19642Y36000
X18642Y36000
X18642Y37000
X19642Y37000
X19642Y38000
X18642Y38000
X18642Y39000
X19642Y39000
X20642Y39000
X20642Y38000
X21642Y38000
X21642Y39000
X21642Y37000
X20642Y37000
X20642Y36000
X21642Y36000
X24642Y36000
X24642Y37000
X25642Y37000
X25642Y36000
X25642Y38000
X24642Y38000
X24642Y39000
X25642Y39000
X25642Y45000
X24642Y45000
X24642Y46000
X25642Y46000
X25642Y52000
X24642Y52000
X24642Y53000
X25642Y53000
X19642Y51000
X18642Y51000
X18642Y50000
X19642Y50000
X17642Y50000
X16642Y50000
X16642Y51000
X17642Y51000
X15642Y51000
X14642Y51000
X14642Y50000
X15642Y50000
X13642Y50000
X12642Y50000
X12642Y51000
X13642Y51000
X13642Y52000
X12642Y52000
X12642Y53000
X13642Y53000
X13642Y54000
X12642Y54000
X12642Y55000
X12642Y56000
X13642Y56000
X13642Y55000
X11642Y55000
X10642Y55000
X10642Y54000
X11642Y54000
X11642Y53000
X10642Y53000
X10642Y52000
X11642Y52000
X11642Y51000
X10642Y51000
X10642Y50000
X11642Y50000
X9642Y50000
X8642Y50000
X8642Y51000
X9642Y51000
X9642Y52000
X8642Y52000
X8642Y53000
X9642Y53000
X9642Y54000
X8642Y54000
X8642Y55000
X8642Y56000
X9642Y56000
X9642Y55000
X10642Y56000
X11642Y56000
X11642Y57000
X10642Y57000
X10642Y58000
X11642Y58000
X11642Y59000
X10642Y59000
X10642Y60000
X11642Y60000
X11642Y61000
X10642Y61000
X10642Y62000
X11642Y62000
X12642Y62000
X12642Y61000
X13642Y61000
X13642Y62000
X13642Y60000
X12642Y60000
X12642Y59000
X13642Y59000
X13642Y58000
X12642Y58000
X12642Y57000
X13642Y57000
X9642Y57000
X8642Y57000
X8642Y58000
X9642Y58000
X9642Y59000
X8642Y59000
X8642Y60000
X9642Y60000
X9642Y61000
X8642Y61000
X8642Y62000
X9642Y62000
X7642Y62000
X6642Y62000
X6642Y61000
X7642Y61000
X7642Y60000
X6642Y60000
X6642Y59000
X7642Y59000
X7642Y58000
X6642Y58000
X6642Y57000
X7642Y57000
X7642Y56000
X6642Y56000
X6642Y55000
X6642Y54000
X7642Y54000
X7642Y55000
X5642Y55000
X4642Y55000
X4642Y54000
X5642Y54000
X5642Y53000
X4642Y53000
X4642Y52000
X5642Y52000
X5642Y51000
X4642Y51000
X4642Y50000
X5642Y50000
X6642Y50000
X6642Y51000
X7642Y51000
X7642Y50000
X7642Y52000
X6642Y52000
X6642Y53000
X7642Y53000
X5642Y56000
X4642Y56000
X3642Y56000
X3642Y55000
X3642Y54000
X3642Y53000
X3642Y52000
X3642Y51000
X3642Y50000
X3642Y49000
X4642Y46000
X4642Y45000
X5642Y45000
X5642Y46000
X5642Y44000
X4642Y44000
X4642Y43000
X5642Y43000
X5642Y42000
X4642Y42000
X4642Y41000
X4642Y40000
X5642Y40000
X5642Y41000
X5642Y39000
X4642Y39000
X4642Y38000
X5642Y38000
X5642Y37000
X4642Y37000
X4642Y36000
X5642Y36000
X6642Y36000
X6642Y37000
X7642Y37000
X7642Y36000
X8642Y36000
X8642Y37000
X9642Y37000
X9642Y36000
X10642Y36000
X10642Y37000
X11642Y37000
X11642Y36000
X12642Y36000
X12642Y37000
X13642Y37000
X13642Y36000
X14642Y36000
X14642Y37000
X15642Y37000
X15642Y36000
X16642Y36000
X16642Y37000
X17642Y37000
X17642Y36000
X17642Y38000
X16642Y38000
X16642Y39000
X17642Y39000
X15642Y39000
X14642Y39000
X14642Y38000
X15642Y38000
X13642Y38000
X12642Y38000
X12642Y39000
X13642Y39000
X11642Y39000
X10642Y39000
X10642Y38000
X11642Y38000
X9642Y38000
X8642Y38000
X8642Y39000
X9642Y39000
X7642Y39000
X6642Y39000
X6642Y38000
X7642Y38000
X14642Y52000
X14642Y53000
X15642Y53000
X15642Y52000
X5642Y57000
X4642Y57000
X4642Y58000
X5642Y58000
X5642Y59000
X4642Y59000
X3642Y59000
X3642Y58000
X3642Y57000
X32142Y28700
X38192Y28700
X38192Y27700
X38192Y26700
X38192Y25700
X38192Y24700
X38192Y23700
X38192Y22700
X38192Y21700
X38192Y20700
X38242Y19700
X38242Y18700
X38242Y17700
X38192Y16750
X35042Y16000
X34142Y16000
X38192Y29700
X38192Y30700
X38192Y31700
X38192Y32700
X39031Y38542
X38192Y48675
X39031Y52116
X41992Y49850
X41942Y49000
X51292Y50800
X54779Y52116
X57092Y50550
X54779Y38542
X52342Y32922
X52342Y31922
X52342Y30922
X52342Y29922
X48192Y30700
X48192Y31700
X48192Y32700
X61792Y6800
X62942Y6750
X3842Y16650
X3842Y17650
X3842Y18650
T06
X3592Y29611
X3592Y30989
T07
X8538Y4550
X8302Y2621
X14483Y2621
X14247Y4550
X19038Y4550
X18802Y2621
X24983Y2621
X24747Y4550
X30538Y4550
X30302Y2621
X36483Y2621
X36247Y4550
X40038Y4550
X39802Y2621
X45983Y2621
X45747Y4550
T08
X58742Y61019
X56892Y62200
X58742Y63381
T09
X5248Y10500
X2492Y10500
T10
X29492Y61450
X33492Y61450
T11
X37441Y36493
X54764Y36493
T12
X3792Y4300
X3842Y62400
X61942Y62400
X61942Y4300
T13
X54764Y63619
X37441Y63619
M30
