G75*
%MOIN*%
%OFA0B0*%
%FSLAX24Y24*%
%IPPOS*%
%LPD*%
%AMOC8*
5,1,8,0,0,1.08239X$1,22.5*
%
%ADD10C,0.1297*%
%ADD11C,0.0320*%
%ADD12C,0.1031*%
%ADD13C,0.1425*%
%ADD14R,0.0617X0.0227*%
%ADD15C,0.0447*%
%ADD16C,0.0874*%
%ADD17R,0.0197X0.0347*%
%ADD18R,0.0197X0.0447*%
%ADD19R,0.0467X0.0397*%
%ADD20R,0.0397X0.0467*%
%ADD21R,0.0657X0.0283*%
%ADD22R,0.0527X0.0787*%
%ADD23C,0.0717*%
%ADD24R,0.0913X0.1150*%
%ADD25R,0.1150X0.1150*%
%ADD26R,0.0647X0.0427*%
%ADD27R,0.0441X0.0264*%
%ADD28R,0.0264X0.0441*%
%ADD29R,0.0427X0.0647*%
%ADD30C,0.0647*%
%ADD31R,0.0787X0.0527*%
%ADD32R,0.0461X0.0224*%
%ADD33R,0.0165X0.0795*%
%ADD34C,0.0815*%
%ADD35R,0.0323X0.0441*%
%ADD36R,0.0835X0.0835*%
%ADD37C,0.1313*%
%ADD38C,0.0641*%
%ADD39R,0.0913X0.0283*%
%ADD40R,0.0146X0.0343*%
%ADD41C,0.0607*%
%ADD42R,0.0224X0.0520*%
%ADD43C,0.0756*%
%ADD44R,0.0224X0.0461*%
%ADD45OC8,0.0607*%
%ADD46R,0.0283X0.0244*%
%ADD47R,0.0480X0.1169*%
%ADD48R,0.0441X0.0165*%
%ADD49R,0.0185X0.0362*%
%ADD50R,0.0638X0.0559*%
%ADD51C,0.0197*%
%ADD52C,0.0357*%
%ADD53R,0.0443X0.0443*%
%ADD54C,0.0443*%
D10*
X003792Y003350D03*
X003842Y061450D03*
X061942Y061450D03*
X061942Y003350D03*
D11*
X027817Y034050D02*
X003542Y034050D01*
X003542Y033050D02*
X027592Y033050D01*
D12*
X037441Y035543D03*
X054764Y035543D03*
D13*
X054764Y062669D03*
X037441Y062669D03*
D14*
X037016Y050520D03*
X037016Y050206D03*
X037016Y049891D03*
X037016Y049576D03*
X037016Y049261D03*
X037016Y048946D03*
X037016Y048631D03*
X037016Y048316D03*
X037016Y048001D03*
X037016Y047686D03*
X037016Y047371D03*
X037016Y047056D03*
X037016Y046741D03*
X037016Y046426D03*
X037016Y046111D03*
X037016Y045796D03*
X037016Y045481D03*
X037016Y045166D03*
X037016Y044851D03*
X037016Y044536D03*
X037016Y044221D03*
X037016Y043906D03*
X037016Y043591D03*
X037016Y043276D03*
X037016Y042961D03*
X037016Y042646D03*
X037016Y042331D03*
X037016Y042017D03*
X037016Y041702D03*
X037016Y041387D03*
X037016Y041072D03*
X037016Y040757D03*
X037016Y040442D03*
X037016Y040127D03*
X037016Y039812D03*
X037016Y039497D03*
X037016Y039182D03*
X037016Y038867D03*
X037016Y038552D03*
X037016Y038237D03*
X039446Y038237D03*
X039446Y038552D03*
X039446Y038867D03*
X039446Y039182D03*
X039446Y039497D03*
X039446Y039812D03*
X039446Y040127D03*
X039446Y040442D03*
X039446Y040757D03*
X039446Y041072D03*
X039446Y041387D03*
X039446Y041702D03*
X039446Y042017D03*
X039446Y042331D03*
X039446Y042646D03*
X039446Y042961D03*
X039446Y043276D03*
X039446Y043591D03*
X039446Y043906D03*
X039446Y044221D03*
X039446Y044536D03*
X039446Y044851D03*
X039446Y045166D03*
X039446Y045481D03*
X039446Y045796D03*
X039446Y046111D03*
X039446Y046426D03*
X039446Y046741D03*
X039446Y047056D03*
X039446Y047371D03*
X039446Y047686D03*
X039446Y048001D03*
X039446Y048316D03*
X039446Y048631D03*
X039446Y048946D03*
X039446Y049261D03*
X039446Y049576D03*
X039446Y049891D03*
X039446Y050206D03*
X039446Y050520D03*
X052764Y050520D03*
X052764Y050206D03*
X052764Y049891D03*
X052764Y049576D03*
X052764Y049261D03*
X052764Y048946D03*
X052764Y048631D03*
X052764Y048316D03*
X052764Y048001D03*
X052764Y047686D03*
X052764Y047371D03*
X052764Y047056D03*
X052764Y046741D03*
X052764Y046426D03*
X052764Y046111D03*
X052764Y045796D03*
X052764Y045481D03*
X052764Y045166D03*
X052764Y044851D03*
X052764Y044536D03*
X052764Y044221D03*
X052764Y043906D03*
X052764Y043591D03*
X052764Y043276D03*
X052764Y042961D03*
X052764Y042646D03*
X052764Y042331D03*
X052764Y042017D03*
X052764Y041702D03*
X052764Y041387D03*
X052764Y041072D03*
X052764Y040757D03*
X052764Y040442D03*
X052764Y040127D03*
X052764Y039812D03*
X052764Y039497D03*
X052764Y039182D03*
X052764Y038867D03*
X052764Y038552D03*
X052764Y038237D03*
X055194Y038237D03*
X055194Y038552D03*
X055194Y038867D03*
X055194Y039182D03*
X055194Y039497D03*
X055194Y039812D03*
X055194Y040127D03*
X055194Y040442D03*
X055194Y040757D03*
X055194Y041072D03*
X055194Y041387D03*
X055194Y041702D03*
X055194Y042017D03*
X055194Y042331D03*
X055194Y042646D03*
X055194Y042961D03*
X055194Y043276D03*
X055194Y043591D03*
X055194Y043906D03*
X055194Y044221D03*
X055194Y044536D03*
X055194Y044851D03*
X055194Y045166D03*
X055194Y045481D03*
X055194Y045796D03*
X055194Y046111D03*
X055194Y046426D03*
X055194Y046741D03*
X055194Y047056D03*
X055194Y047371D03*
X055194Y047686D03*
X055194Y048001D03*
X055194Y048316D03*
X055194Y048631D03*
X055194Y048946D03*
X055194Y049261D03*
X055194Y049576D03*
X055194Y049891D03*
X055194Y050206D03*
X055194Y050520D03*
D15*
X054779Y051166D03*
X054779Y037592D03*
X039031Y037592D03*
X039031Y051166D03*
D16*
X056892Y060837D02*
X056892Y061663D01*
X058742Y062018D02*
X058742Y062844D01*
X058742Y060482D02*
X058742Y059656D01*
D17*
X058767Y002100D03*
X058517Y002100D03*
X058267Y002100D03*
X059017Y002100D03*
X059267Y002100D03*
X059517Y002100D03*
X056267Y002100D03*
X056017Y002100D03*
X055767Y002100D03*
X055517Y002100D03*
X055267Y002100D03*
X055017Y002100D03*
X053017Y002100D03*
X052767Y002100D03*
X052517Y002100D03*
X052267Y002100D03*
X052017Y002100D03*
X051767Y002100D03*
X049767Y002100D03*
X049517Y002100D03*
X049267Y002100D03*
X049017Y002100D03*
X048767Y002100D03*
X048517Y002100D03*
D18*
X048517Y002550D03*
X048767Y002550D03*
X049017Y002550D03*
X049267Y002550D03*
X049517Y002550D03*
X049767Y002550D03*
X051767Y002550D03*
X052017Y002550D03*
X052267Y002550D03*
X052517Y002550D03*
X052767Y002550D03*
X053017Y002550D03*
X055017Y002550D03*
X055267Y002550D03*
X055517Y002550D03*
X055767Y002550D03*
X056017Y002550D03*
X056267Y002550D03*
X058267Y002550D03*
X058517Y002550D03*
X058767Y002550D03*
X059017Y002550D03*
X059267Y002550D03*
X059517Y002550D03*
D19*
X060092Y002740D03*
X060092Y002060D03*
X056992Y001960D03*
X056992Y002640D03*
X053692Y002640D03*
X053692Y001960D03*
X050392Y002010D03*
X050392Y002690D03*
X050892Y011010D03*
X050892Y011690D03*
X051642Y011690D03*
X051642Y011010D03*
X053942Y011060D03*
X053942Y011740D03*
X054642Y011740D03*
X054642Y011060D03*
X057142Y011060D03*
X057142Y011740D03*
X057942Y011740D03*
X057942Y011060D03*
X060042Y011160D03*
X060042Y011840D03*
X060842Y011840D03*
X060842Y011160D03*
X042242Y033560D03*
X042242Y034240D03*
X041542Y034290D03*
X041542Y033610D03*
X040992Y034910D03*
X040992Y035590D03*
X040942Y036210D03*
X041617Y036210D03*
X041617Y036890D03*
X040942Y036890D03*
X041642Y037910D03*
X041642Y038590D03*
X042392Y038590D03*
X042392Y037910D03*
X040942Y038210D03*
X040942Y038890D03*
X040642Y039610D03*
X040642Y040290D03*
X042342Y050560D03*
X042342Y051240D03*
X035442Y057860D03*
X035442Y058540D03*
X024742Y061360D03*
X024742Y062040D03*
X050067Y035590D03*
X050067Y034910D03*
X029992Y026190D03*
X029992Y025510D03*
X029042Y022590D03*
X029042Y021910D03*
X028192Y021900D03*
X028192Y022580D03*
X025142Y020740D03*
X025142Y020060D03*
X022492Y025410D03*
X022492Y026090D03*
X026392Y026340D03*
X026392Y025660D03*
X030342Y018040D03*
X030342Y017360D03*
X028892Y008480D03*
X028892Y007800D03*
X028892Y006740D03*
X028892Y006060D03*
X027792Y006060D03*
X027792Y006740D03*
X026792Y006740D03*
X026792Y006060D03*
X025792Y006060D03*
X025792Y006740D03*
X024792Y006740D03*
X024792Y006060D03*
X023792Y006060D03*
X023792Y006740D03*
X022792Y006740D03*
X022792Y006060D03*
X021792Y006060D03*
X021792Y006740D03*
X020792Y006740D03*
X020792Y006060D03*
X019792Y006060D03*
X019792Y006740D03*
X018792Y006740D03*
X018792Y006060D03*
X019242Y005190D03*
X019242Y004510D03*
X017792Y006060D03*
X017792Y006740D03*
X016792Y006740D03*
X016792Y006060D03*
X015792Y006060D03*
X015792Y006740D03*
X014792Y006740D03*
X014792Y006060D03*
X013542Y005860D03*
X013542Y006540D03*
X012842Y006540D03*
X012842Y005860D03*
X012142Y005860D03*
X012142Y006540D03*
X011442Y006540D03*
X011442Y005860D03*
X010742Y005860D03*
X010742Y006540D03*
X010042Y006540D03*
X010042Y005860D03*
X009342Y005860D03*
X009342Y006540D03*
X008642Y006540D03*
X008642Y005860D03*
X007942Y005860D03*
X007942Y006540D03*
X008642Y009160D03*
X008642Y009840D03*
X009342Y009840D03*
X009342Y009160D03*
X010042Y009160D03*
X010042Y009840D03*
X010742Y009840D03*
X010742Y009160D03*
X011442Y009160D03*
X011442Y009840D03*
X012142Y009840D03*
X012142Y009160D03*
X012842Y009160D03*
X012842Y009840D03*
X013542Y009840D03*
X013542Y009160D03*
X014792Y008440D03*
X014792Y007760D03*
X016792Y007760D03*
X016792Y008440D03*
X018792Y008440D03*
X018792Y007760D03*
X020792Y007810D03*
X020792Y008490D03*
X022792Y008440D03*
X022792Y007760D03*
X024792Y007760D03*
X024792Y008440D03*
X026792Y008440D03*
X026792Y007760D03*
X029892Y006740D03*
X029892Y006060D03*
X032642Y005529D03*
X032642Y004849D03*
X033942Y004849D03*
X033942Y005529D03*
X035192Y005529D03*
X035192Y004849D03*
X035542Y007060D03*
X035542Y007740D03*
X034692Y007740D03*
X034692Y007060D03*
X033992Y007060D03*
X033992Y007740D03*
X033292Y007740D03*
X033292Y007060D03*
X032592Y007060D03*
X032592Y007740D03*
X018942Y020260D03*
X018942Y020940D03*
X018242Y020540D03*
X018242Y019860D03*
X017542Y020260D03*
X017542Y020940D03*
X016842Y020540D03*
X016842Y019860D03*
X016142Y020260D03*
X016142Y020940D03*
X015442Y020490D03*
X015442Y019810D03*
X014742Y020260D03*
X014742Y020940D03*
X014042Y020540D03*
X014042Y019860D03*
X009542Y019710D03*
X009542Y020390D03*
X008842Y020390D03*
X008842Y019710D03*
X007592Y020010D03*
X007592Y020690D03*
X006892Y020290D03*
X006892Y019610D03*
X006192Y020010D03*
X006192Y020690D03*
X005492Y020290D03*
X005492Y019610D03*
X004792Y020010D03*
X004792Y020690D03*
X004042Y020290D03*
X004042Y019610D03*
X004642Y016740D03*
X004642Y016060D03*
X005492Y012740D03*
X005492Y012060D03*
X008642Y012610D03*
X008642Y013290D03*
X009342Y013290D03*
X009342Y012610D03*
X010042Y012610D03*
X010042Y013290D03*
X010742Y013290D03*
X010742Y012610D03*
X011442Y012610D03*
X011442Y013290D03*
X012142Y013290D03*
X012142Y012610D03*
X012842Y012610D03*
X012842Y013290D03*
X013542Y013290D03*
X013542Y012610D03*
X009417Y026710D03*
X009417Y027390D03*
D20*
X009082Y025615D03*
X008402Y025615D03*
X007582Y025600D03*
X006902Y025600D03*
X006082Y025600D03*
X005402Y025600D03*
X004582Y025600D03*
X003902Y025600D03*
X010777Y025375D03*
X011457Y025375D03*
X014177Y025640D03*
X014857Y025640D03*
X015677Y025650D03*
X016357Y025650D03*
X017177Y025650D03*
X017857Y025650D03*
X018677Y025650D03*
X019357Y025650D03*
X023452Y021200D03*
X024132Y021200D03*
X022032Y018650D03*
X021352Y018650D03*
X019382Y016750D03*
X018702Y016750D03*
X018157Y013275D03*
X017477Y013275D03*
X016132Y013275D03*
X015452Y013275D03*
X012182Y014700D03*
X011502Y014700D03*
X009307Y016825D03*
X008627Y016825D03*
X003882Y013600D03*
X003202Y013600D03*
X005702Y005350D03*
X006382Y005350D03*
X015652Y001400D03*
X016332Y001400D03*
X027027Y005400D03*
X027707Y005400D03*
X029202Y003825D03*
X029882Y003825D03*
X034427Y009500D03*
X035107Y009500D03*
X035107Y011675D03*
X034427Y011675D03*
X033082Y014600D03*
X032402Y014600D03*
X030207Y013250D03*
X029527Y013250D03*
X028157Y013200D03*
X027477Y013200D03*
X026132Y013250D03*
X025452Y013250D03*
X024132Y013250D03*
X023452Y013250D03*
X022157Y013250D03*
X021477Y013250D03*
X020132Y013275D03*
X019452Y013275D03*
X014882Y016800D03*
X014202Y016800D03*
X028942Y021100D03*
X029622Y021100D03*
X029802Y021950D03*
X030482Y021950D03*
X030452Y021200D03*
X031132Y021200D03*
X031002Y024700D03*
X031682Y024700D03*
X032652Y024700D03*
X033332Y024700D03*
X030772Y027250D03*
X030092Y027250D03*
X043102Y014650D03*
X043782Y014650D03*
X038682Y009850D03*
X038002Y009850D03*
X049402Y011000D03*
X050082Y011000D03*
X050082Y011750D03*
X049402Y011750D03*
X049202Y014650D03*
X049882Y014650D03*
X052602Y014700D03*
X053282Y014700D03*
X055802Y014700D03*
X056482Y014700D03*
X059002Y014700D03*
X059682Y014700D03*
X059382Y011800D03*
X058702Y011800D03*
X058702Y011100D03*
X059382Y011100D03*
X056482Y011000D03*
X055802Y011000D03*
X055802Y011700D03*
X056482Y011700D03*
X053182Y011700D03*
X052502Y011700D03*
X052502Y010900D03*
X053182Y010900D03*
X053502Y018650D03*
X054182Y018650D03*
X051682Y019300D03*
X051002Y019300D03*
X023082Y060200D03*
X022402Y060200D03*
D21*
X017805Y018400D03*
X017805Y017900D03*
X017805Y017400D03*
X017805Y016900D03*
X017805Y016400D03*
X017805Y015900D03*
X017805Y015400D03*
X015679Y015400D03*
X015679Y015900D03*
X015679Y016400D03*
X015679Y016900D03*
X015679Y017400D03*
X015679Y017900D03*
X015679Y018400D03*
X007555Y018400D03*
X007555Y017900D03*
X007555Y017400D03*
X007555Y016900D03*
X007555Y016400D03*
X007555Y015900D03*
X007555Y015400D03*
X005429Y015400D03*
X005429Y015900D03*
X005429Y016400D03*
X005429Y016900D03*
X005429Y017400D03*
X005429Y017900D03*
X005429Y018400D03*
X015629Y005000D03*
X015629Y004500D03*
X015629Y004000D03*
X015629Y003500D03*
X015629Y003000D03*
X015629Y002500D03*
X015629Y002000D03*
X017755Y002000D03*
X017755Y002500D03*
X017755Y003000D03*
X017755Y003500D03*
X017755Y004000D03*
X017755Y004500D03*
X017755Y005000D03*
X026329Y004800D03*
X026329Y004300D03*
X026329Y003800D03*
X026329Y003300D03*
X026329Y002800D03*
X026329Y002300D03*
X026329Y001800D03*
X028455Y001800D03*
X028455Y002300D03*
X028455Y002800D03*
X028455Y003300D03*
X028455Y003800D03*
X028455Y004300D03*
X028455Y004800D03*
D22*
X031892Y009475D03*
X033192Y009475D03*
X026042Y017750D03*
X024742Y017750D03*
X028292Y018350D03*
X029592Y018350D03*
X027792Y020950D03*
X026492Y020950D03*
X028192Y023450D03*
X029492Y023450D03*
X031042Y023550D03*
X032342Y023550D03*
X049542Y010000D03*
X050842Y010000D03*
X052592Y010000D03*
X053892Y010000D03*
X055892Y010000D03*
X057192Y010000D03*
X058892Y010000D03*
X060192Y010000D03*
X015442Y027225D03*
X014142Y027225D03*
X004492Y012400D03*
X003192Y012400D03*
X005392Y006400D03*
X006692Y006400D03*
D23*
X005248Y009550D03*
X002492Y009550D03*
D24*
X002847Y011007D03*
X002059Y008093D03*
D25*
X005760Y008093D03*
D26*
X027192Y017540D03*
X027192Y018360D03*
X032767Y025715D03*
X032767Y026535D03*
X051392Y008810D03*
X051392Y007990D03*
X054642Y007990D03*
X054642Y008810D03*
X057642Y008810D03*
X057642Y007990D03*
X060842Y007990D03*
X060842Y008810D03*
D27*
X059874Y008774D03*
X059874Y008400D03*
X059874Y008026D03*
X058811Y008026D03*
X058811Y008400D03*
X058811Y008774D03*
X056874Y008774D03*
X056874Y008400D03*
X056874Y008026D03*
X055811Y008026D03*
X055811Y008400D03*
X055811Y008774D03*
X053674Y008774D03*
X053674Y008400D03*
X053674Y008026D03*
X052611Y008026D03*
X052611Y008400D03*
X052611Y008774D03*
X050520Y008773D03*
X050520Y008399D03*
X050520Y008025D03*
X049457Y008025D03*
X049457Y008399D03*
X049457Y008773D03*
X031874Y025676D03*
X031874Y026050D03*
X031874Y026424D03*
X030811Y026424D03*
X030811Y026050D03*
X030811Y025676D03*
D28*
X029316Y016581D03*
X028942Y016581D03*
X028568Y016581D03*
X028568Y015519D03*
X028942Y015519D03*
X029316Y015519D03*
X027666Y015519D03*
X027292Y015519D03*
X026918Y015519D03*
X026918Y016581D03*
X027666Y016581D03*
X025766Y016581D03*
X025018Y016581D03*
X025018Y015519D03*
X025392Y015519D03*
X025766Y015519D03*
D29*
X025802Y014700D03*
X024982Y014700D03*
X026832Y014700D03*
X027652Y014700D03*
X028557Y014725D03*
X029377Y014725D03*
X029907Y016025D03*
X030727Y016025D03*
D30*
X034142Y015050D03*
X035042Y015050D03*
X038192Y015800D03*
X038242Y016750D03*
X038242Y017750D03*
X038242Y018750D03*
X038192Y019750D03*
X038192Y020750D03*
X038192Y021750D03*
X038192Y022750D03*
X038192Y023750D03*
X038192Y024750D03*
X038192Y025750D03*
X038192Y026750D03*
X038192Y027750D03*
X038192Y028750D03*
X038192Y029750D03*
X038192Y030750D03*
X038192Y031750D03*
X032142Y027750D03*
X029642Y032050D03*
X029642Y033050D03*
X029642Y034050D03*
X029642Y035050D03*
X029642Y036050D03*
X029642Y037050D03*
X029642Y038050D03*
X029642Y039050D03*
X029642Y040050D03*
X029642Y041050D03*
X029642Y042050D03*
X029642Y043050D03*
X029642Y044050D03*
X029642Y045050D03*
X029642Y046050D03*
X029642Y047050D03*
X029642Y048050D03*
X029642Y049050D03*
X029642Y050050D03*
X029642Y051050D03*
X029642Y052050D03*
X029642Y053050D03*
X029642Y054050D03*
X025642Y054050D03*
X024642Y054050D03*
X024642Y055050D03*
X025642Y055050D03*
X025642Y056050D03*
X024642Y056050D03*
X024642Y057050D03*
X024642Y058050D03*
X025642Y058050D03*
X025642Y057050D03*
X023642Y057050D03*
X022642Y057050D03*
X022642Y056050D03*
X023642Y056050D03*
X023642Y055050D03*
X022642Y055050D03*
X022642Y054050D03*
X023642Y054050D03*
X023642Y053050D03*
X022642Y053050D03*
X022642Y052050D03*
X023642Y052050D03*
X023642Y051050D03*
X022642Y051050D03*
X022642Y050050D03*
X023642Y050050D03*
X023642Y049050D03*
X022642Y049050D03*
X022642Y048050D03*
X022642Y047050D03*
X023642Y047050D03*
X023642Y048050D03*
X024642Y048050D03*
X024642Y047050D03*
X025642Y047050D03*
X025642Y048050D03*
X025642Y049050D03*
X024642Y049050D03*
X024642Y050050D03*
X024642Y051050D03*
X025642Y051050D03*
X025642Y050050D03*
X025642Y052050D03*
X024642Y052050D03*
X024642Y053050D03*
X025642Y053050D03*
X021642Y053050D03*
X021642Y052050D03*
X020642Y052050D03*
X019642Y052050D03*
X019642Y053050D03*
X020642Y053050D03*
X020642Y054050D03*
X019642Y054050D03*
X019642Y055050D03*
X020642Y055050D03*
X020642Y056050D03*
X019642Y056050D03*
X019642Y057050D03*
X019642Y058050D03*
X020642Y058050D03*
X020642Y057050D03*
X021642Y057050D03*
X021642Y056050D03*
X021642Y055050D03*
X021642Y054050D03*
X018642Y054050D03*
X017642Y054050D03*
X017642Y055050D03*
X018642Y055050D03*
X018642Y056050D03*
X017642Y056050D03*
X017642Y057050D03*
X017642Y058050D03*
X018642Y058050D03*
X018642Y057050D03*
X016642Y057050D03*
X015642Y057050D03*
X015642Y056050D03*
X016642Y056050D03*
X016642Y055050D03*
X015642Y055050D03*
X015642Y054050D03*
X016642Y054050D03*
X016642Y053050D03*
X015642Y053050D03*
X015642Y052050D03*
X016642Y052050D03*
X016642Y051050D03*
X015642Y051050D03*
X015642Y050050D03*
X016642Y050050D03*
X016642Y049050D03*
X015642Y049050D03*
X015642Y048050D03*
X015642Y047050D03*
X016642Y047050D03*
X016642Y048050D03*
X017642Y048050D03*
X017642Y047050D03*
X018642Y047050D03*
X018642Y048050D03*
X018642Y049050D03*
X017642Y049050D03*
X017642Y050050D03*
X017642Y051050D03*
X018642Y051050D03*
X018642Y050050D03*
X019642Y050050D03*
X019642Y051050D03*
X020642Y051050D03*
X020642Y050050D03*
X020642Y049050D03*
X019642Y049050D03*
X019642Y048050D03*
X019642Y047050D03*
X020642Y047050D03*
X020642Y048050D03*
X021642Y048050D03*
X021642Y047050D03*
X021642Y046050D03*
X021642Y045050D03*
X020642Y045050D03*
X019642Y045050D03*
X019642Y046050D03*
X020642Y046050D03*
X018642Y046050D03*
X017642Y046050D03*
X017642Y045050D03*
X018642Y045050D03*
X018642Y044050D03*
X017642Y044050D03*
X017642Y043050D03*
X018642Y043050D03*
X018642Y042050D03*
X017642Y042050D03*
X017642Y041050D03*
X018642Y041050D03*
X018642Y040050D03*
X017642Y040050D03*
X017642Y039050D03*
X017642Y038050D03*
X018642Y038050D03*
X018642Y039050D03*
X019642Y039050D03*
X019642Y038050D03*
X020642Y038050D03*
X020642Y039050D03*
X020642Y040050D03*
X019642Y040050D03*
X019642Y041050D03*
X019642Y042050D03*
X020642Y042050D03*
X020642Y041050D03*
X021642Y041050D03*
X021642Y042050D03*
X021642Y043050D03*
X021642Y044050D03*
X020642Y044050D03*
X019642Y044050D03*
X019642Y043050D03*
X020642Y043050D03*
X022642Y043050D03*
X022642Y044050D03*
X023642Y044050D03*
X023642Y043050D03*
X023642Y042050D03*
X022642Y042050D03*
X022642Y041050D03*
X023642Y041050D03*
X023642Y040050D03*
X022642Y040050D03*
X022642Y039050D03*
X022642Y038050D03*
X023642Y038050D03*
X023642Y039050D03*
X024642Y039050D03*
X024642Y038050D03*
X025642Y038050D03*
X025642Y039050D03*
X025642Y040050D03*
X024642Y040050D03*
X024642Y041050D03*
X024642Y042050D03*
X025642Y042050D03*
X025642Y041050D03*
X025642Y043050D03*
X024642Y043050D03*
X024642Y044050D03*
X025642Y044050D03*
X025642Y045050D03*
X024642Y045050D03*
X024642Y046050D03*
X025642Y046050D03*
X023642Y046050D03*
X022642Y046050D03*
X022642Y045050D03*
X023642Y045050D03*
X021642Y049050D03*
X021642Y050050D03*
X021642Y051050D03*
X018642Y052050D03*
X017642Y052050D03*
X017642Y053050D03*
X018642Y053050D03*
X014642Y053050D03*
X013642Y053050D03*
X013642Y052050D03*
X014642Y052050D03*
X014642Y051050D03*
X013642Y051050D03*
X013642Y050050D03*
X014642Y050050D03*
X014642Y049050D03*
X013642Y049050D03*
X013642Y048050D03*
X013642Y047050D03*
X014642Y047050D03*
X014642Y048050D03*
X012642Y048050D03*
X011642Y048050D03*
X011642Y047050D03*
X012642Y047050D03*
X012642Y046050D03*
X011642Y046050D03*
X011642Y045050D03*
X012642Y045050D03*
X012642Y044050D03*
X011642Y044050D03*
X011642Y043050D03*
X012642Y043050D03*
X012642Y042050D03*
X011642Y042050D03*
X011642Y041050D03*
X012642Y041050D03*
X012642Y040050D03*
X011642Y040050D03*
X011642Y039050D03*
X011642Y038050D03*
X012642Y038050D03*
X012642Y039050D03*
X013642Y039050D03*
X013642Y038050D03*
X014642Y038050D03*
X014642Y039050D03*
X014642Y040050D03*
X013642Y040050D03*
X013642Y041050D03*
X013642Y042050D03*
X014642Y042050D03*
X014642Y041050D03*
X015642Y041050D03*
X015642Y042050D03*
X016642Y042050D03*
X016642Y041050D03*
X016642Y040050D03*
X015642Y040050D03*
X015642Y039050D03*
X015642Y038050D03*
X016642Y038050D03*
X016642Y039050D03*
X016642Y037050D03*
X015642Y037050D03*
X015642Y036050D03*
X016642Y036050D03*
X016642Y035050D03*
X015642Y035050D03*
X015642Y034050D03*
X016642Y034050D03*
X016642Y033050D03*
X015642Y033050D03*
X015642Y032050D03*
X016642Y032050D03*
X017642Y032050D03*
X017642Y033050D03*
X018642Y033050D03*
X018642Y032050D03*
X019642Y032050D03*
X019642Y033050D03*
X020642Y033050D03*
X020642Y032050D03*
X021642Y032050D03*
X021642Y033050D03*
X021642Y034050D03*
X021642Y035050D03*
X020642Y035050D03*
X019642Y035050D03*
X019642Y034050D03*
X020642Y034050D03*
X018642Y034050D03*
X017642Y034050D03*
X017642Y035050D03*
X018642Y035050D03*
X018642Y036050D03*
X017642Y036050D03*
X017642Y037050D03*
X018642Y037050D03*
X019642Y037050D03*
X019642Y036050D03*
X020642Y036050D03*
X020642Y037050D03*
X021642Y037050D03*
X021642Y036050D03*
X022642Y036050D03*
X022642Y037050D03*
X023642Y037050D03*
X023642Y036050D03*
X023642Y035050D03*
X022642Y035050D03*
X022642Y034050D03*
X023642Y034050D03*
X023642Y033050D03*
X022642Y033050D03*
X022642Y032050D03*
X023642Y032050D03*
X024642Y032050D03*
X024642Y033050D03*
X025642Y033050D03*
X025642Y032050D03*
X025642Y034050D03*
X024642Y034050D03*
X024642Y035050D03*
X025642Y035050D03*
X025642Y036050D03*
X024642Y036050D03*
X024642Y037050D03*
X025642Y037050D03*
X021642Y038050D03*
X021642Y039050D03*
X021642Y040050D03*
X016642Y043050D03*
X015642Y043050D03*
X015642Y044050D03*
X016642Y044050D03*
X016642Y045050D03*
X015642Y045050D03*
X015642Y046050D03*
X016642Y046050D03*
X014642Y046050D03*
X013642Y046050D03*
X013642Y045050D03*
X014642Y045050D03*
X014642Y044050D03*
X013642Y044050D03*
X013642Y043050D03*
X014642Y043050D03*
X010642Y043050D03*
X010642Y044050D03*
X009642Y044050D03*
X008642Y044050D03*
X008642Y043050D03*
X009642Y043050D03*
X009642Y042050D03*
X008642Y042050D03*
X008642Y041050D03*
X009642Y041050D03*
X009642Y040050D03*
X008642Y040050D03*
X008642Y039050D03*
X008642Y038050D03*
X009642Y038050D03*
X009642Y039050D03*
X010642Y039050D03*
X010642Y038050D03*
X010642Y037050D03*
X010642Y036050D03*
X009642Y036050D03*
X008642Y036050D03*
X008642Y037050D03*
X009642Y037050D03*
X007642Y037050D03*
X006642Y037050D03*
X006642Y036050D03*
X007642Y036050D03*
X007642Y035050D03*
X006642Y035050D03*
X006642Y034050D03*
X007642Y034050D03*
X007642Y033050D03*
X006642Y033050D03*
X006642Y032050D03*
X007642Y032050D03*
X008642Y032050D03*
X008642Y033050D03*
X009642Y033050D03*
X009642Y032050D03*
X010642Y032050D03*
X010642Y033050D03*
X010642Y034050D03*
X010642Y035050D03*
X009642Y035050D03*
X008642Y035050D03*
X008642Y034050D03*
X009642Y034050D03*
X011642Y034050D03*
X011642Y035050D03*
X012642Y035050D03*
X012642Y034050D03*
X012642Y033050D03*
X011642Y033050D03*
X011642Y032050D03*
X012642Y032050D03*
X013642Y032050D03*
X013642Y033050D03*
X014642Y033050D03*
X014642Y032050D03*
X014642Y034050D03*
X013642Y034050D03*
X013642Y035050D03*
X014642Y035050D03*
X014642Y036050D03*
X013642Y036050D03*
X013642Y037050D03*
X014642Y037050D03*
X012642Y037050D03*
X011642Y037050D03*
X011642Y036050D03*
X012642Y036050D03*
X010642Y040050D03*
X010642Y041050D03*
X010642Y042050D03*
X007642Y042050D03*
X006642Y042050D03*
X006642Y041050D03*
X007642Y041050D03*
X007642Y040050D03*
X006642Y040050D03*
X006642Y039050D03*
X006642Y038050D03*
X007642Y038050D03*
X007642Y039050D03*
X005642Y039050D03*
X004642Y039050D03*
X004642Y038050D03*
X005642Y038050D03*
X005642Y037050D03*
X004642Y037050D03*
X004642Y036050D03*
X005642Y036050D03*
X005642Y035050D03*
X004642Y035050D03*
X004642Y034050D03*
X005642Y034050D03*
X005642Y033050D03*
X004642Y033050D03*
X004642Y032050D03*
X005642Y032050D03*
X003642Y032050D03*
X003642Y033050D03*
X003642Y034050D03*
X003642Y035050D03*
X003642Y036050D03*
X003642Y037050D03*
X003642Y038050D03*
X003642Y039050D03*
X003642Y040050D03*
X003642Y041050D03*
X003642Y042050D03*
X003642Y043050D03*
X003642Y044050D03*
X003642Y045050D03*
X003642Y046050D03*
X003642Y047050D03*
X003642Y048050D03*
X003642Y049050D03*
X003642Y050050D03*
X003642Y051050D03*
X003642Y052050D03*
X003642Y053050D03*
X003642Y054050D03*
X003642Y055050D03*
X003642Y056050D03*
X003642Y057050D03*
X003642Y058050D03*
X003642Y059050D03*
X004642Y059050D03*
X005642Y059050D03*
X005642Y058050D03*
X004642Y058050D03*
X004642Y057050D03*
X004642Y056050D03*
X005642Y056050D03*
X005642Y057050D03*
X006642Y057050D03*
X006642Y056050D03*
X007642Y056050D03*
X007642Y057050D03*
X007642Y058050D03*
X006642Y058050D03*
X006642Y059050D03*
X007642Y059050D03*
X008642Y059050D03*
X009642Y059050D03*
X009642Y058050D03*
X008642Y058050D03*
X008642Y057050D03*
X008642Y056050D03*
X009642Y056050D03*
X009642Y057050D03*
X010642Y057050D03*
X010642Y056050D03*
X010642Y055050D03*
X010642Y054050D03*
X009642Y054050D03*
X008642Y054050D03*
X008642Y055050D03*
X009642Y055050D03*
X007642Y055050D03*
X006642Y055050D03*
X006642Y054050D03*
X007642Y054050D03*
X007642Y053050D03*
X006642Y053050D03*
X006642Y052050D03*
X007642Y052050D03*
X007642Y051050D03*
X006642Y051050D03*
X006642Y050050D03*
X007642Y050050D03*
X007642Y049050D03*
X006642Y049050D03*
X006642Y048050D03*
X006642Y047050D03*
X007642Y047050D03*
X007642Y048050D03*
X008642Y048050D03*
X008642Y047050D03*
X009642Y047050D03*
X009642Y048050D03*
X009642Y049050D03*
X008642Y049050D03*
X008642Y050050D03*
X008642Y051050D03*
X009642Y051050D03*
X009642Y050050D03*
X010642Y050050D03*
X010642Y051050D03*
X010642Y052050D03*
X010642Y053050D03*
X009642Y053050D03*
X008642Y053050D03*
X008642Y052050D03*
X009642Y052050D03*
X011642Y052050D03*
X011642Y053050D03*
X012642Y053050D03*
X012642Y052050D03*
X012642Y051050D03*
X011642Y051050D03*
X011642Y050050D03*
X012642Y050050D03*
X012642Y049050D03*
X011642Y049050D03*
X010642Y049050D03*
X010642Y048050D03*
X010642Y047050D03*
X010642Y046050D03*
X010642Y045050D03*
X009642Y045050D03*
X008642Y045050D03*
X008642Y046050D03*
X009642Y046050D03*
X007642Y046050D03*
X006642Y046050D03*
X006642Y045050D03*
X007642Y045050D03*
X007642Y044050D03*
X006642Y044050D03*
X006642Y043050D03*
X007642Y043050D03*
X005642Y043050D03*
X004642Y043050D03*
X004642Y044050D03*
X005642Y044050D03*
X005642Y045050D03*
X004642Y045050D03*
X004642Y046050D03*
X005642Y046050D03*
X005642Y047050D03*
X004642Y047050D03*
X004642Y048050D03*
X004642Y049050D03*
X005642Y049050D03*
X005642Y048050D03*
X005642Y050050D03*
X004642Y050050D03*
X004642Y051050D03*
X005642Y051050D03*
X005642Y052050D03*
X004642Y052050D03*
X004642Y053050D03*
X005642Y053050D03*
X005642Y054050D03*
X004642Y054050D03*
X004642Y055050D03*
X005642Y055050D03*
X010642Y058050D03*
X010642Y059050D03*
X011642Y059050D03*
X012642Y059050D03*
X012642Y058050D03*
X011642Y058050D03*
X011642Y057050D03*
X011642Y056050D03*
X012642Y056050D03*
X012642Y057050D03*
X013642Y057050D03*
X013642Y056050D03*
X014642Y056050D03*
X014642Y057050D03*
X014642Y058050D03*
X013642Y058050D03*
X013642Y059050D03*
X014642Y059050D03*
X015642Y059050D03*
X016642Y059050D03*
X016642Y058050D03*
X015642Y058050D03*
X017642Y059050D03*
X018642Y059050D03*
X019642Y059050D03*
X020642Y059050D03*
X021642Y059050D03*
X021642Y058050D03*
X022642Y058050D03*
X023642Y058050D03*
X023642Y059050D03*
X022642Y059050D03*
X024642Y059050D03*
X025642Y059050D03*
X014642Y055050D03*
X013642Y055050D03*
X013642Y054050D03*
X014642Y054050D03*
X012642Y054050D03*
X011642Y054050D03*
X011642Y055050D03*
X012642Y055050D03*
X005642Y042050D03*
X004642Y042050D03*
X004642Y041050D03*
X005642Y041050D03*
X005642Y040050D03*
X004642Y040050D03*
X022542Y030650D03*
X022542Y029650D03*
X022542Y028650D03*
X022542Y027650D03*
X012142Y020750D03*
X012142Y019700D03*
X012142Y018750D03*
X003842Y017700D03*
X003842Y016700D03*
X003842Y015700D03*
X038192Y047725D03*
X041942Y048050D03*
X041992Y048900D03*
X051292Y049850D03*
X057042Y049550D03*
X048192Y031750D03*
X048192Y030750D03*
X048192Y029750D03*
X052242Y027772D03*
X052342Y028972D03*
X052342Y029972D03*
X052342Y030972D03*
X048092Y010050D03*
X062942Y006500D03*
D31*
X061442Y015050D03*
X061442Y016350D03*
X034542Y017850D03*
X034542Y019150D03*
X032242Y019250D03*
X032242Y020550D03*
X034342Y026050D03*
X034342Y027350D03*
X055742Y053950D03*
X055742Y055250D03*
D32*
X049342Y037465D03*
X049342Y037209D03*
X049342Y036953D03*
X049342Y036697D03*
X049342Y036441D03*
X049342Y036185D03*
X049342Y035930D03*
X049342Y035674D03*
X049342Y035418D03*
X049342Y035162D03*
X049342Y034906D03*
X049342Y034650D03*
X047157Y034650D03*
X047157Y034906D03*
X047157Y035162D03*
X047157Y035418D03*
X047157Y035674D03*
X047157Y035930D03*
X047157Y036185D03*
X047157Y036441D03*
X047157Y036697D03*
X047157Y036953D03*
X047157Y037209D03*
X047157Y037465D03*
X045577Y037550D03*
X045577Y037294D03*
X045577Y037038D03*
X045577Y036782D03*
X045577Y036526D03*
X045577Y036270D03*
X045577Y036015D03*
X045577Y035759D03*
X045577Y035503D03*
X045577Y035247D03*
X045577Y034991D03*
X045577Y034735D03*
X043392Y034735D03*
X043392Y034991D03*
X043392Y035247D03*
X043392Y035503D03*
X043392Y035759D03*
X043392Y036015D03*
X043392Y036270D03*
X043392Y036526D03*
X043392Y036782D03*
X043392Y037038D03*
X043392Y037294D03*
X043392Y037550D03*
X025677Y029150D03*
X025677Y028894D03*
X025677Y028638D03*
X025677Y028382D03*
X025677Y028126D03*
X025677Y027870D03*
X025677Y027615D03*
X025677Y027359D03*
X025677Y027103D03*
X025677Y026847D03*
X025677Y026591D03*
X025677Y026335D03*
X025638Y025150D03*
X025638Y024894D03*
X025638Y024638D03*
X025638Y024382D03*
X025638Y024126D03*
X025638Y023870D03*
X025638Y023615D03*
X025638Y023359D03*
X025638Y023103D03*
X025638Y022847D03*
X025638Y022591D03*
X025638Y022335D03*
X023453Y022335D03*
X023453Y022591D03*
X023453Y022847D03*
X023453Y023103D03*
X023453Y023359D03*
X023453Y023615D03*
X023453Y023870D03*
X023453Y024126D03*
X023453Y024382D03*
X023453Y024638D03*
X023453Y024894D03*
X023453Y025150D03*
X023492Y026335D03*
X023492Y026591D03*
X023492Y026847D03*
X023492Y027103D03*
X023492Y027359D03*
X023492Y027615D03*
X023492Y027870D03*
X023492Y028126D03*
X023492Y028382D03*
X023492Y028638D03*
X023492Y028894D03*
X023492Y029150D03*
X037242Y008650D03*
X037242Y008394D03*
X037242Y008138D03*
X037242Y007882D03*
X037242Y007626D03*
X037242Y007370D03*
X037242Y007115D03*
X037242Y006859D03*
X037242Y006603D03*
X037242Y006347D03*
X037242Y006091D03*
X037242Y005835D03*
X039427Y005835D03*
X039427Y006091D03*
X039427Y006347D03*
X039427Y006603D03*
X039427Y006859D03*
X039427Y007115D03*
X039427Y007370D03*
X039427Y007626D03*
X039427Y007882D03*
X039427Y008138D03*
X039427Y008394D03*
X039427Y008650D03*
D33*
X041219Y004013D03*
X041416Y004013D03*
X041613Y004013D03*
X041810Y004013D03*
X042006Y004013D03*
X042203Y004013D03*
X042400Y004013D03*
X042597Y004013D03*
X042794Y004013D03*
X042991Y004013D03*
X043187Y004013D03*
X043384Y004013D03*
X043581Y004013D03*
X043778Y004013D03*
X043975Y004013D03*
X044172Y004013D03*
X044369Y004013D03*
X044565Y004013D03*
X044762Y004013D03*
X035262Y004013D03*
X035065Y004013D03*
X034869Y004013D03*
X034672Y004013D03*
X034475Y004013D03*
X034278Y004013D03*
X034081Y004013D03*
X033884Y004013D03*
X033687Y004013D03*
X033491Y004013D03*
X033294Y004013D03*
X033097Y004013D03*
X032900Y004013D03*
X032703Y004013D03*
X032506Y004013D03*
X032310Y004013D03*
X032113Y004013D03*
X031916Y004013D03*
X031719Y004013D03*
X023762Y004013D03*
X023565Y004013D03*
X023369Y004013D03*
X023172Y004013D03*
X022975Y004013D03*
X022778Y004013D03*
X022581Y004013D03*
X022384Y004013D03*
X022187Y004013D03*
X021991Y004013D03*
X021794Y004013D03*
X021597Y004013D03*
X021400Y004013D03*
X021203Y004013D03*
X021006Y004013D03*
X020810Y004013D03*
X020613Y004013D03*
X020416Y004013D03*
X020219Y004013D03*
X013262Y004013D03*
X013065Y004013D03*
X012869Y004013D03*
X012672Y004013D03*
X012475Y004013D03*
X012278Y004013D03*
X012081Y004013D03*
X011884Y004013D03*
X011687Y004013D03*
X011491Y004013D03*
X011294Y004013D03*
X011097Y004013D03*
X010900Y004013D03*
X010703Y004013D03*
X010506Y004013D03*
X010310Y004013D03*
X010113Y004013D03*
X009916Y004013D03*
X009719Y004013D03*
D34*
X008538Y003600D03*
X008302Y001671D03*
X014483Y001671D03*
X014247Y003600D03*
X019038Y003600D03*
X018802Y001671D03*
X024983Y001671D03*
X024747Y003600D03*
X030302Y001671D03*
X030538Y003600D03*
X036247Y003600D03*
X036483Y001671D03*
X039802Y001671D03*
X040038Y003600D03*
X045747Y003600D03*
X045983Y001671D03*
D35*
X031116Y019188D03*
X030742Y019188D03*
X030368Y019188D03*
X030368Y020212D03*
X030742Y020212D03*
X031116Y020212D03*
D36*
X027980Y019750D03*
X026405Y019750D03*
D37*
X029500Y060503D03*
X033500Y060503D03*
D38*
X031500Y058503D03*
X030500Y058503D03*
D39*
X012564Y027975D03*
X012564Y027475D03*
X012564Y026975D03*
X012564Y026475D03*
X010517Y026475D03*
X010517Y026975D03*
X010517Y027475D03*
X010517Y027975D03*
X031595Y012225D03*
X031595Y011725D03*
X031595Y011225D03*
X031595Y010725D03*
X033642Y010725D03*
X033642Y011225D03*
X033642Y011725D03*
X033642Y012225D03*
D40*
X043377Y049780D03*
X043574Y049780D03*
X043771Y049780D03*
X043968Y049780D03*
X043968Y051000D03*
X043771Y051000D03*
X043574Y051000D03*
X043377Y051000D03*
D41*
X062152Y012193D02*
X062712Y012193D01*
X062712Y011193D02*
X062152Y011193D01*
X062152Y010193D02*
X062712Y010193D01*
X030172Y009600D02*
X029612Y009600D01*
X029612Y008600D02*
X030172Y008600D01*
X030172Y007600D02*
X029612Y007600D01*
X028072Y007600D02*
X027512Y007600D01*
X027512Y008600D02*
X028072Y008600D01*
X028072Y009600D02*
X027512Y009600D01*
X026072Y009600D02*
X025512Y009600D01*
X025512Y008600D02*
X026072Y008600D01*
X026072Y007600D02*
X025512Y007600D01*
X024072Y007600D02*
X023512Y007600D01*
X023512Y008600D02*
X024072Y008600D01*
X024072Y009600D02*
X023512Y009600D01*
X022072Y009600D02*
X021512Y009600D01*
X021512Y008600D02*
X022072Y008600D01*
X022072Y007600D02*
X021512Y007600D01*
X020072Y007600D02*
X019512Y007600D01*
X019512Y008600D02*
X020072Y008600D01*
X020072Y009600D02*
X019512Y009600D01*
X018072Y009600D02*
X017512Y009600D01*
X017512Y008600D02*
X018072Y008600D01*
X018072Y007600D02*
X017512Y007600D01*
X016072Y007600D02*
X015512Y007600D01*
X015512Y008600D02*
X016072Y008600D01*
X016072Y009600D02*
X015512Y009600D01*
D42*
X015388Y010475D03*
X015648Y010475D03*
X015907Y010475D03*
X016167Y010475D03*
X017388Y010475D03*
X017648Y010475D03*
X017907Y010475D03*
X018167Y010475D03*
X019388Y010500D03*
X019648Y010500D03*
X019907Y010500D03*
X020167Y010500D03*
X021388Y010500D03*
X021648Y010500D03*
X021907Y010500D03*
X022167Y010500D03*
X023413Y010525D03*
X023673Y010525D03*
X023932Y010525D03*
X024192Y010525D03*
X025388Y010525D03*
X025648Y010525D03*
X025907Y010525D03*
X026167Y010525D03*
X027413Y010525D03*
X027673Y010525D03*
X027932Y010525D03*
X028192Y010525D03*
X029488Y010500D03*
X029748Y010500D03*
X030007Y010500D03*
X030267Y010500D03*
X030267Y012374D03*
X030007Y012374D03*
X029748Y012374D03*
X029488Y012374D03*
X028192Y012399D03*
X027932Y012399D03*
X027673Y012399D03*
X027413Y012399D03*
X026167Y012399D03*
X025907Y012399D03*
X025648Y012399D03*
X025388Y012399D03*
X024192Y012399D03*
X023932Y012399D03*
X023673Y012399D03*
X023413Y012399D03*
X022167Y012374D03*
X021907Y012374D03*
X021648Y012374D03*
X021388Y012374D03*
X020167Y012374D03*
X019907Y012374D03*
X019648Y012374D03*
X019388Y012374D03*
X018167Y012349D03*
X017907Y012349D03*
X017648Y012349D03*
X017388Y012349D03*
X016167Y012349D03*
X015907Y012349D03*
X015648Y012349D03*
X015388Y012349D03*
X015613Y023150D03*
X015873Y023150D03*
X016132Y023150D03*
X016392Y023150D03*
X017113Y023175D03*
X017373Y023175D03*
X017632Y023175D03*
X017892Y023175D03*
X018563Y023150D03*
X018823Y023150D03*
X019082Y023150D03*
X019342Y023150D03*
X019342Y025024D03*
X019082Y025024D03*
X018823Y025024D03*
X018563Y025024D03*
X017892Y025049D03*
X017632Y025049D03*
X017373Y025049D03*
X017113Y025049D03*
X016392Y025024D03*
X016132Y025024D03*
X015873Y025024D03*
X015613Y025024D03*
X014892Y025024D03*
X014632Y025024D03*
X014373Y025024D03*
X014113Y025024D03*
X014113Y023150D03*
X014373Y023150D03*
X014632Y023150D03*
X014892Y023150D03*
X009142Y023100D03*
X008882Y023100D03*
X008623Y023100D03*
X008363Y023100D03*
X007642Y023100D03*
X007382Y023100D03*
X007123Y023100D03*
X006863Y023100D03*
X006142Y023100D03*
X005882Y023100D03*
X005623Y023100D03*
X005363Y023100D03*
X004642Y023100D03*
X004382Y023100D03*
X004123Y023100D03*
X003863Y023100D03*
X003863Y024974D03*
X004123Y024974D03*
X004382Y024974D03*
X004642Y024974D03*
X005363Y024974D03*
X005623Y024974D03*
X005882Y024974D03*
X006142Y024974D03*
X006863Y024974D03*
X007123Y024974D03*
X007382Y024974D03*
X007642Y024974D03*
X008363Y024974D03*
X008623Y024974D03*
X008882Y024974D03*
X009142Y024974D03*
D43*
X003947Y028661D02*
X003238Y028661D01*
X003238Y030039D02*
X003947Y030039D01*
D44*
X052642Y021585D03*
X052898Y021585D03*
X053154Y021585D03*
X053410Y021585D03*
X053666Y021585D03*
X053922Y021585D03*
X054178Y021585D03*
X054434Y021585D03*
X054689Y021585D03*
X054945Y021585D03*
X055201Y021585D03*
X055457Y021585D03*
X055457Y019400D03*
X055201Y019400D03*
X054945Y019400D03*
X054689Y019400D03*
X054434Y019400D03*
X054178Y019400D03*
X053922Y019400D03*
X053666Y019400D03*
X053410Y019400D03*
X053154Y019400D03*
X052898Y019400D03*
X052642Y019400D03*
D45*
X023042Y061600D03*
X022042Y061600D03*
X022042Y062600D03*
X023042Y062600D03*
X021042Y062600D03*
X020042Y062600D03*
X020042Y061600D03*
X021042Y061600D03*
X019042Y061600D03*
X019042Y062600D03*
D46*
X058245Y053800D03*
X058639Y053800D03*
D47*
X058942Y017655D03*
X058273Y017655D03*
X059611Y017655D03*
X059611Y015745D03*
X058942Y015745D03*
X058273Y015745D03*
X056411Y015745D03*
X055742Y015745D03*
X055073Y015745D03*
X053211Y015745D03*
X052542Y015745D03*
X051873Y015745D03*
X051873Y017655D03*
X052542Y017655D03*
X053211Y017655D03*
X055073Y017655D03*
X055742Y017655D03*
X056411Y017655D03*
X049911Y017755D03*
X049242Y017755D03*
X048573Y017755D03*
X048573Y015845D03*
X049242Y015845D03*
X049911Y015845D03*
X043811Y015745D03*
X043142Y015745D03*
X042473Y015745D03*
X042473Y017655D03*
X043142Y017655D03*
X043811Y017655D03*
X033111Y017655D03*
X032442Y017655D03*
X031773Y017655D03*
X031773Y015745D03*
X032442Y015745D03*
X033111Y015745D03*
X022711Y015745D03*
X022042Y015745D03*
X021373Y015745D03*
X021373Y017655D03*
X022042Y017655D03*
X022711Y017655D03*
X012211Y017655D03*
X011542Y017655D03*
X010873Y017655D03*
X010873Y015745D03*
X011542Y015745D03*
X012211Y015745D03*
D48*
X056709Y055419D03*
X056709Y055615D03*
X056709Y055812D03*
X056709Y056009D03*
X057417Y056009D03*
X057417Y055812D03*
X057417Y055615D03*
X057417Y055419D03*
D49*
X056713Y056822D03*
X056457Y056822D03*
X056201Y056822D03*
X056201Y057491D03*
X056457Y057491D03*
X056713Y057491D03*
D50*
X058352Y056035D03*
X059155Y056035D03*
X059155Y055287D03*
X058352Y055287D03*
D51*
X061677Y058971D02*
X061679Y058990D01*
X061684Y059009D01*
X061694Y059025D01*
X061706Y059040D01*
X061721Y059052D01*
X061737Y059062D01*
X061756Y059067D01*
X061775Y059069D01*
X061794Y059067D01*
X061813Y059062D01*
X061829Y059052D01*
X061844Y059040D01*
X061856Y059025D01*
X061866Y059009D01*
X061871Y058990D01*
X061873Y058971D01*
X061871Y058952D01*
X061866Y058933D01*
X061856Y058917D01*
X061844Y058902D01*
X061829Y058890D01*
X061813Y058880D01*
X061794Y058875D01*
X061775Y058873D01*
X061756Y058875D01*
X061737Y058880D01*
X061721Y058890D01*
X061706Y058902D01*
X061694Y058917D01*
X061684Y058933D01*
X061679Y058952D01*
X061677Y058971D01*
X063252Y004640D02*
X063254Y004659D01*
X063259Y004678D01*
X063269Y004694D01*
X063281Y004709D01*
X063296Y004721D01*
X063312Y004731D01*
X063331Y004736D01*
X063350Y004738D01*
X063369Y004736D01*
X063388Y004731D01*
X063404Y004721D01*
X063419Y004709D01*
X063431Y004694D01*
X063441Y004678D01*
X063446Y004659D01*
X063448Y004640D01*
X063446Y004621D01*
X063441Y004602D01*
X063431Y004586D01*
X063419Y004571D01*
X063404Y004559D01*
X063388Y004549D01*
X063369Y004544D01*
X063350Y004542D01*
X063331Y004544D01*
X063312Y004549D01*
X063296Y004559D01*
X063281Y004571D01*
X063269Y004586D01*
X063259Y004602D01*
X063254Y004621D01*
X063252Y004640D01*
X005772Y002278D02*
X005774Y002297D01*
X005779Y002316D01*
X005789Y002332D01*
X005801Y002347D01*
X005816Y002359D01*
X005832Y002369D01*
X005851Y002374D01*
X005870Y002376D01*
X005889Y002374D01*
X005908Y002369D01*
X005924Y002359D01*
X005939Y002347D01*
X005951Y002332D01*
X005961Y002316D01*
X005966Y002297D01*
X005968Y002278D01*
X005966Y002259D01*
X005961Y002240D01*
X005951Y002224D01*
X005939Y002209D01*
X005924Y002197D01*
X005908Y002187D01*
X005889Y002182D01*
X005870Y002180D01*
X005851Y002182D01*
X005832Y002187D01*
X005816Y002197D01*
X005801Y002209D01*
X005789Y002224D01*
X005779Y002240D01*
X005774Y002259D01*
X005772Y002278D01*
D52*
X006382Y004810D03*
X007342Y006200D03*
X007342Y007050D03*
X008642Y007650D03*
X009342Y007650D03*
X010042Y007650D03*
X010742Y007650D03*
X011442Y007650D03*
X012142Y007650D03*
X012842Y007650D03*
X013542Y007650D03*
X014767Y009325D03*
X016367Y008100D03*
X018317Y008075D03*
X018292Y006050D03*
X018292Y004700D03*
X018692Y004500D03*
X019792Y005250D03*
X020442Y004900D03*
X021092Y005200D03*
X021492Y004900D03*
X021792Y005300D03*
X022242Y006050D03*
X024092Y005300D03*
X024342Y006050D03*
X024792Y004900D03*
X025292Y004400D03*
X025492Y003700D03*
X027092Y003850D03*
X027592Y004400D03*
X028242Y005225D03*
X028342Y006050D03*
X026342Y006050D03*
X026467Y005175D03*
X026392Y008050D03*
X024417Y008125D03*
X022292Y008090D03*
X020342Y008100D03*
X020242Y006050D03*
X021292Y002950D03*
X021842Y002700D03*
X022192Y002250D03*
X022742Y002950D03*
X020992Y002100D03*
X020642Y002500D03*
X020292Y002100D03*
X016792Y004500D03*
X016392Y003550D03*
X016292Y002500D03*
X015142Y001400D03*
X013065Y003123D03*
X012475Y003133D03*
X011884Y003158D03*
X011294Y003148D03*
X010792Y002400D03*
X010292Y002750D03*
X009392Y002600D03*
X009292Y003250D03*
X007932Y004250D03*
X013742Y004300D03*
X014642Y005200D03*
X016292Y006050D03*
X016492Y010475D03*
X015642Y011775D03*
X015042Y012350D03*
X016520Y012278D03*
X016742Y013350D03*
X016792Y013900D03*
X017092Y014500D03*
X016342Y015700D03*
X015679Y014887D03*
X014392Y016200D03*
X013592Y015900D03*
X013167Y016225D03*
X014392Y017300D03*
X015042Y017900D03*
X016542Y017750D03*
X016342Y016800D03*
X016592Y018750D03*
X017142Y018750D03*
X017532Y021340D03*
X017373Y022580D03*
X016742Y023150D03*
X015792Y022550D03*
X015242Y023150D03*
X014323Y022530D03*
X013792Y023150D03*
X014717Y024500D03*
X015217Y024975D03*
X015257Y025660D03*
X014842Y026200D03*
X013757Y025660D03*
X013592Y024975D03*
X012042Y025400D03*
X010942Y024000D03*
X011142Y023650D03*
X011392Y023350D03*
X011692Y023050D03*
X009592Y024975D03*
X009742Y025600D03*
X008417Y026050D03*
X007992Y024975D03*
X007542Y024350D03*
X006492Y024975D03*
X006067Y024350D03*
X004992Y024975D03*
X004392Y024450D03*
X005042Y023100D03*
X005542Y022600D03*
X006492Y023100D03*
X007042Y022600D03*
X007992Y023100D03*
X008542Y022600D03*
X007592Y021200D03*
X006192Y021150D03*
X004792Y021100D03*
X004123Y022580D03*
X003542Y023000D03*
X003892Y026025D03*
X004592Y026150D03*
X005407Y026115D03*
X006092Y026150D03*
X006892Y026025D03*
X007542Y026300D03*
X008792Y027300D03*
X008992Y024350D03*
X009542Y020800D03*
X006592Y018750D03*
X006192Y018250D03*
X006942Y017900D03*
X008242Y017900D03*
X009307Y016190D03*
X008692Y015050D03*
X008242Y013700D03*
X007042Y015000D03*
X005429Y014713D03*
X003882Y014110D03*
X008642Y011150D03*
X009342Y011150D03*
X010042Y011150D03*
X010742Y011150D03*
X011442Y011150D03*
X012142Y011150D03*
X012842Y011150D03*
X013542Y011150D03*
X011492Y014225D03*
X010892Y014225D03*
X014732Y021390D03*
X016132Y021390D03*
X018242Y023150D03*
X018692Y022550D03*
X018932Y021340D03*
X021942Y021200D03*
X022542Y022500D03*
X022542Y022950D03*
X022542Y023400D03*
X022542Y023850D03*
X021402Y025410D03*
X021992Y026100D03*
X024042Y024900D03*
X024817Y024900D03*
X025692Y025600D03*
X025142Y026350D03*
X024042Y027550D03*
X024492Y027950D03*
X024698Y028894D03*
X025192Y028450D03*
X025677Y029900D03*
X026842Y029100D03*
X027442Y029150D03*
X027142Y028350D03*
X027142Y027550D03*
X026442Y027200D03*
X026892Y025950D03*
X030092Y026750D03*
X031342Y026300D03*
X032192Y026850D03*
X030342Y025050D03*
X029992Y023450D03*
X031092Y022250D03*
X032142Y022650D03*
X032817Y024100D03*
X033332Y024260D03*
X034442Y025250D03*
X035092Y023750D03*
X035192Y022750D03*
X035342Y021750D03*
X035542Y020750D03*
X035692Y019750D03*
X035792Y018750D03*
X035942Y017750D03*
X035992Y016750D03*
X036342Y015200D03*
X037792Y013800D03*
X038392Y013500D03*
X038792Y013150D03*
X038392Y012800D03*
X037792Y012650D03*
X036842Y011200D03*
X037992Y010500D03*
X038692Y010400D03*
X038592Y011100D03*
X037692Y009350D03*
X036342Y008550D03*
X035542Y008400D03*
X035892Y009350D03*
X035092Y010100D03*
X034442Y010350D03*
X032542Y008200D03*
X031842Y008700D03*
X030617Y010500D03*
X029717Y011775D03*
X030592Y012562D03*
X029042Y012350D03*
X028592Y012575D03*
X027667Y011775D03*
X027042Y012350D03*
X026567Y012575D03*
X025653Y011775D03*
X024942Y012350D03*
X024567Y012575D03*
X023667Y011775D03*
X022567Y012575D03*
X021642Y011775D03*
X020567Y012550D03*
X020692Y013250D03*
X021592Y014450D03*
X022242Y014800D03*
X023492Y014600D03*
X024342Y014950D03*
X022692Y018650D03*
X022042Y019200D03*
X021342Y019300D03*
X023452Y020390D03*
X024042Y019300D03*
X025242Y021550D03*
X024942Y022300D03*
X023992Y022600D03*
X027142Y021700D03*
X027142Y020950D03*
X027342Y022550D03*
X028942Y020650D03*
X029642Y020300D03*
X029592Y019200D03*
X028942Y019100D03*
X030717Y018725D03*
X032542Y018600D03*
X030742Y015000D03*
X029942Y015150D03*
X028042Y016050D03*
X028117Y016900D03*
X028567Y010525D03*
X026542Y010525D03*
X024542Y010525D03*
X022492Y010500D03*
X020492Y010500D03*
X019653Y011775D03*
X019042Y012350D03*
X018567Y012500D03*
X017667Y011775D03*
X018492Y010475D03*
X018792Y014400D03*
X018692Y015350D03*
X019392Y016050D03*
X019142Y024550D03*
X019717Y024975D03*
X019392Y026150D03*
X018267Y025700D03*
X017842Y026200D03*
X018217Y024975D03*
X017642Y024550D03*
X016767Y024975D03*
X016767Y025650D03*
X016342Y026150D03*
X016092Y027050D03*
X016142Y024550D03*
X023492Y029750D03*
X024192Y030400D03*
X033217Y036025D03*
X037642Y038552D03*
X036392Y041350D03*
X037592Y041700D03*
X038026Y041817D03*
X037942Y042350D03*
X037542Y042650D03*
X038042Y043250D03*
X038342Y042950D03*
X037692Y043550D03*
X038042Y043900D03*
X037692Y044550D03*
X037576Y045166D03*
X038192Y047000D03*
X037542Y048625D03*
X038867Y048625D03*
X038942Y050525D03*
X041892Y050550D03*
X043742Y049200D03*
X044242Y049850D03*
X044942Y050100D03*
X044742Y050850D03*
X043942Y051450D03*
X048042Y048000D03*
X048042Y045700D03*
X048042Y043400D03*
X048142Y039500D03*
X046742Y038050D03*
X046092Y036675D03*
X046592Y035450D03*
X046442Y034600D03*
X045692Y034050D03*
X042942Y033650D03*
X042692Y034800D03*
X041992Y035250D03*
X042342Y035650D03*
X042142Y036050D03*
X042192Y036450D03*
X042392Y036800D03*
X042542Y037250D03*
X042942Y037700D03*
X043142Y038050D03*
X041242Y037275D03*
X041217Y039475D03*
X041292Y039925D03*
X035992Y044200D03*
X034642Y056600D03*
X050642Y050800D03*
X051742Y051900D03*
X053492Y050700D03*
X053942Y052000D03*
X053742Y053900D03*
X055742Y053350D03*
X056622Y054760D03*
X057742Y053800D03*
X058242Y054200D03*
X058742Y054200D03*
X059142Y053800D03*
X058742Y053400D03*
X059042Y051900D03*
X056267Y050525D03*
X057542Y048100D03*
X057942Y047900D03*
X058142Y047500D03*
X058342Y047100D03*
X058642Y046800D03*
X058742Y046400D03*
X058842Y045800D03*
X056242Y045400D03*
X055867Y045125D03*
X055742Y044600D03*
X056142Y044400D03*
X056042Y044000D03*
X056442Y042800D03*
X056342Y041700D03*
X056542Y041300D03*
X056942Y041100D03*
X056942Y040700D03*
X057042Y040300D03*
X057342Y039900D03*
X058742Y039500D03*
X059342Y039600D03*
X059442Y039200D03*
X059842Y039700D03*
X059942Y038700D03*
X060042Y038300D03*
X061242Y038600D03*
X061742Y037400D03*
X062042Y037800D03*
X062342Y038600D03*
X062642Y039000D03*
X062942Y039400D03*
X055742Y045800D03*
X054542Y045700D03*
X054142Y045800D03*
X053342Y046100D03*
X053642Y046800D03*
X053342Y047100D03*
X053342Y048000D03*
X053942Y049000D03*
X052092Y049450D03*
X052142Y048300D03*
X052142Y047700D03*
X051842Y047300D03*
X052142Y046400D03*
X053842Y044800D03*
X054042Y043900D03*
X053942Y043500D03*
X053942Y043100D03*
X053942Y042700D03*
X053942Y042200D03*
X053942Y041700D03*
X054542Y038900D03*
X051042Y036000D03*
X049892Y036450D03*
X049892Y037000D03*
X050067Y034375D03*
X049492Y033350D03*
X049042Y033700D03*
X052492Y033747D03*
X051592Y029472D03*
X048042Y027000D03*
X046442Y028550D03*
X048142Y024000D03*
X048142Y019400D03*
X048142Y016700D03*
X048142Y014100D03*
X043592Y009200D03*
X044092Y008200D03*
X043392Y008000D03*
X043842Y007450D03*
X044492Y007500D03*
X044292Y006350D03*
X044892Y006150D03*
X044742Y005400D03*
X044565Y003327D03*
X043975Y003342D03*
X043384Y003333D03*
X042794Y003348D03*
X041463Y003245D03*
X041752Y002460D03*
X042232Y002060D03*
X042192Y004750D03*
X040542Y005700D03*
X040142Y006100D03*
X039427Y005515D03*
X038742Y006000D03*
X037242Y005150D03*
X036642Y006200D03*
X036192Y006500D03*
X036532Y006820D03*
X036542Y007600D03*
X037842Y007600D03*
X039004Y008138D03*
X040642Y007900D03*
X041142Y007600D03*
X041342Y007100D03*
X041042Y006500D03*
X040642Y007275D03*
X041092Y009650D03*
X040192Y012700D03*
X041042Y014175D03*
X040642Y017600D03*
X041542Y019000D03*
X041342Y024250D03*
X041192Y025250D03*
X038842Y027700D03*
X039792Y028400D03*
X038842Y028900D03*
X038842Y029350D03*
X028492Y008100D03*
X030442Y006050D03*
X030142Y004600D03*
X031892Y004900D03*
X032692Y006300D03*
X033792Y006260D03*
X035122Y006180D03*
X035065Y003373D03*
X034475Y003333D03*
X033884Y003292D03*
X033294Y003252D03*
X032312Y002110D03*
X032792Y002060D03*
X032342Y001400D03*
X031963Y003270D03*
X029092Y002300D03*
X027042Y002300D03*
X048142Y006000D03*
X048042Y007200D03*
X049942Y006600D03*
X049742Y006100D03*
X050942Y005300D03*
X050642Y004800D03*
X051442Y005700D03*
X051142Y006100D03*
X052142Y005500D03*
X052342Y004900D03*
X052542Y004300D03*
X052842Y003800D03*
X053042Y003100D03*
X053692Y003050D03*
X054642Y002100D03*
X055142Y001600D03*
X055542Y001400D03*
X055942Y001500D03*
X056342Y001600D03*
X056342Y003100D03*
X056042Y003600D03*
X055842Y004200D03*
X055542Y004700D03*
X055342Y005300D03*
X056992Y003100D03*
X057942Y002000D03*
X058342Y001325D03*
X058842Y001300D03*
X059142Y001600D03*
X059542Y001600D03*
X059542Y003200D03*
X060092Y003175D03*
X059342Y003800D03*
X059042Y004300D03*
X059642Y005700D03*
X059242Y006100D03*
X053042Y001600D03*
X052642Y001500D03*
X052242Y001300D03*
X051942Y001600D03*
X051442Y002100D03*
X050861Y002663D03*
X049842Y003200D03*
X049742Y001600D03*
X049442Y001300D03*
X048942Y001400D03*
X048642Y001700D03*
X049042Y004800D03*
X002342Y006950D03*
D53*
X031042Y017500D03*
X034542Y018400D03*
X047342Y031750D03*
X061442Y014300D03*
D54*
X061611Y011218D03*
X061542Y007300D03*
X061542Y006700D03*
X058367Y006825D03*
X058367Y007400D03*
X055267Y007650D03*
X055067Y006975D03*
X052417Y006850D03*
X052042Y006400D03*
X041342Y004800D03*
X051642Y019900D03*
X051642Y023200D03*
M02*
