G75*
%MOIN*%
%OFA0B0*%
%FSLAX24Y24*%
%IPPOS*%
%LPD*%
%AMOC8*
5,1,8,0,0,1.08239X$1,22.5*
%
%ADD10R,0.0570X0.0180*%
%ADD11C,0.0827*%
%ADD12R,0.0150X0.0300*%
%ADD13R,0.0150X0.0400*%
%ADD14R,0.0420X0.0350*%
%ADD15R,0.0350X0.0420*%
%ADD16R,0.0610X0.0236*%
%ADD17R,0.0480X0.0740*%
%ADD18R,0.0866X0.1102*%
%ADD19R,0.1102X0.1102*%
%ADD20R,0.0600X0.0380*%
%ADD21R,0.0394X0.0217*%
%ADD22R,0.0217X0.0394*%
%ADD23R,0.0380X0.0600*%
%ADD24C,0.0600*%
%ADD25R,0.0740X0.0480*%
%ADD26R,0.0413X0.0177*%
%ADD27R,0.0118X0.0748*%
%ADD28C,0.0768*%
%ADD29R,0.0276X0.0394*%
%ADD30R,0.0787X0.0787*%
%ADD31C,0.1266*%
%ADD32C,0.0594*%
%ADD33R,0.0866X0.0236*%
%ADD34R,0.0098X0.0295*%
%ADD35C,0.0560*%
%ADD36R,0.0177X0.0472*%
%ADD37C,0.0709*%
%ADD38R,0.0177X0.0413*%
%ADD39OC8,0.0560*%
%ADD40R,0.0236X0.0197*%
%ADD41R,0.0433X0.1122*%
%ADD42R,0.0394X0.0118*%
%ADD43R,0.0138X0.0315*%
%ADD44R,0.0591X0.0512*%
%ADD45C,0.0197*%
%ADD46C,0.0100*%
%ADD47C,0.0310*%
%ADD48C,0.0120*%
%ADD49C,0.0080*%
%ADD50C,0.0160*%
%ADD51C,0.0200*%
%ADD52C,0.0140*%
%ADD53C,0.0150*%
%ADD54R,0.0396X0.0396*%
%ADD55C,0.0396*%
%ADD56C,0.0070*%
%ADD57C,0.0240*%
%ADD58C,0.0320*%
%ADD59C,0.0400*%
D10*
X037016Y038237D03*
X037016Y038552D03*
X037016Y038867D03*
X037016Y039182D03*
X037016Y039497D03*
X037016Y039812D03*
X037016Y040127D03*
X037016Y040442D03*
X037016Y040757D03*
X037016Y041072D03*
X037016Y041387D03*
X037016Y041702D03*
X037016Y042017D03*
X037016Y042331D03*
X037016Y042646D03*
X037016Y042961D03*
X037016Y043276D03*
X037016Y043591D03*
X037016Y043906D03*
X037016Y044221D03*
X037016Y044536D03*
X037016Y044851D03*
X037016Y045166D03*
X037016Y045481D03*
X037016Y045796D03*
X037016Y046111D03*
X037016Y046426D03*
X037016Y046741D03*
X037016Y047056D03*
X037016Y047371D03*
X037016Y047686D03*
X037016Y048001D03*
X037016Y048316D03*
X037016Y048631D03*
X037016Y048946D03*
X037016Y049261D03*
X037016Y049576D03*
X037016Y049891D03*
X037016Y050206D03*
X037016Y050520D03*
X039446Y050520D03*
X039446Y050206D03*
X039446Y049891D03*
X039446Y049576D03*
X039446Y049261D03*
X039446Y048946D03*
X039446Y048631D03*
X039446Y048316D03*
X039446Y048001D03*
X039446Y047686D03*
X039446Y047371D03*
X039446Y047056D03*
X039446Y046741D03*
X039446Y046426D03*
X039446Y046111D03*
X039446Y045796D03*
X039446Y045481D03*
X039446Y045166D03*
X039446Y044851D03*
X039446Y044536D03*
X039446Y044221D03*
X039446Y043906D03*
X039446Y043591D03*
X039446Y043276D03*
X039446Y042961D03*
X039446Y042646D03*
X039446Y042331D03*
X039446Y042017D03*
X039446Y041702D03*
X039446Y041387D03*
X039446Y041072D03*
X039446Y040757D03*
X039446Y040442D03*
X039446Y040127D03*
X039446Y039812D03*
X039446Y039497D03*
X039446Y039182D03*
X039446Y038867D03*
X039446Y038552D03*
X039446Y038237D03*
X052764Y038237D03*
X052764Y038552D03*
X052764Y038867D03*
X052764Y039182D03*
X052764Y039497D03*
X052764Y039812D03*
X052764Y040127D03*
X052764Y040442D03*
X052764Y040757D03*
X052764Y041072D03*
X052764Y041387D03*
X052764Y041702D03*
X052764Y042017D03*
X052764Y042331D03*
X052764Y042646D03*
X052764Y042961D03*
X052764Y043276D03*
X052764Y043591D03*
X052764Y043906D03*
X052764Y044221D03*
X052764Y044536D03*
X052764Y044851D03*
X052764Y045166D03*
X052764Y045481D03*
X052764Y045796D03*
X052764Y046111D03*
X052764Y046426D03*
X052764Y046741D03*
X052764Y047056D03*
X052764Y047371D03*
X052764Y047686D03*
X052764Y048001D03*
X052764Y048316D03*
X052764Y048631D03*
X052764Y048946D03*
X052764Y049261D03*
X052764Y049576D03*
X052764Y049891D03*
X052764Y050206D03*
X052764Y050520D03*
X055194Y050520D03*
X055194Y050206D03*
X055194Y049891D03*
X055194Y049576D03*
X055194Y049261D03*
X055194Y048946D03*
X055194Y048631D03*
X055194Y048316D03*
X055194Y048001D03*
X055194Y047686D03*
X055194Y047371D03*
X055194Y047056D03*
X055194Y046741D03*
X055194Y046426D03*
X055194Y046111D03*
X055194Y045796D03*
X055194Y045481D03*
X055194Y045166D03*
X055194Y044851D03*
X055194Y044536D03*
X055194Y044221D03*
X055194Y043906D03*
X055194Y043591D03*
X055194Y043276D03*
X055194Y042961D03*
X055194Y042646D03*
X055194Y042331D03*
X055194Y042017D03*
X055194Y041702D03*
X055194Y041387D03*
X055194Y041072D03*
X055194Y040757D03*
X055194Y040442D03*
X055194Y040127D03*
X055194Y039812D03*
X055194Y039497D03*
X055194Y039182D03*
X055194Y038867D03*
X055194Y038552D03*
X055194Y038237D03*
D11*
X058742Y059656D02*
X058742Y060482D01*
X058742Y062018D02*
X058742Y062844D01*
X056892Y061663D02*
X056892Y060837D01*
D12*
X056267Y002100D03*
X056017Y002100D03*
X055767Y002100D03*
X055517Y002100D03*
X055267Y002100D03*
X055017Y002100D03*
X053017Y002100D03*
X052767Y002100D03*
X052517Y002100D03*
X052267Y002100D03*
X052017Y002100D03*
X051767Y002100D03*
X049767Y002100D03*
X049517Y002100D03*
X049267Y002100D03*
X049017Y002100D03*
X048767Y002100D03*
X048517Y002100D03*
X058267Y002100D03*
X058517Y002100D03*
X058767Y002100D03*
X059017Y002100D03*
X059267Y002100D03*
X059517Y002100D03*
D13*
X059517Y002550D03*
X059267Y002550D03*
X059017Y002550D03*
X058767Y002550D03*
X058517Y002550D03*
X058267Y002550D03*
X056267Y002550D03*
X056017Y002550D03*
X055767Y002550D03*
X055517Y002550D03*
X055267Y002550D03*
X055017Y002550D03*
X053017Y002550D03*
X052767Y002550D03*
X052517Y002550D03*
X052267Y002550D03*
X052017Y002550D03*
X051767Y002550D03*
X049767Y002550D03*
X049517Y002550D03*
X049267Y002550D03*
X049017Y002550D03*
X048767Y002550D03*
X048517Y002550D03*
D14*
X050392Y002690D03*
X050392Y002010D03*
X053692Y001960D03*
X053692Y002640D03*
X056992Y002640D03*
X056992Y001960D03*
X060092Y002060D03*
X060092Y002740D03*
X057942Y011060D03*
X057942Y011740D03*
X057142Y011740D03*
X057142Y011060D03*
X054642Y011060D03*
X054642Y011740D03*
X053942Y011740D03*
X053942Y011060D03*
X051642Y011010D03*
X051642Y011690D03*
X050892Y011690D03*
X050892Y011010D03*
X060042Y011160D03*
X060042Y011840D03*
X060842Y011840D03*
X060842Y011160D03*
X042242Y033560D03*
X042242Y034240D03*
X041542Y034290D03*
X041542Y033610D03*
X040992Y034910D03*
X040992Y035590D03*
X040942Y036210D03*
X041617Y036210D03*
X041617Y036890D03*
X040942Y036890D03*
X041642Y037910D03*
X041642Y038590D03*
X042392Y038590D03*
X042392Y037910D03*
X040942Y038210D03*
X040942Y038890D03*
X040642Y039610D03*
X040642Y040290D03*
X042342Y050560D03*
X042342Y051240D03*
X035442Y057860D03*
X035442Y058540D03*
X024742Y061360D03*
X024742Y062040D03*
X050067Y035590D03*
X050067Y034910D03*
X029992Y026190D03*
X029992Y025510D03*
X029042Y022590D03*
X029042Y021910D03*
X028192Y021900D03*
X028192Y022580D03*
X025142Y020740D03*
X025142Y020060D03*
X022492Y025410D03*
X022492Y026090D03*
X026392Y026340D03*
X026392Y025660D03*
X030342Y018040D03*
X030342Y017360D03*
X028892Y008480D03*
X028892Y007800D03*
X028892Y006740D03*
X028892Y006060D03*
X027792Y006060D03*
X027792Y006740D03*
X026792Y006740D03*
X026792Y006060D03*
X025792Y006060D03*
X025792Y006740D03*
X024792Y006740D03*
X024792Y006060D03*
X023792Y006060D03*
X023792Y006740D03*
X022792Y006740D03*
X022792Y006060D03*
X021792Y006060D03*
X021792Y006740D03*
X020792Y006740D03*
X020792Y006060D03*
X019792Y006060D03*
X019792Y006740D03*
X018792Y006740D03*
X018792Y006060D03*
X019242Y005190D03*
X019242Y004510D03*
X017792Y006060D03*
X017792Y006740D03*
X016792Y006740D03*
X016792Y006060D03*
X015792Y006060D03*
X015792Y006740D03*
X014792Y006740D03*
X014792Y006060D03*
X013542Y005860D03*
X013542Y006540D03*
X012842Y006540D03*
X012842Y005860D03*
X012142Y005860D03*
X012142Y006540D03*
X011442Y006540D03*
X011442Y005860D03*
X010742Y005860D03*
X010742Y006540D03*
X010042Y006540D03*
X010042Y005860D03*
X009342Y005860D03*
X009342Y006540D03*
X008642Y006540D03*
X008642Y005860D03*
X007942Y005860D03*
X007942Y006540D03*
X008642Y009160D03*
X008642Y009840D03*
X009342Y009840D03*
X009342Y009160D03*
X010042Y009160D03*
X010042Y009840D03*
X010742Y009840D03*
X010742Y009160D03*
X011442Y009160D03*
X011442Y009840D03*
X012142Y009840D03*
X012142Y009160D03*
X012842Y009160D03*
X012842Y009840D03*
X013542Y009840D03*
X013542Y009160D03*
X014792Y008440D03*
X014792Y007760D03*
X016792Y007760D03*
X016792Y008440D03*
X018792Y008440D03*
X018792Y007760D03*
X020792Y007810D03*
X020792Y008490D03*
X022792Y008440D03*
X022792Y007760D03*
X024792Y007760D03*
X024792Y008440D03*
X026792Y008440D03*
X026792Y007760D03*
X029892Y006740D03*
X029892Y006060D03*
X032642Y005529D03*
X032642Y004849D03*
X033942Y004849D03*
X033942Y005529D03*
X035192Y005529D03*
X035192Y004849D03*
X035542Y007060D03*
X035542Y007740D03*
X034692Y007740D03*
X034692Y007060D03*
X033992Y007060D03*
X033992Y007740D03*
X033292Y007740D03*
X033292Y007060D03*
X032592Y007060D03*
X032592Y007740D03*
X018942Y020260D03*
X018942Y020940D03*
X018242Y020540D03*
X018242Y019860D03*
X017542Y020260D03*
X017542Y020940D03*
X016842Y020540D03*
X016842Y019860D03*
X016142Y020260D03*
X016142Y020940D03*
X015442Y020490D03*
X015442Y019810D03*
X014742Y020260D03*
X014742Y020940D03*
X014042Y020540D03*
X014042Y019860D03*
X009542Y019710D03*
X009542Y020390D03*
X008842Y020390D03*
X008842Y019710D03*
X007592Y020010D03*
X007592Y020690D03*
X006892Y020290D03*
X006892Y019610D03*
X006192Y020010D03*
X006192Y020690D03*
X005492Y020290D03*
X005492Y019610D03*
X004792Y020010D03*
X004792Y020690D03*
X004042Y020290D03*
X004042Y019610D03*
X004642Y016740D03*
X004642Y016060D03*
X005492Y012740D03*
X005492Y012060D03*
X008642Y012610D03*
X008642Y013290D03*
X009342Y013290D03*
X009342Y012610D03*
X010042Y012610D03*
X010042Y013290D03*
X010742Y013290D03*
X010742Y012610D03*
X011442Y012610D03*
X011442Y013290D03*
X012142Y013290D03*
X012142Y012610D03*
X012842Y012610D03*
X012842Y013290D03*
X013542Y013290D03*
X013542Y012610D03*
X009417Y026710D03*
X009417Y027390D03*
D15*
X009082Y025615D03*
X008402Y025615D03*
X007582Y025600D03*
X006902Y025600D03*
X006082Y025600D03*
X005402Y025600D03*
X004582Y025600D03*
X003902Y025600D03*
X010777Y025375D03*
X011457Y025375D03*
X014177Y025640D03*
X014857Y025640D03*
X015677Y025650D03*
X016357Y025650D03*
X017177Y025650D03*
X017857Y025650D03*
X018677Y025650D03*
X019357Y025650D03*
X023452Y021200D03*
X024132Y021200D03*
X022032Y018650D03*
X021352Y018650D03*
X019382Y016750D03*
X018702Y016750D03*
X018157Y013275D03*
X017477Y013275D03*
X016132Y013275D03*
X015452Y013275D03*
X012182Y014700D03*
X011502Y014700D03*
X009307Y016825D03*
X008627Y016825D03*
X003882Y013600D03*
X003202Y013600D03*
X005702Y005350D03*
X006382Y005350D03*
X015652Y001400D03*
X016332Y001400D03*
X027027Y005400D03*
X027707Y005400D03*
X029202Y003825D03*
X029882Y003825D03*
X034427Y009500D03*
X035107Y009500D03*
X035107Y011675D03*
X034427Y011675D03*
X033082Y014600D03*
X032402Y014600D03*
X030207Y013250D03*
X029527Y013250D03*
X028157Y013200D03*
X027477Y013200D03*
X026132Y013250D03*
X025452Y013250D03*
X024132Y013250D03*
X023452Y013250D03*
X022157Y013250D03*
X021477Y013250D03*
X020132Y013275D03*
X019452Y013275D03*
X014882Y016800D03*
X014202Y016800D03*
X028942Y021100D03*
X029622Y021100D03*
X029802Y021950D03*
X030482Y021950D03*
X030452Y021200D03*
X031132Y021200D03*
X031002Y024700D03*
X031682Y024700D03*
X032652Y024700D03*
X033332Y024700D03*
X030772Y027250D03*
X030092Y027250D03*
X043102Y014650D03*
X043782Y014650D03*
X038682Y009850D03*
X038002Y009850D03*
X049402Y011000D03*
X050082Y011000D03*
X050082Y011750D03*
X049402Y011750D03*
X049202Y014650D03*
X049882Y014650D03*
X052602Y014700D03*
X053282Y014700D03*
X055802Y014700D03*
X056482Y014700D03*
X059002Y014700D03*
X059682Y014700D03*
X059382Y011800D03*
X058702Y011800D03*
X058702Y011100D03*
X059382Y011100D03*
X056482Y011000D03*
X055802Y011000D03*
X055802Y011700D03*
X056482Y011700D03*
X053182Y011700D03*
X052502Y011700D03*
X052502Y010900D03*
X053182Y010900D03*
X053502Y018650D03*
X054182Y018650D03*
X051682Y019300D03*
X051002Y019300D03*
X023082Y060200D03*
X022402Y060200D03*
D16*
X017805Y018400D03*
X017805Y017900D03*
X017805Y017400D03*
X017805Y016900D03*
X017805Y016400D03*
X017805Y015900D03*
X017805Y015400D03*
X015679Y015400D03*
X015679Y015900D03*
X015679Y016400D03*
X015679Y016900D03*
X015679Y017400D03*
X015679Y017900D03*
X015679Y018400D03*
X007555Y018400D03*
X007555Y017900D03*
X007555Y017400D03*
X007555Y016900D03*
X007555Y016400D03*
X007555Y015900D03*
X007555Y015400D03*
X005429Y015400D03*
X005429Y015900D03*
X005429Y016400D03*
X005429Y016900D03*
X005429Y017400D03*
X005429Y017900D03*
X005429Y018400D03*
X015629Y005000D03*
X015629Y004500D03*
X015629Y004000D03*
X015629Y003500D03*
X015629Y003000D03*
X015629Y002500D03*
X015629Y002000D03*
X017755Y002000D03*
X017755Y002500D03*
X017755Y003000D03*
X017755Y003500D03*
X017755Y004000D03*
X017755Y004500D03*
X017755Y005000D03*
X026329Y004800D03*
X026329Y004300D03*
X026329Y003800D03*
X026329Y003300D03*
X026329Y002800D03*
X026329Y002300D03*
X026329Y001800D03*
X028455Y001800D03*
X028455Y002300D03*
X028455Y002800D03*
X028455Y003300D03*
X028455Y003800D03*
X028455Y004300D03*
X028455Y004800D03*
D17*
X031892Y009475D03*
X033192Y009475D03*
X026042Y017750D03*
X024742Y017750D03*
X028292Y018350D03*
X029592Y018350D03*
X027792Y020950D03*
X026492Y020950D03*
X028192Y023450D03*
X029492Y023450D03*
X031042Y023550D03*
X032342Y023550D03*
X049542Y010000D03*
X050842Y010000D03*
X052592Y010000D03*
X053892Y010000D03*
X055892Y010000D03*
X057192Y010000D03*
X058892Y010000D03*
X060192Y010000D03*
X015442Y027225D03*
X014142Y027225D03*
X004492Y012400D03*
X003192Y012400D03*
X005392Y006400D03*
X006692Y006400D03*
D18*
X002847Y011007D03*
X002059Y008093D03*
D19*
X005760Y008093D03*
D20*
X027192Y017540D03*
X027192Y018360D03*
X032767Y025715D03*
X032767Y026535D03*
X051392Y008810D03*
X051392Y007990D03*
X054642Y007990D03*
X054642Y008810D03*
X057642Y008810D03*
X057642Y007990D03*
X060842Y007990D03*
X060842Y008810D03*
D21*
X059874Y008774D03*
X059874Y008400D03*
X059874Y008026D03*
X058811Y008026D03*
X058811Y008400D03*
X058811Y008774D03*
X056874Y008774D03*
X056874Y008400D03*
X056874Y008026D03*
X055811Y008026D03*
X055811Y008400D03*
X055811Y008774D03*
X053674Y008774D03*
X053674Y008400D03*
X053674Y008026D03*
X052611Y008026D03*
X052611Y008400D03*
X052611Y008774D03*
X050520Y008773D03*
X050520Y008399D03*
X050520Y008025D03*
X049457Y008025D03*
X049457Y008399D03*
X049457Y008773D03*
X031874Y025676D03*
X031874Y026050D03*
X031874Y026424D03*
X030811Y026424D03*
X030811Y026050D03*
X030811Y025676D03*
D22*
X029316Y016581D03*
X028942Y016581D03*
X028568Y016581D03*
X028568Y015519D03*
X028942Y015519D03*
X029316Y015519D03*
X027666Y015519D03*
X027292Y015519D03*
X026918Y015519D03*
X026918Y016581D03*
X027666Y016581D03*
X025766Y016581D03*
X025018Y016581D03*
X025018Y015519D03*
X025392Y015519D03*
X025766Y015519D03*
D23*
X025802Y014700D03*
X024982Y014700D03*
X026832Y014700D03*
X027652Y014700D03*
X028557Y014725D03*
X029377Y014725D03*
X029907Y016025D03*
X030727Y016025D03*
D24*
X034142Y015050D03*
X035042Y015050D03*
X038192Y015800D03*
X038242Y016750D03*
X038242Y017750D03*
X038242Y018750D03*
X038192Y019750D03*
X038192Y020750D03*
X038192Y021750D03*
X038192Y022750D03*
X038192Y023750D03*
X038192Y024750D03*
X038192Y025750D03*
X038192Y026750D03*
X038192Y027750D03*
X038192Y028750D03*
X038192Y029750D03*
X038192Y030750D03*
X038192Y031750D03*
X032142Y027750D03*
X029642Y032050D03*
X029642Y033050D03*
X029642Y034050D03*
X029642Y035050D03*
X029642Y036050D03*
X029642Y037050D03*
X029642Y038050D03*
X029642Y039050D03*
X029642Y040050D03*
X029642Y041050D03*
X029642Y042050D03*
X029642Y043050D03*
X029642Y044050D03*
X029642Y045050D03*
X029642Y046050D03*
X029642Y047050D03*
X029642Y048050D03*
X029642Y049050D03*
X029642Y050050D03*
X029642Y051050D03*
X029642Y052050D03*
X029642Y053050D03*
X029642Y054050D03*
X025642Y054050D03*
X024642Y054050D03*
X024642Y055050D03*
X025642Y055050D03*
X025642Y056050D03*
X024642Y056050D03*
X024642Y057050D03*
X024642Y058050D03*
X025642Y058050D03*
X025642Y057050D03*
X023642Y057050D03*
X022642Y057050D03*
X022642Y056050D03*
X023642Y056050D03*
X023642Y055050D03*
X022642Y055050D03*
X022642Y054050D03*
X023642Y054050D03*
X023642Y053050D03*
X022642Y053050D03*
X022642Y052050D03*
X023642Y052050D03*
X023642Y051050D03*
X022642Y051050D03*
X022642Y050050D03*
X023642Y050050D03*
X023642Y049050D03*
X022642Y049050D03*
X022642Y048050D03*
X022642Y047050D03*
X023642Y047050D03*
X023642Y048050D03*
X024642Y048050D03*
X024642Y047050D03*
X025642Y047050D03*
X025642Y048050D03*
X025642Y049050D03*
X024642Y049050D03*
X024642Y050050D03*
X024642Y051050D03*
X025642Y051050D03*
X025642Y050050D03*
X025642Y052050D03*
X024642Y052050D03*
X024642Y053050D03*
X025642Y053050D03*
X021642Y053050D03*
X021642Y052050D03*
X020642Y052050D03*
X019642Y052050D03*
X019642Y053050D03*
X020642Y053050D03*
X020642Y054050D03*
X019642Y054050D03*
X019642Y055050D03*
X020642Y055050D03*
X020642Y056050D03*
X019642Y056050D03*
X019642Y057050D03*
X019642Y058050D03*
X020642Y058050D03*
X020642Y057050D03*
X021642Y057050D03*
X021642Y056050D03*
X021642Y055050D03*
X021642Y054050D03*
X018642Y054050D03*
X017642Y054050D03*
X017642Y055050D03*
X018642Y055050D03*
X018642Y056050D03*
X017642Y056050D03*
X017642Y057050D03*
X017642Y058050D03*
X018642Y058050D03*
X018642Y057050D03*
X016642Y057050D03*
X015642Y057050D03*
X015642Y056050D03*
X016642Y056050D03*
X016642Y055050D03*
X015642Y055050D03*
X015642Y054050D03*
X016642Y054050D03*
X016642Y053050D03*
X015642Y053050D03*
X015642Y052050D03*
X016642Y052050D03*
X016642Y051050D03*
X015642Y051050D03*
X015642Y050050D03*
X016642Y050050D03*
X016642Y049050D03*
X015642Y049050D03*
X015642Y048050D03*
X015642Y047050D03*
X016642Y047050D03*
X016642Y048050D03*
X017642Y048050D03*
X017642Y047050D03*
X018642Y047050D03*
X018642Y048050D03*
X018642Y049050D03*
X017642Y049050D03*
X017642Y050050D03*
X017642Y051050D03*
X018642Y051050D03*
X018642Y050050D03*
X019642Y050050D03*
X019642Y051050D03*
X020642Y051050D03*
X020642Y050050D03*
X020642Y049050D03*
X019642Y049050D03*
X019642Y048050D03*
X019642Y047050D03*
X020642Y047050D03*
X020642Y048050D03*
X021642Y048050D03*
X021642Y047050D03*
X021642Y046050D03*
X021642Y045050D03*
X020642Y045050D03*
X019642Y045050D03*
X019642Y046050D03*
X020642Y046050D03*
X018642Y046050D03*
X017642Y046050D03*
X017642Y045050D03*
X018642Y045050D03*
X018642Y044050D03*
X017642Y044050D03*
X017642Y043050D03*
X018642Y043050D03*
X018642Y042050D03*
X017642Y042050D03*
X017642Y041050D03*
X018642Y041050D03*
X018642Y040050D03*
X017642Y040050D03*
X017642Y039050D03*
X017642Y038050D03*
X018642Y038050D03*
X018642Y039050D03*
X019642Y039050D03*
X019642Y038050D03*
X020642Y038050D03*
X020642Y039050D03*
X020642Y040050D03*
X019642Y040050D03*
X019642Y041050D03*
X019642Y042050D03*
X020642Y042050D03*
X020642Y041050D03*
X021642Y041050D03*
X021642Y042050D03*
X021642Y043050D03*
X021642Y044050D03*
X020642Y044050D03*
X019642Y044050D03*
X019642Y043050D03*
X020642Y043050D03*
X022642Y043050D03*
X022642Y044050D03*
X023642Y044050D03*
X023642Y043050D03*
X023642Y042050D03*
X022642Y042050D03*
X022642Y041050D03*
X023642Y041050D03*
X023642Y040050D03*
X022642Y040050D03*
X022642Y039050D03*
X022642Y038050D03*
X023642Y038050D03*
X023642Y039050D03*
X024642Y039050D03*
X024642Y038050D03*
X025642Y038050D03*
X025642Y039050D03*
X025642Y040050D03*
X024642Y040050D03*
X024642Y041050D03*
X024642Y042050D03*
X025642Y042050D03*
X025642Y041050D03*
X025642Y043050D03*
X024642Y043050D03*
X024642Y044050D03*
X025642Y044050D03*
X025642Y045050D03*
X024642Y045050D03*
X024642Y046050D03*
X025642Y046050D03*
X023642Y046050D03*
X022642Y046050D03*
X022642Y045050D03*
X023642Y045050D03*
X021642Y049050D03*
X021642Y050050D03*
X021642Y051050D03*
X018642Y052050D03*
X017642Y052050D03*
X017642Y053050D03*
X018642Y053050D03*
X014642Y053050D03*
X013642Y053050D03*
X013642Y052050D03*
X014642Y052050D03*
X014642Y051050D03*
X013642Y051050D03*
X013642Y050050D03*
X014642Y050050D03*
X014642Y049050D03*
X013642Y049050D03*
X013642Y048050D03*
X013642Y047050D03*
X014642Y047050D03*
X014642Y048050D03*
X012642Y048050D03*
X011642Y048050D03*
X011642Y047050D03*
X012642Y047050D03*
X012642Y046050D03*
X011642Y046050D03*
X011642Y045050D03*
X012642Y045050D03*
X012642Y044050D03*
X011642Y044050D03*
X011642Y043050D03*
X012642Y043050D03*
X012642Y042050D03*
X011642Y042050D03*
X011642Y041050D03*
X012642Y041050D03*
X012642Y040050D03*
X011642Y040050D03*
X011642Y039050D03*
X011642Y038050D03*
X012642Y038050D03*
X012642Y039050D03*
X013642Y039050D03*
X013642Y038050D03*
X014642Y038050D03*
X014642Y039050D03*
X014642Y040050D03*
X013642Y040050D03*
X013642Y041050D03*
X013642Y042050D03*
X014642Y042050D03*
X014642Y041050D03*
X015642Y041050D03*
X015642Y042050D03*
X016642Y042050D03*
X016642Y041050D03*
X016642Y040050D03*
X015642Y040050D03*
X015642Y039050D03*
X015642Y038050D03*
X016642Y038050D03*
X016642Y039050D03*
X016642Y037050D03*
X015642Y037050D03*
X015642Y036050D03*
X016642Y036050D03*
X016642Y035050D03*
X015642Y035050D03*
X015642Y034050D03*
X016642Y034050D03*
X016642Y033050D03*
X015642Y033050D03*
X015642Y032050D03*
X016642Y032050D03*
X017642Y032050D03*
X017642Y033050D03*
X018642Y033050D03*
X018642Y032050D03*
X019642Y032050D03*
X019642Y033050D03*
X020642Y033050D03*
X020642Y032050D03*
X021642Y032050D03*
X021642Y033050D03*
X021642Y034050D03*
X021642Y035050D03*
X020642Y035050D03*
X019642Y035050D03*
X019642Y034050D03*
X020642Y034050D03*
X018642Y034050D03*
X017642Y034050D03*
X017642Y035050D03*
X018642Y035050D03*
X018642Y036050D03*
X017642Y036050D03*
X017642Y037050D03*
X018642Y037050D03*
X019642Y037050D03*
X019642Y036050D03*
X020642Y036050D03*
X020642Y037050D03*
X021642Y037050D03*
X021642Y036050D03*
X022642Y036050D03*
X022642Y037050D03*
X023642Y037050D03*
X023642Y036050D03*
X023642Y035050D03*
X022642Y035050D03*
X022642Y034050D03*
X023642Y034050D03*
X023642Y033050D03*
X022642Y033050D03*
X022642Y032050D03*
X023642Y032050D03*
X024642Y032050D03*
X024642Y033050D03*
X025642Y033050D03*
X025642Y032050D03*
X025642Y034050D03*
X024642Y034050D03*
X024642Y035050D03*
X025642Y035050D03*
X025642Y036050D03*
X024642Y036050D03*
X024642Y037050D03*
X025642Y037050D03*
X021642Y038050D03*
X021642Y039050D03*
X021642Y040050D03*
X016642Y043050D03*
X015642Y043050D03*
X015642Y044050D03*
X016642Y044050D03*
X016642Y045050D03*
X015642Y045050D03*
X015642Y046050D03*
X016642Y046050D03*
X014642Y046050D03*
X013642Y046050D03*
X013642Y045050D03*
X014642Y045050D03*
X014642Y044050D03*
X013642Y044050D03*
X013642Y043050D03*
X014642Y043050D03*
X010642Y043050D03*
X010642Y044050D03*
X009642Y044050D03*
X008642Y044050D03*
X008642Y043050D03*
X009642Y043050D03*
X009642Y042050D03*
X008642Y042050D03*
X008642Y041050D03*
X009642Y041050D03*
X009642Y040050D03*
X008642Y040050D03*
X008642Y039050D03*
X008642Y038050D03*
X009642Y038050D03*
X009642Y039050D03*
X010642Y039050D03*
X010642Y038050D03*
X010642Y037050D03*
X010642Y036050D03*
X009642Y036050D03*
X008642Y036050D03*
X008642Y037050D03*
X009642Y037050D03*
X007642Y037050D03*
X006642Y037050D03*
X006642Y036050D03*
X007642Y036050D03*
X007642Y035050D03*
X006642Y035050D03*
X006642Y034050D03*
X007642Y034050D03*
X007642Y033050D03*
X006642Y033050D03*
X006642Y032050D03*
X007642Y032050D03*
X008642Y032050D03*
X008642Y033050D03*
X009642Y033050D03*
X009642Y032050D03*
X010642Y032050D03*
X010642Y033050D03*
X010642Y034050D03*
X010642Y035050D03*
X009642Y035050D03*
X008642Y035050D03*
X008642Y034050D03*
X009642Y034050D03*
X011642Y034050D03*
X011642Y035050D03*
X012642Y035050D03*
X012642Y034050D03*
X012642Y033050D03*
X011642Y033050D03*
X011642Y032050D03*
X012642Y032050D03*
X013642Y032050D03*
X013642Y033050D03*
X014642Y033050D03*
X014642Y032050D03*
X014642Y034050D03*
X013642Y034050D03*
X013642Y035050D03*
X014642Y035050D03*
X014642Y036050D03*
X013642Y036050D03*
X013642Y037050D03*
X014642Y037050D03*
X012642Y037050D03*
X011642Y037050D03*
X011642Y036050D03*
X012642Y036050D03*
X010642Y040050D03*
X010642Y041050D03*
X010642Y042050D03*
X007642Y042050D03*
X006642Y042050D03*
X006642Y041050D03*
X007642Y041050D03*
X007642Y040050D03*
X006642Y040050D03*
X006642Y039050D03*
X006642Y038050D03*
X007642Y038050D03*
X007642Y039050D03*
X005642Y039050D03*
X004642Y039050D03*
X004642Y038050D03*
X005642Y038050D03*
X005642Y037050D03*
X004642Y037050D03*
X004642Y036050D03*
X005642Y036050D03*
X005642Y035050D03*
X004642Y035050D03*
X004642Y034050D03*
X005642Y034050D03*
X005642Y033050D03*
X004642Y033050D03*
X004642Y032050D03*
X005642Y032050D03*
X003642Y032050D03*
X003642Y033050D03*
X003642Y034050D03*
X003642Y035050D03*
X003642Y036050D03*
X003642Y037050D03*
X003642Y038050D03*
X003642Y039050D03*
X003642Y040050D03*
X003642Y041050D03*
X003642Y042050D03*
X003642Y043050D03*
X003642Y044050D03*
X003642Y045050D03*
X003642Y046050D03*
X003642Y047050D03*
X003642Y048050D03*
X003642Y049050D03*
X003642Y050050D03*
X003642Y051050D03*
X003642Y052050D03*
X003642Y053050D03*
X003642Y054050D03*
X003642Y055050D03*
X003642Y056050D03*
X003642Y057050D03*
X003642Y058050D03*
X003642Y059050D03*
X004642Y059050D03*
X005642Y059050D03*
X005642Y058050D03*
X004642Y058050D03*
X004642Y057050D03*
X004642Y056050D03*
X005642Y056050D03*
X005642Y057050D03*
X006642Y057050D03*
X006642Y056050D03*
X007642Y056050D03*
X007642Y057050D03*
X007642Y058050D03*
X006642Y058050D03*
X006642Y059050D03*
X007642Y059050D03*
X008642Y059050D03*
X009642Y059050D03*
X009642Y058050D03*
X008642Y058050D03*
X008642Y057050D03*
X008642Y056050D03*
X009642Y056050D03*
X009642Y057050D03*
X010642Y057050D03*
X010642Y056050D03*
X010642Y055050D03*
X010642Y054050D03*
X009642Y054050D03*
X008642Y054050D03*
X008642Y055050D03*
X009642Y055050D03*
X007642Y055050D03*
X006642Y055050D03*
X006642Y054050D03*
X007642Y054050D03*
X007642Y053050D03*
X006642Y053050D03*
X006642Y052050D03*
X007642Y052050D03*
X007642Y051050D03*
X006642Y051050D03*
X006642Y050050D03*
X007642Y050050D03*
X007642Y049050D03*
X006642Y049050D03*
X006642Y048050D03*
X006642Y047050D03*
X007642Y047050D03*
X007642Y048050D03*
X008642Y048050D03*
X008642Y047050D03*
X009642Y047050D03*
X009642Y048050D03*
X009642Y049050D03*
X008642Y049050D03*
X008642Y050050D03*
X008642Y051050D03*
X009642Y051050D03*
X009642Y050050D03*
X010642Y050050D03*
X010642Y051050D03*
X010642Y052050D03*
X010642Y053050D03*
X009642Y053050D03*
X008642Y053050D03*
X008642Y052050D03*
X009642Y052050D03*
X011642Y052050D03*
X011642Y053050D03*
X012642Y053050D03*
X012642Y052050D03*
X012642Y051050D03*
X011642Y051050D03*
X011642Y050050D03*
X012642Y050050D03*
X012642Y049050D03*
X011642Y049050D03*
X010642Y049050D03*
X010642Y048050D03*
X010642Y047050D03*
X010642Y046050D03*
X010642Y045050D03*
X009642Y045050D03*
X008642Y045050D03*
X008642Y046050D03*
X009642Y046050D03*
X007642Y046050D03*
X006642Y046050D03*
X006642Y045050D03*
X007642Y045050D03*
X007642Y044050D03*
X006642Y044050D03*
X006642Y043050D03*
X007642Y043050D03*
X005642Y043050D03*
X004642Y043050D03*
X004642Y044050D03*
X005642Y044050D03*
X005642Y045050D03*
X004642Y045050D03*
X004642Y046050D03*
X005642Y046050D03*
X005642Y047050D03*
X004642Y047050D03*
X004642Y048050D03*
X004642Y049050D03*
X005642Y049050D03*
X005642Y048050D03*
X005642Y050050D03*
X004642Y050050D03*
X004642Y051050D03*
X005642Y051050D03*
X005642Y052050D03*
X004642Y052050D03*
X004642Y053050D03*
X005642Y053050D03*
X005642Y054050D03*
X004642Y054050D03*
X004642Y055050D03*
X005642Y055050D03*
X010642Y058050D03*
X010642Y059050D03*
X011642Y059050D03*
X012642Y059050D03*
X012642Y058050D03*
X011642Y058050D03*
X011642Y057050D03*
X011642Y056050D03*
X012642Y056050D03*
X012642Y057050D03*
X013642Y057050D03*
X013642Y056050D03*
X014642Y056050D03*
X014642Y057050D03*
X014642Y058050D03*
X013642Y058050D03*
X013642Y059050D03*
X014642Y059050D03*
X015642Y059050D03*
X016642Y059050D03*
X016642Y058050D03*
X015642Y058050D03*
X017642Y059050D03*
X018642Y059050D03*
X019642Y059050D03*
X020642Y059050D03*
X021642Y059050D03*
X021642Y058050D03*
X022642Y058050D03*
X023642Y058050D03*
X023642Y059050D03*
X022642Y059050D03*
X024642Y059050D03*
X025642Y059050D03*
X014642Y055050D03*
X013642Y055050D03*
X013642Y054050D03*
X014642Y054050D03*
X012642Y054050D03*
X011642Y054050D03*
X011642Y055050D03*
X012642Y055050D03*
X005642Y042050D03*
X004642Y042050D03*
X004642Y041050D03*
X005642Y041050D03*
X005642Y040050D03*
X004642Y040050D03*
X022542Y030650D03*
X022542Y029650D03*
X022542Y028650D03*
X022542Y027650D03*
X012142Y020750D03*
X012142Y019700D03*
X012142Y018750D03*
X003842Y017700D03*
X003842Y016700D03*
X003842Y015700D03*
X038192Y047725D03*
X041942Y048050D03*
X041992Y048900D03*
X051292Y049850D03*
X057042Y049550D03*
X048192Y031750D03*
X048192Y030750D03*
X048192Y029750D03*
X052242Y027772D03*
X052342Y028972D03*
X052342Y029972D03*
X052342Y030972D03*
X048092Y010050D03*
X062942Y006500D03*
D25*
X061442Y015050D03*
X061442Y016350D03*
X034542Y017850D03*
X034542Y019150D03*
X032242Y019250D03*
X032242Y020550D03*
X034342Y026050D03*
X034342Y027350D03*
X055742Y053950D03*
X055742Y055250D03*
D26*
X049342Y037465D03*
X049342Y037209D03*
X049342Y036953D03*
X049342Y036697D03*
X049342Y036441D03*
X049342Y036185D03*
X049342Y035930D03*
X049342Y035674D03*
X049342Y035418D03*
X049342Y035162D03*
X049342Y034906D03*
X049342Y034650D03*
X047157Y034650D03*
X047157Y034906D03*
X047157Y035162D03*
X047157Y035418D03*
X047157Y035674D03*
X047157Y035930D03*
X047157Y036185D03*
X047157Y036441D03*
X047157Y036697D03*
X047157Y036953D03*
X047157Y037209D03*
X047157Y037465D03*
X045577Y037550D03*
X045577Y037294D03*
X045577Y037038D03*
X045577Y036782D03*
X045577Y036526D03*
X045577Y036270D03*
X045577Y036015D03*
X045577Y035759D03*
X045577Y035503D03*
X045577Y035247D03*
X045577Y034991D03*
X045577Y034735D03*
X043392Y034735D03*
X043392Y034991D03*
X043392Y035247D03*
X043392Y035503D03*
X043392Y035759D03*
X043392Y036015D03*
X043392Y036270D03*
X043392Y036526D03*
X043392Y036782D03*
X043392Y037038D03*
X043392Y037294D03*
X043392Y037550D03*
X025677Y029150D03*
X025677Y028894D03*
X025677Y028638D03*
X025677Y028382D03*
X025677Y028126D03*
X025677Y027870D03*
X025677Y027615D03*
X025677Y027359D03*
X025677Y027103D03*
X025677Y026847D03*
X025677Y026591D03*
X025677Y026335D03*
X025638Y025150D03*
X025638Y024894D03*
X025638Y024638D03*
X025638Y024382D03*
X025638Y024126D03*
X025638Y023870D03*
X025638Y023615D03*
X025638Y023359D03*
X025638Y023103D03*
X025638Y022847D03*
X025638Y022591D03*
X025638Y022335D03*
X023453Y022335D03*
X023453Y022591D03*
X023453Y022847D03*
X023453Y023103D03*
X023453Y023359D03*
X023453Y023615D03*
X023453Y023870D03*
X023453Y024126D03*
X023453Y024382D03*
X023453Y024638D03*
X023453Y024894D03*
X023453Y025150D03*
X023492Y026335D03*
X023492Y026591D03*
X023492Y026847D03*
X023492Y027103D03*
X023492Y027359D03*
X023492Y027615D03*
X023492Y027870D03*
X023492Y028126D03*
X023492Y028382D03*
X023492Y028638D03*
X023492Y028894D03*
X023492Y029150D03*
X037242Y008650D03*
X037242Y008394D03*
X037242Y008138D03*
X037242Y007882D03*
X037242Y007626D03*
X037242Y007370D03*
X037242Y007115D03*
X037242Y006859D03*
X037242Y006603D03*
X037242Y006347D03*
X037242Y006091D03*
X037242Y005835D03*
X039427Y005835D03*
X039427Y006091D03*
X039427Y006347D03*
X039427Y006603D03*
X039427Y006859D03*
X039427Y007115D03*
X039427Y007370D03*
X039427Y007626D03*
X039427Y007882D03*
X039427Y008138D03*
X039427Y008394D03*
X039427Y008650D03*
D27*
X041219Y004013D03*
X041416Y004013D03*
X041613Y004013D03*
X041810Y004013D03*
X042006Y004013D03*
X042203Y004013D03*
X042400Y004013D03*
X042597Y004013D03*
X042794Y004013D03*
X042991Y004013D03*
X043187Y004013D03*
X043384Y004013D03*
X043581Y004013D03*
X043778Y004013D03*
X043975Y004013D03*
X044172Y004013D03*
X044369Y004013D03*
X044565Y004013D03*
X044762Y004013D03*
X035262Y004013D03*
X035065Y004013D03*
X034869Y004013D03*
X034672Y004013D03*
X034475Y004013D03*
X034278Y004013D03*
X034081Y004013D03*
X033884Y004013D03*
X033687Y004013D03*
X033491Y004013D03*
X033294Y004013D03*
X033097Y004013D03*
X032900Y004013D03*
X032703Y004013D03*
X032506Y004013D03*
X032310Y004013D03*
X032113Y004013D03*
X031916Y004013D03*
X031719Y004013D03*
X023762Y004013D03*
X023565Y004013D03*
X023369Y004013D03*
X023172Y004013D03*
X022975Y004013D03*
X022778Y004013D03*
X022581Y004013D03*
X022384Y004013D03*
X022187Y004013D03*
X021991Y004013D03*
X021794Y004013D03*
X021597Y004013D03*
X021400Y004013D03*
X021203Y004013D03*
X021006Y004013D03*
X020810Y004013D03*
X020613Y004013D03*
X020416Y004013D03*
X020219Y004013D03*
X013262Y004013D03*
X013065Y004013D03*
X012869Y004013D03*
X012672Y004013D03*
X012475Y004013D03*
X012278Y004013D03*
X012081Y004013D03*
X011884Y004013D03*
X011687Y004013D03*
X011491Y004013D03*
X011294Y004013D03*
X011097Y004013D03*
X010900Y004013D03*
X010703Y004013D03*
X010506Y004013D03*
X010310Y004013D03*
X010113Y004013D03*
X009916Y004013D03*
X009719Y004013D03*
D28*
X008538Y003600D03*
X008302Y001671D03*
X014483Y001671D03*
X014247Y003600D03*
X019038Y003600D03*
X018802Y001671D03*
X024983Y001671D03*
X024747Y003600D03*
X030302Y001671D03*
X030538Y003600D03*
X036247Y003600D03*
X036483Y001671D03*
X039802Y001671D03*
X040038Y003600D03*
X045747Y003600D03*
X045983Y001671D03*
D29*
X031116Y019188D03*
X030742Y019188D03*
X030368Y019188D03*
X030368Y020212D03*
X030742Y020212D03*
X031116Y020212D03*
D30*
X027980Y019750D03*
X026405Y019750D03*
D31*
X029500Y060503D03*
X033500Y060503D03*
D32*
X031500Y058503D03*
X030500Y058503D03*
D33*
X012564Y027975D03*
X012564Y027475D03*
X012564Y026975D03*
X012564Y026475D03*
X010517Y026475D03*
X010517Y026975D03*
X010517Y027475D03*
X010517Y027975D03*
X031595Y012225D03*
X031595Y011725D03*
X031595Y011225D03*
X031595Y010725D03*
X033642Y010725D03*
X033642Y011225D03*
X033642Y011725D03*
X033642Y012225D03*
D34*
X043377Y049780D03*
X043574Y049780D03*
X043771Y049780D03*
X043968Y049780D03*
X043968Y051000D03*
X043771Y051000D03*
X043574Y051000D03*
X043377Y051000D03*
D35*
X062152Y012193D02*
X062712Y012193D01*
X062712Y011193D02*
X062152Y011193D01*
X062152Y010193D02*
X062712Y010193D01*
X030172Y009600D02*
X029612Y009600D01*
X029612Y008600D02*
X030172Y008600D01*
X030172Y007600D02*
X029612Y007600D01*
X028072Y007600D02*
X027512Y007600D01*
X027512Y008600D02*
X028072Y008600D01*
X028072Y009600D02*
X027512Y009600D01*
X026072Y009600D02*
X025512Y009600D01*
X025512Y008600D02*
X026072Y008600D01*
X026072Y007600D02*
X025512Y007600D01*
X024072Y007600D02*
X023512Y007600D01*
X023512Y008600D02*
X024072Y008600D01*
X024072Y009600D02*
X023512Y009600D01*
X022072Y009600D02*
X021512Y009600D01*
X021512Y008600D02*
X022072Y008600D01*
X022072Y007600D02*
X021512Y007600D01*
X020072Y007600D02*
X019512Y007600D01*
X019512Y008600D02*
X020072Y008600D01*
X020072Y009600D02*
X019512Y009600D01*
X018072Y009600D02*
X017512Y009600D01*
X017512Y008600D02*
X018072Y008600D01*
X018072Y007600D02*
X017512Y007600D01*
X016072Y007600D02*
X015512Y007600D01*
X015512Y008600D02*
X016072Y008600D01*
X016072Y009600D02*
X015512Y009600D01*
D36*
X015388Y010475D03*
X015648Y010475D03*
X015907Y010475D03*
X016167Y010475D03*
X017388Y010475D03*
X017648Y010475D03*
X017907Y010475D03*
X018167Y010475D03*
X019388Y010500D03*
X019648Y010500D03*
X019907Y010500D03*
X020167Y010500D03*
X021388Y010500D03*
X021648Y010500D03*
X021907Y010500D03*
X022167Y010500D03*
X023413Y010525D03*
X023673Y010525D03*
X023932Y010525D03*
X024192Y010525D03*
X025388Y010525D03*
X025648Y010525D03*
X025907Y010525D03*
X026167Y010525D03*
X027413Y010525D03*
X027673Y010525D03*
X027932Y010525D03*
X028192Y010525D03*
X029488Y010500D03*
X029748Y010500D03*
X030007Y010500D03*
X030267Y010500D03*
X030267Y012374D03*
X030007Y012374D03*
X029748Y012374D03*
X029488Y012374D03*
X028192Y012399D03*
X027932Y012399D03*
X027673Y012399D03*
X027413Y012399D03*
X026167Y012399D03*
X025907Y012399D03*
X025648Y012399D03*
X025388Y012399D03*
X024192Y012399D03*
X023932Y012399D03*
X023673Y012399D03*
X023413Y012399D03*
X022167Y012374D03*
X021907Y012374D03*
X021648Y012374D03*
X021388Y012374D03*
X020167Y012374D03*
X019907Y012374D03*
X019648Y012374D03*
X019388Y012374D03*
X018167Y012349D03*
X017907Y012349D03*
X017648Y012349D03*
X017388Y012349D03*
X016167Y012349D03*
X015907Y012349D03*
X015648Y012349D03*
X015388Y012349D03*
X015613Y023150D03*
X015873Y023150D03*
X016132Y023150D03*
X016392Y023150D03*
X017113Y023175D03*
X017373Y023175D03*
X017632Y023175D03*
X017892Y023175D03*
X018563Y023150D03*
X018823Y023150D03*
X019082Y023150D03*
X019342Y023150D03*
X019342Y025024D03*
X019082Y025024D03*
X018823Y025024D03*
X018563Y025024D03*
X017892Y025049D03*
X017632Y025049D03*
X017373Y025049D03*
X017113Y025049D03*
X016392Y025024D03*
X016132Y025024D03*
X015873Y025024D03*
X015613Y025024D03*
X014892Y025024D03*
X014632Y025024D03*
X014373Y025024D03*
X014113Y025024D03*
X014113Y023150D03*
X014373Y023150D03*
X014632Y023150D03*
X014892Y023150D03*
X009142Y023100D03*
X008882Y023100D03*
X008623Y023100D03*
X008363Y023100D03*
X007642Y023100D03*
X007382Y023100D03*
X007123Y023100D03*
X006863Y023100D03*
X006142Y023100D03*
X005882Y023100D03*
X005623Y023100D03*
X005363Y023100D03*
X004642Y023100D03*
X004382Y023100D03*
X004123Y023100D03*
X003863Y023100D03*
X003863Y024974D03*
X004123Y024974D03*
X004382Y024974D03*
X004642Y024974D03*
X005363Y024974D03*
X005623Y024974D03*
X005882Y024974D03*
X006142Y024974D03*
X006863Y024974D03*
X007123Y024974D03*
X007382Y024974D03*
X007642Y024974D03*
X008363Y024974D03*
X008623Y024974D03*
X008882Y024974D03*
X009142Y024974D03*
D37*
X003947Y028661D02*
X003238Y028661D01*
X003238Y030039D02*
X003947Y030039D01*
D38*
X052642Y021585D03*
X052898Y021585D03*
X053154Y021585D03*
X053410Y021585D03*
X053666Y021585D03*
X053922Y021585D03*
X054178Y021585D03*
X054434Y021585D03*
X054689Y021585D03*
X054945Y021585D03*
X055201Y021585D03*
X055457Y021585D03*
X055457Y019400D03*
X055201Y019400D03*
X054945Y019400D03*
X054689Y019400D03*
X054434Y019400D03*
X054178Y019400D03*
X053922Y019400D03*
X053666Y019400D03*
X053410Y019400D03*
X053154Y019400D03*
X052898Y019400D03*
X052642Y019400D03*
D39*
X023042Y061600D03*
X022042Y061600D03*
X022042Y062600D03*
X023042Y062600D03*
X021042Y062600D03*
X020042Y062600D03*
X020042Y061600D03*
X021042Y061600D03*
X019042Y061600D03*
X019042Y062600D03*
D40*
X058245Y053800D03*
X058639Y053800D03*
D41*
X058942Y017655D03*
X058273Y017655D03*
X059611Y017655D03*
X059611Y015745D03*
X058942Y015745D03*
X058273Y015745D03*
X056411Y015745D03*
X055742Y015745D03*
X055073Y015745D03*
X053211Y015745D03*
X052542Y015745D03*
X051873Y015745D03*
X051873Y017655D03*
X052542Y017655D03*
X053211Y017655D03*
X055073Y017655D03*
X055742Y017655D03*
X056411Y017655D03*
X049911Y017755D03*
X049242Y017755D03*
X048573Y017755D03*
X048573Y015845D03*
X049242Y015845D03*
X049911Y015845D03*
X043811Y015745D03*
X043142Y015745D03*
X042473Y015745D03*
X042473Y017655D03*
X043142Y017655D03*
X043811Y017655D03*
X033111Y017655D03*
X032442Y017655D03*
X031773Y017655D03*
X031773Y015745D03*
X032442Y015745D03*
X033111Y015745D03*
X022711Y015745D03*
X022042Y015745D03*
X021373Y015745D03*
X021373Y017655D03*
X022042Y017655D03*
X022711Y017655D03*
X012211Y017655D03*
X011542Y017655D03*
X010873Y017655D03*
X010873Y015745D03*
X011542Y015745D03*
X012211Y015745D03*
D42*
X056709Y055419D03*
X056709Y055615D03*
X056709Y055812D03*
X056709Y056009D03*
X057417Y056009D03*
X057417Y055812D03*
X057417Y055615D03*
X057417Y055419D03*
D43*
X056713Y056822D03*
X056457Y056822D03*
X056201Y056822D03*
X056201Y057491D03*
X056457Y057491D03*
X056713Y057491D03*
D44*
X058352Y056035D03*
X059155Y056035D03*
X059155Y055287D03*
X058352Y055287D03*
D45*
X061677Y058971D02*
X061679Y058990D01*
X061684Y059009D01*
X061694Y059025D01*
X061706Y059040D01*
X061721Y059052D01*
X061737Y059062D01*
X061756Y059067D01*
X061775Y059069D01*
X061794Y059067D01*
X061813Y059062D01*
X061829Y059052D01*
X061844Y059040D01*
X061856Y059025D01*
X061866Y059009D01*
X061871Y058990D01*
X061873Y058971D01*
X061871Y058952D01*
X061866Y058933D01*
X061856Y058917D01*
X061844Y058902D01*
X061829Y058890D01*
X061813Y058880D01*
X061794Y058875D01*
X061775Y058873D01*
X061756Y058875D01*
X061737Y058880D01*
X061721Y058890D01*
X061706Y058902D01*
X061694Y058917D01*
X061684Y058933D01*
X061679Y058952D01*
X061677Y058971D01*
X063252Y004640D02*
X063254Y004659D01*
X063259Y004678D01*
X063269Y004694D01*
X063281Y004709D01*
X063296Y004721D01*
X063312Y004731D01*
X063331Y004736D01*
X063350Y004738D01*
X063369Y004736D01*
X063388Y004731D01*
X063404Y004721D01*
X063419Y004709D01*
X063431Y004694D01*
X063441Y004678D01*
X063446Y004659D01*
X063448Y004640D01*
X063446Y004621D01*
X063441Y004602D01*
X063431Y004586D01*
X063419Y004571D01*
X063404Y004559D01*
X063388Y004549D01*
X063369Y004544D01*
X063350Y004542D01*
X063331Y004544D01*
X063312Y004549D01*
X063296Y004559D01*
X063281Y004571D01*
X063269Y004586D01*
X063259Y004602D01*
X063254Y004621D01*
X063252Y004640D01*
X005772Y002278D02*
X005774Y002297D01*
X005779Y002316D01*
X005789Y002332D01*
X005801Y002347D01*
X005816Y002359D01*
X005832Y002369D01*
X005851Y002374D01*
X005870Y002376D01*
X005889Y002374D01*
X005908Y002369D01*
X005924Y002359D01*
X005939Y002347D01*
X005951Y002332D01*
X005961Y002316D01*
X005966Y002297D01*
X005968Y002278D01*
X005966Y002259D01*
X005961Y002240D01*
X005951Y002224D01*
X005939Y002209D01*
X005924Y002197D01*
X005908Y002187D01*
X005889Y002182D01*
X005870Y002180D01*
X005851Y002182D01*
X005832Y002187D01*
X005816Y002197D01*
X005801Y002209D01*
X005789Y002224D01*
X005779Y002240D01*
X005774Y002259D01*
X005772Y002278D01*
D46*
X009392Y002600D02*
X010113Y003320D01*
X010113Y004013D01*
X009916Y004013D02*
X009916Y003474D01*
X009542Y003150D01*
X009392Y003150D01*
X009292Y003250D01*
X015907Y010475D02*
X016167Y010475D01*
X016492Y010475D01*
X017907Y010475D02*
X018167Y010475D01*
X018492Y010475D01*
X019907Y010500D02*
X020167Y010500D01*
X020492Y010500D01*
X021907Y010500D02*
X022492Y010500D01*
X022167Y010500D02*
X021907Y010500D01*
X021907Y012374D02*
X021907Y012640D01*
X022067Y012800D01*
X022342Y012800D01*
X022567Y012575D01*
X022542Y014450D02*
X021592Y014450D01*
X022542Y014450D02*
X022711Y014619D01*
X022711Y015745D01*
X022542Y016600D02*
X022742Y016800D01*
X022742Y017457D01*
X022711Y017655D01*
X022042Y017655D02*
X022042Y018000D01*
X022692Y018650D01*
X022032Y018650D02*
X022032Y019190D01*
X022042Y019200D01*
X021373Y019269D02*
X021342Y019300D01*
X020842Y016600D02*
X022542Y016600D01*
X020842Y016600D02*
X020442Y016200D01*
X020442Y015400D01*
X019142Y014100D01*
X017142Y014100D01*
X016742Y014300D01*
X014342Y014300D01*
X012742Y015900D01*
X012742Y016400D01*
X012542Y016600D01*
X012142Y016600D01*
X011542Y017200D01*
X011542Y017655D01*
X010873Y017655D02*
X010873Y017500D01*
X010842Y017500D01*
X010873Y017269D02*
X011542Y016600D01*
X011542Y015745D01*
X011502Y015860D02*
X011542Y015900D01*
X011502Y015860D02*
X011502Y014700D01*
X011542Y014840D01*
X011132Y014840D01*
X010892Y014600D01*
X010892Y014225D01*
X011492Y014225D02*
X011792Y014225D01*
X012092Y014525D01*
X012182Y014635D01*
X012182Y014700D01*
X012211Y014829D01*
X012211Y015745D01*
X012230Y015913D01*
X012342Y015800D01*
X012242Y015800D01*
X012142Y015700D01*
X012142Y014900D01*
X012242Y014800D01*
X012630Y017487D02*
X012211Y017655D01*
X012630Y017487D02*
X012942Y017800D01*
X012942Y020550D01*
X012692Y020800D01*
X012192Y020800D01*
X012142Y020750D01*
X009542Y020800D02*
X009542Y020400D01*
X009542Y020390D01*
X007592Y020690D02*
X007592Y021200D01*
X006192Y021150D02*
X006192Y020690D01*
X004792Y020690D02*
X004792Y021100D01*
X007042Y022600D02*
X007123Y022730D01*
X008523Y022580D02*
X008542Y022600D01*
X008402Y025615D02*
X008417Y026050D01*
X006892Y026025D02*
X006892Y025635D01*
X006902Y025600D01*
X005402Y025600D02*
X005407Y026115D01*
X003892Y026025D02*
X003892Y025565D01*
X003902Y025600D01*
X003882Y014110D02*
X003882Y013600D01*
X015907Y012690D02*
X015907Y012349D01*
X015907Y012690D02*
X015967Y012750D01*
X016367Y012750D01*
X016517Y012600D01*
X016517Y012281D01*
X016520Y012278D01*
X017907Y012349D02*
X017907Y012715D01*
X017967Y012775D01*
X018517Y012775D01*
X018567Y012725D01*
X018567Y012500D01*
X019907Y012374D02*
X019907Y012715D01*
X019992Y012800D01*
X020317Y012800D01*
X020567Y012550D01*
X023932Y012399D02*
X023932Y012715D01*
X024042Y012825D01*
X024317Y012825D01*
X024567Y012575D01*
X025907Y012715D02*
X025907Y012399D01*
X025907Y012715D02*
X026017Y012825D01*
X026317Y012825D01*
X026567Y012575D01*
X026542Y010525D02*
X026167Y010525D01*
X025907Y010525D01*
X024542Y010525D02*
X023932Y010525D01*
X024192Y010525D01*
X027932Y010525D02*
X028567Y010525D01*
X028192Y010525D02*
X027932Y010525D01*
X028568Y015519D02*
X028568Y015524D01*
X028042Y016050D01*
X031942Y016800D02*
X031942Y017318D01*
X031773Y017655D01*
X031773Y017500D01*
X031842Y017500D01*
X032442Y017655D02*
X032442Y017000D01*
X032742Y016700D01*
X034842Y016700D01*
X036342Y015200D01*
X035042Y015050D02*
X034292Y015800D01*
X033142Y015800D01*
X033111Y015769D01*
X033111Y015745D01*
X033111Y014729D01*
X033082Y014600D01*
X032442Y015745D02*
X032442Y016300D01*
X031942Y016800D01*
X033142Y017518D02*
X033142Y018000D01*
X032542Y018600D01*
X033111Y017655D02*
X033142Y017518D01*
X029802Y021950D02*
X029802Y021960D01*
X030492Y022650D01*
X032142Y022650D01*
X027142Y021700D02*
X026767Y021700D01*
X026492Y021425D01*
X026492Y021000D01*
X025942Y027350D02*
X025686Y027350D01*
X025677Y027359D01*
X025192Y028450D02*
X025392Y028650D01*
X025665Y028650D01*
X023492Y028638D02*
X023480Y028650D01*
X023242Y028650D01*
X015873Y022630D02*
X015792Y022550D01*
X029642Y036050D02*
X032942Y039350D01*
X032942Y039400D01*
X032742Y040150D02*
X029642Y037050D01*
X029642Y038050D02*
X032542Y040950D01*
X032342Y041750D02*
X029642Y039050D01*
X038842Y029350D02*
X038242Y028750D01*
X038192Y028750D01*
X039792Y028400D02*
X040417Y029025D01*
X040417Y038925D01*
X039845Y039497D01*
X039446Y039497D01*
X040642Y039610D02*
X040942Y039310D01*
X040942Y038890D01*
X041157Y038881D01*
X041292Y038740D01*
X041442Y038590D01*
X041642Y038590D01*
X042392Y038590D01*
X042392Y037910D02*
X042452Y037850D01*
X042742Y037850D01*
X042892Y037700D01*
X042942Y037700D01*
X043142Y038050D02*
X043392Y037825D01*
X043392Y037550D01*
X042542Y037450D02*
X042542Y037250D01*
X042542Y037450D02*
X042392Y037600D01*
X042142Y037600D01*
X042042Y037675D01*
X042042Y037800D01*
X041942Y037900D01*
X041642Y037900D01*
X041642Y037910D01*
X041267Y038050D02*
X041267Y037700D01*
X041417Y037525D01*
X041867Y037525D01*
X042192Y037250D01*
X042192Y037000D01*
X042392Y036800D01*
X042242Y036450D02*
X042168Y036458D01*
X042152Y036460D01*
X041852Y036460D01*
X041742Y036350D01*
X041617Y036210D01*
X041242Y035950D02*
X041367Y035825D01*
X041942Y035825D01*
X042142Y036050D01*
X042292Y035700D02*
X042242Y035650D01*
X041142Y035650D01*
X041042Y035550D01*
X040967Y035950D02*
X040967Y036150D01*
X041017Y036200D01*
X040967Y035950D02*
X041242Y035950D01*
X040942Y036890D02*
X041617Y036890D01*
X041267Y038050D02*
X041117Y038200D01*
X040942Y038200D01*
X040932Y038110D01*
X040942Y038210D01*
X041292Y039925D02*
X040982Y040260D01*
X040642Y040290D01*
X042292Y035700D02*
X042342Y035700D01*
X041992Y035250D02*
X041542Y034800D01*
X041542Y034290D01*
X041542Y033610D02*
X041032Y033610D01*
X040942Y033700D01*
X040942Y034860D01*
X040992Y034910D01*
X042242Y034350D02*
X042692Y034800D01*
X042242Y034350D02*
X042242Y034240D01*
X042242Y033560D02*
X041542Y033610D01*
X042242Y033560D02*
X042652Y033560D01*
X042942Y033650D01*
X043392Y034735D02*
X043392Y034991D01*
X043392Y034735D02*
X045577Y034735D01*
X045692Y034750D01*
X045692Y034050D01*
X047157Y037465D02*
X047157Y037635D01*
X046742Y038050D01*
X049342Y037465D02*
X049357Y037450D01*
X049342Y037450D01*
X049342Y037209D01*
X049357Y037450D02*
X050192Y037450D01*
X050342Y037300D01*
X050342Y036250D01*
X050092Y036000D01*
X050092Y035615D01*
X050067Y035590D01*
X049342Y034906D02*
X049342Y034650D01*
X051142Y033000D02*
X051142Y030100D01*
X051042Y030000D01*
X051042Y027800D01*
X052217Y027800D01*
X051042Y027800D02*
X051042Y024300D01*
X053442Y021900D01*
X053442Y021517D01*
X053410Y021585D01*
X053154Y021585D02*
X053154Y020888D01*
X052942Y020600D01*
X052942Y019444D01*
X052898Y019400D01*
X052898Y020444D01*
X052542Y020500D01*
X051642Y020500D01*
X051592Y020550D01*
X051002Y019960D01*
X051002Y019300D01*
X049942Y018450D02*
X049942Y017618D01*
X049911Y017755D01*
X049942Y017618D02*
X049942Y017600D01*
X050092Y016900D02*
X049642Y016900D01*
X049242Y017300D01*
X049242Y017755D01*
X048573Y017755D02*
X048573Y017269D01*
X049242Y016600D01*
X052442Y016600D01*
X052542Y016500D01*
X055642Y016500D01*
X055742Y016400D01*
X055742Y016500D01*
X058742Y016500D01*
X058842Y016600D01*
X058242Y017200D01*
X058242Y017457D01*
X058942Y017655D02*
X058942Y017000D01*
X059142Y016800D01*
X060042Y016800D01*
X060242Y017000D01*
X060242Y018150D01*
X059742Y018650D01*
X054182Y018650D01*
X053842Y019000D02*
X053542Y018700D01*
X053542Y018540D01*
X053502Y018650D01*
X053154Y018653D01*
X053154Y019400D01*
X052642Y019400D02*
X052167Y019400D01*
X052067Y019300D01*
X051682Y019300D01*
X051742Y018550D02*
X052842Y018550D01*
X053242Y018150D01*
X053242Y017518D01*
X053211Y017655D01*
X052542Y017655D02*
X052542Y017100D01*
X052842Y016800D01*
X053442Y016800D01*
X054542Y017900D01*
X054542Y018250D01*
X054742Y018450D01*
X056192Y018450D01*
X056392Y018250D01*
X056392Y017518D01*
X056411Y017655D01*
X057042Y017600D02*
X057042Y017100D01*
X056742Y016800D01*
X056142Y016800D01*
X055742Y017200D01*
X055742Y017655D01*
X055042Y017457D02*
X055042Y017200D01*
X055742Y016500D01*
X055802Y015853D02*
X055802Y014700D01*
X056092Y014300D02*
X057942Y014300D01*
X059342Y014300D01*
X059642Y014600D01*
X059642Y014850D01*
X059642Y015882D01*
X059611Y015745D01*
X059002Y015853D02*
X059002Y014700D01*
X059642Y014850D02*
X059682Y014700D01*
X058942Y016500D02*
X058842Y016600D01*
X059542Y017557D02*
X059611Y017655D01*
X059542Y017557D02*
X059542Y018350D01*
X059442Y018450D01*
X057892Y018450D01*
X057042Y017600D01*
X056482Y015842D02*
X056482Y014860D01*
X056492Y014750D01*
X056592Y014800D01*
X056092Y014300D01*
X053942Y014300D01*
X053342Y014300D01*
X051742Y014300D01*
X050142Y014300D01*
X049942Y014500D01*
X049542Y014100D01*
X048142Y014100D01*
X047473Y014769D01*
X043911Y014769D01*
X043742Y014800D01*
X043782Y014771D02*
X043811Y014800D01*
X043911Y014769D01*
X043811Y014800D02*
X043811Y015745D01*
X043142Y015745D02*
X043142Y015873D01*
X043102Y015873D01*
X043102Y014650D01*
X043782Y014650D02*
X043782Y014771D01*
X043142Y016300D02*
X042942Y016500D01*
X046442Y016500D01*
X047442Y017500D01*
X048486Y017500D01*
X048573Y017755D01*
X049242Y016600D02*
X049242Y015845D01*
X049911Y015845D02*
X049911Y014781D01*
X049942Y014750D01*
X049942Y014500D01*
X049882Y014650D02*
X049911Y014729D01*
X049911Y014781D01*
X049242Y014800D02*
X049202Y014760D01*
X049202Y014650D01*
X050092Y016900D02*
X051742Y018550D01*
X051873Y017655D02*
X051942Y017487D01*
X051942Y017250D01*
X051873Y017169D02*
X052442Y016600D01*
X052542Y016500D02*
X052542Y016000D01*
X052492Y015950D01*
X052442Y015900D01*
X052602Y015853D02*
X052602Y014700D01*
X053211Y014881D02*
X053211Y015745D01*
X053282Y015842D01*
X053282Y014700D01*
X053342Y014750D02*
X053342Y014300D01*
X053342Y014750D02*
X053211Y014881D01*
X056482Y014860D02*
X056482Y014700D01*
X053842Y019000D02*
X062942Y019000D01*
X063942Y018000D01*
X063942Y015800D01*
X063492Y015350D01*
X061642Y016400D02*
X061592Y016350D01*
X061442Y016350D01*
X055457Y019400D02*
X055201Y019400D01*
X055457Y019400D02*
X055442Y019515D01*
X055442Y020600D01*
X055442Y021270D01*
X055457Y021585D01*
X055442Y020600D02*
X052942Y020600D01*
X052898Y021585D02*
X052642Y021585D01*
X052642Y021600D01*
X045717Y028525D01*
X048142Y024000D02*
X051592Y020550D01*
X049642Y018750D02*
X049942Y018450D01*
X049642Y018750D02*
X048092Y018750D01*
X046142Y016800D01*
X043342Y016800D01*
X043142Y017000D01*
X043142Y017655D01*
X042473Y017655D02*
X042442Y017487D01*
X042442Y017000D01*
X042942Y016500D01*
X042442Y017487D02*
X042442Y017500D01*
X043811Y017655D02*
X043842Y017518D01*
X043842Y018500D01*
X043342Y019000D01*
X041542Y019000D01*
X040642Y018100D02*
X040642Y017600D01*
X039427Y008650D02*
X039427Y008394D01*
X037242Y008650D02*
X037192Y008650D01*
X037242Y005835D02*
X037242Y005150D01*
X048242Y005100D02*
X048242Y002100D01*
X048517Y002100D01*
X048767Y002100D02*
X048767Y001825D01*
X048642Y001700D01*
X048942Y001400D02*
X049017Y001475D01*
X049017Y002100D01*
X049267Y002100D02*
X049267Y001475D01*
X049442Y001300D01*
X049742Y001600D02*
X049517Y001825D01*
X049517Y002100D01*
X049517Y002550D02*
X049517Y002875D01*
X049842Y003200D01*
X049767Y003925D02*
X049787Y003943D01*
X049810Y003958D01*
X049834Y003969D01*
X049859Y003978D01*
X049885Y003983D01*
X049912Y003985D01*
X049939Y003983D01*
X049965Y003978D01*
X049990Y003969D01*
X050015Y003958D01*
X050037Y003943D01*
X050057Y003925D01*
X050829Y003152D01*
X050849Y003134D01*
X050872Y003119D01*
X050896Y003108D01*
X050921Y003099D01*
X050947Y003094D01*
X050974Y003092D01*
X051001Y003094D01*
X051027Y003099D01*
X051052Y003108D01*
X051077Y003119D01*
X051099Y003134D01*
X051119Y003152D01*
X051146Y003179D01*
X051164Y003199D01*
X051179Y003222D01*
X051190Y003246D01*
X051199Y003271D01*
X051204Y003297D01*
X051206Y003324D01*
X051204Y003351D01*
X051199Y003377D01*
X051190Y003402D01*
X051179Y003426D01*
X051164Y003449D01*
X051146Y003469D01*
X050373Y004241D01*
X050355Y004261D01*
X050340Y004284D01*
X050329Y004308D01*
X050320Y004333D01*
X050315Y004359D01*
X050313Y004386D01*
X050315Y004413D01*
X050320Y004439D01*
X050329Y004464D01*
X050340Y004489D01*
X050355Y004511D01*
X050373Y004531D01*
X050642Y004800D01*
X049928Y005334D02*
X049590Y004996D01*
X049573Y004983D01*
X049555Y004972D01*
X049535Y004965D01*
X049515Y004961D01*
X049493Y004961D01*
X049473Y004965D01*
X049453Y004972D01*
X049435Y004983D01*
X049418Y004996D01*
X049419Y004996D02*
X049232Y005182D01*
X049208Y005204D01*
X049182Y005223D01*
X049153Y005238D01*
X049123Y005251D01*
X049092Y005260D01*
X049060Y005265D01*
X049028Y005267D01*
X048996Y005265D01*
X048964Y005260D01*
X048933Y005251D01*
X048903Y005238D01*
X048874Y005223D01*
X048848Y005204D01*
X048824Y005182D01*
X048517Y004875D01*
X048517Y002550D01*
X048767Y002550D02*
X048767Y004525D01*
X049042Y004800D01*
X049017Y003975D02*
X051142Y006100D01*
X051767Y005125D02*
X052142Y005500D01*
X051767Y005125D02*
X051767Y002550D01*
X052017Y002550D02*
X052017Y004575D01*
X052342Y004900D01*
X052542Y004300D02*
X052267Y004025D01*
X052267Y002550D01*
X052517Y002550D02*
X052517Y003475D01*
X052842Y003800D01*
X053042Y003100D02*
X052767Y002825D01*
X052767Y002550D01*
X052767Y002100D02*
X052767Y001875D01*
X053042Y001600D01*
X052642Y001500D02*
X052517Y001625D01*
X052517Y002100D01*
X052267Y002100D02*
X052267Y001325D01*
X052242Y001300D01*
X051942Y001600D02*
X052017Y001675D01*
X052017Y002100D01*
X051767Y002100D02*
X051442Y002100D01*
X049767Y003925D02*
X049267Y003425D01*
X049267Y002550D01*
X049017Y002550D02*
X049017Y003975D01*
X048242Y005100D02*
X049742Y006600D01*
X049942Y006600D01*
X049742Y006100D02*
X049724Y006080D01*
X049709Y006058D01*
X049698Y006033D01*
X049689Y006008D01*
X049684Y005982D01*
X049682Y005955D01*
X049684Y005928D01*
X049689Y005902D01*
X049698Y005877D01*
X049709Y005853D01*
X049724Y005830D01*
X049742Y005810D01*
X049928Y005624D01*
X049946Y005604D01*
X049961Y005582D01*
X049972Y005557D01*
X049981Y005532D01*
X049986Y005506D01*
X049988Y005479D01*
X049986Y005452D01*
X049981Y005426D01*
X049972Y005401D01*
X049961Y005377D01*
X049946Y005354D01*
X049928Y005334D01*
X054642Y002100D02*
X055017Y002100D01*
X055267Y002100D02*
X055267Y001725D01*
X055142Y001600D01*
X055517Y001425D02*
X055542Y001400D01*
X055517Y001425D02*
X055517Y002100D01*
X055767Y002100D02*
X055767Y001675D01*
X055942Y001500D01*
X056342Y001600D02*
X056017Y001925D01*
X056017Y002100D01*
X056017Y002550D02*
X056017Y002775D01*
X056342Y003100D01*
X056042Y003600D02*
X055767Y003325D01*
X055767Y002550D01*
X055517Y002550D02*
X055517Y003875D01*
X055842Y004200D01*
X055542Y004700D02*
X055267Y004425D01*
X055267Y002550D01*
X055017Y002550D02*
X055017Y004975D01*
X055342Y005300D01*
X057742Y004600D02*
X057742Y002850D01*
X057942Y002600D01*
X057942Y002550D01*
X058267Y002550D01*
X058267Y002100D02*
X058042Y002100D01*
X057942Y002000D01*
X058517Y002100D02*
X058517Y001500D01*
X058342Y001325D01*
X058767Y001375D02*
X058842Y001300D01*
X058767Y001375D02*
X058767Y002100D01*
X059017Y002075D02*
X059017Y001750D01*
X059142Y001600D01*
X059267Y001925D02*
X059542Y001600D01*
X059267Y001925D02*
X059267Y002100D01*
X059267Y002550D02*
X059267Y002925D01*
X059542Y003200D01*
X059017Y003475D02*
X059017Y002550D01*
X058767Y002550D02*
X058767Y004025D01*
X059042Y004300D01*
X059342Y003800D02*
X059017Y003475D01*
X059542Y002600D02*
X059517Y002575D01*
X059517Y002550D01*
X060102Y002060D02*
X060142Y002100D01*
X057742Y004600D02*
X059242Y006100D01*
X052342Y028972D02*
X051492Y028972D01*
X051292Y029172D01*
X051292Y029822D01*
X051442Y029972D01*
X051442Y033000D01*
X051542Y033100D01*
X051542Y039200D01*
X052154Y039812D01*
X052764Y039812D01*
X052764Y040127D02*
X052169Y040127D01*
X051342Y039300D01*
X051342Y033200D01*
X051142Y033000D01*
X051642Y032800D02*
X051642Y029622D01*
X051592Y029472D01*
X051942Y029972D02*
X052342Y029972D01*
X051942Y029972D02*
X051842Y030100D01*
X051842Y032700D01*
X051942Y032800D01*
X051942Y038900D01*
X052224Y039182D01*
X052764Y039182D01*
X052742Y038900D02*
X052742Y038867D01*
X052764Y038867D01*
X052742Y038900D02*
X054542Y038900D01*
X055194Y038867D02*
X055202Y038875D01*
X059617Y038875D01*
X059842Y039100D01*
X059842Y039700D01*
X059342Y039600D02*
X058942Y039200D01*
X055194Y039200D01*
X055194Y039182D01*
X055194Y039497D02*
X055197Y039500D01*
X058742Y039500D01*
X059642Y038550D02*
X055242Y038550D01*
X055242Y038552D01*
X055194Y038552D01*
X055194Y038250D02*
X055194Y038237D01*
X055194Y038250D02*
X059842Y038250D01*
X059942Y038300D01*
X060042Y038300D01*
X059942Y038700D02*
X059842Y038700D01*
X059642Y038550D01*
X061242Y038600D02*
X061242Y039300D01*
X056542Y044000D01*
X056542Y046500D01*
X056292Y046750D01*
X055092Y046750D01*
X055183Y046741D01*
X055194Y046741D01*
X055194Y047056D02*
X056486Y047056D01*
X056742Y046800D01*
X056742Y044200D01*
X061742Y039200D01*
X061742Y037400D01*
X062042Y037800D02*
X062042Y039200D01*
X056942Y044300D01*
X056942Y047100D01*
X056671Y047371D01*
X055194Y047371D01*
X055194Y047686D02*
X056656Y047686D01*
X057142Y047200D01*
X057142Y044400D01*
X062342Y039200D01*
X062342Y038600D01*
X062642Y039000D02*
X062642Y039300D01*
X057342Y044600D01*
X057342Y047400D01*
X056741Y048001D01*
X055194Y048001D01*
X055194Y048316D02*
X056826Y048316D01*
X057542Y047600D01*
X057542Y044800D01*
X062942Y039400D01*
X057342Y039900D02*
X057242Y039900D01*
X057142Y039800D01*
X055194Y039800D01*
X055194Y039812D01*
X055194Y040127D02*
X055142Y040127D01*
X055142Y040125D01*
X055117Y040125D01*
X055142Y040125D02*
X056817Y040125D01*
X057042Y040300D01*
X056942Y040700D02*
X056617Y040450D01*
X055127Y040450D01*
X055194Y040442D01*
X055194Y040757D02*
X055087Y040750D01*
X056492Y040750D01*
X056942Y041100D01*
X056542Y041300D02*
X056414Y041072D01*
X055194Y041072D01*
X055194Y041387D02*
X055207Y041400D01*
X056142Y041400D01*
X056342Y041700D01*
X055194Y041702D02*
X055142Y041702D01*
X055142Y041700D01*
X053942Y041700D01*
X053942Y042200D02*
X054042Y042325D01*
X055162Y042325D01*
X055194Y042331D01*
X055194Y042646D02*
X055147Y042650D01*
X054442Y042650D01*
X054367Y042700D01*
X053942Y042700D01*
X054242Y042950D02*
X053942Y043100D01*
X054242Y042950D02*
X055242Y042950D01*
X055242Y042961D01*
X055194Y042961D01*
X055194Y043276D02*
X055142Y043276D01*
X055142Y043275D01*
X055342Y043275D01*
X055142Y043275D02*
X054542Y043275D01*
X054317Y043500D01*
X053942Y043500D01*
X054042Y043900D02*
X054342Y043900D01*
X054642Y043600D01*
X055242Y043600D01*
X055242Y043591D01*
X055194Y043591D01*
X055200Y043900D02*
X055194Y043906D01*
X055200Y043900D02*
X055942Y043900D01*
X056042Y044000D01*
X055842Y044200D02*
X055215Y044200D01*
X055194Y044221D01*
X055230Y044525D02*
X055194Y044536D01*
X055230Y044525D02*
X055567Y044550D01*
X055742Y044600D01*
X056042Y044400D02*
X055842Y044200D01*
X056042Y044400D02*
X056142Y044400D01*
X056242Y045400D02*
X056161Y045481D01*
X055194Y045481D01*
X055194Y045796D02*
X055738Y045796D01*
X055742Y045800D01*
X055194Y046111D02*
X054753Y046111D01*
X054542Y045900D01*
X054542Y045700D01*
X054142Y045800D02*
X054768Y046426D01*
X055194Y046426D01*
X053642Y046800D02*
X053542Y046800D01*
X053442Y046750D01*
X052764Y046750D01*
X052764Y046741D01*
X052764Y046750D02*
X052742Y046750D01*
X052764Y047056D02*
X053333Y047075D01*
X053342Y047100D01*
X052764Y047371D02*
X052735Y047375D01*
X051942Y047375D01*
X051842Y047300D01*
X052142Y047700D02*
X052750Y047700D01*
X052764Y047686D01*
X052742Y048000D02*
X052742Y048001D01*
X052764Y048001D01*
X052742Y048000D02*
X053342Y048000D01*
X052764Y048316D02*
X052748Y048300D01*
X052142Y048300D01*
X052142Y046400D02*
X052742Y046400D01*
X052742Y046426D01*
X052764Y046426D01*
X052742Y046400D02*
X052842Y046400D01*
X052842Y046111D02*
X052842Y046100D01*
X053342Y046100D01*
X052842Y046111D02*
X052764Y046111D01*
X053842Y044800D02*
X053920Y044850D01*
X055194Y044851D01*
X055194Y049200D02*
X055194Y049261D01*
X055194Y049200D02*
X055242Y049200D01*
X055194Y049576D02*
X056968Y049576D01*
X057042Y049550D01*
X052764Y049891D02*
X051333Y049891D01*
X051292Y049850D01*
X052764Y049891D02*
X052764Y050206D01*
X043771Y049780D02*
X043742Y049858D01*
X043742Y049850D01*
X043745Y049203D01*
X041992Y049350D02*
X041992Y048900D01*
X041408Y048316D01*
X042342Y051240D02*
X042502Y051400D01*
X043442Y051400D01*
X043567Y051398D01*
X052189Y039497D02*
X051742Y039050D01*
X051742Y032900D01*
X051642Y032800D01*
X052189Y039497D02*
X052764Y039497D01*
D47*
X054542Y038900D03*
X056542Y041300D03*
X056342Y041700D03*
X056942Y041100D03*
X056942Y040700D03*
X057042Y040300D03*
X057342Y039900D03*
X058742Y039500D03*
X059342Y039600D03*
X059442Y039200D03*
X059842Y039700D03*
X059942Y038700D03*
X060042Y038300D03*
X061242Y038600D03*
X061742Y037400D03*
X062042Y037800D03*
X062342Y038600D03*
X062642Y039000D03*
X062942Y039400D03*
X056442Y042800D03*
X056042Y044000D03*
X056142Y044400D03*
X055742Y044600D03*
X055867Y045125D03*
X056242Y045400D03*
X055742Y045800D03*
X054542Y045700D03*
X054142Y045800D03*
X053342Y046100D03*
X053642Y046800D03*
X053342Y047100D03*
X053342Y048000D03*
X053942Y049000D03*
X053492Y050700D03*
X053942Y052000D03*
X053742Y053900D03*
X055742Y053350D03*
X056622Y054760D03*
X057742Y053800D03*
X058242Y054200D03*
X058742Y054200D03*
X059142Y053800D03*
X058742Y053400D03*
X059042Y051900D03*
X056267Y050525D03*
X057542Y048100D03*
X057942Y047900D03*
X058142Y047500D03*
X058342Y047100D03*
X058642Y046800D03*
X058742Y046400D03*
X058842Y045800D03*
X053842Y044800D03*
X054042Y043900D03*
X053942Y043500D03*
X053942Y043100D03*
X053942Y042700D03*
X053942Y042200D03*
X053942Y041700D03*
X052142Y046400D03*
X051842Y047300D03*
X052142Y047700D03*
X052142Y048300D03*
X052092Y049450D03*
X050642Y050800D03*
X051742Y051900D03*
X048042Y048000D03*
X048042Y045700D03*
X048042Y043400D03*
X048142Y039500D03*
X046742Y038050D03*
X046092Y036675D03*
X046592Y035450D03*
X046442Y034600D03*
X045692Y034050D03*
X042942Y033650D03*
X042692Y034800D03*
X041992Y035250D03*
X042342Y035650D03*
X042142Y036050D03*
X042192Y036450D03*
X042392Y036800D03*
X042542Y037250D03*
X042942Y037700D03*
X043142Y038050D03*
X041242Y037275D03*
X041217Y039475D03*
X041292Y039925D03*
X038026Y041817D03*
X037592Y041700D03*
X037942Y042350D03*
X037542Y042650D03*
X038042Y043250D03*
X038342Y042950D03*
X037692Y043550D03*
X038042Y043900D03*
X037692Y044550D03*
X037576Y045166D03*
X038192Y047000D03*
X037542Y048625D03*
X038867Y048625D03*
X038942Y050525D03*
X041892Y050550D03*
X043742Y049200D03*
X044242Y049850D03*
X044942Y050100D03*
X044742Y050850D03*
X043942Y051450D03*
X035992Y044200D03*
X036392Y041350D03*
X037642Y038552D03*
X033217Y036025D03*
X038842Y029350D03*
X038842Y028900D03*
X039792Y028400D03*
X038842Y027700D03*
X041192Y025250D03*
X041342Y024250D03*
X046442Y028550D03*
X048042Y027000D03*
X048142Y024000D03*
X048142Y019400D03*
X048142Y016700D03*
X048142Y014100D03*
X043592Y009200D03*
X044092Y008200D03*
X043392Y008000D03*
X043842Y007450D03*
X044492Y007500D03*
X044292Y006350D03*
X044892Y006150D03*
X044742Y005400D03*
X044565Y003327D03*
X043975Y003342D03*
X043384Y003333D03*
X042794Y003348D03*
X041463Y003245D03*
X041752Y002460D03*
X042232Y002060D03*
X042192Y004750D03*
X040542Y005700D03*
X040142Y006100D03*
X039427Y005515D03*
X038742Y006000D03*
X037242Y005150D03*
X036642Y006200D03*
X036192Y006500D03*
X036532Y006820D03*
X036542Y007600D03*
X036342Y008550D03*
X035542Y008400D03*
X035892Y009350D03*
X035092Y010100D03*
X034442Y010350D03*
X032542Y008200D03*
X031842Y008700D03*
X030617Y010500D03*
X029717Y011775D03*
X030592Y012562D03*
X029042Y012350D03*
X028592Y012575D03*
X027667Y011775D03*
X027042Y012350D03*
X026567Y012575D03*
X025653Y011775D03*
X024942Y012350D03*
X024567Y012575D03*
X023667Y011775D03*
X022567Y012575D03*
X021642Y011775D03*
X020567Y012550D03*
X020692Y013250D03*
X021592Y014450D03*
X022242Y014800D03*
X023492Y014600D03*
X024342Y014950D03*
X022692Y018650D03*
X022042Y019200D03*
X021342Y019300D03*
X021942Y021200D03*
X022542Y022500D03*
X022542Y022950D03*
X022542Y023400D03*
X022542Y023850D03*
X021402Y025410D03*
X021992Y026100D03*
X024042Y024900D03*
X024817Y024900D03*
X025692Y025600D03*
X025142Y026350D03*
X024042Y027550D03*
X024492Y027950D03*
X024698Y028894D03*
X025192Y028450D03*
X025677Y029900D03*
X026842Y029100D03*
X027442Y029150D03*
X027142Y028350D03*
X027142Y027550D03*
X026442Y027200D03*
X026892Y025950D03*
X030092Y026750D03*
X031342Y026300D03*
X032192Y026850D03*
X030342Y025050D03*
X029992Y023450D03*
X031092Y022250D03*
X032142Y022650D03*
X032817Y024100D03*
X033332Y024260D03*
X034442Y025250D03*
X035092Y023750D03*
X035192Y022750D03*
X035342Y021750D03*
X035542Y020750D03*
X035692Y019750D03*
X035792Y018750D03*
X035942Y017750D03*
X035992Y016750D03*
X036342Y015200D03*
X037792Y013800D03*
X038392Y013500D03*
X038792Y013150D03*
X038392Y012800D03*
X037792Y012650D03*
X036842Y011200D03*
X037992Y010500D03*
X038692Y010400D03*
X038592Y011100D03*
X037692Y009350D03*
X039004Y008138D03*
X037842Y007600D03*
X040642Y007900D03*
X041142Y007600D03*
X041342Y007100D03*
X041042Y006500D03*
X040642Y007275D03*
X041092Y009650D03*
X040192Y012700D03*
X041042Y014175D03*
X040642Y017600D03*
X041542Y019000D03*
X032542Y018600D03*
X030717Y018725D03*
X029592Y019200D03*
X028942Y019100D03*
X029642Y020300D03*
X028942Y020650D03*
X027142Y020950D03*
X027142Y021700D03*
X027342Y022550D03*
X025242Y021550D03*
X024942Y022300D03*
X023992Y022600D03*
X023452Y020390D03*
X024042Y019300D03*
X028117Y016900D03*
X028042Y016050D03*
X029942Y015150D03*
X030742Y015000D03*
X028567Y010525D03*
X026542Y010525D03*
X024542Y010525D03*
X022492Y010500D03*
X020492Y010500D03*
X019653Y011775D03*
X019042Y012350D03*
X018567Y012500D03*
X017667Y011775D03*
X016520Y012278D03*
X015642Y011775D03*
X015042Y012350D03*
X016742Y013350D03*
X016792Y013900D03*
X017092Y014500D03*
X016342Y015700D03*
X015679Y014887D03*
X014392Y016200D03*
X013592Y015900D03*
X013167Y016225D03*
X014392Y017300D03*
X015042Y017900D03*
X016542Y017750D03*
X016342Y016800D03*
X016592Y018750D03*
X017142Y018750D03*
X017532Y021340D03*
X017373Y022580D03*
X016742Y023150D03*
X015792Y022550D03*
X015242Y023150D03*
X014323Y022530D03*
X013792Y023150D03*
X014717Y024500D03*
X015217Y024975D03*
X015257Y025660D03*
X014842Y026200D03*
X013757Y025660D03*
X013592Y024975D03*
X012042Y025400D03*
X010942Y024000D03*
X011142Y023650D03*
X011392Y023350D03*
X011692Y023050D03*
X009592Y024975D03*
X009742Y025600D03*
X008417Y026050D03*
X007992Y024975D03*
X007542Y024350D03*
X006492Y024975D03*
X006067Y024350D03*
X004992Y024975D03*
X004392Y024450D03*
X005042Y023100D03*
X005542Y022600D03*
X006492Y023100D03*
X007042Y022600D03*
X007992Y023100D03*
X008542Y022600D03*
X007592Y021200D03*
X006192Y021150D03*
X004792Y021100D03*
X004123Y022580D03*
X003542Y023000D03*
X003892Y026025D03*
X004592Y026150D03*
X005407Y026115D03*
X006092Y026150D03*
X006892Y026025D03*
X007542Y026300D03*
X008792Y027300D03*
X008992Y024350D03*
X009542Y020800D03*
X006592Y018750D03*
X006192Y018250D03*
X006942Y017900D03*
X008242Y017900D03*
X009307Y016190D03*
X008692Y015050D03*
X008242Y013700D03*
X007042Y015000D03*
X005429Y014713D03*
X003882Y014110D03*
X008642Y011150D03*
X009342Y011150D03*
X010042Y011150D03*
X010742Y011150D03*
X011442Y011150D03*
X012142Y011150D03*
X012842Y011150D03*
X013542Y011150D03*
X014767Y009325D03*
X013542Y007650D03*
X012842Y007650D03*
X012142Y007650D03*
X011442Y007650D03*
X010742Y007650D03*
X010042Y007650D03*
X009342Y007650D03*
X008642Y007650D03*
X007342Y007050D03*
X007342Y006200D03*
X006382Y004810D03*
X007932Y004250D03*
X009292Y003250D03*
X009392Y002600D03*
X010292Y002750D03*
X010792Y002400D03*
X011294Y003148D03*
X011884Y003158D03*
X012475Y003133D03*
X013065Y003123D03*
X013742Y004300D03*
X014642Y005200D03*
X016292Y006050D03*
X016792Y004500D03*
X016392Y003550D03*
X016292Y002500D03*
X015142Y001400D03*
X018292Y004700D03*
X018692Y004500D03*
X019792Y005250D03*
X020442Y004900D03*
X021092Y005200D03*
X021492Y004900D03*
X021792Y005300D03*
X022242Y006050D03*
X024092Y005300D03*
X024342Y006050D03*
X024792Y004900D03*
X025292Y004400D03*
X025492Y003700D03*
X027092Y003850D03*
X027592Y004400D03*
X028242Y005225D03*
X028342Y006050D03*
X026342Y006050D03*
X026467Y005175D03*
X026392Y008050D03*
X024417Y008125D03*
X022292Y008090D03*
X020342Y008100D03*
X018317Y008075D03*
X016367Y008100D03*
X018292Y006050D03*
X020242Y006050D03*
X021292Y002950D03*
X021842Y002700D03*
X022192Y002250D03*
X022742Y002950D03*
X020992Y002100D03*
X020642Y002500D03*
X020292Y002100D03*
X027042Y002300D03*
X029092Y002300D03*
X030142Y004600D03*
X030442Y006050D03*
X031892Y004900D03*
X032692Y006300D03*
X033792Y006260D03*
X035122Y006180D03*
X035065Y003373D03*
X034475Y003333D03*
X033884Y003292D03*
X033294Y003252D03*
X032312Y002110D03*
X032792Y002060D03*
X032342Y001400D03*
X031963Y003270D03*
X028492Y008100D03*
X019392Y016050D03*
X018692Y015350D03*
X018792Y014400D03*
X018492Y010475D03*
X016492Y010475D03*
X011492Y014225D03*
X010892Y014225D03*
X014732Y021390D03*
X016132Y021390D03*
X018242Y023150D03*
X018692Y022550D03*
X018932Y021340D03*
X019142Y024550D03*
X019717Y024975D03*
X019392Y026150D03*
X018267Y025700D03*
X017842Y026200D03*
X018217Y024975D03*
X017642Y024550D03*
X016767Y024975D03*
X016767Y025650D03*
X016342Y026150D03*
X016092Y027050D03*
X016142Y024550D03*
X023492Y029750D03*
X024192Y030400D03*
X002342Y006950D03*
X048042Y007200D03*
X048142Y006000D03*
X049042Y004800D03*
X049742Y006100D03*
X049942Y006600D03*
X051142Y006100D03*
X051442Y005700D03*
X050942Y005300D03*
X050642Y004800D03*
X052142Y005500D03*
X052342Y004900D03*
X052542Y004300D03*
X052842Y003800D03*
X053042Y003100D03*
X053692Y003050D03*
X054642Y002100D03*
X055142Y001600D03*
X055542Y001400D03*
X055942Y001500D03*
X056342Y001600D03*
X056342Y003100D03*
X056042Y003600D03*
X055842Y004200D03*
X055542Y004700D03*
X055342Y005300D03*
X056992Y003100D03*
X057942Y002000D03*
X058342Y001325D03*
X058842Y001300D03*
X059142Y001600D03*
X059542Y001600D03*
X059542Y003200D03*
X060092Y003175D03*
X059342Y003800D03*
X059042Y004300D03*
X059642Y005700D03*
X059242Y006100D03*
X053042Y001600D03*
X052642Y001500D03*
X052242Y001300D03*
X051942Y001600D03*
X051442Y002100D03*
X050861Y002663D03*
X049842Y003200D03*
X049742Y001600D03*
X049442Y001300D03*
X048942Y001400D03*
X048642Y001700D03*
X051592Y029472D03*
X052492Y033747D03*
X050067Y034375D03*
X049492Y033350D03*
X049042Y033700D03*
X049892Y036450D03*
X049892Y037000D03*
X051042Y036000D03*
X034642Y056600D03*
D48*
X035402Y058500D02*
X035442Y058540D01*
X043745Y049203D02*
X043742Y049200D01*
X041217Y039475D02*
X041642Y039050D01*
X041642Y038590D01*
X038150Y031792D02*
X038192Y031750D01*
X034342Y027350D02*
X034192Y027200D01*
X034192Y026900D01*
X033327Y026035D01*
X033327Y025715D01*
X033342Y025700D01*
X033342Y024710D01*
X033332Y024700D01*
X033327Y025715D02*
X032767Y025715D01*
X032242Y025700D02*
X032242Y026450D01*
X032242Y026800D01*
X032192Y026850D01*
X032327Y026535D02*
X032242Y026450D01*
X031942Y026450D01*
X032327Y026535D02*
X032767Y026535D01*
X032242Y025700D02*
X032218Y025676D01*
X031874Y025676D01*
X030811Y025676D02*
X030158Y025676D01*
X029992Y025510D01*
X029992Y025400D01*
X030342Y025050D01*
X029992Y023450D02*
X029492Y023450D01*
X028192Y022580D02*
X027372Y022580D01*
X027342Y022550D01*
X027142Y020950D02*
X027792Y020950D01*
X026492Y021000D02*
X026405Y020913D01*
X026405Y019750D01*
X023942Y022100D02*
X024392Y022550D01*
X024392Y027100D01*
X024892Y027600D01*
X024892Y028200D01*
X024442Y028650D01*
X023242Y028650D01*
X023492Y028382D02*
X024060Y028382D01*
X024492Y027950D01*
X026392Y025660D02*
X026602Y025660D01*
X026892Y025950D01*
X023942Y022100D02*
X023592Y022100D01*
X022842Y021350D01*
X022842Y019150D01*
X023692Y018300D01*
X023692Y015450D01*
X023092Y014850D01*
X023092Y011425D01*
X023042Y011375D01*
X024217Y011375D01*
X024217Y012374D01*
X024192Y012399D01*
X023673Y012399D02*
X023673Y011780D01*
X023667Y011775D01*
X023413Y012399D02*
X023413Y013210D01*
X023452Y013250D01*
X023442Y013300D01*
X023492Y013400D01*
X023492Y014600D01*
X024342Y014950D02*
X024342Y013950D01*
X024392Y013900D01*
X024132Y013640D01*
X024132Y013250D01*
X024392Y013900D02*
X024942Y013900D01*
X024992Y013950D01*
X024992Y014650D01*
X024982Y014660D01*
X024982Y014700D01*
X025018Y014736D01*
X025018Y015519D01*
X024942Y013900D02*
X026292Y013900D01*
X026132Y013740D01*
X026132Y013250D01*
X026292Y013900D02*
X028592Y013900D01*
X028557Y013935D01*
X028557Y014725D01*
X028617Y014725D01*
X028942Y015050D01*
X028942Y015519D01*
X029274Y015519D02*
X029316Y015519D01*
X029377Y015458D01*
X029685Y015150D01*
X029942Y015150D01*
X029907Y015185D01*
X029907Y016025D01*
X029377Y015458D02*
X029377Y014725D01*
X029557Y013900D02*
X028742Y013900D01*
X028157Y013315D01*
X028157Y013200D01*
X028042Y012800D02*
X027932Y012690D01*
X027932Y012399D01*
X027673Y012399D02*
X027673Y011780D01*
X027667Y011775D01*
X028192Y011375D02*
X026167Y011375D01*
X026167Y012399D01*
X025648Y012399D02*
X025648Y011781D01*
X025653Y011775D01*
X026167Y011375D02*
X024217Y011375D01*
X023673Y010525D02*
X023692Y010505D01*
X023692Y010200D01*
X023842Y010050D01*
X024342Y010050D01*
X024642Y009750D01*
X024642Y009300D01*
X023942Y008600D01*
X023792Y008600D01*
X023632Y008600D01*
X022792Y007760D01*
X022792Y006740D01*
X022792Y006060D02*
X022792Y005500D01*
X022992Y005300D01*
X024092Y005300D01*
X023992Y004600D02*
X023467Y004600D01*
X023367Y004500D01*
X023367Y003998D01*
X023167Y003994D02*
X023167Y004600D01*
X023467Y004900D01*
X024792Y004900D01*
X025392Y004900D01*
X025742Y004550D01*
X025742Y003900D01*
X025842Y003800D01*
X026329Y003800D01*
X026329Y003300D02*
X026692Y003300D01*
X027092Y003700D01*
X027092Y003850D01*
X027592Y004100D02*
X027592Y004400D01*
X027592Y004300D01*
X027592Y004100D02*
X027892Y003800D01*
X028455Y003800D01*
X028492Y003800D01*
X028455Y003300D02*
X028892Y003300D01*
X029142Y003550D01*
X029142Y003800D01*
X029167Y003825D01*
X029202Y003825D01*
X029142Y003800D02*
X029142Y004750D01*
X028442Y005450D01*
X028442Y005950D01*
X028342Y006050D01*
X028332Y006060D01*
X027792Y006060D01*
X027707Y005400D02*
X028067Y005400D01*
X028242Y005225D01*
X028455Y004800D02*
X028455Y004300D01*
X029542Y005150D02*
X028892Y005800D01*
X028892Y006060D01*
X029542Y005150D02*
X029542Y002000D01*
X029342Y001800D01*
X028455Y001800D01*
X028455Y002300D01*
X028455Y002800D02*
X027992Y002800D01*
X027792Y002600D01*
X027792Y002400D01*
X026792Y001400D01*
X025692Y001400D01*
X025492Y001600D01*
X025492Y002750D01*
X025292Y002950D01*
X023842Y002950D01*
X023767Y003025D01*
X023767Y003944D01*
X024192Y004400D02*
X023992Y004600D01*
X024192Y004400D02*
X025292Y004400D01*
X025492Y003700D02*
X025492Y003350D01*
X025792Y003050D01*
X025792Y002000D01*
X025992Y001800D01*
X026329Y001800D01*
X026329Y002300D01*
X026329Y001800D02*
X026592Y001800D01*
X027042Y002300D02*
X027042Y002675D01*
X026917Y002800D01*
X026329Y002800D01*
X026329Y004800D02*
X025942Y004800D01*
X025892Y004850D01*
X025892Y005300D01*
X025592Y005600D01*
X024992Y005600D01*
X024792Y005800D01*
X024792Y006060D01*
X024342Y006050D02*
X024332Y006060D01*
X023792Y006060D01*
X023792Y006740D02*
X023792Y007600D01*
X024417Y008125D02*
X024782Y008440D01*
X024792Y008440D01*
X024792Y007800D02*
X024792Y007760D01*
X024792Y007700D01*
X024792Y006740D01*
X024792Y006700D01*
X025792Y006740D02*
X025792Y007600D01*
X026392Y008050D02*
X026782Y008440D01*
X026792Y008440D01*
X026792Y007760D02*
X026952Y007760D01*
X027792Y008600D01*
X028092Y008600D01*
X028792Y009300D01*
X028792Y009900D01*
X028592Y010100D01*
X027792Y010100D01*
X027692Y010200D01*
X027692Y010505D01*
X027673Y010525D01*
X028192Y011375D02*
X028192Y012399D01*
X028042Y012800D02*
X028367Y012800D01*
X028592Y012575D01*
X029042Y012350D02*
X029092Y012400D01*
X029092Y012700D01*
X029292Y012900D01*
X029442Y012900D01*
X029488Y013210D02*
X029488Y012374D01*
X029748Y012374D02*
X029748Y011805D01*
X029717Y011775D01*
X029956Y011375D02*
X028192Y011375D01*
X027413Y012399D02*
X027413Y013135D01*
X027477Y013200D01*
X027242Y013200D01*
X027042Y013000D01*
X027042Y012350D01*
X025388Y012399D02*
X025388Y013185D01*
X025452Y013250D01*
X025242Y013250D01*
X024992Y013000D01*
X024992Y012400D01*
X024942Y012350D01*
X025648Y010525D02*
X025642Y010520D01*
X025642Y010200D01*
X025792Y010050D01*
X026442Y010050D01*
X026742Y009750D01*
X026742Y009350D01*
X025992Y008600D01*
X025792Y008600D01*
X025692Y008600D01*
X024867Y007775D01*
X024792Y007700D01*
X025792Y006060D02*
X026332Y006060D01*
X026342Y006050D01*
X026792Y006060D02*
X026792Y006000D01*
X026667Y005400D02*
X026617Y005350D01*
X026467Y005175D01*
X026667Y005400D02*
X027027Y005400D01*
X026792Y006740D02*
X026792Y007760D01*
X027792Y007600D02*
X027792Y006740D01*
X028892Y007800D02*
X029892Y008600D01*
X030292Y008600D01*
X030892Y009200D01*
X030892Y009900D01*
X030742Y010050D01*
X029842Y010050D01*
X029742Y010150D01*
X029742Y010495D01*
X029748Y010500D01*
X030007Y010500D02*
X030267Y010500D01*
X030617Y010500D01*
X029956Y011375D02*
X030267Y011686D01*
X030267Y012374D01*
X030007Y012374D02*
X030007Y012715D01*
X030092Y012800D01*
X030517Y012800D01*
X030592Y012725D01*
X030592Y012562D01*
X030207Y013250D02*
X030727Y013770D01*
X030727Y016025D01*
X030342Y018040D02*
X029902Y018040D01*
X029592Y018350D01*
X029592Y019200D01*
X029642Y020300D02*
X029622Y020320D01*
X029622Y021100D01*
X030368Y021026D02*
X030368Y020212D01*
X030368Y021026D02*
X030442Y021100D01*
X030452Y021200D02*
X030452Y021920D01*
X030482Y021950D01*
X031092Y022250D02*
X031132Y022210D01*
X031132Y021200D01*
X030742Y019188D02*
X030717Y019163D01*
X030717Y018725D01*
X028511Y016731D02*
X028342Y016900D01*
X028117Y016900D01*
X028511Y016731D02*
X028511Y016581D01*
X028568Y016581D01*
X028592Y013900D02*
X028742Y013900D01*
X029557Y013900D02*
X030207Y013250D01*
X029527Y013250D02*
X029488Y013210D01*
X033192Y009475D02*
X033192Y009450D01*
X033242Y009400D01*
X034427Y010365D02*
X034442Y010350D01*
X034427Y010365D02*
X034427Y011675D01*
X035092Y010100D02*
X035107Y010085D01*
X035107Y009500D01*
X036342Y008550D02*
X036498Y008394D01*
X037242Y008394D01*
X037242Y008650D02*
X037242Y009600D01*
X037542Y009900D01*
X037952Y009900D01*
X038002Y009850D01*
X033292Y007760D02*
X033292Y007740D01*
X032592Y007740D02*
X032592Y007820D01*
X030442Y006050D02*
X030432Y006060D01*
X029892Y006060D01*
X029892Y006700D02*
X029892Y006740D01*
X029892Y007600D01*
X028892Y008480D02*
X028872Y008480D01*
X028492Y008100D01*
X030142Y004600D02*
X029882Y004340D01*
X029882Y003825D01*
X028942Y002800D02*
X029092Y002650D01*
X029092Y002300D01*
X028942Y002800D02*
X028455Y002800D01*
X031963Y003270D02*
X032113Y003420D01*
X032113Y004013D01*
X033294Y004013D02*
X033294Y003252D01*
X033884Y003292D02*
X033884Y004013D01*
X034475Y004013D02*
X034475Y003333D01*
X035065Y003373D02*
X035065Y004013D01*
X032342Y002100D02*
X032342Y001400D01*
X041463Y003245D02*
X041463Y003395D01*
X041617Y003550D01*
X041613Y004013D01*
X041416Y004013D02*
X041416Y004726D01*
X041342Y004800D01*
X042794Y004013D02*
X042794Y003348D01*
X043384Y003333D02*
X043384Y004013D01*
X043975Y004013D02*
X043975Y003342D01*
X044565Y003327D02*
X044565Y004013D01*
X048842Y008200D02*
X049042Y008000D01*
X049432Y008000D01*
X049457Y008025D01*
X050082Y007400D01*
X050442Y007400D01*
X051842Y006000D01*
X051842Y005500D01*
X051442Y005100D01*
X051442Y002700D01*
X050742Y002000D01*
X050442Y002000D01*
X050342Y002100D01*
X049767Y002100D01*
X053017Y002100D02*
X053067Y002050D01*
X053392Y002050D01*
X053542Y001900D01*
X053642Y001900D01*
X054242Y002500D01*
X054242Y006400D01*
X052611Y008031D01*
X052611Y008026D01*
X052637Y008000D01*
X052442Y008000D01*
X052042Y008400D01*
X052042Y009100D01*
X052592Y009650D01*
X052592Y010000D01*
X052502Y010090D01*
X052502Y010900D01*
X052502Y011700D01*
X053182Y011700D02*
X053182Y010900D01*
X053782Y010900D01*
X053942Y011060D01*
X054242Y010600D02*
X053542Y010600D01*
X053442Y010500D01*
X053442Y009200D01*
X053042Y008800D01*
X052637Y008800D01*
X052611Y008774D01*
X052611Y008400D02*
X052442Y008400D01*
X052242Y008600D01*
X052242Y008900D01*
X052542Y009200D01*
X052842Y009200D01*
X053142Y009500D01*
X053142Y010860D01*
X053182Y010900D01*
X053982Y011700D02*
X053982Y014260D01*
X053942Y014300D01*
X051742Y014300D02*
X051742Y011800D01*
X051642Y011700D01*
X051642Y011690D01*
X050892Y011690D01*
X050952Y011690D01*
X051242Y011400D01*
X051242Y010400D01*
X050842Y010000D01*
X050442Y009300D02*
X049942Y008800D01*
X049442Y008800D01*
X049456Y008400D02*
X049457Y008399D01*
X049456Y008400D02*
X049142Y008400D01*
X049042Y008500D01*
X049042Y009000D01*
X049142Y009100D01*
X049742Y009100D01*
X050082Y009440D01*
X050082Y011000D01*
X050882Y011000D01*
X050892Y011010D01*
X051642Y011010D02*
X051642Y009700D01*
X051242Y009300D01*
X050442Y009300D01*
X050520Y008773D02*
X050215Y008773D01*
X049942Y008500D01*
X049942Y008200D01*
X050142Y008000D01*
X050495Y008000D01*
X050520Y008025D01*
X050520Y008399D02*
X050983Y008399D01*
X051043Y008399D01*
X051442Y008000D01*
X051442Y007000D01*
X052042Y006400D01*
X052317Y006850D02*
X052042Y007100D01*
X052042Y008100D01*
X051392Y008750D01*
X051392Y008810D01*
X051355Y008773D01*
X050520Y008773D01*
X050983Y008399D02*
X051392Y007990D01*
X052317Y006850D02*
X052417Y006850D01*
X053667Y007450D02*
X053674Y007669D01*
X053674Y008026D01*
X053642Y008000D02*
X053342Y008000D01*
X053242Y008100D01*
X053242Y008600D01*
X053416Y008774D01*
X053674Y008774D01*
X054606Y008774D01*
X054642Y008810D01*
X054232Y008400D02*
X054642Y007990D01*
X054942Y007640D01*
X055267Y007650D01*
X055542Y008000D02*
X055242Y008300D01*
X055242Y009200D01*
X055892Y009850D01*
X055892Y010000D01*
X055802Y010090D01*
X055802Y011000D01*
X055802Y011700D01*
X056482Y011640D02*
X056482Y011000D01*
X057082Y011000D01*
X057142Y011060D01*
X057542Y011400D02*
X057202Y011740D01*
X057142Y011740D01*
X057942Y011740D01*
X057942Y014300D01*
X059002Y014700D02*
X059002Y016360D01*
X059042Y016400D01*
X058942Y016500D01*
X060346Y016500D02*
X060346Y016500D01*
X059342Y014300D02*
X060042Y013600D01*
X060042Y011900D01*
X060102Y011840D01*
X060442Y011500D01*
X060442Y010300D01*
X060192Y010050D01*
X060192Y010000D01*
X060442Y010250D01*
X060442Y010300D01*
X060842Y009700D02*
X060442Y009300D01*
X059742Y009300D01*
X059242Y008800D01*
X058842Y008800D01*
X058811Y008400D02*
X058642Y008400D01*
X058442Y008600D01*
X058442Y009000D01*
X058642Y009200D01*
X059242Y009200D01*
X059542Y009500D01*
X059542Y010600D01*
X059382Y010760D01*
X059382Y011100D01*
X059382Y011800D01*
X059382Y011160D01*
X059442Y011100D01*
X059982Y011100D01*
X060042Y011160D01*
X060042Y011840D02*
X060102Y011840D01*
X060042Y011840D02*
X060842Y011840D01*
X061196Y012193D01*
X062432Y012193D01*
X060942Y011900D02*
X060882Y011840D01*
X060842Y011840D01*
X060842Y011160D02*
X060842Y009700D01*
X060842Y008810D02*
X060806Y008774D01*
X060432Y008400D02*
X060842Y007990D01*
X060842Y007625D01*
X061167Y007300D01*
X061542Y007300D01*
X061542Y006700D02*
X060167Y006700D01*
X059467Y007400D01*
X059442Y008100D01*
X059542Y008000D01*
X059848Y008000D01*
X059874Y008026D01*
X059874Y008400D02*
X060432Y008400D01*
X059874Y008774D02*
X059616Y008774D01*
X059442Y008600D01*
X059442Y008100D01*
X058811Y008026D02*
X058811Y007231D01*
X060642Y005400D01*
X060642Y002200D01*
X060542Y002100D01*
X060132Y002100D01*
X060092Y002060D01*
X059557Y002060D01*
X059517Y002100D01*
X058517Y002550D02*
X058517Y002700D01*
X058518Y002700D02*
X058517Y002727D01*
X058514Y002752D01*
X058506Y002777D01*
X058495Y002801D01*
X058481Y002823D01*
X058464Y002843D01*
X058444Y002860D01*
X058422Y002874D01*
X058398Y002885D01*
X058373Y002892D01*
X058348Y002896D01*
X058347Y002895D02*
X058137Y002895D01*
X058109Y002897D01*
X058082Y002903D01*
X058056Y002913D01*
X058032Y002926D01*
X058009Y002943D01*
X057990Y002962D01*
X057973Y002985D01*
X057960Y003009D01*
X057950Y003035D01*
X057944Y003062D01*
X057942Y003090D01*
X057942Y003130D01*
X057944Y003158D01*
X057950Y003185D01*
X057960Y003211D01*
X057973Y003235D01*
X057990Y003258D01*
X058009Y003277D01*
X058032Y003294D01*
X058056Y003307D01*
X058082Y003317D01*
X058109Y003323D01*
X058137Y003325D01*
X058347Y003325D01*
X058375Y003327D01*
X058402Y003333D01*
X058428Y003343D01*
X058452Y003356D01*
X058475Y003373D01*
X058494Y003392D01*
X058511Y003415D01*
X058524Y003439D01*
X058534Y003465D01*
X058540Y003492D01*
X058542Y003520D01*
X058542Y003598D01*
X058540Y003626D01*
X058534Y003653D01*
X058524Y003679D01*
X058511Y003703D01*
X058494Y003726D01*
X058475Y003745D01*
X058452Y003762D01*
X058428Y003775D01*
X058402Y003785D01*
X058375Y003791D01*
X058347Y003793D01*
X058137Y003793D01*
X058108Y003801D01*
X058080Y003812D01*
X058053Y003827D01*
X058029Y003844D01*
X058007Y003865D01*
X057987Y003888D01*
X057971Y003913D01*
X057957Y003940D01*
X057947Y003968D01*
X057940Y003998D01*
X057937Y004028D01*
X057938Y004058D01*
X057942Y004088D01*
X057942Y004310D01*
X057944Y004338D01*
X057950Y004365D01*
X057960Y004391D01*
X057973Y004415D01*
X057990Y004438D01*
X058009Y004457D01*
X058032Y004474D01*
X058056Y004487D01*
X058082Y004497D01*
X058109Y004503D01*
X058137Y004505D01*
X058347Y004505D01*
X058375Y004507D01*
X058402Y004513D01*
X058428Y004523D01*
X058452Y004536D01*
X058475Y004553D01*
X058494Y004572D01*
X058511Y004595D01*
X058524Y004619D01*
X058534Y004645D01*
X058540Y004672D01*
X058542Y004700D01*
X059542Y005700D01*
X059642Y005700D01*
X058367Y006825D02*
X057267Y006825D01*
X056842Y007250D01*
X056842Y007994D01*
X056874Y008026D01*
X056848Y008000D01*
X056542Y008000D01*
X056442Y008100D01*
X056442Y008600D01*
X056616Y008774D01*
X056874Y008774D01*
X057806Y008774D01*
X057642Y008810D01*
X057342Y009200D02*
X057942Y009800D01*
X057942Y011060D01*
X057542Y011400D02*
X057542Y010350D01*
X057192Y010000D01*
X057342Y009200D02*
X056742Y009200D01*
X056316Y008774D01*
X055811Y008774D01*
X055811Y008400D02*
X055542Y008400D01*
X055442Y008500D01*
X055442Y009000D01*
X055642Y009200D01*
X056342Y009200D01*
X056482Y009340D01*
X056482Y011000D01*
X056482Y011640D02*
X056542Y011700D01*
X055042Y011340D02*
X055042Y010800D01*
X054242Y010000D01*
X053892Y010000D01*
X054242Y010600D02*
X054642Y011000D01*
X054642Y011060D01*
X055042Y011340D02*
X054642Y011740D01*
X054482Y011740D01*
X054442Y011700D01*
X053982Y011700D01*
X053942Y011740D01*
X053674Y008400D02*
X054232Y008400D01*
X053667Y007450D02*
X054142Y006975D01*
X055067Y006975D01*
X055785Y006357D02*
X057442Y004700D01*
X057442Y002400D01*
X056992Y001950D01*
X056692Y001950D01*
X056542Y002100D01*
X056267Y002100D01*
X056992Y001950D02*
X057042Y001900D01*
X055785Y006357D02*
X055785Y008000D01*
X055811Y008026D01*
X055785Y008000D02*
X055542Y008000D01*
X056874Y008400D02*
X057332Y008400D01*
X057332Y008310D01*
X057742Y007900D01*
X057742Y007400D01*
X058367Y007400D01*
X058442Y008100D02*
X058737Y008100D01*
X058811Y008026D01*
X058442Y008100D02*
X058242Y008300D01*
X058242Y009200D01*
X058842Y009800D01*
X058842Y010000D01*
X058892Y010000D01*
X058742Y010150D01*
X058742Y011100D01*
X058702Y011140D01*
X058702Y011800D01*
X057332Y008400D02*
X057642Y007990D01*
X050082Y011000D02*
X050082Y011750D01*
X049402Y011750D02*
X049402Y011040D01*
X049442Y011000D01*
X049402Y011000D02*
X049402Y010140D01*
X049542Y010000D01*
X049542Y009900D01*
X048842Y009200D01*
X048842Y008200D01*
X049442Y009900D02*
X049292Y010050D01*
X048092Y010050D01*
X046442Y028550D02*
X047092Y029200D01*
X048542Y029200D01*
X050042Y030700D01*
X050042Y034300D01*
X050092Y034350D01*
X050092Y034900D01*
X050086Y034906D01*
X049342Y034906D01*
X050036Y034906D01*
X050042Y034900D01*
X050067Y034375D02*
X050067Y034325D01*
X055167Y049900D02*
X055167Y050200D01*
X055194Y050520D02*
X056322Y050520D01*
X056342Y050500D01*
X057417Y055812D02*
X057854Y055812D01*
X058077Y056035D01*
X058352Y056035D01*
X057417Y056009D02*
X057417Y056265D01*
X056860Y056822D01*
X056713Y056822D01*
X021942Y021200D02*
X020042Y019300D01*
X020042Y015650D01*
X018792Y014400D01*
X018242Y013900D02*
X018157Y013815D01*
X018157Y013275D01*
X018242Y013900D02*
X020192Y013900D01*
X020132Y013840D01*
X020132Y013275D01*
X020692Y013250D02*
X020742Y013200D01*
X021392Y013200D01*
X021442Y013250D01*
X021477Y013250D02*
X021477Y013185D01*
X021392Y013100D01*
X021392Y013200D01*
X021392Y013100D02*
X021392Y012379D01*
X021388Y012374D01*
X021648Y012374D02*
X021648Y011780D01*
X021642Y011775D01*
X022167Y011375D02*
X022167Y012374D01*
X022167Y011375D02*
X023042Y011375D01*
X022167Y011375D02*
X020142Y011375D01*
X020142Y012349D01*
X020167Y012374D01*
X019648Y012374D02*
X019648Y011781D01*
X019653Y011775D01*
X020142Y011375D02*
X018167Y011375D01*
X018167Y012349D01*
X017648Y012349D02*
X017648Y011795D01*
X017667Y011775D01*
X017388Y012349D02*
X017388Y013185D01*
X017477Y013275D01*
X016817Y013275D01*
X016742Y013350D01*
X016692Y013900D02*
X016792Y013900D01*
X018242Y013900D01*
X018992Y013150D02*
X018992Y012400D01*
X019042Y012350D01*
X019388Y012374D02*
X019388Y013210D01*
X019452Y013275D01*
X019117Y013275D01*
X018992Y013150D01*
X020192Y013900D02*
X021592Y013900D01*
X021592Y014450D01*
X021592Y013900D02*
X021892Y013900D01*
X022157Y013715D01*
X022157Y013250D01*
X022242Y014800D02*
X022042Y015000D01*
X022042Y015745D01*
X021373Y017655D02*
X021373Y019269D01*
X021352Y019269D01*
X021352Y018650D01*
X019392Y016850D02*
X019392Y016050D01*
X018702Y015360D02*
X018692Y015350D01*
X018702Y015360D02*
X018702Y016750D01*
X018592Y016860D01*
X018592Y016900D01*
X017805Y016900D01*
X016692Y013900D02*
X016132Y013340D01*
X016132Y013275D01*
X015452Y013275D02*
X015192Y013275D01*
X015042Y013100D01*
X015042Y012350D01*
X015388Y012349D02*
X015388Y013210D01*
X015452Y013275D01*
X015648Y012349D02*
X015648Y011780D01*
X015642Y011775D01*
X016167Y011450D02*
X016242Y011375D01*
X018167Y011375D01*
X017648Y010475D02*
X017642Y010470D01*
X017642Y010150D01*
X017742Y010050D01*
X018392Y010050D01*
X018642Y009800D01*
X018642Y009250D01*
X017992Y008600D01*
X017792Y008600D01*
X017692Y008600D01*
X016792Y007700D01*
X016792Y006740D01*
X016792Y006700D01*
X016792Y006060D02*
X016792Y005600D01*
X016192Y005000D01*
X015629Y005000D01*
X015629Y004500D01*
X015629Y004463D01*
X015642Y004450D01*
X015629Y004000D02*
X016292Y004000D01*
X016792Y004500D01*
X017092Y003700D02*
X017092Y005550D01*
X017592Y006050D01*
X017782Y006050D01*
X017792Y006060D01*
X018282Y006060D01*
X018292Y006050D01*
X018792Y006060D02*
X018792Y005500D01*
X018292Y005000D01*
X017755Y005000D01*
X017755Y004500D01*
X018292Y004700D02*
X018442Y004850D01*
X018842Y004850D01*
X019182Y004510D01*
X019242Y004510D01*
X019792Y004500D02*
X019792Y003500D01*
X018792Y002500D01*
X017755Y002500D01*
X017755Y002000D01*
X017492Y001650D02*
X018142Y001650D01*
X018242Y001750D01*
X018242Y002050D01*
X018442Y002250D01*
X019292Y002250D01*
X019617Y002225D01*
X020192Y001700D01*
X021642Y001700D01*
X022192Y002250D01*
X021292Y003150D02*
X021592Y003450D01*
X021592Y003969D01*
X021792Y003976D02*
X021792Y004450D01*
X021642Y004600D01*
X020917Y004600D01*
X021042Y004725D01*
X021042Y005150D01*
X021092Y005200D01*
X021492Y004900D02*
X021792Y004900D01*
X022192Y004500D01*
X022192Y003979D01*
X021006Y004013D02*
X021006Y002336D01*
X020992Y002100D01*
X020292Y002100D01*
X020642Y002500D02*
X020810Y002817D01*
X020810Y004013D01*
X020613Y004013D02*
X020613Y004420D01*
X020792Y004600D01*
X020917Y004600D01*
X020442Y004900D02*
X020416Y004874D01*
X020416Y004013D01*
X019792Y004500D02*
X020092Y004825D01*
X020092Y005075D01*
X020792Y005750D01*
X020792Y006060D01*
X020242Y006050D02*
X020232Y006060D01*
X019792Y006060D01*
X019792Y006740D02*
X019792Y007600D01*
X020342Y008100D02*
X020782Y008490D01*
X020792Y008490D01*
X021242Y008300D02*
X021542Y008600D01*
X021992Y008600D01*
X022642Y009250D01*
X022642Y009750D01*
X022342Y010050D01*
X021742Y010050D01*
X021642Y010150D01*
X021642Y010495D01*
X021648Y010500D01*
X020692Y009750D02*
X020392Y010050D01*
X019742Y010050D01*
X019642Y010150D01*
X019642Y010495D01*
X019648Y010500D01*
X020692Y009750D02*
X020692Y009350D01*
X019942Y008600D01*
X019792Y008600D01*
X018952Y007760D01*
X018792Y007760D01*
X018792Y006740D01*
X017792Y006740D02*
X017792Y007600D01*
X018317Y008075D02*
X018782Y008440D01*
X018792Y008440D01*
X016792Y008440D02*
X016792Y008375D01*
X016367Y008100D01*
X015992Y008600D02*
X016742Y009350D01*
X016742Y009800D01*
X016492Y010050D01*
X015742Y010050D01*
X015642Y010150D01*
X015642Y010470D01*
X015648Y010475D01*
X016167Y011450D02*
X016167Y012349D01*
X014767Y009325D02*
X014782Y008440D01*
X014792Y008440D01*
X014792Y007760D02*
X014792Y006740D01*
X014792Y006060D02*
X014792Y006000D01*
X015092Y005700D01*
X015092Y002200D01*
X015392Y002000D01*
X015629Y002000D02*
X015629Y002500D01*
X015629Y003000D02*
X016142Y003000D01*
X016292Y002850D01*
X016292Y002500D01*
X016992Y003200D02*
X016992Y001550D01*
X016842Y001400D01*
X016332Y001400D01*
X017292Y001850D02*
X017292Y002750D01*
X017542Y003000D01*
X017755Y003000D01*
X017755Y003500D02*
X017292Y003500D01*
X017092Y003700D01*
X017292Y003500D02*
X016992Y003200D01*
X016392Y003550D02*
X016342Y003500D01*
X015629Y003500D01*
X017292Y001850D02*
X017492Y001650D01*
X019592Y002250D02*
X019617Y002225D01*
X021292Y002950D02*
X021292Y003150D01*
X021792Y006060D02*
X022232Y006060D01*
X022242Y006050D01*
X021792Y006740D02*
X021792Y007600D01*
X021242Y007960D02*
X021242Y008300D01*
X021242Y007960D02*
X021092Y007810D01*
X020792Y007810D01*
X020792Y006740D01*
X021542Y008600D02*
X021782Y008590D01*
X021792Y008600D01*
X016292Y006050D02*
X016182Y006060D01*
X015792Y006060D01*
X015792Y006740D02*
X015792Y007600D01*
X014852Y007660D02*
X015792Y008600D01*
X015992Y008600D01*
X014792Y007760D02*
X014852Y007660D01*
X012842Y006540D02*
X012842Y006525D01*
X013065Y004013D02*
X013065Y003123D01*
X012475Y003133D02*
X012475Y004013D01*
X011884Y004013D02*
X011884Y003158D01*
X011294Y003148D02*
X011294Y004013D01*
X010517Y003950D02*
X010517Y003125D01*
X010792Y002850D01*
X010792Y002400D01*
X010292Y002750D02*
X010292Y003950D01*
X010042Y013290D02*
X009342Y013290D01*
X008642Y013290D01*
X008642Y014200D01*
X008542Y014300D01*
X006992Y014300D01*
X006592Y014700D01*
X006592Y016800D01*
X006692Y016900D01*
X007555Y016900D01*
X010842Y017800D02*
X010942Y017700D01*
X010742Y013290D02*
X010042Y013290D01*
X010742Y013290D02*
X011442Y013290D01*
X012142Y013290D01*
X012842Y013290D01*
X013542Y013290D01*
X015242Y023150D02*
X015613Y023150D01*
X016742Y023150D02*
X016917Y023175D01*
X017113Y023175D01*
X018242Y023150D02*
X018563Y023150D01*
X017857Y025650D02*
X017857Y026185D01*
X017842Y026200D01*
X016357Y026135D02*
X016342Y026150D01*
X016357Y026135D02*
X016357Y025650D01*
X016092Y027050D02*
X015442Y027050D01*
X014842Y026200D02*
X014857Y026185D01*
X014857Y025640D01*
X013592Y024975D02*
X009592Y024975D01*
X009592Y024950D01*
X009166Y024950D01*
X009142Y024974D01*
X009082Y025615D02*
X009727Y025615D01*
X009742Y025600D01*
X009142Y026050D02*
X009392Y026300D01*
X009392Y026685D01*
X009417Y026710D01*
X009732Y026710D01*
X009942Y026500D01*
X010492Y026500D01*
X010517Y026475D01*
X010517Y026225D01*
X010742Y026000D01*
X010742Y025410D01*
X010777Y025375D01*
X009142Y026050D02*
X008417Y026050D01*
X007992Y024975D02*
X007643Y024975D01*
X007642Y024974D01*
X007582Y025600D02*
X007582Y026260D01*
X007542Y026300D01*
X006092Y026150D02*
X006082Y026140D01*
X006082Y025600D01*
X004582Y025600D02*
X004582Y026140D01*
X004592Y026150D01*
X005042Y023100D02*
X005363Y023100D01*
X006492Y023100D02*
X006863Y023100D01*
X007992Y023100D02*
X008363Y023100D01*
X008792Y027300D02*
X009442Y027300D01*
X009417Y027325D01*
X009417Y027390D01*
X009502Y027475D01*
X010517Y027475D01*
X003863Y023100D02*
X003642Y023100D01*
X003542Y023000D01*
X019357Y025650D02*
X019357Y026115D01*
X019392Y026150D01*
D49*
X019342Y025024D02*
X019668Y025024D01*
X019717Y024975D01*
X019892Y024975D01*
X020042Y025125D01*
X020042Y025150D01*
X022542Y027650D01*
X022792Y027900D01*
X023442Y027900D01*
X023492Y027850D01*
X023492Y027870D01*
X023492Y027615D02*
X023528Y027615D01*
X023542Y027600D01*
X023992Y027600D01*
X024042Y027550D01*
X023492Y028126D02*
X023469Y028150D01*
X022792Y028150D01*
X022542Y028400D01*
X022542Y028650D01*
X022992Y028550D02*
X022992Y029250D01*
X022542Y029700D01*
X022542Y029650D01*
X023142Y030050D02*
X023142Y028750D01*
X023242Y028650D01*
X022992Y028550D02*
X023160Y028382D01*
X023492Y028382D01*
X023492Y029150D02*
X023492Y029750D01*
X023142Y030050D02*
X022542Y030650D01*
X024192Y030400D02*
X024292Y030500D01*
X033342Y030500D01*
X033442Y030600D01*
X033442Y035800D01*
X033217Y036025D01*
X032942Y039400D02*
X032942Y048050D01*
X037192Y052300D01*
X044342Y052300D01*
X045392Y051250D01*
X045392Y048350D01*
X044413Y047371D01*
X039446Y047371D01*
X039446Y047686D02*
X038878Y047686D01*
X038192Y047000D01*
X037016Y047056D02*
X035898Y047056D01*
X034242Y045400D01*
X034242Y030000D01*
X033642Y029400D01*
X029792Y029400D01*
X028192Y027800D01*
X028192Y026000D01*
X026063Y023870D01*
X025638Y023870D01*
X025638Y023615D02*
X026157Y023615D01*
X028442Y025900D01*
X028442Y027700D01*
X029942Y029200D01*
X033692Y029200D01*
X034392Y029900D01*
X034392Y045250D01*
X035883Y046741D01*
X037016Y046741D01*
X037016Y046426D02*
X035868Y046426D01*
X034542Y045100D01*
X034542Y029800D01*
X033742Y029000D01*
X030092Y029000D01*
X028642Y027550D01*
X028642Y025750D01*
X026251Y023359D01*
X025638Y023359D01*
X025638Y023103D02*
X026345Y023103D01*
X028892Y025650D01*
X028892Y027450D01*
X030242Y028800D01*
X033792Y028800D01*
X034692Y029700D01*
X034692Y044850D01*
X035942Y046100D01*
X037005Y046100D01*
X037016Y046111D01*
X037020Y045800D02*
X037016Y045796D01*
X037020Y045800D02*
X037042Y045800D01*
X037020Y045800D02*
X036242Y045800D01*
X034842Y044400D01*
X034842Y029600D01*
X033842Y028600D01*
X030392Y028600D01*
X029142Y027350D01*
X029142Y025600D01*
X026389Y022847D01*
X025638Y022847D01*
X025638Y022591D02*
X026433Y022591D01*
X029342Y025500D01*
X029342Y027300D01*
X030442Y028400D01*
X033942Y028400D01*
X034992Y029450D01*
X034992Y044250D01*
X036217Y045475D01*
X037067Y045475D01*
X037042Y045455D01*
X037016Y045481D01*
X037016Y045166D02*
X037576Y045166D01*
X037692Y044550D02*
X037030Y044550D01*
X037016Y044536D01*
X037015Y044850D02*
X036592Y044850D01*
X035992Y044250D01*
X035992Y044200D01*
X036542Y044200D02*
X035242Y042900D01*
X035242Y024050D01*
X035092Y023900D01*
X035092Y023750D01*
X035392Y022950D02*
X035192Y022750D01*
X035392Y022950D02*
X035392Y039900D01*
X036564Y041072D01*
X037016Y041072D01*
X037042Y041350D02*
X037055Y041363D01*
X037031Y041387D01*
X037016Y041387D01*
X037042Y041350D02*
X036392Y041350D01*
X036599Y040757D02*
X035542Y039700D01*
X035542Y021950D01*
X035342Y021750D01*
X035692Y020900D02*
X035542Y020750D01*
X035692Y020900D02*
X035692Y039500D01*
X036634Y040442D01*
X037016Y040442D01*
X037016Y040757D02*
X036599Y040757D01*
X036569Y040127D02*
X035842Y039400D01*
X035842Y019900D01*
X035692Y019750D01*
X035992Y018950D02*
X035792Y018750D01*
X035992Y018950D02*
X035992Y039300D01*
X036504Y039812D01*
X037016Y039812D01*
X037016Y040127D02*
X036569Y040127D01*
X036489Y039497D02*
X036142Y039150D01*
X036142Y017900D01*
X035942Y017750D01*
X036292Y017050D02*
X035992Y016750D01*
X036292Y017050D02*
X036292Y038950D01*
X036524Y039182D01*
X037016Y039182D01*
X037016Y039497D02*
X036489Y039497D01*
X036592Y038867D02*
X036442Y038717D01*
X036442Y016550D01*
X037192Y015800D01*
X038192Y015800D01*
X039442Y014900D02*
X038342Y013800D01*
X037792Y013800D01*
X038392Y013500D02*
X039592Y014700D01*
X039592Y027200D01*
X045892Y033500D01*
X047342Y033500D01*
X047642Y033800D01*
X047642Y034750D01*
X049067Y036175D01*
X049303Y036175D01*
X049342Y036185D01*
X049301Y036400D02*
X049042Y036400D01*
X047492Y034850D01*
X047492Y033900D01*
X047342Y033750D01*
X045792Y033750D01*
X039442Y027400D01*
X039442Y014900D01*
X039742Y014100D02*
X038792Y013150D01*
X038742Y013150D01*
X038992Y012800D02*
X038392Y012800D01*
X037992Y012500D02*
X039092Y012500D01*
X040042Y013450D01*
X040042Y026700D01*
X046142Y032800D01*
X047442Y032800D01*
X048092Y033450D01*
X048092Y034400D01*
X049092Y035400D01*
X049324Y035400D01*
X049342Y035418D01*
X049319Y035650D02*
X049092Y035650D01*
X047942Y034500D01*
X047942Y033550D01*
X047392Y033000D01*
X046042Y033000D01*
X039892Y026850D01*
X039892Y013700D01*
X038992Y012800D01*
X037992Y012500D02*
X037792Y012650D01*
X036892Y011200D02*
X036992Y011100D01*
X038592Y011100D01*
X037992Y010500D02*
X037992Y010260D01*
X038002Y009850D01*
X037692Y009350D02*
X038442Y008600D01*
X038442Y007400D01*
X037892Y006850D01*
X037234Y006850D01*
X037242Y006859D01*
X037228Y007100D02*
X037242Y007115D01*
X037228Y007100D02*
X036942Y007100D01*
X036842Y007200D01*
X036392Y007200D01*
X036192Y007000D01*
X036192Y006500D01*
X036522Y006820D02*
X036742Y006600D01*
X037239Y006600D01*
X037242Y006603D01*
X037245Y006350D02*
X037242Y006347D01*
X037245Y006350D02*
X036892Y006350D01*
X036742Y006200D01*
X036642Y006200D01*
X037242Y006091D02*
X037242Y005835D01*
X036532Y006820D02*
X036522Y006820D01*
X036742Y007400D02*
X037213Y007400D01*
X037242Y007370D01*
X037269Y007600D02*
X037242Y007626D01*
X037269Y007600D02*
X037842Y007600D01*
X037242Y007882D02*
X037224Y007900D01*
X036342Y007900D01*
X035892Y007450D01*
X035342Y007450D01*
X035192Y007300D01*
X035192Y006650D01*
X035392Y006450D01*
X035392Y006000D01*
X035192Y005800D01*
X035192Y005529D01*
X035122Y006180D02*
X035042Y006260D01*
X035042Y007300D01*
X034942Y007400D01*
X034792Y007400D01*
X034692Y007500D01*
X034692Y007740D01*
X034692Y007060D02*
X034672Y006990D01*
X034672Y004013D01*
X034869Y004013D02*
X034869Y004526D01*
X035192Y004849D01*
X035642Y004200D02*
X035642Y006500D01*
X035542Y006600D01*
X035542Y007060D01*
X035542Y007740D02*
X035782Y007740D01*
X036142Y008100D01*
X037204Y008100D01*
X037242Y008138D01*
X036542Y007600D02*
X036742Y007400D01*
X035542Y008400D02*
X035342Y008200D01*
X034142Y008200D01*
X033992Y008050D01*
X033992Y007740D01*
X033992Y007060D02*
X033992Y006800D01*
X034292Y006500D01*
X034292Y003988D01*
X034278Y004013D01*
X034081Y004013D02*
X034081Y004721D01*
X033942Y004849D01*
X033692Y004450D02*
X033692Y003979D01*
X033687Y004013D01*
X033491Y004013D02*
X033492Y003976D01*
X033492Y004400D01*
X033043Y004849D01*
X032642Y004849D01*
X032292Y004539D02*
X032192Y004639D01*
X032192Y006660D01*
X032592Y007060D01*
X033292Y007060D02*
X033292Y004850D01*
X033692Y004450D01*
X033097Y004435D02*
X033097Y004013D01*
X033097Y004435D02*
X032992Y004539D01*
X032292Y004539D01*
X032310Y004013D02*
X032310Y003263D01*
X032312Y003260D01*
X032312Y002110D01*
X032792Y002060D02*
X032792Y002940D01*
X032512Y003180D01*
X032512Y003968D01*
X032506Y004013D01*
X031916Y004013D02*
X031892Y003998D01*
X031892Y004900D01*
X033942Y005529D02*
X033942Y005900D01*
X033792Y006050D01*
X033792Y006260D01*
X033292Y007760D02*
X033292Y008150D01*
X033542Y008450D01*
X034992Y008450D01*
X035892Y009350D01*
X036842Y011200D02*
X036892Y011200D01*
X039742Y014100D02*
X039742Y027050D01*
X045942Y033250D01*
X047367Y033250D01*
X047792Y033675D01*
X047792Y034600D01*
X049117Y035925D01*
X049338Y035925D01*
X049342Y035930D01*
X049342Y035674D02*
X049319Y035650D01*
X049342Y035162D02*
X049330Y035150D01*
X049092Y035150D01*
X048242Y034300D01*
X048242Y033325D01*
X047517Y032600D01*
X046242Y032600D01*
X040192Y026550D01*
X040192Y012700D01*
X041042Y014175D02*
X040342Y014875D01*
X040342Y026350D01*
X046342Y032350D01*
X047642Y032350D01*
X048842Y033550D01*
X048942Y033600D01*
X048942Y033700D01*
X049042Y033700D01*
X048942Y033350D02*
X047742Y032150D01*
X046492Y032150D01*
X040492Y026150D01*
X040492Y018250D01*
X040642Y018100D01*
X038192Y024750D02*
X038042Y024750D01*
X037592Y025150D01*
X037592Y028900D01*
X037942Y029250D01*
X038392Y029250D01*
X039392Y030300D01*
X039392Y037150D01*
X039542Y037300D01*
X039542Y037800D01*
X039392Y037950D01*
X039392Y038183D01*
X039446Y038237D01*
X039448Y038550D02*
X039446Y038552D01*
X039448Y038550D02*
X039892Y038550D01*
X039942Y038500D01*
X039942Y029750D01*
X039042Y028900D01*
X038842Y028900D01*
X038692Y028250D02*
X040092Y029600D01*
X040092Y038700D01*
X039942Y038850D01*
X039463Y038850D01*
X039446Y038867D01*
X039489Y039175D02*
X039446Y039182D01*
X039489Y039175D02*
X039867Y039175D01*
X040242Y038800D01*
X040242Y029450D01*
X038542Y027850D01*
X038192Y027750D01*
X037742Y028000D02*
X037742Y027400D01*
X038192Y026950D01*
X038192Y026750D01*
X038692Y026050D02*
X038842Y026150D01*
X038842Y027700D01*
X038692Y028250D02*
X037992Y028250D01*
X037742Y028000D01*
X038192Y029750D02*
X038942Y030500D01*
X038942Y032350D01*
X038642Y032650D01*
X038642Y037000D01*
X038542Y037100D01*
X038542Y038050D01*
X038642Y038150D01*
X038642Y039400D01*
X039042Y039800D01*
X039292Y039800D01*
X039484Y039850D01*
X039446Y039812D01*
X039419Y040100D02*
X039092Y040100D01*
X038442Y039450D01*
X038442Y038225D01*
X038342Y038125D01*
X038342Y037000D01*
X038467Y036875D01*
X038442Y032400D01*
X038692Y032150D01*
X038692Y031500D01*
X038192Y031000D01*
X038192Y030750D01*
X038242Y031750D02*
X038267Y036775D01*
X038142Y036900D01*
X038142Y038175D01*
X038242Y038275D01*
X038242Y039600D01*
X039092Y040450D01*
X039442Y040450D01*
X039446Y040446D01*
X039446Y040442D01*
X039442Y040450D02*
X039492Y040450D01*
X039452Y040750D02*
X039446Y040757D01*
X039489Y040800D01*
X040842Y040800D01*
X043842Y037800D01*
X043842Y036100D01*
X044951Y034991D01*
X045577Y034991D01*
X045577Y035247D02*
X044995Y035247D01*
X044042Y036200D01*
X044042Y037900D01*
X040842Y041100D01*
X039474Y041100D01*
X039446Y041072D01*
X039446Y041387D02*
X039459Y041400D01*
X040842Y041400D01*
X044242Y038000D01*
X044242Y036300D01*
X045039Y035503D01*
X045577Y035503D01*
X045577Y035759D02*
X045084Y035759D01*
X044442Y036400D01*
X044442Y038100D01*
X040842Y041700D01*
X039447Y041700D01*
X039446Y041702D01*
X039477Y042300D02*
X039446Y042331D01*
X039589Y042325D01*
X040517Y042325D01*
X044642Y038200D01*
X044642Y036500D01*
X045128Y036015D01*
X045577Y036015D01*
X045577Y036270D02*
X045172Y036270D01*
X044842Y036600D01*
X044842Y038300D01*
X040492Y042650D01*
X039549Y042650D01*
X039446Y042646D01*
X039509Y042950D02*
X039446Y042961D01*
X039509Y042950D02*
X040467Y042950D01*
X045042Y038400D01*
X045042Y036700D01*
X045216Y036526D01*
X045577Y036526D01*
X045577Y036782D02*
X045260Y036782D01*
X045242Y036800D01*
X045242Y038500D01*
X040467Y043275D01*
X039494Y043275D01*
X039446Y043276D01*
X039446Y043591D02*
X040551Y043591D01*
X046542Y037600D01*
X046542Y037400D01*
X046742Y037200D01*
X047148Y037200D01*
X047157Y037209D01*
X047157Y036953D02*
X047210Y036950D01*
X047392Y036950D01*
X047542Y037100D01*
X047542Y037700D01*
X041342Y043900D01*
X039442Y043900D01*
X039446Y043904D01*
X039446Y043906D01*
X039446Y044221D02*
X041321Y044221D01*
X047742Y037800D01*
X047742Y036900D01*
X047542Y036700D01*
X047160Y036700D01*
X047157Y036697D01*
X047191Y036450D02*
X047157Y036441D01*
X047191Y036450D02*
X047617Y036450D01*
X047942Y036800D01*
X047942Y037900D01*
X041306Y044536D01*
X039446Y044536D01*
X039446Y044851D02*
X041291Y044851D01*
X048142Y038000D01*
X048142Y036600D01*
X047717Y036175D01*
X047147Y036175D01*
X047157Y036185D01*
X047157Y035930D02*
X047212Y035925D01*
X047767Y035925D01*
X048342Y036500D01*
X048342Y038100D01*
X040961Y045481D01*
X039446Y045481D01*
X039446Y045796D02*
X040946Y045796D01*
X048542Y038200D01*
X048542Y036400D01*
X047817Y035675D01*
X047159Y035675D01*
X047157Y035674D01*
X047125Y035425D02*
X047157Y035418D01*
X047125Y035425D02*
X047817Y035425D01*
X048742Y036350D01*
X048742Y038300D01*
X040931Y046111D01*
X039446Y046111D01*
X039446Y046426D02*
X044518Y046426D01*
X045992Y047900D01*
X045992Y051550D01*
X044792Y052750D01*
X036892Y052750D01*
X032342Y048200D01*
X032342Y041750D01*
X031842Y042250D02*
X029642Y040050D01*
X029642Y041050D02*
X031642Y043050D01*
X031642Y048250D01*
X037042Y053650D01*
X045692Y053650D01*
X046492Y052850D01*
X046492Y042700D01*
X048436Y040757D01*
X052764Y040757D01*
X052764Y041072D02*
X048471Y041072D01*
X046692Y042850D01*
X046692Y052950D01*
X045842Y053800D01*
X036892Y053800D01*
X031442Y048350D01*
X031442Y043850D01*
X029642Y042050D01*
X029642Y043050D02*
X031242Y044650D01*
X031242Y048450D01*
X036742Y053950D01*
X046042Y053950D01*
X046892Y053100D01*
X046892Y043000D01*
X048506Y041387D01*
X052764Y041387D01*
X052764Y041702D02*
X048541Y041702D01*
X047092Y043150D01*
X047092Y053250D01*
X046242Y054100D01*
X036542Y054100D01*
X031042Y048600D01*
X031042Y045450D01*
X029642Y044050D01*
X029642Y045050D02*
X030842Y046250D01*
X030842Y048700D01*
X036392Y054250D01*
X046392Y054250D01*
X047292Y053350D01*
X047292Y043600D01*
X048561Y042331D01*
X052764Y042331D01*
X052764Y042646D02*
X048596Y042646D01*
X048392Y042850D01*
X048392Y052600D01*
X046592Y054400D01*
X036242Y054400D01*
X030642Y048800D01*
X030642Y047100D01*
X029592Y046050D01*
X029642Y047050D02*
X030442Y047900D01*
X030442Y048900D01*
X035992Y054550D01*
X046792Y054550D01*
X048592Y052750D01*
X048592Y043150D01*
X048781Y042961D01*
X052764Y042961D01*
X052764Y043276D02*
X048966Y043276D01*
X048792Y043450D01*
X048792Y052900D01*
X046992Y054700D01*
X035842Y054700D01*
X030192Y049050D01*
X030192Y048600D01*
X029642Y048050D01*
X029642Y049050D02*
X029842Y049050D01*
X035642Y054850D01*
X047142Y054850D01*
X048992Y053000D01*
X048992Y043750D01*
X049151Y043591D01*
X052764Y043591D01*
X052764Y043906D02*
X049336Y043906D01*
X049192Y044050D01*
X049192Y053150D01*
X047342Y055000D01*
X035442Y055000D01*
X030492Y050050D01*
X029642Y050050D01*
X029642Y051050D02*
X031192Y051050D01*
X035292Y055150D01*
X047492Y055150D01*
X049392Y053250D01*
X049392Y044350D01*
X049521Y044221D01*
X052764Y044221D01*
X052764Y044536D02*
X049706Y044536D01*
X049592Y044650D01*
X049592Y053400D01*
X047692Y055300D01*
X035142Y055300D01*
X031892Y052050D01*
X029642Y052050D01*
X029642Y053050D02*
X032592Y053050D01*
X034992Y055450D01*
X047942Y055450D01*
X049792Y053600D01*
X049792Y044950D01*
X049891Y044851D01*
X052764Y044851D01*
X052764Y045481D02*
X050361Y045481D01*
X049992Y045850D01*
X049992Y053700D01*
X048092Y055600D01*
X030242Y055600D01*
X026142Y059700D01*
X022942Y059700D01*
X022342Y060300D01*
X022342Y060400D01*
X022402Y060200D01*
X022402Y061440D01*
X022042Y061600D01*
X023042Y061600D02*
X023082Y061640D01*
X023082Y060200D01*
X022442Y060400D02*
X022402Y060200D01*
X020642Y062200D02*
X020042Y062600D01*
X020642Y062200D02*
X024542Y062200D01*
X024642Y062100D01*
X024742Y061360D02*
X024782Y061360D01*
X030392Y055750D01*
X048292Y055750D01*
X050192Y053850D01*
X050192Y045950D01*
X050346Y045796D01*
X052764Y045796D01*
X052800Y047650D02*
X052764Y047686D01*
X055194Y045166D02*
X055210Y045150D01*
X055742Y045150D01*
X055867Y045125D01*
X056442Y042800D02*
X055726Y042017D01*
X055194Y042017D01*
X055177Y042000D01*
X052764Y040442D02*
X048400Y040442D01*
X046292Y042550D01*
X046292Y052750D01*
X045542Y053500D01*
X037142Y053500D01*
X031842Y048200D01*
X031842Y042250D01*
X032542Y040950D02*
X032542Y048150D01*
X036992Y052600D01*
X044642Y052600D01*
X045792Y051450D01*
X045792Y048000D01*
X044533Y046741D01*
X039446Y046741D01*
X039446Y047056D02*
X044448Y047056D01*
X045592Y048200D01*
X045592Y051350D01*
X044492Y052450D01*
X037092Y052450D01*
X032742Y048100D01*
X032742Y040150D01*
X036592Y038867D02*
X037016Y038867D01*
X037016Y038552D02*
X037018Y038550D01*
X037055Y041363D02*
X037092Y041400D01*
X037017Y041700D02*
X037016Y041702D01*
X037017Y041700D02*
X037592Y041700D01*
X037792Y042025D02*
X038001Y041817D01*
X038026Y041817D01*
X037792Y042025D02*
X037042Y042025D01*
X037016Y042017D01*
X037016Y042331D02*
X037034Y042350D01*
X037942Y042350D01*
X037542Y042650D02*
X037019Y042650D01*
X037016Y042646D01*
X037017Y042950D02*
X037016Y042951D01*
X037016Y042961D01*
X037017Y042950D02*
X036992Y042950D01*
X037017Y042950D02*
X038342Y042950D01*
X038042Y043250D02*
X037892Y043150D01*
X037542Y043150D01*
X037392Y043300D01*
X037039Y043300D01*
X037016Y043276D01*
X037057Y043550D02*
X037016Y043591D01*
X037057Y043550D02*
X037692Y043550D01*
X038042Y043900D02*
X037042Y043900D01*
X036992Y043950D01*
X036992Y043900D01*
X037010Y043900D01*
X037016Y043906D01*
X036992Y043900D02*
X037042Y043850D01*
X036995Y044200D02*
X037016Y044221D01*
X036995Y044200D02*
X036542Y044200D01*
X037015Y044850D02*
X037016Y044851D01*
X037016Y047371D02*
X035963Y047371D01*
X034092Y045500D01*
X034092Y030100D01*
X033592Y029600D01*
X029692Y029600D01*
X027992Y027900D01*
X027992Y026100D01*
X026019Y024126D01*
X025638Y024126D01*
X025638Y024382D02*
X025974Y024382D01*
X027792Y026200D01*
X027792Y028050D01*
X029592Y029850D01*
X033592Y029850D01*
X033942Y030200D01*
X033942Y045650D01*
X035978Y047686D01*
X037016Y047686D01*
X037016Y048001D02*
X035993Y048001D01*
X033792Y045800D01*
X033792Y030300D01*
X033542Y030050D01*
X029492Y030050D01*
X029442Y030000D01*
X027292Y027900D01*
X025707Y027900D01*
X025677Y027870D01*
X025713Y027650D02*
X025677Y027615D01*
X025713Y027650D02*
X026992Y027650D01*
X027092Y027550D01*
X027142Y027550D01*
X026442Y027200D02*
X026292Y027350D01*
X025942Y027350D01*
X025677Y028126D02*
X026419Y028126D01*
X027442Y029150D01*
X026842Y029100D02*
X026124Y028382D01*
X025677Y028382D01*
X025677Y028638D02*
X025665Y028650D01*
X025677Y028894D02*
X025677Y029150D01*
X027142Y028350D02*
X027442Y028350D01*
X029392Y030300D01*
X033492Y030300D01*
X033642Y030450D01*
X033642Y045950D01*
X036008Y048316D01*
X037016Y048316D01*
X037016Y049891D02*
X036977Y049891D01*
X036967Y049900D01*
X039446Y050520D02*
X039485Y050560D01*
X041892Y050550D02*
X042342Y050550D01*
X042342Y050560D01*
X042282Y050560D01*
X042342Y050550D02*
X042342Y050500D01*
X042342Y051240D02*
X042407Y051240D01*
X042417Y051250D01*
X043342Y051041D02*
X043377Y051000D01*
X043342Y051041D02*
X043342Y050700D01*
X041992Y049350D01*
X041408Y048316D02*
X039446Y048316D01*
X039446Y048001D02*
X041893Y048001D01*
X041942Y048050D01*
X041992Y048000D01*
X042467Y048000D01*
X043352Y048884D01*
X043342Y048884D01*
X043342Y049900D01*
X043377Y049780D01*
X043547Y049830D02*
X043567Y049775D01*
X043574Y049780D02*
X043547Y049830D01*
X043942Y049800D02*
X043967Y049825D01*
X043963Y049830D01*
X043968Y049780D01*
X043967Y049825D02*
X043992Y049850D01*
X044242Y049850D01*
X043892Y050650D02*
X043767Y050800D01*
X043767Y051053D01*
X043771Y051000D01*
X043968Y051000D02*
X043942Y051450D01*
X043567Y051398D02*
X043549Y051294D01*
X043574Y051000D01*
X043892Y050650D02*
X044592Y050650D01*
X044742Y050800D01*
X044742Y050850D01*
X039446Y040127D02*
X039419Y040100D01*
X042542Y037250D02*
X042542Y037200D01*
X042942Y036800D01*
X043374Y036800D01*
X043392Y036782D01*
X043369Y036550D02*
X042642Y036550D01*
X042392Y036800D01*
X042392Y036850D01*
X042242Y036450D02*
X042442Y036250D01*
X043372Y036250D01*
X043392Y036270D01*
X043392Y036015D02*
X043378Y036000D01*
X042192Y036000D01*
X042142Y036050D01*
X042442Y035800D02*
X043351Y035800D01*
X043392Y035759D01*
X043392Y035503D02*
X043395Y035500D01*
X043442Y035500D01*
X043395Y035500D02*
X042992Y035500D01*
X042742Y035250D01*
X041992Y035250D01*
X042342Y035650D02*
X042342Y035700D01*
X042442Y035800D01*
X042242Y036450D02*
X042192Y036450D01*
X042942Y037100D02*
X042992Y037050D01*
X043380Y037050D01*
X043392Y037038D01*
X042942Y037100D02*
X042942Y037700D01*
X043369Y036550D02*
X043392Y036526D01*
X043392Y035247D02*
X043345Y035200D01*
X043092Y035200D01*
X042692Y034800D01*
X041042Y035550D02*
X041032Y035550D01*
X040992Y035590D01*
X041017Y036200D02*
X040957Y036260D01*
X040942Y036210D01*
X038284Y031792D02*
X038242Y031750D01*
X038284Y031792D02*
X038150Y031792D01*
X038692Y026050D02*
X038192Y025750D01*
X034442Y025975D02*
X034342Y026050D01*
X033292Y024740D02*
X033332Y024700D01*
X032652Y024700D02*
X031682Y024700D01*
X031682Y025060D01*
X031342Y025400D01*
X031342Y025900D01*
X031192Y026050D01*
X030811Y026050D01*
X030392Y026050D01*
X030242Y026200D01*
X030002Y026200D01*
X029992Y026190D01*
X030811Y026424D02*
X030811Y027211D01*
X030772Y027250D01*
X030811Y025676D02*
X030811Y025281D01*
X030992Y025100D01*
X030992Y024710D01*
X031002Y024700D01*
X031002Y023590D01*
X031042Y023550D01*
X030502Y022650D02*
X029802Y021950D01*
X030502Y022650D02*
X032142Y022650D01*
X031132Y021200D02*
X031132Y021050D01*
X031142Y021050D01*
X031142Y020750D01*
X031092Y020700D01*
X030892Y020700D01*
X030742Y020550D01*
X030742Y020212D01*
X031116Y020212D02*
X031116Y019874D01*
X030992Y019750D01*
X027980Y019750D01*
X028942Y019100D02*
X028942Y016581D01*
X029316Y016581D02*
X029874Y016581D01*
X030342Y017050D01*
X030342Y017360D01*
X030392Y019188D02*
X030368Y019188D01*
X030392Y019188D02*
X030392Y019550D01*
X031116Y019550D01*
X031116Y019188D01*
X031892Y019200D02*
X031980Y019188D01*
X031892Y019200D02*
X032242Y019250D01*
X032242Y020550D02*
X032092Y020600D01*
X032242Y020650D01*
X031204Y020300D02*
X031116Y020212D01*
X028942Y020650D02*
X028942Y021100D01*
X028942Y021850D01*
X028982Y021860D01*
X029042Y021910D01*
X029032Y021900D01*
X028192Y021900D01*
X028192Y022580D02*
X028112Y022600D01*
X028192Y022580D02*
X028212Y022590D01*
X029042Y022590D01*
X025642Y022300D02*
X025638Y022335D01*
X025642Y022300D02*
X024942Y022300D01*
X024892Y022350D01*
X025242Y021550D02*
X025542Y021250D01*
X025542Y020250D01*
X025352Y020060D01*
X025142Y020060D01*
X025142Y019400D01*
X026042Y018500D01*
X026042Y017750D01*
X025442Y017375D02*
X025766Y017051D01*
X025766Y016581D01*
X026592Y016250D02*
X025861Y015519D01*
X025766Y015519D01*
X024992Y015550D02*
X024982Y015540D01*
X026592Y016250D02*
X026592Y016750D01*
X027192Y017350D01*
X027192Y017550D01*
X027442Y017100D02*
X027742Y017100D01*
X027742Y018350D01*
X027192Y018350D01*
X027742Y018350D02*
X028292Y018350D01*
X027442Y017100D02*
X027292Y016950D01*
X027292Y016200D01*
X026942Y015850D01*
X026942Y015543D01*
X026918Y015519D01*
X027666Y016581D02*
X027961Y016581D01*
X028642Y015900D01*
X028842Y015900D01*
X028942Y015800D01*
X028942Y015519D01*
X025442Y017375D02*
X025442Y018825D01*
X024642Y019625D01*
X024642Y021200D01*
X024132Y021200D01*
X024642Y021200D02*
X024985Y021200D01*
X025135Y021053D01*
X025142Y020740D01*
X023992Y022600D02*
X023501Y022600D01*
X023453Y022591D01*
X023453Y022335D01*
X023453Y022847D02*
X023495Y022850D01*
X022942Y022850D01*
X022592Y022500D01*
X022542Y022500D01*
X022542Y022950D02*
X022692Y023100D01*
X023489Y023100D01*
X023453Y023103D01*
X023484Y023350D02*
X023453Y023359D01*
X023484Y023350D02*
X022992Y023350D01*
X022942Y023400D01*
X022542Y023400D01*
X022542Y023850D02*
X022792Y023850D01*
X023042Y023600D01*
X023478Y023600D01*
X023453Y023615D01*
X023472Y023850D02*
X023453Y023870D01*
X023472Y023850D02*
X023142Y023850D01*
X022842Y024150D01*
X022442Y024150D01*
X021842Y023550D01*
X014742Y023550D01*
X014373Y023920D01*
X014373Y025024D01*
X014632Y025024D02*
X014632Y024565D01*
X014717Y024500D01*
X014892Y025024D02*
X015168Y025024D01*
X015217Y024975D01*
X015613Y025024D02*
X015613Y025585D01*
X015677Y025650D01*
X015257Y025660D01*
X015873Y025024D02*
X015873Y023970D01*
X016142Y023700D01*
X021742Y023700D01*
X022392Y024350D01*
X022892Y024350D01*
X023092Y024150D01*
X023469Y024150D01*
X023453Y024126D01*
X023453Y024382D02*
X023474Y024400D01*
X023092Y024400D01*
X022942Y024550D01*
X022342Y024550D01*
X021642Y023850D01*
X017642Y023850D01*
X017373Y024120D01*
X017373Y025049D01*
X017167Y025104D02*
X017113Y025049D01*
X017167Y025104D02*
X017167Y025640D01*
X017177Y025650D01*
X017167Y025640D02*
X017113Y025585D01*
X017167Y025640D02*
X016767Y025650D01*
X016718Y025024D02*
X016767Y024975D01*
X016718Y025024D02*
X016392Y025024D01*
X016132Y025024D02*
X016132Y024560D01*
X016142Y024550D01*
X016132Y023150D02*
X016142Y023140D01*
X016142Y022200D01*
X015442Y021500D01*
X015442Y020490D01*
X015992Y020260D02*
X015442Y019810D01*
X015992Y020260D02*
X016092Y020160D01*
X016092Y019100D01*
X015692Y018700D01*
X015192Y018700D01*
X014692Y018200D01*
X014692Y017750D01*
X015042Y017400D01*
X015679Y017400D01*
X015679Y017900D02*
X015042Y017900D01*
X015679Y018400D02*
X016492Y018400D01*
X016592Y018500D01*
X016592Y018750D01*
X017142Y018750D02*
X017442Y018400D01*
X017805Y018400D01*
X017805Y017900D02*
X016692Y017900D01*
X016542Y017750D01*
X016192Y016900D02*
X015679Y016900D01*
X014979Y016900D01*
X014882Y016800D01*
X015292Y016400D02*
X015679Y016400D01*
X015292Y016400D02*
X015092Y016200D01*
X014392Y016200D01*
X014202Y016800D02*
X013592Y016800D01*
X013167Y016350D01*
X013167Y016225D01*
X013592Y015900D02*
X015679Y015900D01*
X015679Y015400D02*
X015679Y014887D01*
X016342Y015700D02*
X016542Y015900D01*
X017805Y015900D01*
X017805Y016400D02*
X017392Y016400D01*
X017242Y016550D01*
X017242Y017050D01*
X017342Y017150D01*
X018742Y017150D01*
X018942Y017350D01*
X018942Y019635D01*
X018692Y019885D01*
X018592Y019885D01*
X018942Y020260D01*
X018592Y019885D02*
X018242Y019860D01*
X018242Y020540D02*
X018242Y021400D01*
X019092Y022250D01*
X019092Y023140D01*
X019332Y023140D01*
X019342Y023150D01*
X019092Y023140D02*
X019082Y023150D01*
X018823Y023150D02*
X018823Y022680D01*
X018692Y022550D01*
X017892Y023175D02*
X017632Y023175D01*
X017642Y023165D01*
X017642Y022200D01*
X016842Y021400D01*
X016842Y020540D01*
X017242Y020260D02*
X017542Y020260D01*
X017542Y019500D01*
X018182Y018860D01*
X018292Y018760D01*
X018292Y017500D01*
X018192Y017400D01*
X017805Y017400D01*
X016342Y016800D02*
X016192Y016900D01*
X017805Y015400D02*
X017805Y014713D01*
X017592Y014500D01*
X017092Y014500D01*
X019382Y016750D02*
X019392Y016850D01*
X016842Y019860D02*
X017242Y020260D01*
X017492Y020900D02*
X017532Y021040D01*
X017532Y021340D01*
X017542Y020940D02*
X017492Y020900D01*
X018942Y020940D02*
X018932Y021340D01*
X017373Y022580D02*
X017373Y023175D01*
X016392Y023150D02*
X016132Y023150D01*
X015873Y023150D02*
X015873Y022630D01*
X014892Y023150D02*
X014632Y023150D01*
X014642Y023140D01*
X014642Y022100D01*
X014042Y021500D01*
X014042Y020540D01*
X014542Y020260D02*
X014042Y019860D01*
X014542Y020260D02*
X014742Y020260D01*
X014742Y019600D01*
X014242Y019100D01*
X014242Y017550D01*
X014392Y017400D01*
X014392Y017300D01*
X015992Y020260D02*
X016142Y020260D01*
X016142Y020940D02*
X016142Y020950D01*
X016132Y020940D01*
X016132Y021390D01*
X014732Y021390D02*
X014732Y021090D01*
X014742Y020950D01*
X014742Y020940D01*
X014323Y022530D02*
X014373Y022580D01*
X014373Y023150D01*
X014113Y025024D02*
X014113Y025575D01*
X014177Y025640D01*
X013757Y025660D01*
X011142Y023650D02*
X010642Y023650D01*
X010442Y023850D01*
X007292Y023850D01*
X007123Y024020D01*
X007123Y024974D01*
X007382Y024974D02*
X007391Y024974D01*
X007392Y024975D01*
X007392Y024925D01*
X007382Y024935D01*
X007392Y024964D02*
X007382Y024974D01*
X007392Y024964D02*
X007392Y024500D01*
X007542Y024350D01*
X006863Y024974D02*
X006863Y025560D01*
X006902Y025600D01*
X006492Y024975D02*
X006491Y024974D01*
X006142Y024974D01*
X005882Y024974D02*
X005882Y024365D01*
X006067Y024350D01*
X005623Y023970D02*
X005892Y023700D01*
X010342Y023700D01*
X010692Y023350D01*
X011392Y023350D01*
X011692Y023050D02*
X010742Y023050D01*
X010242Y023550D01*
X004642Y023550D01*
X004123Y024070D01*
X004123Y024974D01*
X004382Y024974D02*
X004382Y024460D01*
X004392Y024450D01*
X004642Y024974D02*
X004991Y024974D01*
X004992Y024975D01*
X005363Y024974D02*
X005363Y025560D01*
X005402Y025600D01*
X005623Y024974D02*
X005623Y023970D01*
X005623Y023100D02*
X005623Y022680D01*
X005542Y022600D01*
X005670Y022328D02*
X005892Y022550D01*
X005892Y023090D01*
X006132Y023090D01*
X006142Y023100D01*
X005892Y023090D02*
X005882Y023100D01*
X005670Y022328D02*
X005670Y020468D01*
X005492Y020290D01*
X005492Y019610D02*
X005502Y019600D01*
X006142Y019600D01*
X006192Y019650D01*
X006192Y020010D01*
X006892Y020290D02*
X006892Y022050D01*
X007392Y022550D01*
X007392Y023090D01*
X007632Y023090D01*
X007642Y023100D01*
X007392Y023090D02*
X007382Y023100D01*
X007123Y023100D02*
X007123Y022730D01*
X008542Y022600D02*
X008623Y022680D01*
X008623Y023100D01*
X008882Y023100D02*
X009142Y023100D01*
X008892Y023090D02*
X008892Y022500D01*
X008842Y022450D01*
X008842Y020390D01*
X008842Y019710D02*
X008992Y019710D01*
X008992Y016500D01*
X008892Y016400D01*
X007555Y016400D01*
X007555Y015900D02*
X008392Y015900D01*
X008692Y015600D01*
X008692Y015050D01*
X007555Y015400D02*
X007492Y015400D01*
X007042Y014950D01*
X007042Y015000D01*
X006192Y014450D02*
X006192Y015550D01*
X005792Y015900D01*
X005429Y015900D01*
X005429Y016400D02*
X004292Y016400D01*
X004092Y016200D01*
X003442Y016200D01*
X003342Y016300D01*
X003342Y018300D01*
X003742Y018700D01*
X004792Y018700D01*
X004792Y020010D01*
X004442Y020010D01*
X004042Y019610D01*
X004042Y020290D02*
X004070Y020318D01*
X004070Y022078D01*
X004392Y022400D01*
X004392Y023090D01*
X004632Y023090D01*
X004642Y023100D01*
X004392Y023090D02*
X004382Y023100D01*
X004123Y023100D02*
X004123Y022580D01*
X003863Y024974D02*
X003863Y025560D01*
X003902Y025600D01*
X008363Y025575D02*
X008402Y025615D01*
X008363Y025525D01*
X008363Y024974D01*
X008623Y024974D02*
X008623Y024220D01*
X008842Y024000D01*
X010942Y024000D01*
X008992Y024350D02*
X008892Y024450D01*
X008892Y024884D01*
X008882Y024974D01*
X008882Y023100D02*
X008892Y023090D01*
X009542Y020400D02*
X009692Y020400D01*
X009542Y019710D02*
X008992Y019710D01*
X007592Y019750D02*
X007592Y019250D01*
X008592Y018250D01*
X008592Y017600D01*
X008392Y017400D01*
X007555Y017400D01*
X007555Y017900D02*
X008242Y017900D01*
X007555Y018400D02*
X006892Y018400D01*
X006592Y018750D01*
X006192Y018250D02*
X006192Y018100D01*
X006242Y018200D01*
X006042Y018400D01*
X005429Y018400D01*
X005429Y017900D02*
X006942Y017900D01*
X006442Y017150D02*
X006692Y016900D01*
X006442Y017150D02*
X004392Y017150D01*
X003842Y017700D01*
X003842Y016700D02*
X004532Y016700D01*
X004642Y016740D01*
X004542Y016700D02*
X004532Y016700D01*
X004542Y016700D02*
X004742Y016900D01*
X005429Y016900D01*
X005429Y017400D02*
X004992Y017400D01*
X004892Y017500D01*
X004892Y018510D01*
X005492Y019110D01*
X005492Y019610D01*
X006892Y019610D02*
X006902Y019600D01*
X007442Y019600D01*
X007592Y019750D01*
X007592Y020010D01*
X007555Y016900D02*
X008552Y016900D01*
X008627Y016825D01*
X009307Y016825D02*
X009307Y016190D01*
X008242Y013700D02*
X007992Y013700D01*
X007892Y013600D01*
X007042Y013600D01*
X006192Y014450D01*
X005429Y014713D02*
X005429Y015400D01*
X004642Y016000D02*
X004342Y015700D01*
X003842Y015700D01*
X004642Y016000D02*
X004642Y016060D01*
X003202Y012410D02*
X003192Y012400D01*
X002847Y011007D02*
X002492Y010852D01*
X006832Y006540D02*
X006692Y006400D01*
X007342Y006200D02*
X012792Y006200D01*
X012842Y006250D01*
X012842Y006525D01*
X012842Y006540D02*
X012842Y007150D01*
X012842Y007650D02*
X012842Y006540D01*
X012842Y005860D02*
X012842Y005057D01*
X012892Y005007D01*
X012892Y003998D01*
X012869Y004013D01*
X012672Y004013D02*
X012642Y004004D01*
X012642Y004907D01*
X012142Y005407D01*
X012142Y005860D01*
X011842Y005407D02*
X011592Y005407D01*
X011442Y005557D01*
X011442Y005860D01*
X011842Y005407D02*
X012292Y004957D01*
X012292Y003988D01*
X012278Y004013D01*
X012092Y003985D02*
X012092Y004857D01*
X011742Y005207D01*
X010992Y005207D01*
X010742Y005457D01*
X010742Y005860D01*
X010742Y006540D02*
X010742Y007650D01*
X010742Y009160D01*
X010742Y009840D02*
X010742Y011150D01*
X010742Y012610D01*
X010042Y012610D02*
X010042Y011150D01*
X010042Y009840D01*
X010042Y009160D02*
X010042Y007650D01*
X010042Y006540D01*
X010042Y005860D02*
X010042Y005207D01*
X010192Y005057D01*
X011442Y005057D01*
X011692Y004807D01*
X011692Y004019D01*
X011687Y004013D01*
X011491Y004013D02*
X011492Y003976D01*
X011492Y004657D01*
X011292Y004857D01*
X009792Y004857D01*
X009342Y005307D01*
X009342Y005860D01*
X008992Y005407D02*
X008792Y005407D01*
X008642Y005557D01*
X008642Y005860D01*
X008992Y005407D02*
X009742Y004657D01*
X010992Y004657D01*
X011092Y004557D01*
X011092Y003979D01*
X011097Y004013D01*
X010517Y003950D02*
X010505Y003963D01*
X010506Y003964D01*
X010506Y004013D01*
X010493Y003974D02*
X010505Y003963D01*
X010310Y004013D02*
X010292Y003957D01*
X010292Y003950D01*
X012081Y004013D02*
X012092Y003985D01*
X013262Y004013D02*
X013292Y004004D01*
X013292Y004757D01*
X013542Y005007D01*
X013542Y005860D01*
X013542Y006540D02*
X013542Y007650D01*
X013542Y009160D01*
X013542Y009840D02*
X013542Y011150D01*
X013542Y012610D01*
X013582Y013250D02*
X013542Y013290D01*
X012842Y012610D02*
X012842Y011150D01*
X012842Y009840D01*
X012842Y009160D02*
X012842Y007650D01*
X012142Y007650D02*
X012142Y009160D01*
X012142Y009840D02*
X012142Y011150D01*
X012142Y012610D01*
X011442Y012610D02*
X011442Y011150D01*
X011442Y009840D01*
X011442Y009160D02*
X011442Y007650D01*
X011442Y006540D01*
X012142Y006540D02*
X012142Y007650D01*
X009342Y007650D02*
X009342Y006540D01*
X008642Y006540D02*
X008642Y007650D01*
X008642Y009160D01*
X008642Y009840D02*
X008642Y011150D01*
X008642Y012610D01*
X009342Y012610D02*
X009342Y011150D01*
X009342Y009840D01*
X009342Y009160D02*
X009342Y007650D01*
X015392Y002000D02*
X015629Y002000D01*
X019102Y004510D02*
X019182Y004510D01*
X021006Y004013D02*
X021006Y002164D01*
X020992Y002100D01*
X021542Y002500D02*
X021542Y002850D01*
X021794Y003102D01*
X021794Y004013D01*
X021792Y003976D01*
X021597Y004013D02*
X021592Y003969D01*
X021991Y004013D02*
X021991Y003302D01*
X021992Y003300D01*
X021992Y002850D01*
X021842Y002700D01*
X021942Y002400D02*
X022192Y002650D01*
X022292Y002650D01*
X022384Y002742D01*
X022384Y004013D01*
X022192Y003979D02*
X022187Y004013D01*
X022581Y004013D02*
X022592Y003985D01*
X022592Y004500D01*
X021792Y005300D01*
X022778Y004013D02*
X022778Y002964D01*
X022742Y002950D01*
X022992Y003300D02*
X022992Y003957D01*
X022975Y004013D01*
X023167Y003994D02*
X023172Y004013D01*
X023367Y003998D02*
X023369Y004013D01*
X023565Y004013D02*
X023565Y003273D01*
X023442Y003150D01*
X023442Y002900D01*
X023192Y002650D01*
X022292Y002650D01*
X021942Y002400D02*
X021642Y002400D01*
X021542Y002500D01*
X022992Y003300D02*
X023142Y003150D01*
X023442Y003150D01*
X023767Y003944D02*
X023762Y004013D01*
X026792Y006000D02*
X027192Y006000D01*
X027367Y005825D01*
X027367Y005150D01*
X027692Y004825D01*
X028430Y004825D01*
X028455Y004800D01*
X028692Y004800D01*
X028892Y006700D02*
X028892Y006740D01*
X028892Y007800D01*
X032542Y007820D02*
X032542Y008200D01*
X032542Y007820D02*
X032592Y007820D01*
X035642Y004200D02*
X035416Y003974D01*
X035262Y004013D01*
X038742Y006000D02*
X038942Y006000D01*
X039042Y006100D01*
X039418Y006100D01*
X039427Y006091D01*
X039427Y006347D02*
X039424Y006350D01*
X039892Y006350D01*
X040142Y006100D01*
X040067Y006475D02*
X039942Y006600D01*
X039430Y006600D01*
X039427Y006603D01*
X039427Y006859D02*
X039494Y006875D01*
X039967Y006875D01*
X040142Y006700D01*
X040642Y006700D01*
X040842Y006500D01*
X041042Y006500D01*
X040842Y006925D02*
X040292Y006925D01*
X040117Y007100D01*
X039413Y007100D01*
X039427Y007115D01*
X039427Y007370D02*
X039482Y007375D01*
X040167Y007375D01*
X040267Y007275D01*
X040642Y007275D01*
X040842Y006925D02*
X041017Y007100D01*
X041342Y007100D01*
X041142Y007600D02*
X039454Y007600D01*
X039427Y007626D01*
X039427Y007882D02*
X039445Y007900D01*
X040642Y007900D01*
X040267Y006475D02*
X040067Y006475D01*
X040267Y006475D02*
X040542Y006200D01*
X040542Y005700D01*
X042006Y004564D02*
X042006Y004013D01*
X042006Y003274D01*
X042232Y003020D01*
X042232Y002060D01*
X041752Y002460D02*
X041807Y002540D01*
X041807Y003951D01*
X041810Y004013D01*
X041810Y008867D01*
X041792Y008950D01*
X041092Y009650D01*
X042597Y008205D02*
X043592Y009200D01*
X044092Y008200D02*
X043187Y007295D01*
X043187Y004013D01*
X042991Y004013D02*
X042991Y007598D01*
X043392Y008000D01*
X043842Y007450D02*
X043581Y007189D01*
X043581Y004013D01*
X043778Y004013D02*
X043778Y006786D01*
X044492Y007500D01*
X044292Y006350D02*
X044172Y006230D01*
X044172Y004013D01*
X044369Y004013D02*
X044369Y005626D01*
X044892Y006150D01*
X044742Y005400D02*
X044742Y004220D01*
X044762Y004200D01*
X044762Y005380D01*
X044742Y005400D01*
X044762Y004200D02*
X044762Y004013D01*
X042794Y004013D02*
X042794Y003952D01*
X042792Y003950D01*
X042597Y004013D02*
X042597Y008205D01*
X042192Y004750D02*
X042006Y004564D01*
X050342Y002700D02*
X050352Y002690D01*
X050392Y002690D01*
X053682Y002650D02*
X053692Y002640D01*
X056982Y002650D02*
X056992Y002640D01*
X058492Y002075D02*
X058517Y002100D01*
X059267Y002100D02*
X059292Y002075D01*
X059542Y002600D02*
X059582Y002640D01*
X031874Y025619D02*
X031874Y025676D01*
X026442Y026350D02*
X026392Y026350D01*
X026392Y026340D01*
X026392Y026350D02*
X026342Y026300D01*
X026427Y026335D02*
X026442Y026350D01*
X026427Y026335D02*
X025677Y026335D01*
X025627Y026335D01*
X025692Y025600D02*
X025677Y025585D01*
X023453Y025150D02*
X023232Y025410D01*
X022492Y025410D01*
X021402Y025410D01*
X022242Y024700D02*
X023092Y024700D01*
X023142Y024650D01*
X023480Y024650D01*
X023453Y024638D01*
X023504Y024650D01*
X023542Y024650D01*
X022242Y024700D02*
X021542Y024000D01*
X019142Y024000D01*
X018823Y024320D01*
X018823Y025024D01*
X018613Y025074D02*
X018613Y025585D01*
X018677Y025650D01*
X018667Y025700D01*
X018267Y025700D01*
X018143Y025049D02*
X017892Y025049D01*
X018143Y025049D02*
X018217Y024975D01*
X018563Y025024D02*
X018613Y025074D01*
X019082Y025024D02*
X019082Y024610D01*
X019142Y024550D01*
X017642Y024550D02*
X017632Y024560D01*
X017632Y025049D01*
X023492Y026335D02*
X023492Y026591D01*
X024867Y007775D02*
X024852Y007760D01*
X024792Y007760D01*
X016792Y007700D02*
X016792Y007760D01*
X046592Y035225D02*
X046592Y035450D01*
X046592Y035225D02*
X046655Y035162D01*
X047157Y035162D01*
X048942Y033350D02*
X049492Y033350D01*
X050067Y034375D02*
X050067Y034910D01*
X050063Y034906D01*
X049342Y034906D01*
X050067Y035590D02*
X050342Y035600D01*
X050592Y035600D01*
X051042Y036000D01*
X049892Y036450D02*
X049892Y036600D01*
X049792Y036700D01*
X049345Y036700D01*
X049342Y036697D01*
X049342Y036441D02*
X049301Y036400D01*
X049342Y036953D02*
X049389Y037000D01*
X049892Y037000D01*
X052767Y038184D02*
X052764Y038237D01*
D50*
X005702Y006140D02*
X005702Y005350D01*
X006382Y005350D02*
X006382Y004810D01*
X005702Y006140D02*
X005392Y006400D01*
X005392Y007776D01*
X005760Y008093D01*
X006992Y007400D02*
X006992Y008950D01*
X005492Y010450D01*
X005492Y012060D01*
X005492Y012740D02*
X004832Y012740D01*
X004492Y012400D01*
X003202Y012410D02*
X003202Y013600D01*
X003192Y012400D02*
X003192Y010900D01*
X003067Y010775D01*
X002492Y010852D01*
X006992Y007400D02*
X007342Y007050D01*
X015388Y010475D02*
X015392Y010480D01*
X015392Y010950D01*
X015492Y011050D01*
X017342Y011050D01*
X017388Y011005D01*
X017388Y010475D01*
X017342Y011050D02*
X019342Y011050D01*
X019388Y011005D01*
X019388Y010500D01*
X019342Y011050D02*
X021342Y011050D01*
X021388Y011005D01*
X021388Y010500D01*
X021342Y011050D02*
X023442Y011050D01*
X023413Y011020D01*
X023413Y010525D01*
X023442Y011050D02*
X025342Y011050D01*
X025388Y011005D01*
X025388Y010525D01*
X025342Y011050D02*
X027392Y011050D01*
X027413Y011030D01*
X027413Y010525D01*
X027392Y011050D02*
X029492Y011050D01*
X029488Y011045D01*
X029488Y010500D01*
X029492Y011050D02*
X030192Y011050D01*
X030867Y011725D01*
X031595Y011725D01*
X031842Y009475D02*
X031842Y008700D01*
X031842Y009475D02*
X031892Y009475D01*
X033642Y011225D02*
X033667Y011200D01*
X034442Y011200D01*
X034427Y011215D01*
X034427Y011675D01*
X035107Y011665D02*
X035142Y011700D01*
X035142Y012100D01*
X035042Y012200D01*
X033667Y012200D01*
X033642Y012225D01*
X035107Y011665D02*
X035107Y009500D01*
X032692Y006300D02*
X032642Y006250D01*
X032642Y005529D01*
X038682Y009850D02*
X038692Y010400D01*
X039427Y011085D02*
X041642Y013300D01*
X041642Y014800D01*
X041042Y015400D01*
X041042Y023800D01*
X041342Y024100D01*
X041392Y024200D02*
X041392Y024250D01*
X041342Y024250D01*
X041392Y024200D02*
X045717Y028525D01*
X047942Y030750D01*
X048192Y030750D01*
X048192Y031750D02*
X047992Y031750D01*
X048542Y029200D02*
X048542Y026300D01*
X051642Y023200D01*
X051642Y019900D02*
X051642Y019300D01*
X051742Y019200D01*
X051742Y019400D01*
X051873Y017655D02*
X051873Y017169D01*
X052492Y015950D02*
X052530Y015913D01*
X052542Y015745D01*
X052602Y015853D01*
X055042Y017457D02*
X055073Y017457D01*
X055742Y016400D02*
X055742Y015745D01*
X055802Y015853D02*
X055802Y015913D01*
X056411Y015745D02*
X056482Y015913D01*
X056482Y015842D01*
X058242Y017457D02*
X058273Y017457D01*
X058273Y017655D01*
X058942Y016500D02*
X060346Y016500D01*
X060496Y016350D01*
X061442Y016350D01*
X061442Y015050D02*
X061442Y014300D01*
X059002Y014700D02*
X059002Y016440D01*
X058942Y016500D01*
X058942Y015745D01*
X062408Y011217D02*
X062432Y011193D01*
X060092Y003175D02*
X060092Y002740D01*
X059767Y002725D01*
X059682Y002640D01*
X059582Y002640D01*
X056992Y002640D02*
X056992Y003100D01*
X056982Y002650D02*
X056692Y002650D01*
X056592Y002550D01*
X056267Y002550D01*
X053692Y002640D02*
X053692Y003050D01*
X053682Y002650D02*
X053342Y002650D01*
X053242Y002550D01*
X053017Y002550D01*
X050861Y002663D02*
X050672Y002739D01*
X050432Y002735D01*
X050392Y002690D01*
X050342Y002700D02*
X050092Y002700D01*
X049942Y002550D01*
X049767Y002550D01*
X039427Y005515D02*
X039427Y005835D01*
X039427Y008138D02*
X039004Y008138D01*
X039427Y008650D02*
X039427Y011085D01*
X043142Y015745D02*
X043142Y016300D01*
X049242Y015845D02*
X049242Y014800D01*
X049242Y014740D01*
X049202Y014650D01*
X034542Y017850D02*
X034542Y018400D01*
X034542Y019150D02*
X034542Y019800D01*
X034042Y020300D01*
X031980Y019188D02*
X031842Y019188D01*
X031842Y017500D01*
X031042Y017500D01*
X032442Y015745D02*
X032442Y014740D01*
X032402Y014600D01*
X029527Y013250D02*
X029527Y012985D01*
X029442Y012900D01*
X027652Y014700D02*
X027666Y014714D01*
X027666Y015519D01*
X027292Y015519D02*
X027292Y015850D01*
X027492Y016050D01*
X028037Y016050D01*
X028568Y015519D01*
X026917Y016175D02*
X026342Y015606D01*
X026342Y014900D01*
X026542Y014700D01*
X026832Y014700D01*
X025802Y014700D02*
X025766Y014700D01*
X025766Y015519D01*
X025392Y015519D01*
X024992Y016569D02*
X025000Y016576D01*
X025009Y016580D01*
X025019Y016582D01*
X024742Y017750D02*
X024742Y018600D01*
X024042Y019300D01*
X023452Y020390D02*
X023452Y021200D01*
X025180Y024638D02*
X024992Y024900D01*
X024817Y024900D01*
X025180Y024638D02*
X025638Y024638D01*
X025638Y024894D02*
X025638Y025150D01*
X025692Y025165D01*
X025692Y025600D01*
X025627Y026335D02*
X025142Y026350D01*
X023492Y026335D02*
X023077Y026335D01*
X022892Y026150D01*
X022542Y026150D01*
X022492Y026100D01*
X022492Y026090D01*
X022282Y026100D01*
X021992Y026100D01*
X023453Y024894D02*
X023486Y024900D01*
X024042Y024900D01*
X023492Y028894D02*
X024698Y028894D01*
X025677Y029150D02*
X025677Y029900D01*
X030092Y027250D02*
X030092Y026750D01*
X031342Y026300D02*
X031592Y026050D01*
X031874Y026050D01*
X033332Y024700D02*
X033332Y024260D01*
X032817Y024100D02*
X032817Y023700D01*
X032692Y023550D01*
X032342Y023550D01*
X030452Y021200D02*
X030452Y021100D01*
X030442Y021100D01*
X026918Y016581D02*
X026917Y016556D01*
X026917Y016175D01*
X022792Y008440D02*
X022642Y008440D01*
X022542Y008340D01*
X022542Y008350D01*
X022292Y008090D01*
X018692Y004500D02*
X018192Y004000D01*
X017755Y004000D01*
X026329Y004300D02*
X026329Y004800D01*
X012142Y019700D02*
X010842Y018400D01*
X010842Y017800D01*
X010942Y017700D02*
X010873Y017631D01*
X010873Y017655D01*
X010873Y017269D01*
X010842Y017500D02*
X010942Y017600D01*
X013792Y023150D02*
X014113Y023150D01*
X012017Y025375D02*
X012042Y025400D01*
X012017Y025375D02*
X011457Y025375D01*
X011442Y025390D01*
X011442Y026600D01*
X011817Y026975D01*
X012564Y026975D01*
X012589Y027000D01*
X013442Y027000D01*
X013667Y027225D01*
X014142Y027225D01*
X029642Y035050D02*
X033142Y038550D01*
X033142Y047850D01*
X035192Y049900D01*
X036967Y049900D01*
X037042Y049900D01*
X037016Y049891D02*
X037016Y050206D01*
X037016Y050520D01*
X037735Y051240D01*
X038282Y051790D01*
X042092Y051790D01*
X042342Y051540D01*
X042342Y051240D01*
X042292Y051250D02*
X042417Y051250D01*
X043567Y050325D02*
X044742Y050300D01*
X044942Y050100D01*
X052092Y049450D02*
X052092Y049150D01*
X052242Y049000D01*
X052242Y048750D01*
X052392Y048625D01*
X052795Y048625D01*
X052764Y048631D01*
X053942Y049000D02*
X055142Y049000D01*
X055142Y049100D01*
X055242Y049200D01*
X055194Y049261D02*
X055194Y048946D01*
X055194Y048631D01*
X055194Y049891D02*
X055134Y049900D01*
X055167Y049900D01*
X055167Y050200D02*
X055223Y050231D01*
X055194Y050206D01*
X055194Y050520D01*
X056263Y050520D01*
X055194Y050520D02*
X055192Y050522D01*
X053492Y050700D02*
X053317Y050525D01*
X052809Y050525D01*
X052764Y050520D01*
X055196Y053047D02*
X059462Y053047D01*
X059462Y053205D02*
X058453Y053205D01*
X058422Y053180D02*
X058642Y053360D01*
X058642Y055600D01*
X059462Y055600D01*
X059462Y052620D01*
X059382Y052540D01*
X055702Y052540D01*
X055062Y053180D01*
X055062Y053980D01*
X055222Y054140D01*
X056022Y054140D01*
X056182Y053980D01*
X056182Y053340D01*
X056342Y053180D01*
X058422Y053180D01*
X058289Y053400D02*
X056502Y053400D01*
X056502Y054300D01*
X056022Y054780D01*
X055062Y054780D01*
X054902Y054940D01*
X054902Y055580D01*
X055082Y055760D01*
X056962Y055760D01*
X056962Y055120D01*
X057142Y054940D01*
X057942Y054940D01*
X058289Y054620D01*
X058289Y053400D01*
X058245Y053403D02*
X058242Y053400D01*
X058289Y053522D02*
X056502Y053522D01*
X056502Y053681D02*
X058289Y053681D01*
X058289Y053839D02*
X056502Y053839D01*
X056502Y053998D02*
X058289Y053998D01*
X058289Y054156D02*
X056502Y054156D01*
X056488Y054315D02*
X058289Y054315D01*
X058289Y054473D02*
X056329Y054473D01*
X056171Y054632D02*
X058276Y054632D01*
X058105Y054790D02*
X055052Y054790D01*
X054902Y054949D02*
X057134Y054949D01*
X056975Y055107D02*
X054902Y055107D01*
X054902Y055266D02*
X056962Y055266D01*
X056842Y055300D02*
X055792Y055300D01*
X055742Y055250D01*
X056102Y055980D02*
X055862Y056220D01*
X055862Y059420D01*
X056182Y059740D01*
X057622Y059740D01*
X057942Y060060D01*
X057942Y060700D01*
X058262Y061020D01*
X058490Y061020D01*
X058431Y060990D01*
X058356Y060935D01*
X058290Y060869D01*
X058235Y060793D01*
X058192Y060710D01*
X058163Y060621D01*
X058149Y060529D01*
X058149Y060127D01*
X058684Y060127D01*
X058684Y060011D01*
X058149Y060011D01*
X058149Y059609D01*
X058163Y059517D01*
X058192Y059428D01*
X058235Y059345D01*
X058290Y059269D01*
X058356Y059203D01*
X058431Y059148D01*
X058514Y059106D01*
X058603Y059077D01*
X058684Y059064D01*
X058684Y060011D01*
X058800Y060011D01*
X058800Y059064D01*
X058881Y059077D01*
X058970Y059106D01*
X059053Y059148D01*
X059129Y059203D01*
X059195Y059269D01*
X059250Y059345D01*
X059292Y059428D01*
X059321Y059517D01*
X059336Y059609D01*
X059336Y060011D01*
X058800Y060011D01*
X058800Y060127D01*
X059336Y060127D01*
X059336Y060529D01*
X059321Y060621D01*
X059292Y060710D01*
X059250Y060793D01*
X059195Y060869D01*
X059129Y060935D01*
X059053Y060990D01*
X058994Y061020D01*
X059222Y061020D01*
X059542Y060700D01*
X059542Y057896D01*
X059505Y057859D01*
X059462Y057756D01*
X059462Y056471D01*
X059203Y056471D01*
X059203Y056083D01*
X059107Y056083D01*
X059107Y056471D01*
X059062Y056471D01*
X059062Y058620D01*
X058742Y058940D01*
X057462Y058940D01*
X056502Y057980D01*
X056502Y057829D01*
X056457Y057829D01*
X056365Y057829D01*
X056329Y057819D01*
X056294Y057829D01*
X056201Y057829D01*
X056109Y057829D01*
X056063Y057817D01*
X056022Y057793D01*
X055988Y057759D01*
X055965Y057718D01*
X055952Y057673D01*
X055952Y057491D01*
X055952Y057310D01*
X055965Y057264D01*
X055988Y057223D01*
X056022Y057190D01*
X056063Y057166D01*
X056098Y057157D01*
X056063Y057147D01*
X056022Y057124D01*
X055988Y057090D01*
X055965Y057049D01*
X055952Y057003D01*
X055952Y056822D01*
X055952Y056641D01*
X055965Y056595D01*
X055988Y056554D01*
X056022Y056521D01*
X056063Y056497D01*
X056109Y056485D01*
X056201Y056485D01*
X056201Y056822D01*
X055952Y056822D01*
X056201Y056822D01*
X056201Y056822D01*
X056201Y056822D01*
X056201Y057491D01*
X056201Y057491D01*
X055952Y057491D01*
X056201Y057491D01*
X056201Y057491D01*
X056201Y057154D01*
X056201Y056822D01*
X056201Y056822D01*
X056201Y056485D01*
X056294Y056485D01*
X056329Y056494D01*
X056365Y056485D01*
X056457Y056485D01*
X056457Y056822D01*
X056208Y056822D01*
X056201Y056822D01*
X056201Y056822D01*
X056457Y056822D01*
X056457Y056822D01*
X056457Y056822D01*
X056457Y057491D01*
X056457Y057491D01*
X056201Y057491D01*
X056201Y057491D01*
X056201Y057829D01*
X056201Y057491D01*
X056201Y057491D01*
X056450Y057491D01*
X056457Y057491D01*
X056457Y057491D01*
X056457Y057154D01*
X056457Y056822D01*
X056457Y056822D01*
X056457Y056485D01*
X056550Y056485D01*
X056556Y056486D01*
X056794Y056248D01*
X056709Y056248D01*
X056709Y056011D01*
X056708Y056011D01*
X056708Y056248D01*
X056488Y056248D01*
X056442Y056236D01*
X056401Y056212D01*
X056368Y056179D01*
X056344Y056138D01*
X056332Y056092D01*
X056332Y056009D01*
X056332Y055980D01*
X056102Y055980D01*
X056024Y056058D02*
X056332Y056058D01*
X056332Y056009D02*
X056451Y056009D01*
X056332Y056009D01*
X056451Y056009D02*
X056451Y056009D01*
X056409Y056217D02*
X055866Y056217D01*
X055862Y056375D02*
X056667Y056375D01*
X056708Y056217D02*
X056709Y056217D01*
X056708Y056058D02*
X056709Y056058D01*
X056962Y055741D02*
X055063Y055741D01*
X054905Y055583D02*
X056962Y055583D01*
X056962Y055424D02*
X054902Y055424D01*
X055862Y056534D02*
X056009Y056534D01*
X055952Y056692D02*
X055862Y056692D01*
X055862Y056851D02*
X055952Y056851D01*
X055954Y057009D02*
X055862Y057009D01*
X055862Y057168D02*
X056060Y057168D01*
X056201Y057168D02*
X056201Y057168D01*
X056201Y057326D02*
X056201Y057326D01*
X056201Y057485D02*
X056201Y057485D01*
X056201Y057643D02*
X056201Y057643D01*
X056201Y057802D02*
X056201Y057802D01*
X056037Y057802D02*
X055862Y057802D01*
X055862Y057960D02*
X056502Y057960D01*
X056457Y057829D02*
X056457Y057491D01*
X056457Y057829D01*
X056457Y057802D02*
X056457Y057802D01*
X056457Y057643D02*
X056457Y057643D01*
X056457Y057491D02*
X056457Y057491D01*
X056457Y057485D02*
X056457Y057485D01*
X056457Y057326D02*
X056457Y057326D01*
X056457Y057168D02*
X056457Y057168D01*
X056457Y057009D02*
X056457Y057009D01*
X056457Y056851D02*
X056457Y056851D01*
X056457Y056692D02*
X056457Y056692D01*
X056457Y056534D02*
X056457Y056534D01*
X056201Y056534D02*
X056201Y056534D01*
X056201Y056692D02*
X056201Y056692D01*
X056201Y056851D02*
X056201Y056851D01*
X056201Y057009D02*
X056201Y057009D01*
X055952Y057326D02*
X055862Y057326D01*
X055862Y057485D02*
X055952Y057485D01*
X055952Y057643D02*
X055862Y057643D01*
X055862Y058119D02*
X056641Y058119D01*
X056799Y058277D02*
X055862Y058277D01*
X055862Y058436D02*
X056958Y058436D01*
X057116Y058594D02*
X055862Y058594D01*
X055862Y058753D02*
X057275Y058753D01*
X057433Y058911D02*
X055862Y058911D01*
X055862Y059070D02*
X058648Y059070D01*
X058684Y059070D02*
X058800Y059070D01*
X058836Y059070D02*
X059542Y059070D01*
X059542Y059228D02*
X059154Y059228D01*
X059271Y059387D02*
X059542Y059387D01*
X059542Y059545D02*
X059325Y059545D01*
X059336Y059704D02*
X059542Y059704D01*
X059542Y059862D02*
X059336Y059862D01*
X059542Y060021D02*
X058800Y060021D01*
X058684Y060021D02*
X057903Y060021D01*
X057942Y060179D02*
X058149Y060179D01*
X058149Y060338D02*
X057942Y060338D01*
X057942Y060496D02*
X058149Y060496D01*
X058174Y060655D02*
X057942Y060655D01*
X058055Y060813D02*
X058249Y060813D01*
X058214Y060972D02*
X058406Y060972D01*
X059078Y060972D02*
X059271Y060972D01*
X059235Y060813D02*
X059429Y060813D01*
X059542Y060655D02*
X059310Y060655D01*
X059336Y060496D02*
X059542Y060496D01*
X059542Y060338D02*
X059336Y060338D01*
X059336Y060179D02*
X059542Y060179D01*
X058800Y059862D02*
X058684Y059862D01*
X058684Y059704D02*
X058800Y059704D01*
X058800Y059545D02*
X058684Y059545D01*
X058684Y059387D02*
X058800Y059387D01*
X058800Y059228D02*
X058684Y059228D01*
X058771Y058911D02*
X059542Y058911D01*
X059542Y058753D02*
X058930Y058753D01*
X059062Y058594D02*
X059542Y058594D01*
X059542Y058436D02*
X059062Y058436D01*
X059062Y058277D02*
X059542Y058277D01*
X059542Y058119D02*
X059062Y058119D01*
X059062Y057960D02*
X059542Y057960D01*
X059481Y057802D02*
X059062Y057802D01*
X059062Y057643D02*
X059462Y057643D01*
X059462Y057485D02*
X059062Y057485D01*
X059062Y057326D02*
X059462Y057326D01*
X059462Y057168D02*
X059062Y057168D01*
X059062Y057009D02*
X059462Y057009D01*
X059462Y056851D02*
X059062Y056851D01*
X059062Y056692D02*
X059462Y056692D01*
X059462Y056534D02*
X059062Y056534D01*
X059107Y056375D02*
X059203Y056375D01*
X059203Y056217D02*
X059107Y056217D01*
X058720Y056217D02*
X057942Y056217D01*
X057942Y056375D02*
X058742Y056375D01*
X058742Y056371D02*
X058720Y056349D01*
X058720Y056037D01*
X058582Y055900D01*
X057942Y055900D01*
X057942Y056700D01*
X057782Y056860D01*
X057202Y056860D01*
X056722Y057340D01*
X056722Y057660D01*
X058582Y057660D01*
X058742Y057500D01*
X058742Y056371D01*
X058742Y056534D02*
X057942Y056534D01*
X057942Y056692D02*
X058742Y056692D01*
X058742Y056851D02*
X057792Y056851D01*
X057053Y057009D02*
X058742Y057009D01*
X058742Y057168D02*
X056895Y057168D01*
X056736Y057326D02*
X058742Y057326D01*
X058742Y057485D02*
X056722Y057485D01*
X056722Y057643D02*
X058599Y057643D01*
X058720Y056058D02*
X057942Y056058D01*
X058642Y055583D02*
X059462Y055583D01*
X059462Y055424D02*
X058642Y055424D01*
X058642Y055266D02*
X059462Y055266D01*
X059462Y055107D02*
X058642Y055107D01*
X058642Y054949D02*
X059462Y054949D01*
X059462Y054790D02*
X058642Y054790D01*
X058642Y054632D02*
X059462Y054632D01*
X059462Y054473D02*
X058642Y054473D01*
X058642Y054315D02*
X059462Y054315D01*
X059462Y054156D02*
X058642Y054156D01*
X058642Y053998D02*
X059462Y053998D01*
X059462Y053839D02*
X058642Y053839D01*
X058642Y053681D02*
X059462Y053681D01*
X059462Y053522D02*
X058642Y053522D01*
X058642Y053364D02*
X059462Y053364D01*
X059462Y052888D02*
X055354Y052888D01*
X055513Y052730D02*
X059462Y052730D01*
X059413Y052571D02*
X055671Y052571D01*
X055992Y053100D02*
X055742Y053350D01*
X055992Y053100D02*
X057422Y053100D01*
X056317Y053205D02*
X055062Y053205D01*
X055062Y053364D02*
X056182Y053364D01*
X056182Y053522D02*
X055062Y053522D01*
X055062Y053681D02*
X056182Y053681D01*
X056182Y053839D02*
X055062Y053839D01*
X055080Y053998D02*
X056165Y053998D01*
X055862Y059228D02*
X058330Y059228D01*
X058213Y059387D02*
X055862Y059387D01*
X055987Y059545D02*
X058159Y059545D01*
X058149Y059704D02*
X056146Y059704D01*
X057744Y059862D02*
X058149Y059862D01*
X052764Y038552D02*
X052764Y038237D01*
X052767Y038184D02*
X052767Y034347D01*
X052492Y034072D01*
X052492Y033747D01*
X047157Y034650D02*
X047157Y034885D01*
X047142Y034900D01*
X046442Y034900D01*
X046442Y034600D01*
X046442Y034900D02*
X046367Y034900D01*
X046317Y034925D01*
X046342Y034900D01*
X046117Y035175D01*
X046117Y036175D01*
X046467Y036525D01*
X046467Y036850D01*
X046023Y037294D01*
X045577Y037294D01*
X045577Y037550D01*
X045577Y037038D02*
X045879Y037038D01*
X046042Y036875D01*
X046042Y036725D01*
X046092Y036675D01*
X047142Y034900D02*
X047151Y034900D01*
X047157Y034906D01*
X047157Y034650D01*
X043392Y037294D02*
X043392Y037550D01*
X042192Y036450D02*
X042176Y036450D01*
X042168Y036458D01*
X037642Y038552D02*
X037016Y038552D01*
X037016Y038237D01*
X034642Y056600D02*
X034632Y057100D01*
X035442Y057860D01*
X035402Y058500D02*
X031500Y058503D01*
D51*
X002059Y008093D02*
X002342Y007876D01*
X002342Y006950D01*
D52*
X006832Y006540D02*
X007942Y006540D01*
X007942Y005860D02*
X007932Y004250D01*
X019242Y005190D02*
X019732Y005190D01*
X019792Y005250D01*
X025018Y016581D02*
X025018Y016974D01*
X024742Y017250D01*
X024742Y017750D01*
X028192Y022580D02*
X028192Y023450D01*
X036985Y048625D02*
X037542Y048625D01*
X037016Y048631D02*
X036985Y048625D01*
X038867Y048625D02*
X039490Y048625D01*
X039446Y048631D01*
X039446Y050520D02*
X039525Y050525D01*
X038942Y050525D01*
D53*
X041242Y037275D02*
X041567Y037275D01*
X041642Y037200D01*
X041617Y037175D01*
X041617Y036890D01*
X015652Y001400D02*
X015142Y001400D01*
D54*
X031042Y017500D03*
X034542Y018400D03*
X047342Y031750D03*
X061442Y014300D03*
D55*
X061611Y011218D03*
X061542Y007300D03*
X061542Y006700D03*
X058367Y006825D03*
X058367Y007400D03*
X055267Y007650D03*
X055067Y006975D03*
X052417Y006850D03*
X052042Y006400D03*
X041342Y004800D03*
X051642Y019900D03*
X051642Y023200D03*
D56*
X043567Y049775D02*
X043542Y049800D01*
X043567Y049775D02*
X043567Y050325D01*
X043567Y051398D01*
D57*
X053742Y053700D02*
X053742Y053900D01*
X053742Y053700D02*
X056342Y051100D01*
X056342Y050500D01*
X056267Y050525D02*
X056263Y050520D01*
X055742Y053350D02*
X055742Y053950D01*
X047992Y031750D02*
X041492Y025250D01*
X041192Y025250D01*
X034442Y025250D02*
X034442Y025975D01*
X034442Y025250D02*
X034042Y024850D01*
X034042Y020300D01*
X034042Y020250D01*
X033042Y019250D01*
X032242Y019250D01*
X031980Y019188D02*
X031116Y019188D01*
X031204Y020300D02*
X031442Y020300D01*
X031742Y020600D01*
X032092Y020600D01*
X031595Y011725D02*
X031620Y011700D01*
X032342Y011700D01*
X032542Y011500D01*
X032542Y009750D01*
X032803Y009475D01*
X033192Y009475D01*
X034017Y009475D01*
X034042Y009500D01*
X034427Y009500D02*
X033342Y009500D01*
X033242Y009400D01*
X014642Y005200D02*
X013742Y004300D01*
X025642Y034000D02*
X025642Y034100D01*
X029642Y034100D01*
X059874Y008774D02*
X060806Y008774D01*
X060842Y008810D02*
X061611Y009578D01*
X061611Y011218D01*
X061642Y011200D02*
X062442Y011200D01*
X063542Y012300D01*
X063542Y013700D01*
X062242Y015000D01*
X062242Y015800D01*
X061642Y016400D01*
X062642Y017400D01*
X063192Y017400D01*
X063242Y017400D02*
X063242Y017200D01*
D58*
X048192Y031750D02*
X047342Y031750D01*
X025642Y033050D02*
X003692Y033050D01*
X003642Y034050D02*
X025642Y034050D01*
X025642Y034000D01*
D59*
X053742Y053900D02*
X055692Y053900D01*
X055742Y053950D01*
M02*
