G75*
G70*
%OFA0B0*%
%FSLAX24Y24*%
%IPPOS*%
%LPD*%
%AMOC8*
5,1,8,0,0,1.08239X$1,22.5*
%
%ADD10C,0.1330*%
%ADD11C,0.1064*%
%ADD12C,0.1458*%
%ADD13C,0.0480*%
%ADD14C,0.0907*%
%ADD15C,0.0749*%
%ADD16C,0.0680*%
%ADD17C,0.0848*%
%ADD18C,0.1346*%
%ADD19C,0.0674*%
%ADD20C,0.0640*%
%ADD21C,0.0789*%
%ADD22C,0.0390*%
%ADD23R,0.0476X0.0476*%
%ADD24C,0.0400*%
D10*
X003792Y004300D03*
X003842Y062400D03*
X061942Y062400D03*
X061942Y004300D03*
D11*
X054764Y036493D03*
X037441Y036493D03*
D12*
X037441Y063619D03*
X054764Y063619D03*
D13*
X054779Y052116D03*
X054779Y038542D03*
X039031Y038542D03*
X039031Y052116D03*
D14*
X056892Y061787D02*
X056892Y062613D01*
X058742Y062968D02*
X058742Y063794D01*
X058742Y061432D02*
X058742Y060606D01*
D15*
X005248Y010500D03*
X002492Y010500D03*
D16*
X003842Y016650D03*
X003842Y017650D03*
X003842Y018650D03*
X003642Y033000D03*
X003642Y034000D03*
X003642Y035000D03*
X003642Y036000D03*
X003642Y037000D03*
X003642Y038000D03*
X003642Y039000D03*
X003642Y040000D03*
X003642Y041000D03*
X003642Y042000D03*
X003642Y043000D03*
X003642Y044000D03*
X003642Y045000D03*
X003642Y046000D03*
X003642Y047000D03*
X003642Y048000D03*
X003642Y049000D03*
X003642Y050000D03*
X003642Y051000D03*
X003642Y052000D03*
X003642Y053000D03*
X003642Y054000D03*
X003642Y055000D03*
X003642Y056000D03*
X003642Y057000D03*
X003642Y058000D03*
X003642Y059000D03*
X004642Y059000D03*
X005642Y059000D03*
X005642Y058000D03*
X004642Y058000D03*
X004642Y057000D03*
X005642Y057000D03*
X005642Y056000D03*
X004642Y056000D03*
X004642Y055000D03*
X004642Y054000D03*
X005642Y054000D03*
X005642Y055000D03*
X006642Y055000D03*
X006642Y054000D03*
X007642Y054000D03*
X007642Y055000D03*
X007642Y056000D03*
X006642Y056000D03*
X006642Y057000D03*
X006642Y058000D03*
X007642Y058000D03*
X007642Y057000D03*
X008642Y057000D03*
X008642Y058000D03*
X009642Y058000D03*
X009642Y057000D03*
X009642Y056000D03*
X008642Y056000D03*
X008642Y055000D03*
X008642Y054000D03*
X009642Y054000D03*
X009642Y055000D03*
X010642Y055000D03*
X010642Y054000D03*
X011642Y054000D03*
X011642Y055000D03*
X011642Y056000D03*
X010642Y056000D03*
X010642Y057000D03*
X010642Y058000D03*
X011642Y058000D03*
X011642Y057000D03*
X012642Y057000D03*
X012642Y058000D03*
X013642Y058000D03*
X013642Y057000D03*
X013642Y056000D03*
X012642Y056000D03*
X012642Y055000D03*
X012642Y054000D03*
X013642Y054000D03*
X013642Y055000D03*
X014642Y055000D03*
X014642Y054000D03*
X015642Y054000D03*
X015642Y055000D03*
X015642Y056000D03*
X014642Y056000D03*
X014642Y057000D03*
X014642Y058000D03*
X015642Y058000D03*
X015642Y057000D03*
X016642Y057000D03*
X016642Y058000D03*
X017642Y058000D03*
X017642Y057000D03*
X017642Y056000D03*
X016642Y056000D03*
X016642Y055000D03*
X016642Y054000D03*
X017642Y054000D03*
X017642Y055000D03*
X018642Y055000D03*
X018642Y054000D03*
X019642Y054000D03*
X019642Y055000D03*
X019642Y056000D03*
X018642Y056000D03*
X018642Y057000D03*
X018642Y058000D03*
X019642Y058000D03*
X019642Y057000D03*
X020642Y057000D03*
X020642Y058000D03*
X021642Y058000D03*
X021642Y057000D03*
X021642Y056000D03*
X020642Y056000D03*
X020642Y055000D03*
X020642Y054000D03*
X021642Y054000D03*
X021642Y055000D03*
X022642Y055000D03*
X022642Y054000D03*
X023642Y054000D03*
X023642Y055000D03*
X023642Y056000D03*
X022642Y056000D03*
X022642Y057000D03*
X022642Y058000D03*
X023642Y058000D03*
X023642Y057000D03*
X024642Y057000D03*
X024642Y058000D03*
X025642Y058000D03*
X025642Y057000D03*
X025642Y056000D03*
X024642Y056000D03*
X024642Y055000D03*
X024642Y054000D03*
X025642Y054000D03*
X025642Y055000D03*
X025642Y053000D03*
X024642Y053000D03*
X024642Y052000D03*
X025642Y052000D03*
X025642Y051000D03*
X024642Y051000D03*
X024642Y050000D03*
X025642Y050000D03*
X025642Y049000D03*
X024642Y049000D03*
X024642Y048000D03*
X024642Y047000D03*
X025642Y047000D03*
X025642Y048000D03*
X023642Y048000D03*
X022642Y048000D03*
X022642Y047000D03*
X023642Y047000D03*
X023642Y046000D03*
X022642Y046000D03*
X022642Y045000D03*
X023642Y045000D03*
X023642Y044000D03*
X022642Y044000D03*
X022642Y043000D03*
X023642Y043000D03*
X023642Y042000D03*
X022642Y042000D03*
X022642Y041000D03*
X022642Y040000D03*
X023642Y040000D03*
X023642Y041000D03*
X024642Y041000D03*
X024642Y040000D03*
X025642Y040000D03*
X025642Y041000D03*
X025642Y042000D03*
X024642Y042000D03*
X024642Y043000D03*
X024642Y044000D03*
X025642Y044000D03*
X025642Y043000D03*
X025642Y045000D03*
X024642Y045000D03*
X024642Y046000D03*
X025642Y046000D03*
X023642Y049000D03*
X022642Y049000D03*
X021642Y049000D03*
X020642Y049000D03*
X020642Y048000D03*
X020642Y047000D03*
X021642Y047000D03*
X021642Y048000D03*
X019642Y048000D03*
X018642Y048000D03*
X018642Y047000D03*
X019642Y047000D03*
X019642Y046000D03*
X018642Y046000D03*
X018642Y045000D03*
X019642Y045000D03*
X019642Y044000D03*
X018642Y044000D03*
X018642Y043000D03*
X019642Y043000D03*
X019642Y042000D03*
X018642Y042000D03*
X018642Y041000D03*
X018642Y040000D03*
X019642Y040000D03*
X019642Y041000D03*
X020642Y041000D03*
X020642Y040000D03*
X021642Y040000D03*
X021642Y041000D03*
X021642Y042000D03*
X020642Y042000D03*
X020642Y043000D03*
X020642Y044000D03*
X021642Y044000D03*
X021642Y043000D03*
X021642Y045000D03*
X020642Y045000D03*
X020642Y046000D03*
X021642Y046000D03*
X019642Y049000D03*
X018642Y049000D03*
X017642Y049000D03*
X016642Y049000D03*
X016642Y048000D03*
X016642Y047000D03*
X017642Y047000D03*
X017642Y048000D03*
X015642Y048000D03*
X014642Y048000D03*
X014642Y047000D03*
X015642Y047000D03*
X015642Y046000D03*
X014642Y046000D03*
X014642Y045000D03*
X015642Y045000D03*
X015642Y044000D03*
X014642Y044000D03*
X014642Y043000D03*
X015642Y043000D03*
X015642Y042000D03*
X014642Y042000D03*
X014642Y041000D03*
X014642Y040000D03*
X015642Y040000D03*
X015642Y041000D03*
X016642Y041000D03*
X016642Y040000D03*
X017642Y040000D03*
X017642Y041000D03*
X017642Y042000D03*
X016642Y042000D03*
X016642Y043000D03*
X016642Y044000D03*
X017642Y044000D03*
X017642Y043000D03*
X017642Y045000D03*
X016642Y045000D03*
X016642Y046000D03*
X017642Y046000D03*
X015642Y049000D03*
X014642Y049000D03*
X013642Y049000D03*
X012642Y049000D03*
X012642Y048000D03*
X012642Y047000D03*
X013642Y047000D03*
X013642Y048000D03*
X011642Y048000D03*
X010642Y048000D03*
X010642Y047000D03*
X011642Y047000D03*
X011642Y046000D03*
X010642Y046000D03*
X010642Y045000D03*
X011642Y045000D03*
X011642Y044000D03*
X010642Y044000D03*
X010642Y043000D03*
X011642Y043000D03*
X011642Y042000D03*
X010642Y042000D03*
X010642Y041000D03*
X010642Y040000D03*
X011642Y040000D03*
X011642Y041000D03*
X012642Y041000D03*
X012642Y040000D03*
X013642Y040000D03*
X013642Y041000D03*
X013642Y042000D03*
X012642Y042000D03*
X012642Y043000D03*
X012642Y044000D03*
X013642Y044000D03*
X013642Y043000D03*
X013642Y045000D03*
X012642Y045000D03*
X012642Y046000D03*
X013642Y046000D03*
X011642Y049000D03*
X010642Y049000D03*
X009642Y049000D03*
X008642Y049000D03*
X008642Y048000D03*
X008642Y047000D03*
X009642Y047000D03*
X009642Y048000D03*
X007642Y048000D03*
X006642Y048000D03*
X006642Y047000D03*
X007642Y047000D03*
X007642Y046000D03*
X006642Y046000D03*
X006642Y045000D03*
X007642Y045000D03*
X007642Y044000D03*
X006642Y044000D03*
X006642Y043000D03*
X007642Y043000D03*
X007642Y042000D03*
X006642Y042000D03*
X006642Y041000D03*
X006642Y040000D03*
X007642Y040000D03*
X007642Y041000D03*
X008642Y041000D03*
X008642Y040000D03*
X009642Y040000D03*
X009642Y041000D03*
X009642Y042000D03*
X008642Y042000D03*
X008642Y043000D03*
X008642Y044000D03*
X009642Y044000D03*
X009642Y043000D03*
X009642Y045000D03*
X008642Y045000D03*
X008642Y046000D03*
X009642Y046000D03*
X007642Y049000D03*
X006642Y049000D03*
X005642Y049000D03*
X004642Y049000D03*
X004642Y048000D03*
X004642Y047000D03*
X005642Y047000D03*
X005642Y048000D03*
X005642Y046000D03*
X004642Y046000D03*
X004642Y045000D03*
X005642Y045000D03*
X005642Y044000D03*
X004642Y044000D03*
X004642Y043000D03*
X005642Y043000D03*
X005642Y042000D03*
X004642Y042000D03*
X004642Y041000D03*
X004642Y040000D03*
X005642Y040000D03*
X005642Y041000D03*
X005642Y039000D03*
X004642Y039000D03*
X004642Y038000D03*
X005642Y038000D03*
X005642Y037000D03*
X004642Y037000D03*
X004642Y036000D03*
X005642Y036000D03*
X005642Y035000D03*
X004642Y035000D03*
X004642Y034000D03*
X004642Y033000D03*
X005642Y033000D03*
X005642Y034000D03*
X006642Y034000D03*
X006642Y033000D03*
X007642Y033000D03*
X007642Y034000D03*
X007642Y035000D03*
X006642Y035000D03*
X006642Y036000D03*
X006642Y037000D03*
X007642Y037000D03*
X007642Y036000D03*
X008642Y036000D03*
X008642Y037000D03*
X009642Y037000D03*
X009642Y036000D03*
X009642Y035000D03*
X008642Y035000D03*
X008642Y034000D03*
X008642Y033000D03*
X009642Y033000D03*
X009642Y034000D03*
X010642Y034000D03*
X010642Y033000D03*
X011642Y033000D03*
X011642Y034000D03*
X011642Y035000D03*
X010642Y035000D03*
X010642Y036000D03*
X010642Y037000D03*
X011642Y037000D03*
X011642Y036000D03*
X012642Y036000D03*
X012642Y037000D03*
X013642Y037000D03*
X013642Y036000D03*
X013642Y035000D03*
X012642Y035000D03*
X012642Y034000D03*
X012642Y033000D03*
X013642Y033000D03*
X013642Y034000D03*
X014642Y034000D03*
X014642Y033000D03*
X015642Y033000D03*
X015642Y034000D03*
X015642Y035000D03*
X014642Y035000D03*
X014642Y036000D03*
X014642Y037000D03*
X015642Y037000D03*
X015642Y036000D03*
X016642Y036000D03*
X016642Y037000D03*
X017642Y037000D03*
X017642Y036000D03*
X017642Y035000D03*
X016642Y035000D03*
X016642Y034000D03*
X016642Y033000D03*
X017642Y033000D03*
X017642Y034000D03*
X018642Y034000D03*
X018642Y033000D03*
X019642Y033000D03*
X019642Y034000D03*
X019642Y035000D03*
X018642Y035000D03*
X018642Y036000D03*
X018642Y037000D03*
X019642Y037000D03*
X019642Y036000D03*
X020642Y036000D03*
X020642Y037000D03*
X021642Y037000D03*
X021642Y036000D03*
X021642Y035000D03*
X020642Y035000D03*
X020642Y034000D03*
X020642Y033000D03*
X021642Y033000D03*
X021642Y034000D03*
X022642Y034000D03*
X022642Y033000D03*
X023642Y033000D03*
X023642Y034000D03*
X023642Y035000D03*
X022642Y035000D03*
X022642Y036000D03*
X022642Y037000D03*
X023642Y037000D03*
X023642Y036000D03*
X024642Y036000D03*
X024642Y037000D03*
X025642Y037000D03*
X025642Y036000D03*
X025642Y035000D03*
X024642Y035000D03*
X024642Y034000D03*
X024642Y033000D03*
X025642Y033000D03*
X025642Y034000D03*
X022542Y031600D03*
X022542Y030600D03*
X022542Y029600D03*
X022542Y028600D03*
X029642Y033000D03*
X029642Y034000D03*
X029642Y035000D03*
X029642Y036000D03*
X029642Y037000D03*
X029642Y038000D03*
X029642Y039000D03*
X029642Y040000D03*
X029642Y041000D03*
X029642Y042000D03*
X029642Y043000D03*
X029642Y044000D03*
X029642Y045000D03*
X029642Y046000D03*
X029642Y047000D03*
X029642Y048000D03*
X029642Y049000D03*
X029642Y050000D03*
X029642Y051000D03*
X029642Y052000D03*
X029642Y053000D03*
X029642Y054000D03*
X029642Y055000D03*
X029642Y056000D03*
X029642Y057000D03*
X025642Y059000D03*
X024642Y059000D03*
X024642Y060000D03*
X025642Y060000D03*
X025642Y061000D03*
X024642Y061000D03*
X024642Y062000D03*
X025642Y062000D03*
X023642Y062000D03*
X022642Y062000D03*
X022642Y061000D03*
X023642Y061000D03*
X023642Y060000D03*
X022642Y060000D03*
X022642Y059000D03*
X023642Y059000D03*
X021642Y059000D03*
X020642Y059000D03*
X020642Y060000D03*
X021642Y060000D03*
X021642Y061000D03*
X020642Y061000D03*
X020642Y062000D03*
X021642Y062000D03*
X019642Y062000D03*
X018642Y062000D03*
X018642Y061000D03*
X019642Y061000D03*
X019642Y060000D03*
X018642Y060000D03*
X018642Y059000D03*
X019642Y059000D03*
X017642Y059000D03*
X016642Y059000D03*
X016642Y060000D03*
X017642Y060000D03*
X017642Y061000D03*
X016642Y061000D03*
X016642Y062000D03*
X017642Y062000D03*
X015642Y062000D03*
X014642Y062000D03*
X014642Y061000D03*
X015642Y061000D03*
X015642Y060000D03*
X014642Y060000D03*
X014642Y059000D03*
X015642Y059000D03*
X013642Y059000D03*
X012642Y059000D03*
X012642Y060000D03*
X013642Y060000D03*
X013642Y061000D03*
X012642Y061000D03*
X012642Y062000D03*
X013642Y062000D03*
X011642Y062000D03*
X010642Y062000D03*
X010642Y061000D03*
X011642Y061000D03*
X011642Y060000D03*
X010642Y060000D03*
X010642Y059000D03*
X011642Y059000D03*
X009642Y059000D03*
X008642Y059000D03*
X008642Y060000D03*
X009642Y060000D03*
X009642Y061000D03*
X008642Y061000D03*
X008642Y062000D03*
X009642Y062000D03*
X007642Y062000D03*
X006642Y062000D03*
X006642Y061000D03*
X007642Y061000D03*
X007642Y060000D03*
X006642Y060000D03*
X006642Y059000D03*
X007642Y059000D03*
X007642Y053000D03*
X006642Y053000D03*
X006642Y052000D03*
X007642Y052000D03*
X007642Y051000D03*
X006642Y051000D03*
X006642Y050000D03*
X007642Y050000D03*
X008642Y050000D03*
X008642Y051000D03*
X009642Y051000D03*
X009642Y050000D03*
X010642Y050000D03*
X010642Y051000D03*
X011642Y051000D03*
X011642Y050000D03*
X012642Y050000D03*
X012642Y051000D03*
X013642Y051000D03*
X013642Y050000D03*
X014642Y050000D03*
X014642Y051000D03*
X015642Y051000D03*
X015642Y050000D03*
X016642Y050000D03*
X016642Y051000D03*
X017642Y051000D03*
X017642Y050000D03*
X018642Y050000D03*
X018642Y051000D03*
X019642Y051000D03*
X019642Y050000D03*
X020642Y050000D03*
X020642Y051000D03*
X021642Y051000D03*
X021642Y050000D03*
X022642Y050000D03*
X022642Y051000D03*
X023642Y051000D03*
X023642Y050000D03*
X023642Y052000D03*
X022642Y052000D03*
X022642Y053000D03*
X023642Y053000D03*
X021642Y053000D03*
X020642Y053000D03*
X020642Y052000D03*
X021642Y052000D03*
X019642Y052000D03*
X018642Y052000D03*
X018642Y053000D03*
X019642Y053000D03*
X017642Y053000D03*
X016642Y053000D03*
X016642Y052000D03*
X017642Y052000D03*
X015642Y052000D03*
X014642Y052000D03*
X014642Y053000D03*
X015642Y053000D03*
X013642Y053000D03*
X012642Y053000D03*
X012642Y052000D03*
X013642Y052000D03*
X011642Y052000D03*
X010642Y052000D03*
X010642Y053000D03*
X011642Y053000D03*
X009642Y053000D03*
X008642Y053000D03*
X008642Y052000D03*
X009642Y052000D03*
X005642Y052000D03*
X004642Y052000D03*
X004642Y053000D03*
X005642Y053000D03*
X005642Y051000D03*
X004642Y051000D03*
X004642Y050000D03*
X005642Y050000D03*
X006642Y039000D03*
X006642Y038000D03*
X007642Y038000D03*
X007642Y039000D03*
X008642Y039000D03*
X008642Y038000D03*
X009642Y038000D03*
X009642Y039000D03*
X010642Y039000D03*
X010642Y038000D03*
X011642Y038000D03*
X011642Y039000D03*
X012642Y039000D03*
X012642Y038000D03*
X013642Y038000D03*
X013642Y039000D03*
X014642Y039000D03*
X014642Y038000D03*
X015642Y038000D03*
X015642Y039000D03*
X016642Y039000D03*
X016642Y038000D03*
X017642Y038000D03*
X017642Y039000D03*
X018642Y039000D03*
X018642Y038000D03*
X019642Y038000D03*
X019642Y039000D03*
X020642Y039000D03*
X020642Y038000D03*
X021642Y038000D03*
X021642Y039000D03*
X022642Y039000D03*
X022642Y038000D03*
X023642Y038000D03*
X023642Y039000D03*
X024642Y039000D03*
X024642Y038000D03*
X025642Y038000D03*
X025642Y039000D03*
X032142Y028700D03*
X038192Y028700D03*
X038192Y027700D03*
X038192Y026700D03*
X038192Y025700D03*
X038192Y024700D03*
X038192Y023700D03*
X038192Y022700D03*
X038192Y021700D03*
X038192Y020700D03*
X038242Y019700D03*
X038242Y018700D03*
X038242Y017700D03*
X038192Y016750D03*
X035042Y016000D03*
X034142Y016000D03*
X038192Y029700D03*
X038192Y030700D03*
X038192Y031700D03*
X038192Y032700D03*
X048192Y032700D03*
X048192Y031700D03*
X048192Y030700D03*
X052342Y030922D03*
X052342Y031922D03*
X052342Y032922D03*
X052342Y029922D03*
X041942Y049000D03*
X041992Y049850D03*
X038192Y048675D03*
X051292Y050800D03*
X057092Y050550D03*
X061792Y006800D03*
X062942Y006750D03*
D17*
X045747Y004550D03*
X045983Y002621D03*
X039802Y002621D03*
X040038Y004550D03*
X036247Y004550D03*
X036483Y002621D03*
X030302Y002621D03*
X030538Y004550D03*
X024747Y004550D03*
X024983Y002621D03*
X018802Y002621D03*
X019038Y004550D03*
X014247Y004550D03*
X014483Y002621D03*
X008302Y002621D03*
X008538Y004550D03*
D18*
X029492Y061450D03*
X033492Y061450D03*
D19*
X031492Y059450D03*
X030492Y059450D03*
D20*
X062152Y013143D02*
X062712Y013143D01*
X062712Y012143D02*
X062152Y012143D01*
X062152Y011143D02*
X062712Y011143D01*
X030172Y010550D02*
X029612Y010550D01*
X029612Y009550D02*
X030172Y009550D01*
X030172Y008550D02*
X029612Y008550D01*
X028072Y008550D02*
X027512Y008550D01*
X027512Y009550D02*
X028072Y009550D01*
X028072Y010550D02*
X027512Y010550D01*
X026072Y010550D02*
X025512Y010550D01*
X025512Y009550D02*
X026072Y009550D01*
X026072Y008550D02*
X025512Y008550D01*
X024072Y008550D02*
X023512Y008550D01*
X023512Y009550D02*
X024072Y009550D01*
X024072Y010550D02*
X023512Y010550D01*
X022072Y010550D02*
X021512Y010550D01*
X021512Y009550D02*
X022072Y009550D01*
X022072Y008550D02*
X021512Y008550D01*
X020072Y008550D02*
X019512Y008550D01*
X019512Y009550D02*
X020072Y009550D01*
X020072Y010550D02*
X019512Y010550D01*
X018072Y010550D02*
X017512Y010550D01*
X017512Y009550D02*
X018072Y009550D01*
X018072Y008550D02*
X017512Y008550D01*
X016072Y008550D02*
X015512Y008550D01*
X015512Y009550D02*
X016072Y009550D01*
X016072Y010550D02*
X015512Y010550D01*
D21*
X003947Y029611D02*
X003238Y029611D01*
X003238Y030989D02*
X003947Y030989D01*
D22*
X004592Y027100D03*
X003892Y026975D03*
X004992Y025925D03*
X004392Y025400D03*
X005042Y024050D03*
X005542Y023550D03*
X006492Y024050D03*
X007042Y023550D03*
X007992Y024050D03*
X008542Y023550D03*
X007592Y022150D03*
X006192Y022100D03*
X004792Y022050D03*
X004123Y023530D03*
X003542Y023950D03*
X006067Y025300D03*
X006492Y025925D03*
X006892Y026975D03*
X007542Y027250D03*
X008417Y027000D03*
X007992Y025925D03*
X007542Y025300D03*
X008992Y025300D03*
X009592Y025925D03*
X009742Y026550D03*
X010942Y024950D03*
X011142Y024600D03*
X011392Y024300D03*
X011692Y024000D03*
X013792Y024050D03*
X014323Y023480D03*
X015242Y024100D03*
X015792Y023500D03*
X016742Y024100D03*
X017373Y023530D03*
X018242Y024100D03*
X018692Y023500D03*
X018932Y022290D03*
X017532Y022290D03*
X016132Y022340D03*
X014732Y022340D03*
X012842Y021750D03*
X012342Y020450D03*
X010742Y019850D03*
X009542Y021750D03*
X006592Y019700D03*
X006192Y019200D03*
X006942Y018850D03*
X008242Y018850D03*
X009307Y017140D03*
X008692Y016000D03*
X008242Y014650D03*
X007042Y015950D03*
X005429Y015663D03*
X003882Y015060D03*
X008642Y012100D03*
X009342Y012100D03*
X010042Y012100D03*
X010742Y012100D03*
X011442Y012100D03*
X012142Y012100D03*
X012842Y012100D03*
X013542Y012100D03*
X015042Y013300D03*
X015642Y012725D03*
X016520Y013228D03*
X017667Y012725D03*
X018567Y013450D03*
X019042Y013300D03*
X019653Y012725D03*
X020567Y013500D03*
X020692Y014200D03*
X021592Y015400D03*
X022642Y015600D03*
X023492Y015550D03*
X024342Y015900D03*
X024567Y013525D03*
X024942Y013300D03*
X025653Y012725D03*
X026567Y013525D03*
X027042Y013300D03*
X027667Y012725D03*
X028592Y013525D03*
X029042Y013300D03*
X029717Y012725D03*
X030592Y013512D03*
X030617Y011450D03*
X028567Y011475D03*
X026542Y011475D03*
X024542Y011475D03*
X023667Y012725D03*
X022567Y013525D03*
X021642Y012725D03*
X022492Y011450D03*
X020492Y011450D03*
X018492Y011425D03*
X016492Y011425D03*
X014767Y010275D03*
X016367Y009050D03*
X018317Y009025D03*
X018292Y007000D03*
X018292Y005650D03*
X018692Y005450D03*
X019792Y006200D03*
X020442Y005850D03*
X021092Y006150D03*
X021492Y005850D03*
X021792Y006250D03*
X022242Y007000D03*
X024092Y006250D03*
X024342Y007000D03*
X024792Y005850D03*
X025292Y005350D03*
X025492Y004650D03*
X026467Y006125D03*
X026342Y007000D03*
X027592Y005350D03*
X027092Y004800D03*
X027042Y003250D03*
X029092Y003250D03*
X030142Y005550D03*
X030442Y007000D03*
X031892Y005850D03*
X032692Y007250D03*
X033792Y007210D03*
X035122Y007130D03*
X036192Y007450D03*
X036532Y007770D03*
X036642Y007150D03*
X037242Y006100D03*
X038742Y006950D03*
X039427Y006465D03*
X040142Y007050D03*
X040542Y006650D03*
X041042Y007450D03*
X041342Y008050D03*
X041142Y008550D03*
X040642Y008850D03*
X040642Y008225D03*
X039004Y009088D03*
X037842Y008550D03*
X036542Y008550D03*
X036342Y009500D03*
X035892Y010300D03*
X035542Y009350D03*
X035092Y011050D03*
X034442Y011300D03*
X036842Y012150D03*
X037992Y011450D03*
X038692Y011350D03*
X038592Y012050D03*
X038392Y013750D03*
X038792Y014100D03*
X038392Y014450D03*
X037792Y014750D03*
X037792Y013600D03*
X040192Y013650D03*
X041042Y015125D03*
X041242Y017900D03*
X040692Y017900D03*
X040642Y018550D03*
X041492Y019100D03*
X041492Y019850D03*
X041492Y020550D03*
X041342Y025200D03*
X041192Y026200D03*
X038842Y028650D03*
X039792Y029350D03*
X038842Y029850D03*
X038842Y030300D03*
X034442Y026150D03*
X033332Y025210D03*
X032817Y025050D03*
X032142Y023600D03*
X031092Y023200D03*
X029992Y024400D03*
X030342Y026000D03*
X031342Y027250D03*
X032192Y027800D03*
X030092Y027700D03*
X027142Y028500D03*
X026442Y028150D03*
X027142Y029300D03*
X026842Y030050D03*
X027442Y030100D03*
X025677Y030850D03*
X024698Y029844D03*
X025192Y029400D03*
X024492Y028900D03*
X024042Y028500D03*
X025142Y027300D03*
X025692Y026550D03*
X026892Y026900D03*
X024817Y025850D03*
X024042Y025850D03*
X022542Y024800D03*
X022542Y024350D03*
X022542Y023900D03*
X022542Y023450D03*
X021942Y022150D03*
X023452Y021340D03*
X024042Y020250D03*
X022642Y019750D03*
X023392Y018150D03*
X021242Y017550D03*
X019392Y017000D03*
X018692Y016300D03*
X018792Y015350D03*
X017092Y015450D03*
X016792Y014850D03*
X016742Y014300D03*
X015679Y015837D03*
X016342Y016650D03*
X016342Y017750D03*
X016542Y018700D03*
X016592Y019700D03*
X017142Y019700D03*
X015042Y018850D03*
X014392Y018250D03*
X014392Y017150D03*
X013592Y016850D03*
X013167Y017175D03*
X012142Y015650D03*
X012142Y008600D03*
X011442Y008600D03*
X010742Y008600D03*
X010042Y008600D03*
X009342Y008600D03*
X008642Y008600D03*
X007342Y008000D03*
X007342Y007150D03*
X006382Y005760D03*
X007932Y005200D03*
X009292Y004200D03*
X009392Y003550D03*
X010292Y003700D03*
X010792Y003350D03*
X011294Y004098D03*
X011884Y004108D03*
X012475Y004083D03*
X013065Y004073D03*
X013742Y005250D03*
X014642Y006150D03*
X016292Y007000D03*
X016792Y005450D03*
X016392Y004500D03*
X016292Y003450D03*
X015142Y002350D03*
X020292Y003050D03*
X020642Y003450D03*
X020992Y003050D03*
X021292Y003900D03*
X021842Y003650D03*
X022192Y003200D03*
X022742Y003900D03*
X020242Y007000D03*
X020342Y009050D03*
X022292Y009040D03*
X024417Y009075D03*
X026392Y009000D03*
X028492Y009050D03*
X028342Y007000D03*
X028242Y006175D03*
X031963Y004220D03*
X032312Y003060D03*
X032792Y003010D03*
X032342Y002350D03*
X033294Y004202D03*
X033884Y004242D03*
X034475Y004283D03*
X035065Y004323D03*
X032542Y009150D03*
X031842Y009650D03*
X037692Y010300D03*
X041092Y010600D03*
X043392Y008950D03*
X043842Y008400D03*
X044492Y008450D03*
X044092Y009150D03*
X043592Y010150D03*
X045992Y011400D03*
X048042Y010350D03*
X048042Y008150D03*
X048142Y006250D03*
X049042Y005050D03*
X049742Y006350D03*
X049942Y007550D03*
X051142Y006350D03*
X051442Y005950D03*
X050942Y005550D03*
X050642Y005050D03*
X050882Y003540D03*
X049842Y003450D03*
X049742Y001850D03*
X049442Y001550D03*
X048942Y001650D03*
X048642Y001950D03*
X050992Y001500D03*
X051442Y002350D03*
X051942Y001850D03*
X052242Y001550D03*
X052642Y001750D03*
X053042Y001850D03*
X054317Y001300D03*
X055142Y001850D03*
X055542Y001650D03*
X055942Y001750D03*
X056342Y001850D03*
X057417Y001500D03*
X057942Y002250D03*
X058442Y001850D03*
X058842Y001550D03*
X059142Y001850D03*
X059542Y001850D03*
X060742Y002850D03*
X060092Y003425D03*
X059542Y003450D03*
X059342Y004050D03*
X059042Y004550D03*
X058842Y005150D03*
X058542Y005650D03*
X056042Y003850D03*
X056342Y003350D03*
X056992Y003350D03*
X055842Y004450D03*
X055542Y004950D03*
X055342Y005550D03*
X053692Y003300D03*
X053042Y003350D03*
X052842Y004050D03*
X052542Y004550D03*
X052342Y005150D03*
X052142Y005750D03*
X054642Y002350D03*
X044892Y007100D03*
X044292Y007300D03*
X044742Y006350D03*
X044565Y004277D03*
X043975Y004292D03*
X043384Y004283D03*
X042794Y004298D03*
X041463Y004195D03*
X041752Y003410D03*
X042232Y003010D03*
X042192Y005700D03*
X041192Y005650D03*
X048142Y012750D03*
X048142Y015050D03*
X050542Y016400D03*
X050892Y017000D03*
X051342Y017450D03*
X049842Y017300D03*
X048142Y017550D03*
X047442Y019200D03*
X047742Y019850D03*
X048142Y020350D03*
X048542Y020000D03*
X048792Y021950D03*
X049692Y022150D03*
X049692Y022950D03*
X049342Y023450D03*
X048142Y024950D03*
X047742Y025950D03*
X049242Y027000D03*
X049992Y027800D03*
X050042Y028450D03*
X050942Y028050D03*
X051542Y027550D03*
X051242Y029472D03*
X051542Y029872D03*
X051942Y029522D03*
X051592Y030422D03*
X051092Y031372D03*
X049492Y034300D03*
X049042Y034650D03*
X050067Y035325D03*
X051042Y036950D03*
X049892Y037400D03*
X049892Y037950D03*
X048142Y040450D03*
X046742Y039000D03*
X046092Y037625D03*
X046592Y036400D03*
X046492Y035425D03*
X045692Y035000D03*
X042942Y034600D03*
X042692Y035750D03*
X041992Y036200D03*
X042342Y036600D03*
X042142Y037000D03*
X042192Y037400D03*
X042392Y037750D03*
X042542Y038200D03*
X042942Y038650D03*
X043142Y039000D03*
X041317Y038200D03*
X041217Y040425D03*
X041292Y040875D03*
X038342Y043900D03*
X038042Y044200D03*
X037692Y044500D03*
X038042Y044850D03*
X037692Y045500D03*
X037576Y046116D03*
X035992Y045150D03*
X037542Y043600D03*
X037942Y043300D03*
X038026Y042767D03*
X037592Y042650D03*
X036392Y042300D03*
X037642Y039502D03*
X033217Y036975D03*
X024192Y031350D03*
X023492Y030700D03*
X021992Y027050D03*
X021402Y026360D03*
X019717Y025925D03*
X019142Y025500D03*
X018217Y025925D03*
X017642Y025500D03*
X016767Y025925D03*
X016767Y026600D03*
X016342Y027100D03*
X015992Y028000D03*
X014842Y027150D03*
X015257Y026610D03*
X015217Y025925D03*
X014717Y025450D03*
X013592Y025925D03*
X013757Y026610D03*
X012042Y026350D03*
X008792Y028250D03*
X006092Y027100D03*
X005407Y027065D03*
X016142Y025500D03*
X017842Y027150D03*
X018267Y026650D03*
X019392Y027100D03*
X023992Y023550D03*
X024942Y023250D03*
X025242Y022500D03*
X027142Y022650D03*
X027142Y021900D03*
X027342Y023500D03*
X028942Y021600D03*
X029642Y021250D03*
X029592Y020150D03*
X028942Y020050D03*
X030717Y019675D03*
X031692Y017700D03*
X032492Y018000D03*
X033692Y019250D03*
X035792Y019700D03*
X035692Y020700D03*
X035542Y021700D03*
X035342Y022700D03*
X035192Y023700D03*
X035092Y024700D03*
X035942Y018700D03*
X035992Y017700D03*
X030742Y015950D03*
X029942Y016100D03*
X028042Y017000D03*
X028117Y017850D03*
X020392Y019650D03*
X013542Y008600D03*
X012842Y008600D03*
X002342Y007900D03*
X038192Y047950D03*
X037542Y049575D03*
X038867Y049575D03*
X038942Y051475D03*
X041892Y051500D03*
X043942Y051600D03*
X043942Y052400D03*
X044892Y051100D03*
X044242Y050800D03*
X043742Y050150D03*
X048042Y048950D03*
X048042Y046650D03*
X048042Y044350D03*
X051842Y048250D03*
X052142Y048650D03*
X052142Y049250D03*
X052092Y050400D03*
X053492Y051650D03*
X053942Y052950D03*
X053742Y054650D03*
X051742Y052850D03*
X050642Y051750D03*
X053342Y048950D03*
X053342Y048050D03*
X053642Y047750D03*
X053342Y047050D03*
X052142Y047350D03*
X053842Y045750D03*
X054042Y044850D03*
X053942Y044450D03*
X053942Y044050D03*
X053942Y043650D03*
X053942Y043150D03*
X053942Y042650D03*
X056342Y042650D03*
X056542Y042250D03*
X056942Y042050D03*
X056942Y041650D03*
X057042Y041250D03*
X057342Y040850D03*
X058742Y040450D03*
X059342Y040550D03*
X059442Y040150D03*
X059842Y040650D03*
X059942Y039650D03*
X060042Y039250D03*
X061242Y039550D03*
X062342Y039550D03*
X062642Y039950D03*
X062942Y040350D03*
X062042Y038750D03*
X061742Y038350D03*
X056442Y043750D03*
X056042Y044950D03*
X056142Y045350D03*
X055742Y045550D03*
X055867Y046075D03*
X056242Y046350D03*
X055742Y046750D03*
X054542Y046650D03*
X054142Y046750D03*
X054042Y050300D03*
X056267Y051475D03*
X057542Y049050D03*
X057942Y048850D03*
X058142Y048450D03*
X058342Y048050D03*
X058642Y047750D03*
X058742Y047350D03*
X058842Y046750D03*
X059042Y052850D03*
X058742Y057500D03*
X051992Y060350D03*
X050892Y061450D03*
X034642Y057550D03*
X054542Y039850D03*
X052492Y034697D03*
X046492Y031700D03*
X046442Y029500D03*
X046042Y025650D03*
X046192Y024800D03*
X046242Y024050D03*
X046542Y022450D03*
X046692Y020800D03*
X046692Y018800D03*
X050942Y021950D03*
X050992Y024000D03*
X049842Y025900D03*
D23*
X047342Y032700D03*
D24*
X061792Y005400D03*
M02*
