%
M48
M72
T01C0.0150
T02C0.0236
T03C0.0360
T04C0.0394
T05C0.0400
T06C0.0472
T07C0.0512
T08C0.0551
T09C0.0669
T10C0.0866
T11C0.0984
T12C0.1250
T13C0.1378
%
T01
X7932Y8255
X9292Y7255
X9392Y6605
X10292Y6755
X10792Y6405
X11294Y7153
X11884Y7163
X12475Y7138
X13065Y7128
X13742Y8305
X14642Y9205
X16292Y10055
X16792Y8505
X16392Y7555
X16292Y6505
X15142Y5405
X18292Y8705
X18692Y8505
X19792Y9255
X20442Y8905
X21092Y9205
X21492Y8905
X21792Y9305
X22242Y10055
X24092Y9305
X24342Y10055
X24792Y8905
X25292Y8405
X25492Y7705
X26467Y9180
X26342Y10055
X28342Y10055
X28242Y9230
X27592Y8405
X27092Y7855
X27042Y6305
X29092Y6305
X30142Y8605
X30442Y10055
X31892Y8905
X32692Y10305
X33792Y10265
X35122Y10185
X36192Y10505
X36532Y10825
X36642Y10205
X37242Y9155
X38742Y10005
X39427Y9520
X40142Y10105
X40542Y9705
X41042Y10505
X41342Y11105
X41142Y11605
X40642Y11905
X40642Y11280
X39004Y12143
X37842Y11605
X36542Y11605
X35542Y12405
X36342Y12555
X35892Y13355
X35092Y14105
X34442Y14355
X36842Y15205
X37992Y14505
X38692Y14405
X38592Y15105
X38392Y16805
X38792Y17155
X38392Y17505
X37792Y17805
X37792Y16655
X40192Y16705
X41042Y18180
X40642Y21605
X41542Y23005
X41342Y28255
X41192Y29255
X38842Y31705
X38842Y32905
X38842Y33355
X39792Y32405
X42942Y37655
X42692Y38805
X41992Y39255
X42342Y39655
X42142Y40055
X42192Y40455
X42392Y40805
X42542Y41255
X42942Y41705
X43142Y42055
X41242Y41280
X41217Y43480
X41292Y43930
X38342Y46955
X38042Y47255
X37692Y47555
X38042Y47905
X37692Y48555
X37576Y49171
X35992Y48205
X37542Y46655
X37942Y46355
X38026Y45821
X37592Y45705
X36392Y45355
X37642Y42557
X33217Y40030
X27442Y33155
X26842Y33105
X27142Y32355
X27142Y31555
X26442Y31205
X26892Y29955
X25692Y29605
X25142Y30355
X24817Y28905
X24042Y28905
X22542Y27855
X22542Y27405
X22542Y26955
X22542Y26505
X21942Y25205
X23452Y24395
X24042Y23305
X22542Y22305
X22042Y23205
X21342Y23305
X18932Y25345
X18692Y26555
X18242Y27155
X17373Y26585
X16742Y27155
X15792Y26555
X15242Y27155
X14323Y26535
X13792Y27155
X14717Y28505
X15217Y28980
X15257Y29665
X14842Y30205
X13757Y29665
X13592Y28980
X12042Y29405
X10942Y28005
X11142Y27655
X11392Y27355
X11692Y27055
X9592Y28980
X9742Y29605
X8417Y30055
X7542Y30305
X6892Y30030
X6092Y30155
X5407Y30120
X4592Y30155
X3892Y30030
X4992Y28980
X4392Y28455
X5042Y27105
X5542Y26605
X6492Y27105
X7042Y26605
X7992Y27105
X8542Y26605
X7592Y25205
X6192Y25155
X4792Y25105
X4123Y26585
X3542Y27005
X6067Y28355
X6492Y28980
X7542Y28355
X7992Y28980
X8992Y28355
X8792Y31305
X14732Y25395
X16132Y25395
X17532Y25345
X17142Y22755
X16592Y22755
X16542Y21755
X16342Y20805
X16342Y19705
X15679Y18892
X16792Y17905
X16742Y17355
X16520Y16283
X15642Y15780
X15042Y16355
X13542Y15155
X12842Y15155
X12142Y15155
X11442Y15155
X10742Y15155
X10042Y15155
X9342Y15155
X8642Y15155
X8242Y17705
X8692Y19055
X9307Y20195
X8242Y21905
X6942Y21905
X6192Y22255
X6592Y22755
X9542Y24805
X13167Y20230
X13592Y19905
X14392Y20205
X14392Y21305
X15042Y21905
X17092Y18505
X18792Y18405
X18692Y19355
X19392Y20055
X21592Y18455
X22242Y19005
X23492Y18605
X24342Y18955
X24567Y16580
X24942Y16355
X25653Y15780
X26567Y16580
X27042Y16355
X27667Y15780
X28592Y16580
X29042Y16355
X29717Y15780
X30592Y16567
X30617Y14505
X31842Y12705
X32542Y12205
X28492Y12105
X26392Y12055
X24417Y12130
X22292Y12095
X20342Y12105
X18317Y12080
X16367Y12105
X14767Y13330
X16492Y14480
X17667Y15780
X18567Y16505
X19042Y16355
X19653Y15780
X20567Y16555
X20692Y17255
X21642Y15780
X22567Y16580
X23667Y15780
X24542Y14530
X26542Y14530
X28567Y14530
X30742Y19005
X29942Y19155
X28042Y20055
X28117Y20905
X28942Y23105
X29592Y23205
X29642Y24305
X28942Y24655
X27142Y24955
X27142Y25705
X27342Y26555
X25242Y25555
X24942Y26305
X23992Y26605
X21402Y29415
X21992Y30105
X24042Y31555
X24492Y31955
X25192Y32455
X24698Y32899
X25677Y33905
X24192Y34405
X23492Y33755
X19392Y30155
X18267Y29705
X17842Y30205
X16767Y29655
X16342Y30155
X16092Y31055
X16767Y28980
X16142Y28555
X17642Y28555
X18217Y28980
X19142Y28555
X19717Y28980
X29992Y27455
X31092Y26255
X32142Y26655
X32817Y28105
X33332Y28265
X34442Y29255
X35092Y27755
X35192Y26755
X35342Y25755
X35542Y24755
X35692Y23755
X35792Y22755
X35942Y21755
X35992Y20755
X36342Y19205
X32442Y22305
X30717Y22730
X30342Y29055
X31342Y30305
X32192Y30855
X30092Y30755
X45692Y38055
X46442Y38605
X46592Y39455
X46092Y40680
X46742Y42055
X48142Y43505
X49892Y41005
X49892Y40455
X51042Y40005
X50067Y38380
X49492Y37355
X49042Y37705
X52492Y37752
X51592Y33477
X48042Y31005
X46442Y32555
X48142Y28005
X48142Y23405
X48142Y20705
X48142Y18105
X43592Y13205
X44092Y12205
X43392Y12005
X43842Y11455
X44492Y11505
X44292Y10355
X44892Y10155
X44742Y9405
X44565Y7332
X43975Y7347
X43384Y7338
X42794Y7353
X42192Y8755
X41463Y7250
X41752Y6465
X42232Y6065
X48142Y10005
X48042Y11205
X49942Y10605
X49742Y10105
X50942Y9305
X50642Y8805
X51442Y9705
X51142Y10105
X52142Y9505
X52342Y8905
X52542Y8305
X52842Y7805
X53042Y7105
X53692Y7055
X54642Y6105
X55142Y5605
X55542Y5405
X55942Y5505
X56342Y5605
X56342Y7105
X56042Y7605
X55842Y8205
X55542Y8705
X55342Y9305
X56992Y7105
X57942Y6005
X58342Y5330
X58842Y5305
X59142Y5605
X59542Y5605
X59542Y7205
X60092Y7180
X59342Y7805
X59042Y8305
X59642Y9705
X59242Y10105
X53042Y5605
X52642Y5505
X52242Y5305
X51942Y5605
X51442Y6105
X50861Y6668
X49842Y7205
X49742Y5605
X49442Y5305
X48942Y5405
X48642Y5705
X49042Y8805
X41092Y13655
X37692Y13355
X35065Y7378
X34475Y7338
X33884Y7297
X33294Y7257
X32792Y6065
X32312Y6115
X32342Y5405
X31963Y7275
X22742Y6955
X22192Y6255
X21842Y6705
X21292Y6955
X20642Y6505
X20292Y6105
X20992Y6105
X20242Y10055
X18292Y10055
X18492Y14480
X20492Y14505
X22492Y14505
X13542Y11655
X12842Y11655
X12142Y11655
X11442Y11655
X10742Y11655
X10042Y11655
X9342Y11655
X8642Y11655
X7342Y11055
X7342Y10205
X6382Y8815
X2342Y10955
X3882Y18115
X5429Y18718
X7042Y19005
X10892Y18230
X11492Y18230
X38192Y51005
X37542Y52630
X38867Y52630
X38942Y54530
X41892Y54555
X43942Y55455
X44742Y54855
X44942Y54105
X44242Y53855
X43742Y53205
X48042Y52005
X48042Y49705
X48042Y47405
X52142Y50405
X51842Y51305
X52142Y51705
X52142Y52305
X52092Y53455
X53492Y54705
X53942Y56005
X53742Y57905
X55742Y57355
X57742Y57805
X58242Y58205
X58742Y58205
X59142Y57805
X58742Y57405
X58242Y57405
X59042Y55905
X56267Y54530
X57542Y52105
X57942Y51905
X58142Y51505
X58342Y51105
X58642Y50805
X58742Y50405
X58842Y49805
X56242Y49405
X55867Y49130
X55742Y48605
X56142Y48405
X56042Y48005
X56442Y46805
X56342Y45705
X56542Y45305
X56942Y45105
X56942Y44705
X57042Y44305
X57342Y43905
X58742Y43505
X59342Y43605
X59442Y43205
X59842Y43705
X59942Y42705
X60042Y42305
X61242Y42605
X62342Y42605
X62642Y43005
X62942Y43405
X62042Y41805
X61742Y41405
X54542Y42905
X53942Y45705
X53942Y46205
X53942Y46705
X53942Y47105
X53942Y47505
X54042Y47905
X53842Y48805
X54542Y49705
X54142Y49805
X53342Y50105
X53642Y50805
X53342Y51105
X53342Y52005
X53942Y53005
X51742Y55905
X50642Y54805
X55742Y49805
X34642Y60605
T02
X47342Y35755
X51642Y27205
X51642Y23905
X61442Y18305
X61611Y15223
X61542Y11305
X61542Y10705
X58367Y10830
X58367Y11405
X55267Y11655
X55067Y10980
X52417Y10855
X52042Y10405
X50842Y4005
X49242Y1805
X47442Y3805
X46542Y3805
X41342Y1705
X40542Y3705
X41342Y8805
X33242Y1805
X29942Y3205
X20242Y1805
X18542Y3105
X8642Y1705
X31042Y21505
X34542Y22405
X54042Y4005
X52442Y1805
X55642Y1705
X57242Y4105
X58842Y1805
X61242Y4005
X61942Y3905
X61542Y6205
T03
X2392Y1355
X2392Y2355
X2392Y3355
X15792Y11605
X15792Y12605
X15792Y13605
X17792Y13605
X17792Y12605
X17792Y11605
X19792Y11605
X19792Y12605
X19792Y13605
X21792Y13605
X21792Y12605
X21792Y11605
X23792Y11605
X23792Y12605
X23792Y13605
X25792Y13605
X25792Y12605
X25792Y11605
X27792Y11605
X27792Y12605
X27792Y13605
X29892Y13605
X29892Y12605
X29892Y11605
X2392Y19405
X2392Y20405
X2392Y21405
X19042Y65605
X19042Y66605
X20042Y66605
X21042Y66605
X21042Y65605
X20042Y65605
X22042Y65605
X23042Y65605
X23042Y66605
X22042Y66605
X63242Y21355
X63242Y20355
X63242Y19355
X62432Y16198
X62432Y15198
X62432Y14198
X63242Y3305
X63242Y2305
X63242Y1305
T04
X31500Y62508
X30500Y62508
T05
X29642Y58055
X29642Y57055
X29642Y56055
X29642Y55055
X29642Y54055
X29642Y53055
X29642Y52055
X29642Y51055
X29642Y50055
X29642Y49055
X29642Y48055
X29642Y47055
X29642Y46055
X29642Y45055
X29642Y44055
X29642Y43055
X29642Y42055
X29642Y41055
X29642Y40055
X29642Y39055
X29642Y38055
X29642Y37055
X29642Y36055
X25642Y36055
X25642Y37055
X24642Y37055
X23642Y37055
X23642Y36055
X24642Y36055
X22642Y36055
X21642Y36055
X20642Y36055
X20642Y37055
X21642Y37055
X22642Y37055
X22642Y38055
X21642Y38055
X20642Y38055
X20642Y39055
X20642Y40055
X21642Y40055
X21642Y39055
X22642Y39055
X22642Y40055
X22642Y41055
X21642Y41055
X20642Y41055
X20642Y42055
X20642Y43055
X21642Y43055
X21642Y42055
X22642Y42055
X22642Y43055
X22642Y44055
X21642Y44055
X20642Y44055
X20642Y45055
X20642Y46055
X21642Y46055
X21642Y45055
X22642Y45055
X22642Y46055
X22642Y47055
X21642Y47055
X20642Y47055
X20642Y48055
X21642Y48055
X22642Y48055
X22642Y49055
X21642Y49055
X20642Y49055
X20642Y50055
X20642Y51055
X21642Y51055
X21642Y50055
X22642Y50055
X22642Y51055
X22642Y52055
X21642Y52055
X20642Y52055
X20642Y53055
X20642Y54055
X21642Y54055
X21642Y53055
X22642Y53055
X22642Y54055
X22642Y55055
X21642Y55055
X20642Y55055
X20642Y56055
X21642Y56055
X22642Y56055
X22642Y57055
X21642Y57055
X20642Y57055
X20642Y58055
X20642Y59055
X21642Y59055
X21642Y58055
X22642Y58055
X22642Y59055
X22642Y60055
X21642Y60055
X20642Y60055
X20642Y61055
X20642Y62055
X21642Y62055
X21642Y61055
X22642Y61055
X22642Y62055
X22642Y63055
X21642Y63055
X20642Y63055
X19642Y63055
X18642Y63055
X17642Y63055
X16642Y63055
X15642Y63055
X14642Y63055
X13642Y63055
X12642Y63055
X11642Y63055
X10642Y63055
X9642Y63055
X8642Y63055
X7642Y63055
X6642Y63055
X5642Y63055
X4642Y63055
X3642Y63055
X3642Y62055
X3642Y61055
X3642Y60055
X4642Y60055
X4642Y61055
X4642Y62055
X5642Y62055
X5642Y61055
X5642Y60055
X5642Y59055
X4642Y59055
X3642Y59055
X3642Y58055
X3642Y57055
X4642Y57055
X4642Y58055
X5642Y58055
X5642Y57055
X5642Y56055
X4642Y56055
X3642Y56055
X3642Y55055
X4642Y55055
X5642Y55055
X5642Y54055
X4642Y54055
X3642Y54055
X3642Y53055
X3642Y52055
X4642Y52055
X4642Y53055
X5642Y53055
X5642Y52055
X5642Y51055
X4642Y51055
X3642Y51055
X3642Y50055
X3642Y49055
X4642Y49055
X4642Y50055
X5642Y50055
X5642Y49055
X5642Y48055
X4642Y48055
X3642Y48055
X3642Y47055
X4642Y47055
X5642Y47055
X5642Y46055
X4642Y46055
X3642Y46055
X3642Y45055
X3642Y44055
X4642Y44055
X4642Y45055
X5642Y45055
X5642Y44055
X5642Y43055
X4642Y43055
X3642Y43055
X3642Y42055
X3642Y41055
X4642Y41055
X4642Y42055
X5642Y42055
X5642Y41055
X5642Y40055
X4642Y40055
X3642Y40055
X3642Y39055
X3642Y38055
X4642Y38055
X4642Y39055
X5642Y39055
X5642Y38055
X5642Y37055
X4642Y37055
X3642Y37055
X3642Y36055
X4642Y36055
X5642Y36055
X6642Y36055
X6642Y37055
X7642Y37055
X7642Y36055
X8642Y36055
X8642Y37055
X9642Y37055
X9642Y36055
X10642Y36055
X10642Y37055
X10642Y38055
X9642Y38055
X8642Y38055
X8642Y39055
X8642Y40055
X9642Y40055
X9642Y39055
X10642Y39055
X10642Y40055
X10642Y41055
X9642Y41055
X8642Y41055
X8642Y42055
X8642Y43055
X9642Y43055
X9642Y42055
X10642Y42055
X10642Y43055
X10642Y44055
X9642Y44055
X8642Y44055
X8642Y45055
X8642Y46055
X9642Y46055
X9642Y45055
X10642Y45055
X10642Y46055
X10642Y47055
X9642Y47055
X8642Y47055
X8642Y48055
X9642Y48055
X10642Y48055
X10642Y49055
X9642Y49055
X8642Y49055
X8642Y50055
X8642Y51055
X9642Y51055
X9642Y50055
X10642Y50055
X10642Y51055
X10642Y52055
X9642Y52055
X8642Y52055
X8642Y53055
X8642Y54055
X9642Y54055
X9642Y53055
X10642Y53055
X10642Y54055
X10642Y55055
X9642Y55055
X8642Y55055
X8642Y56055
X9642Y56055
X10642Y56055
X10642Y57055
X9642Y57055
X8642Y57055
X8642Y58055
X8642Y59055
X9642Y59055
X9642Y58055
X10642Y58055
X10642Y59055
X10642Y60055
X9642Y60055
X8642Y60055
X8642Y61055
X8642Y62055
X9642Y62055
X9642Y61055
X10642Y61055
X10642Y62055
X11642Y62055
X11642Y61055
X11642Y60055
X12642Y60055
X12642Y61055
X12642Y62055
X13642Y62055
X13642Y61055
X13642Y60055
X14642Y60055
X14642Y61055
X14642Y62055
X15642Y62055
X15642Y61055
X15642Y60055
X16642Y60055
X16642Y61055
X16642Y62055
X17642Y62055
X17642Y61055
X17642Y60055
X17642Y59055
X16642Y59055
X15642Y59055
X15642Y58055
X15642Y57055
X16642Y57055
X16642Y58055
X17642Y58055
X17642Y57055
X17642Y56055
X16642Y56055
X15642Y56055
X15642Y55055
X16642Y55055
X17642Y55055
X17642Y54055
X16642Y54055
X15642Y54055
X15642Y53055
X15642Y52055
X16642Y52055
X16642Y53055
X17642Y53055
X17642Y52055
X17642Y51055
X16642Y51055
X15642Y51055
X15642Y50055
X15642Y49055
X16642Y49055
X16642Y50055
X17642Y50055
X17642Y49055
X17642Y48055
X16642Y48055
X15642Y48055
X15642Y47055
X16642Y47055
X17642Y47055
X17642Y46055
X16642Y46055
X15642Y46055
X15642Y45055
X15642Y44055
X16642Y44055
X16642Y45055
X17642Y45055
X17642Y44055
X17642Y43055
X16642Y43055
X15642Y43055
X15642Y42055
X15642Y41055
X16642Y41055
X16642Y42055
X17642Y42055
X17642Y41055
X17642Y40055
X16642Y40055
X15642Y40055
X15642Y39055
X15642Y38055
X16642Y38055
X16642Y39055
X17642Y39055
X17642Y38055
X17642Y37055
X16642Y37055
X15642Y37055
X15642Y36055
X16642Y36055
X17642Y36055
X18642Y36055
X18642Y37055
X19642Y37055
X19642Y36055
X19642Y38055
X18642Y38055
X18642Y39055
X18642Y40055
X19642Y40055
X19642Y39055
X19642Y41055
X18642Y41055
X18642Y42055
X18642Y43055
X19642Y43055
X19642Y42055
X19642Y44055
X18642Y44055
X18642Y45055
X18642Y46055
X19642Y46055
X19642Y45055
X19642Y47055
X18642Y47055
X18642Y48055
X19642Y48055
X19642Y49055
X18642Y49055
X18642Y50055
X18642Y51055
X19642Y51055
X19642Y50055
X19642Y52055
X18642Y52055
X18642Y53055
X18642Y54055
X19642Y54055
X19642Y53055
X19642Y55055
X18642Y55055
X18642Y56055
X19642Y56055
X19642Y57055
X18642Y57055
X18642Y58055
X18642Y59055
X19642Y59055
X19642Y58055
X19642Y60055
X18642Y60055
X18642Y61055
X18642Y62055
X19642Y62055
X19642Y61055
X23642Y61055
X23642Y62055
X24642Y62055
X24642Y61055
X24642Y60055
X23642Y60055
X23642Y59055
X23642Y58055
X23642Y57055
X24642Y57055
X24642Y58055
X24642Y59055
X25642Y59055
X25642Y58055
X25642Y57055
X25642Y56055
X25642Y55055
X24642Y55055
X23642Y55055
X23642Y56055
X24642Y56055
X24642Y54055
X23642Y54055
X23642Y53055
X23642Y52055
X24642Y52055
X24642Y53055
X25642Y53055
X25642Y54055
X25642Y52055
X25642Y51055
X25642Y50055
X25642Y49055
X24642Y49055
X23642Y49055
X23642Y50055
X23642Y51055
X24642Y51055
X24642Y50055
X24642Y48055
X23642Y48055
X23642Y47055
X24642Y47055
X24642Y46055
X23642Y46055
X23642Y45055
X23642Y44055
X24642Y44055
X24642Y45055
X25642Y45055
X25642Y46055
X25642Y47055
X25642Y48055
X25642Y44055
X25642Y43055
X25642Y42055
X25642Y41055
X24642Y41055
X23642Y41055
X23642Y42055
X23642Y43055
X24642Y43055
X24642Y42055
X24642Y40055
X23642Y40055
X23642Y39055
X23642Y38055
X24642Y38055
X24642Y39055
X25642Y39055
X25642Y40055
X25642Y38055
X22542Y34655
X22542Y33655
X22542Y32655
X22542Y31655
X14642Y36055
X13642Y36055
X13642Y37055
X14642Y37055
X14642Y38055
X13642Y38055
X13642Y39055
X13642Y40055
X14642Y40055
X14642Y39055
X12642Y39055
X11642Y39055
X11642Y40055
X12642Y40055
X12642Y41055
X11642Y41055
X11642Y42055
X11642Y43055
X12642Y43055
X12642Y42055
X13642Y42055
X13642Y43055
X14642Y43055
X14642Y42055
X14642Y41055
X13642Y41055
X13642Y44055
X13642Y45055
X13642Y46055
X14642Y46055
X14642Y45055
X14642Y44055
X12642Y44055
X11642Y44055
X11642Y45055
X11642Y46055
X12642Y46055
X12642Y45055
X12642Y47055
X11642Y47055
X11642Y48055
X12642Y48055
X12642Y49055
X11642Y49055
X11642Y50055
X11642Y51055
X12642Y51055
X12642Y50055
X13642Y50055
X13642Y51055
X14642Y51055
X14642Y50055
X14642Y49055
X13642Y49055
X13642Y48055
X13642Y47055
X14642Y47055
X14642Y48055
X14642Y52055
X13642Y52055
X13642Y53055
X13642Y54055
X14642Y54055
X14642Y53055
X12642Y53055
X11642Y53055
X11642Y54055
X12642Y54055
X12642Y55055
X11642Y55055
X11642Y56055
X12642Y56055
X12642Y57055
X11642Y57055
X11642Y58055
X11642Y59055
X12642Y59055
X12642Y58055
X13642Y58055
X13642Y59055
X14642Y59055
X14642Y58055
X14642Y57055
X13642Y57055
X13642Y56055
X13642Y55055
X14642Y55055
X14642Y56055
X12642Y52055
X11642Y52055
X7642Y52055
X6642Y52055
X6642Y53055
X6642Y54055
X7642Y54055
X7642Y53055
X7642Y55055
X6642Y55055
X6642Y56055
X7642Y56055
X7642Y57055
X6642Y57055
X6642Y58055
X6642Y59055
X7642Y59055
X7642Y58055
X7642Y60055
X6642Y60055
X6642Y61055
X6642Y62055
X7642Y62055
X7642Y61055
X7642Y51055
X6642Y51055
X6642Y50055
X6642Y49055
X7642Y49055
X7642Y50055
X7642Y48055
X6642Y48055
X6642Y47055
X7642Y47055
X7642Y46055
X6642Y46055
X6642Y45055
X6642Y44055
X7642Y44055
X7642Y45055
X7642Y43055
X6642Y43055
X6642Y42055
X6642Y41055
X7642Y41055
X7642Y42055
X7642Y40055
X6642Y40055
X6642Y39055
X6642Y38055
X7642Y38055
X7642Y39055
X11642Y38055
X12642Y38055
X12642Y37055
X11642Y37055
X11642Y36055
X12642Y36055
X12142Y24755
X12142Y23705
X12142Y22755
X3842Y21705
X3842Y20705
X3842Y19705
X32142Y31755
X38192Y31755
X38192Y32755
X38192Y33755
X38192Y34755
X38192Y35755
X38192Y30755
X38192Y29755
X38192Y28755
X38192Y27755
X38192Y26755
X38192Y25755
X38192Y24755
X38192Y23755
X38242Y22755
X38242Y21755
X38242Y20755
X38192Y19805
X35042Y19055
X34142Y19055
X48092Y14055
X62942Y10505
X52242Y31777
X52342Y32977
X52342Y33977
X52342Y34977
X48192Y34755
X48192Y35755
X48192Y33755
X54779Y41597
X57042Y53555
X54779Y55171
X51292Y53855
X41992Y52905
X41942Y52055
X39031Y55171
X38192Y51730
X39031Y41597
X25642Y60055
X25642Y61055
X25642Y62055
X25642Y63055
X24642Y63055
X23642Y63055
T06
X3592Y34044
X3592Y32666
T07
X8538Y7605
X8302Y5676
X14483Y5676
X14247Y7605
X19038Y7605
X18802Y5676
X24747Y7605
X24983Y5676
X30302Y5676
X30538Y7605
X36247Y7605
X36483Y5676
X39802Y5676
X40038Y7605
X45747Y7605
X45983Y5676
T08
X58742Y64074
X56892Y65255
X58742Y66436
T09
X5248Y13555
X2492Y13555
T10
X29500Y64508
X33500Y64508
T11
X37441Y39547
X54764Y39547
T12
X61942Y65455
X61942Y7355
X3792Y7355
X3842Y65455
T13
X37441Y66673
X54764Y66673
M30
