%
M48
M72
T01C0.0150
T02C0.0236
T03C0.0360
T04C0.0394
T05C0.0400
T06C0.0472
T07C0.0512
T08C0.0551
T09C0.0669
T10C0.0866
T11C0.0984
T12C0.1250
T13C0.1378
%
T01
X6382Y4810
X7342Y6200
X7342Y7050
X8642Y7650
X9342Y7650
X10042Y7650
X10742Y7650
X11442Y7650
X12142Y7650
X12842Y7650
X13542Y7650
X14767Y9325
X16367Y8100
X18317Y8075
X18292Y6050
X18292Y4700
X18692Y4500
X19792Y5250
X20442Y4900
X21092Y5200
X21492Y4900
X21792Y5300
X22242Y6050
X24092Y5300
X24342Y6050
X24792Y4900
X25292Y4400
X25492Y3700
X26467Y5175
X26342Y6050
X28342Y6050
X28242Y5225
X27592Y4400
X27092Y3850
X27042Y2300
X29092Y2300
X30142Y4600
X30442Y6050
X31892Y4900
X32692Y6300
X33792Y6260
X35122Y6180
X36192Y6500
X36532Y6820
X36642Y6200
X37242Y5150
X38742Y6000
X39427Y5515
X40142Y6100
X40542Y5700
X41042Y6500
X41342Y7100
X41142Y7600
X40642Y7900
X40642Y7275
X39004Y8138
X37842Y7600
X36542Y7600
X36342Y8550
X35542Y8400
X35892Y9350
X35092Y10100
X34442Y10350
X36842Y11200
X37992Y10500
X38692Y10400
X38592Y11100
X38392Y12800
X38792Y13150
X38392Y13500
X37792Y13800
X37792Y12650
X40192Y12700
X41042Y14175
X40642Y17600
X41542Y19000
X36342Y15200
X35992Y16750
X35942Y17750
X35792Y18750
X35692Y19750
X35542Y20750
X35342Y21750
X35192Y22750
X35092Y23750
X34442Y25250
X33332Y24260
X32817Y24100
X32142Y22650
X31092Y22250
X29992Y23450
X30342Y25050
X31342Y26300
X32192Y26850
X30092Y26750
X27142Y27550
X26442Y27200
X26892Y25950
X25692Y25600
X25142Y26350
X24817Y24900
X24042Y24900
X22542Y23850
X22542Y23400
X22542Y22950
X22542Y22500
X21942Y21200
X23452Y20390
X24042Y19300
X22542Y18300
X22042Y19200
X21342Y19300
X18932Y21340
X18692Y22550
X18242Y23150
X17373Y22580
X16742Y23150
X15792Y22550
X15242Y23150
X14323Y22530
X13792Y23150
X14717Y24500
X15217Y24975
X15257Y25660
X14842Y26200
X13757Y25660
X13592Y24975
X12042Y25400
X10942Y24000
X11142Y23650
X11392Y23350
X11692Y23050
X9592Y24975
X9742Y25600
X8417Y26050
X7542Y26300
X6892Y26025
X6092Y26150
X5407Y26115
X4592Y26150
X3892Y26025
X4992Y24975
X4392Y24450
X5042Y23100
X5542Y22600
X6492Y23100
X7042Y22600
X7992Y23100
X8542Y22600
X7592Y21200
X6192Y21150
X4792Y21100
X4123Y22580
X3542Y23000
X6067Y24350
X6492Y24975
X7542Y24350
X7992Y24975
X8992Y24350
X8792Y27300
X9542Y20800
X6592Y18750
X6192Y18250
X6942Y17900
X8242Y17900
X9307Y16190
X8692Y15050
X8242Y13700
X7042Y15000
X5429Y14713
X3882Y14110
X8642Y11150
X9342Y11150
X10042Y11150
X10742Y11150
X11442Y11150
X12142Y11150
X12842Y11150
X13542Y11150
X15042Y12350
X15642Y11775
X16520Y12278
X17667Y11775
X18567Y12500
X19042Y12350
X19653Y11775
X20567Y12550
X20692Y13250
X21592Y14450
X22242Y15000
X23492Y14600
X24342Y14950
X24567Y12575
X24942Y12350
X25653Y11775
X26567Y12575
X27042Y12350
X27667Y11775
X28592Y12575
X29042Y12350
X29717Y11775
X30592Y12562
X30617Y10500
X28567Y10525
X26542Y10525
X24542Y10525
X23667Y11775
X22567Y12575
X21642Y11775
X22492Y10500
X20492Y10500
X18492Y10475
X16492Y10475
X16742Y13350
X16792Y13900
X17092Y14500
X16342Y15700
X15679Y14887
X14392Y16200
X13592Y15900
X13167Y16225
X14392Y17300
X15042Y17900
X16542Y17750
X16342Y16800
X16592Y18750
X17142Y18750
X17532Y21340
X16132Y21390
X14732Y21390
X16142Y24550
X16767Y24975
X16767Y25650
X16342Y26150
X16092Y27050
X17842Y26200
X18267Y25700
X18217Y24975
X17642Y24550
X19142Y24550
X19717Y24975
X19392Y26150
X21402Y25410
X21992Y26100
X24042Y27550
X24492Y27950
X25192Y28450
X24698Y28894
X25677Y29900
X26842Y29100
X27442Y29150
X27142Y28350
X24192Y30400
X23492Y29750
X23992Y22600
X24942Y22300
X25242Y21550
X27142Y21700
X27142Y20950
X27342Y22550
X28942Y20650
X29642Y20300
X29592Y19200
X28942Y19100
X30717Y18725
X32442Y18300
X30742Y15000
X29942Y15150
X28042Y16050
X28117Y16900
X19392Y16050
X18692Y15350
X18792Y14400
X20342Y8100
X22292Y8090
X24417Y8125
X26392Y8050
X28492Y8100
X31842Y8700
X32542Y8200
X31963Y3270
X32312Y2110
X32792Y2060
X32342Y1400
X33294Y3252
X33884Y3292
X34475Y3333
X35065Y3373
X41463Y3245
X41752Y2460
X42232Y2060
X42794Y3348
X43384Y3333
X43975Y3342
X44565Y3327
X44742Y5400
X44892Y6150
X44292Y6350
X44492Y7500
X43842Y7450
X43392Y8000
X44092Y8200
X43592Y9200
X41092Y9650
X37692Y9350
X42192Y4750
X48142Y6000
X48042Y7200
X49942Y6600
X49742Y6100
X50942Y5300
X50642Y4800
X51442Y5700
X51142Y6100
X52142Y5500
X52342Y4900
X52542Y4300
X52842Y3800
X53042Y3100
X53692Y3050
X54642Y2100
X55142Y1600
X55542Y1400
X55942Y1500
X56342Y1600
X56342Y3100
X56042Y3600
X55842Y4200
X55542Y4700
X55342Y5300
X56992Y3100
X57942Y2000
X58342Y1325
X58842Y1300
X59142Y1600
X59542Y1600
X59542Y3200
X60092Y3175
X59342Y3800
X59042Y4300
X59642Y5700
X59242Y6100
X53042Y1600
X52642Y1500
X52242Y1300
X51942Y1600
X51442Y2100
X50861Y2663
X49842Y3200
X49742Y1600
X49442Y1300
X48942Y1400
X48642Y1700
X49042Y4800
X48142Y14100
X48142Y16700
X48142Y19400
X48142Y24000
X48042Y27000
X46442Y28550
X51592Y29472
X52492Y33747
X50067Y34375
X49492Y33350
X49042Y33700
X46442Y34600
X46592Y35450
X46092Y36675
X46742Y38050
X48142Y39500
X49892Y37000
X49892Y36450
X51042Y36000
X54542Y38900
X56542Y41300
X56342Y41700
X56942Y41100
X56942Y40700
X57042Y40300
X57342Y39900
X58742Y39500
X59342Y39600
X59442Y39200
X59842Y39700
X59942Y38700
X60042Y38300
X61242Y38600
X62342Y38600
X62642Y39000
X62942Y39400
X62042Y37800
X61742Y37400
X56442Y42800
X56042Y44000
X56142Y44400
X55742Y44600
X55867Y45125
X56242Y45400
X55742Y45800
X54542Y45700
X54142Y45800
X53342Y46100
X53642Y46800
X53342Y47100
X53342Y48000
X53942Y49000
X52092Y49450
X52142Y48300
X52142Y47700
X51842Y47300
X52142Y46400
X53842Y44800
X54042Y43900
X53942Y43500
X53942Y43100
X53942Y42700
X53942Y42200
X53942Y41700
X58842Y45800
X58742Y46400
X58642Y46800
X58342Y47100
X58142Y47500
X57942Y47900
X57542Y48100
X56267Y50525
X53942Y52000
X53492Y50700
X51742Y51900
X50642Y50800
X48042Y48000
X48042Y45700
X48042Y43400
X43142Y38050
X42942Y37700
X42542Y37250
X42392Y36800
X42192Y36450
X42142Y36050
X42342Y35650
X41992Y35250
X42692Y34800
X42942Y33650
X45692Y34050
X41242Y37275
X41217Y39475
X41292Y39925
X38026Y41817
X37592Y41700
X37942Y42350
X37542Y42650
X38042Y43250
X38342Y42950
X37692Y43550
X38042Y43900
X37692Y44550
X37576Y45166
X35992Y44200
X36392Y41350
X37642Y38552
X33217Y36025
X38842Y29350
X38842Y28900
X38842Y27700
X39792Y28400
X41192Y25250
X41342Y24250
X20242Y6050
X21292Y2950
X21842Y2700
X22192Y2250
X22742Y2950
X20992Y2100
X20642Y2500
X20292Y2100
X16392Y3550
X16792Y4500
X16292Y6050
X14642Y5200
X13742Y4300
X13065Y3123
X12475Y3133
X11884Y3158
X11294Y3148
X10792Y2400
X10292Y2750
X9392Y2600
X9292Y3250
X7932Y4250
X2342Y6950
X10892Y14225
X11492Y14225
X16292Y2500
X15142Y1400
X38192Y47000
X37542Y48625
X38867Y48625
X38942Y50525
X41892Y50550
X43942Y51450
X44742Y50850
X44942Y50100
X44242Y49850
X43742Y49200
X34642Y56600
X53742Y53900
X55742Y53350
X57742Y53800
X58242Y54200
X58742Y54200
X59142Y53800
X58742Y53400
X58242Y53400
X59042Y51900
T02
X47342Y31750
X51642Y23200
X51642Y19900
X61442Y14300
X61611Y11218
X61542Y7300
X61542Y6700
X58367Y6825
X58367Y7400
X55267Y7650
X55067Y6975
X52417Y6850
X52042Y6400
X41342Y4800
X31042Y17500
X34542Y18400
T03
X29892Y9600
X29892Y8600
X29892Y7600
X27792Y7600
X27792Y8600
X27792Y9600
X25792Y9600
X25792Y8600
X25792Y7600
X23792Y7600
X23792Y8600
X23792Y9600
X21792Y9600
X21792Y8600
X21792Y7600
X19792Y7600
X19792Y8600
X19792Y9600
X17792Y9600
X17792Y8600
X17792Y7600
X15792Y7600
X15792Y8600
X15792Y9600
X62432Y10193
X62432Y11193
X62432Y12193
X23042Y61600
X22042Y61600
X22042Y62600
X23042Y62600
X21042Y62600
X20042Y62600
X20042Y61600
X21042Y61600
X19042Y61600
X19042Y62600
T04
X30500Y58503
X31500Y58503
T05
X29642Y54050
X29642Y53050
X29642Y52050
X29642Y51050
X29642Y50050
X29642Y49050
X29642Y48050
X29642Y47050
X29642Y46050
X29642Y45050
X29642Y44050
X29642Y43050
X29642Y42050
X29642Y41050
X29642Y40050
X29642Y39050
X29642Y38050
X29642Y37050
X29642Y36050
X29642Y35050
X29642Y34050
X29642Y33050
X29642Y32050
X25642Y32050
X25642Y33050
X24642Y33050
X23642Y33050
X23642Y32050
X24642Y32050
X22642Y32050
X21642Y32050
X20642Y32050
X20642Y33050
X21642Y33050
X22642Y33050
X22642Y34050
X21642Y34050
X20642Y34050
X20642Y35050
X21642Y35050
X22642Y35050
X22642Y36050
X21642Y36050
X20642Y36050
X20642Y37050
X21642Y37050
X22642Y37050
X22642Y38050
X21642Y38050
X20642Y38050
X20642Y39050
X20642Y40050
X21642Y40050
X21642Y39050
X22642Y39050
X22642Y40050
X22642Y41050
X21642Y41050
X20642Y41050
X20642Y42050
X21642Y42050
X22642Y42050
X22642Y43050
X21642Y43050
X20642Y43050
X20642Y44050
X21642Y44050
X22642Y44050
X22642Y45050
X21642Y45050
X20642Y45050
X20642Y46050
X21642Y46050
X22642Y46050
X22642Y47050
X21642Y47050
X20642Y47050
X20642Y48050
X20642Y49050
X21642Y49050
X21642Y48050
X22642Y48050
X22642Y49050
X22642Y50050
X21642Y50050
X20642Y50050
X20642Y51050
X21642Y51050
X22642Y51050
X22642Y52050
X21642Y52050
X20642Y52050
X20642Y53050
X21642Y53050
X22642Y53050
X22642Y54050
X21642Y54050
X20642Y54050
X20642Y55050
X21642Y55050
X22642Y55050
X22642Y56050
X21642Y56050
X20642Y56050
X20642Y57050
X20642Y58050
X21642Y58050
X21642Y57050
X22642Y57050
X22642Y58050
X22642Y59050
X21642Y59050
X20642Y59050
X19642Y59050
X18642Y59050
X17642Y59050
X16642Y59050
X15642Y59050
X14642Y59050
X13642Y59050
X12642Y59050
X11642Y59050
X10642Y59050
X9642Y59050
X8642Y59050
X7642Y59050
X6642Y59050
X5642Y59050
X4642Y59050
X3642Y59050
X3642Y58050
X3642Y57050
X3642Y56050
X4642Y56050
X4642Y57050
X4642Y58050
X5642Y58050
X5642Y57050
X5642Y56050
X5642Y55050
X4642Y55050
X3642Y55050
X3642Y54050
X4642Y54050
X5642Y54050
X5642Y53050
X4642Y53050
X3642Y53050
X3642Y52050
X4642Y52050
X5642Y52050
X5642Y51050
X4642Y51050
X3642Y51050
X3642Y50050
X4642Y50050
X5642Y50050
X5642Y49050
X4642Y49050
X3642Y49050
X3642Y48050
X3642Y47050
X4642Y47050
X4642Y48050
X5642Y48050
X5642Y47050
X5642Y46050
X4642Y46050
X3642Y46050
X3642Y45050
X4642Y45050
X5642Y45050
X5642Y44050
X4642Y44050
X3642Y44050
X3642Y43050
X4642Y43050
X5642Y43050
X5642Y42050
X4642Y42050
X3642Y42050
X3642Y41050
X4642Y41050
X5642Y41050
X5642Y40050
X4642Y40050
X3642Y40050
X3642Y39050
X3642Y38050
X4642Y38050
X4642Y39050
X5642Y39050
X5642Y38050
X5642Y37050
X4642Y37050
X3642Y37050
X3642Y36050
X4642Y36050
X5642Y36050
X5642Y35050
X4642Y35050
X3642Y35050
X3642Y34050
X4642Y34050
X5642Y34050
X5642Y33050
X4642Y33050
X3642Y33050
X3642Y32050
X4642Y32050
X5642Y32050
X6642Y32050
X6642Y33050
X7642Y33050
X7642Y32050
X8642Y32050
X8642Y33050
X9642Y33050
X9642Y32050
X10642Y32050
X10642Y33050
X10642Y34050
X9642Y34050
X8642Y34050
X8642Y35050
X9642Y35050
X10642Y35050
X10642Y36050
X9642Y36050
X8642Y36050
X8642Y37050
X9642Y37050
X10642Y37050
X10642Y38050
X9642Y38050
X8642Y38050
X8642Y39050
X8642Y40050
X9642Y40050
X9642Y39050
X10642Y39050
X10642Y40050
X10642Y41050
X9642Y41050
X8642Y41050
X8642Y42050
X9642Y42050
X10642Y42050
X10642Y43050
X9642Y43050
X8642Y43050
X8642Y44050
X9642Y44050
X10642Y44050
X10642Y45050
X9642Y45050
X8642Y45050
X8642Y46050
X9642Y46050
X10642Y46050
X10642Y47050
X9642Y47050
X8642Y47050
X8642Y48050
X8642Y49050
X9642Y49050
X9642Y48050
X10642Y48050
X10642Y49050
X10642Y50050
X9642Y50050
X8642Y50050
X8642Y51050
X9642Y51050
X10642Y51050
X10642Y52050
X9642Y52050
X8642Y52050
X8642Y53050
X9642Y53050
X10642Y53050
X10642Y54050
X9642Y54050
X8642Y54050
X8642Y55050
X9642Y55050
X10642Y55050
X10642Y56050
X9642Y56050
X8642Y56050
X8642Y57050
X8642Y58050
X9642Y58050
X9642Y57050
X10642Y57050
X10642Y58050
X11642Y58050
X11642Y57050
X11642Y56050
X12642Y56050
X12642Y57050
X12642Y58050
X13642Y58050
X13642Y57050
X13642Y56050
X14642Y56050
X14642Y57050
X14642Y58050
X15642Y58050
X15642Y57050
X15642Y56050
X16642Y56050
X16642Y57050
X16642Y58050
X17642Y58050
X17642Y57050
X17642Y56050
X17642Y55050
X16642Y55050
X15642Y55050
X15642Y54050
X16642Y54050
X17642Y54050
X17642Y53050
X16642Y53050
X15642Y53050
X15642Y52050
X16642Y52050
X17642Y52050
X17642Y51050
X16642Y51050
X15642Y51050
X15642Y50050
X16642Y50050
X17642Y50050
X17642Y49050
X16642Y49050
X15642Y49050
X15642Y48050
X15642Y47050
X16642Y47050
X16642Y48050
X17642Y48050
X17642Y47050
X17642Y46050
X16642Y46050
X15642Y46050
X15642Y45050
X16642Y45050
X17642Y45050
X17642Y44050
X16642Y44050
X15642Y44050
X15642Y43050
X16642Y43050
X17642Y43050
X17642Y42050
X16642Y42050
X15642Y42050
X15642Y41050
X16642Y41050
X17642Y41050
X17642Y40050
X16642Y40050
X15642Y40050
X15642Y39050
X15642Y38050
X16642Y38050
X16642Y39050
X17642Y39050
X17642Y38050
X17642Y37050
X16642Y37050
X15642Y37050
X15642Y36050
X16642Y36050
X17642Y36050
X17642Y35050
X16642Y35050
X15642Y35050
X15642Y34050
X16642Y34050
X17642Y34050
X17642Y33050
X16642Y33050
X15642Y33050
X15642Y32050
X16642Y32050
X17642Y32050
X18642Y32050
X18642Y33050
X19642Y33050
X19642Y32050
X19642Y34050
X18642Y34050
X18642Y35050
X19642Y35050
X19642Y36050
X18642Y36050
X18642Y37050
X19642Y37050
X19642Y38050
X18642Y38050
X18642Y39050
X18642Y40050
X19642Y40050
X19642Y39050
X19642Y41050
X18642Y41050
X18642Y42050
X19642Y42050
X19642Y43050
X18642Y43050
X18642Y44050
X19642Y44050
X19642Y45050
X18642Y45050
X18642Y46050
X19642Y46050
X19642Y47050
X18642Y47050
X18642Y48050
X18642Y49050
X19642Y49050
X19642Y48050
X19642Y50050
X18642Y50050
X18642Y51050
X19642Y51050
X19642Y52050
X18642Y52050
X18642Y53050
X19642Y53050
X19642Y54050
X18642Y54050
X18642Y55050
X19642Y55050
X19642Y56050
X18642Y56050
X18642Y57050
X18642Y58050
X19642Y58050
X19642Y57050
X23642Y57050
X23642Y56050
X24642Y56050
X24642Y57050
X24642Y58050
X23642Y58050
X23642Y59050
X24642Y59050
X25642Y59050
X25642Y58050
X25642Y57050
X25642Y56050
X25642Y55050
X25642Y54050
X24642Y54050
X23642Y54050
X23642Y55050
X24642Y55050
X24642Y53050
X23642Y53050
X23642Y52050
X24642Y52050
X24642Y51050
X23642Y51050
X23642Y50050
X24642Y50050
X24642Y49050
X23642Y49050
X23642Y48050
X23642Y47050
X24642Y47050
X24642Y48050
X25642Y48050
X25642Y47050
X25642Y46050
X25642Y45050
X24642Y45050
X23642Y45050
X23642Y46050
X24642Y46050
X24642Y44050
X23642Y44050
X23642Y43050
X24642Y43050
X24642Y42050
X23642Y42050
X23642Y41050
X24642Y41050
X24642Y40050
X23642Y40050
X23642Y39050
X23642Y38050
X24642Y38050
X24642Y39050
X25642Y39050
X25642Y38050
X25642Y37050
X25642Y36050
X24642Y36050
X23642Y36050
X23642Y37050
X24642Y37050
X24642Y35050
X23642Y35050
X23642Y34050
X24642Y34050
X25642Y34050
X25642Y35050
X22542Y30650
X22542Y29650
X22542Y28650
X22542Y27650
X14642Y32050
X13642Y32050
X13642Y33050
X14642Y33050
X14642Y34050
X13642Y34050
X13642Y35050
X14642Y35050
X14642Y36050
X13642Y36050
X13642Y37050
X14642Y37050
X14642Y38050
X13642Y38050
X13642Y39050
X13642Y40050
X14642Y40050
X14642Y39050
X12642Y39050
X11642Y39050
X11642Y38050
X12642Y38050
X12642Y37050
X11642Y37050
X11642Y36050
X12642Y36050
X12642Y35050
X11642Y35050
X11642Y34050
X12642Y34050
X12642Y33050
X11642Y33050
X11642Y32050
X12642Y32050
X7642Y34050
X6642Y34050
X6642Y35050
X7642Y35050
X7642Y36050
X6642Y36050
X6642Y37050
X7642Y37050
X7642Y38050
X6642Y38050
X6642Y39050
X6642Y40050
X7642Y40050
X7642Y39050
X7642Y41050
X6642Y41050
X6642Y42050
X7642Y42050
X7642Y43050
X6642Y43050
X6642Y44050
X7642Y44050
X7642Y45050
X6642Y45050
X6642Y46050
X7642Y46050
X7642Y47050
X6642Y47050
X6642Y48050
X6642Y49050
X7642Y49050
X7642Y48050
X7642Y50050
X6642Y50050
X6642Y51050
X7642Y51050
X7642Y52050
X6642Y52050
X6642Y53050
X7642Y53050
X7642Y54050
X6642Y54050
X6642Y55050
X7642Y55050
X7642Y56050
X6642Y56050
X6642Y57050
X6642Y58050
X7642Y58050
X7642Y57050
X11642Y55050
X11642Y54050
X12642Y54050
X12642Y55050
X13642Y55050
X13642Y54050
X14642Y54050
X14642Y55050
X14642Y53050
X13642Y53050
X13642Y52050
X14642Y52050
X14642Y51050
X13642Y51050
X13642Y50050
X14642Y50050
X14642Y49050
X13642Y49050
X13642Y48050
X13642Y47050
X14642Y47050
X14642Y48050
X12642Y48050
X11642Y48050
X11642Y47050
X12642Y47050
X12642Y46050
X11642Y46050
X11642Y45050
X12642Y45050
X12642Y44050
X11642Y44050
X11642Y43050
X12642Y43050
X12642Y42050
X11642Y42050
X11642Y41050
X12642Y41050
X12642Y40050
X11642Y40050
X13642Y41050
X13642Y42050
X14642Y42050
X14642Y41050
X14642Y43050
X13642Y43050
X13642Y44050
X14642Y44050
X14642Y45050
X13642Y45050
X13642Y46050
X14642Y46050
X12642Y49050
X11642Y49050
X11642Y50050
X11642Y51050
X12642Y51050
X12642Y50050
X12642Y52050
X11642Y52050
X11642Y53050
X12642Y53050
X25642Y53050
X25642Y52050
X25642Y51050
X25642Y50050
X25642Y49050
X25642Y44050
X25642Y43050
X25642Y42050
X25642Y41050
X25642Y40050
X32142Y27750
X38192Y27750
X38192Y28750
X38192Y29750
X38192Y30750
X38192Y31750
X38192Y26750
X38192Y25750
X38192Y24750
X38192Y23750
X38192Y22750
X38192Y21750
X38192Y20750
X38192Y19750
X38242Y18750
X38242Y17750
X38242Y16750
X38192Y15800
X35042Y15050
X34142Y15050
X48092Y10050
X62942Y6500
X52242Y27772
X52342Y28972
X52342Y29972
X52342Y30972
X48192Y30750
X48192Y29750
X48192Y31750
X54779Y37592
X57042Y49550
X54779Y51166
X51292Y49850
X41992Y48900
X41942Y48050
X39031Y51166
X38192Y47725
X39031Y37592
X12142Y20750
X12142Y19700
X12142Y18750
X3842Y17700
X3842Y16700
X3842Y15700
T06
X3592Y28661
X3592Y30039
T07
X8538Y3600
X8302Y1671
X14483Y1671
X14247Y3600
X19038Y3600
X18802Y1671
X24747Y3600
X24983Y1671
X30302Y1671
X30538Y3600
X36247Y3600
X36483Y1671
X39802Y1671
X40038Y3600
X45747Y3600
X45983Y1671
T08
X58742Y60069
X56892Y61250
X58742Y62431
T09
X5248Y9550
X2492Y9550
T10
X29500Y60503
X33500Y60503
T11
X37441Y35543
X54764Y35543
T12
X3792Y3350
X61942Y3350
X61942Y61450
X3842Y61450
T13
X37441Y62669
X54764Y62669
M30
